<?xml version="1.0" encoding="utf-8"?>
<!-- Generator: Adobe Illustrator 24.0.3, SVG Export Plug-In . SVG Version: 6.00 Build 0)  -->
<svg version="1.1" id="Pattern_Layer_2_1_" xmlns="http://www.w3.org/2000/svg" xmlns:xlink="http://www.w3.org/1999/xlink" x="0px"
	 y="0px" viewBox="0 0 7000 7000" style="enable-background:new 0 0 7000 7000;" xml:space="preserve" width="100%" height="100%" preserveAspectRatio="xMinYMax meet">
<style type="text/css">
	.st0{fill:#ffffff;}
</style>
<g>
	<path class="st0" d="M213.8,2198.2L0,2116.1v47l239,91.8C247.7,2232.2,236.4,2206.8,213.8,2198.2z"/>
	<polygon class="st0" points="42.2,2411.5 233.5,2269.2 0,2179.5 0,2521.6 42.2,2411.5 	"/>
</g>
<g>
	<path class="st0" d="M6175.4,1799.5c-22.6-8.7-48,2.6-56.6,25.2L7000,2163v-47L6175.4,1799.5z"/>
	<path class="st0" d="M6808.6,2106l-55.4,43.2l-202.8-77.8l-12.2-69.2l-424.9-163.1l46.9,233.8l-180.9,471.2
		c-12.5,32.6,3.8,69.1,36.3,81.6l764.2,293.3c32.6,12.5,69.1-3.8,81.6-36.3l138.6-361.2v-342L6808.6,2106z M6819.1,2857.5
		c-5.9,15.4-23.2,23.1-38.7,17.2l-735.7-282.4c-15.4-5.9-23.1-23.2-17.2-38.7l150.4-391.8c5.9-15.4,23.2-23.1,38.7-17.2l735.7,282.4
		c15.4,5.9,23.1,23.2,17.2,38.7L6819.1,2857.5z"/>
</g>
<g>
	<path class="st0" d="M2020.1,5987.7c13.6-20.1,40.8-25.4,60.9-11.8l923.4,622.8c20.1,13.6,25.4,40.8,11.8,60.9l0,0L2020.1,5987.7
		L2020.1,5987.7z"/>
	<path class="st0" d="M2789,6768.2l218.7-95.8l-377.9-254.9l-63.8,29.7l-180.3-121.6l3.7-70.2l-377.9-254.9l-6.9,238.7l-282.6,419
		c-19.5,29-11.9,68.3,17.1,87.8l376.6,254h74.5L1775,6719.9c-13.7-9.3-17.3-27.9-8.1-41.6l235-348.4c9.3-13.7,27.9-17.3,41.6-8.1
		l654.2,441.3c13.7,9.3,17.3,27.9,8.1,41.6L2574.1,7000h58.6L2789,6768.2L2789,6768.2z"/>
</g>
<g>
	<path class="st0" d="M2506.4,187.2L2632.7,0h-58.6l-103.3,153.1c-9.3,13.7-27.9,17.3-41.6,8.1L2190.2,0h-74.5l302.9,204.3
		C2447.5,223.8,2486.8,216.2,2506.4,187.2z"/>
</g>
<g>
	<path class="st0" d="M4840,3854.5c-27.3,21.8-67,17.3-88.8-9.9L3750.8,2592.3c-21.8-27.3-17.3-67,9.9-88.8l0,0L4840,3854.5
		L4840,3854.5z"/>
	<path class="st0" d="M4483.2,3233.3l-195.4-244.6l-100.3,13.4l-409.4-512.5l341.5-37.6l0,0l568.3-454c39.3-31.4,96.6-25,127.9,14.3
		L5552,2934c31.4,39.3,25,96.6-14.3,127.9l-568.3,454l-112.1,324.8L4448,3328.2L4483.2,3233.3z M5012.1,3392.4l472.5-377.5
		c18.6-14.9,21.6-42,6.8-60.6L4782.7,2067c-14.9-18.6-42-21.6-60.6-6.8l-472.5,377.5c-18.6,14.9-21.6,42-6.8,60.6l708.8,887.2
		C4966.4,3404.2,4993.5,3407.2,5012.1,3392.4z"/>
</g>
<g>
	<path class="st0" d="M3186.7,5817.4c-24.2,18.2-58.6,13.3-76.8-11l-835.4-1113.3c-18.2-24.2-13.3-58.6,11-76.8l0,0L3186.7,5817.4
		L3186.7,5817.4z"/>
	<path class="st0" d="M2893.3,5268.8l-163.2-217.4l-87.4,9l-341.9-455.6l297.4-23.6l0,0l505.2-379.1c34.9-26.2,84.5-19.1,110.7,15.8
		l614.8,819.2c26.2,34.9,19.1,84.5-15.8,110.7l-505.2,379.1l-105.8,279l-341.9-455.6L2893.3,5268.8z M3348.2,5420.7l420.1-315.2
		c16.5-12.4,19.9-35.9,7.5-52.4l-591.9-788.7c-12.4-16.5-35.9-19.9-52.4-7.5l-420.1,315.2c-16.5,12.4-19.9,35.9-7.5,52.4
		l591.9,788.7C3308.2,5429.8,3331.7,5433.2,3348.2,5420.7z"/>
</g>
<g>
	<path class="st0" d="M4288.5,5474.8c-10.4,37.4,11.5,76.1,48.9,86.5l1717.7,476.8c37.4,10.4,76.1-11.5,86.5-48.9l0,0L4288.5,5474.8
		L4288.5,5474.8z"/>
	<path class="st0" d="M5079.7,5568.7l335.5,93.1l30.1,108.5l702.9,195.1l-110.6-365.8h0l216.4-779.5c15-53.9-16.6-109.7-70.5-124.6
		l-1264.1-350.9c-53.9-15-109.7,16.6-124.6,70.5l-216.4,779.5L4295.1,5451l702.9,195.1L5079.7,5568.7z M4686.1,5097l179.9-648.2
		c7.1-25.5,33.5-40.5,59-33.4l1217,337.8c25.5,7.1,40.5,33.5,33.4,59l-179.9,648.2c-7.1,25.5-33.5,40.5-59,33.4l-1217-337.8
		C4694,5149,4679,5122.5,4686.1,5097z"/>
</g>
<g>
	<polygon class="st0" points="355.9,0 0,309.4 0,385.4 443.4,0 	"/>
	<polygon class="st0" points="211.9,98.5 325.2,0 0,0 0,178.2 124.4,70.1 	"/>
</g>
<g>
	<path class="st0" d="M6489.1,753.5c20.8,23.9,57.1,26.5,81,5.7L7000,385.4v-76.1L6489.1,753.5z"/>
	<path class="st0" d="M6829.9,0l-363.7,316.1c-16.3,14.2-41.1,12.5-55.3-3.9L6139.5,0h-84.1l373.5,429.6v0l47,308.6l449.8-391
		l-15.9-90.6l90.3-78.5V0H6829.9z"/>
</g>
<g>
	<path class="st0" d="M674.9,6722.7l-319,277.3h87.5l225.9-196.3C693.2,6782.9,695.7,6746.6,674.9,6722.7z"/>
	<path class="st0" d="M362.6,6618L0,6200.9v96.8l248.8,286.3c14.2,16.3,12.5,41.1-3.9,55.3l-245,213V7000h325.2l336.5-292.5
		L362.6,6618z"/>
</g>
<g>
	<polygon class="st0" points="7000,7000 7000,6852.1 6829.9,7000 	"/>
	<path class="st0" d="M6050.4,6897.5c-14.2-16.3-12.5-41.1,3.9-55.3l778.7-676.9c16.3-14.2,41.1-12.5,55.3,3.9l111.7,128.5v-96.8
		l-71-81.7c-30-34.5-82.2-38.1-116.7-8.2l-808.9,703.1c-34.5,30-38.1,82.2-8.2,116.7l60.1,69.1h84.1L6050.4,6897.5z"/>
</g>
<g>
	<path class="st0" d="M4501.9,6805.7l99,194.3h60.8l-86.9-170.6C4561.2,6802.8,4528.6,6792.2,4501.9,6805.7z"/>
	<polygon class="st0" points="4375,7000 4579.6,7000 4485,6814.4 	"/>
</g>
<g>
	<path class="st0" d="M5198.2,1053.1L4661.7,0h-60.8l573.7,1125.9C5201.2,1112.3,5211.8,1079.7,5198.2,1053.1z"/>
	<path class="st0" d="M4334.9,67.6l-555.3,282.9c-38.4,19.6-53.6,66.5-34.1,104.9l458.8,900.5c19.6,38.4,66.5,53.6,104.9,34.1
		l555.3-282.9l293.1,27.4l-255.1-500.7l-86.5-6.1l-121.8-239l45.9-73.6L4579.6,0H4375L4334.9,67.6L4334.9,67.6z M4769.2,1047
		c9.3,18.2,2,40.4-16.1,49.7L4291.3,1332c-18.2,9.3-40.4,2-49.7-16.1l-441.7-866.9c-9.3-18.2-2-40.4,16.1-49.7l461.7-235.3
		c18.2-9.3,40.4-2,49.7,16.1L4769.2,1047z"/>
</g>
<g>
	<path class="st0" d="M1464.2,3570.6c1,34.1,29.5,60.9,63.6,59.8l1565.3-47.6c34.1-1,60.9-29.5,59.8-63.6l0,0L1464.2,3570.6
		L1464.2,3570.6z"/>
	<path class="st0" d="M2152.5,3443.2l305.7-9.3l53.5,83.2l640.6-19.5l-188.1-278h0l-21.6-710.3c-1.5-49.1-42.5-87.7-91.6-86.2
		L1699,2458.1c-49.1,1.5-87.7,42.5-86.2,91.6l21.6,710.3l-170.9,289l640.6-19.5L2152.5,3443.2z M1699.4,3150.1l-18-590.7
		c-0.7-23.3,17.6-42.7,40.8-43.4l1109-33.8c23.3-0.7,42.7,17.6,43.4,40.8l18,590.7c0.7,23.3-17.6,42.7-40.8,43.4l-1109,33.8
		C1719.5,3191.6,1700.1,3173.3,1699.4,3150.1z"/>
</g>
<g>
	<path class="st0" d="M2666.3,1068.1c10-32.9-8.5-67.7-41.4-77.8l-1512.3-461c-32.9-10-67.7,8.5-77.8,41.4l0,0L2666.3,1068.1
		L2666.3,1068.1z"/>
	<path class="st0" d="M1966.9,967.2l-295.3-90l-24.3-96.8l-618.8-188.7l89.9,326.8h0l-209.2,686.2c-14.5,47.4,12.3,97.6,59.7,112.1
		L2081.7,2056c47.4,14.5,97.6-12.3,112.1-59.7L2403,1310l256.9-221L2041,900.4L1966.9,967.2z M2305.3,1394.2l-174,570.6
		c-6.9,22.5-30.6,35.1-53.1,28.3l-1071.4-326.6c-22.5-6.9-35.1-30.6-28.3-53.1l174-570.6c6.9-22.5,30.6-35.1,53.1-28.3L2277,1341.1
		C2299.5,1347.9,2312.1,1371.7,2305.3,1394.2z"/>
</g>
<g>
	<path class="st0" d="M920.6,5512.4L0,4712.1v77.1l838.6,729C862.8,5539.2,899.6,5536.6,920.6,5512.4z"/>
	<path class="st0" d="M277,4820.1l217.5,189l-16.1,91.8L934,5497l47.6-312.7h0l439.2-505.3c30.4-34.9,26.7-87.8-8.3-118.2
		l-819.4-712.3c-34.9-30.4-87.8-26.7-118.2,8.3L35.8,4362.1L0,4372.8v312.3l188.4,163.8L277,4820.1z M151,4327.6l365.2-420.2
		c14.4-16.5,39.5-18.3,56-3.9l788.9,685.8c16.5,14.4,18.3,39.5,3.9,56l-365.2,420.2c-14.4,16.5-39.5,18.3-56,3.9l-788.9-685.8
		C138.4,4369.2,136.6,4344.1,151,4327.6z"/>
</g>
<g>
	<path class="st0" d="M6719.4,4468.2c-21.1,24.2-18.5,61,5.7,82l274.9,239v-77.1L6719.4,4468.2z"/>
	<polygon class="st0" points="6732.8,4452.8 7000,4685.1 7000,4372.8 	"/>
</g>
</svg>
