<?xml version="1.0" encoding="utf-8"?>
<!-- Generator: Adobe Illustrator 24.0.0, SVG Export Plug-In . SVG Version: 6.00 Build 0)  -->
<svg version="1.1" id="dribbble-icon" class="icon dribbble" xmlns="http://www.w3.org/2000/svg" xmlns:xlink="http://www.w3.org/1999/xlink" x="0px" y="0px" viewBox="0 0 517.76 517.13" style="enable-background:new 0 0 517.76 517.13;" xml:space="preserve">
<g>
	<path d="M252.55,45.68c4.24,0,8.48,0,12.72,0c0.3,0.07,0.6,0.18,0.9,0.19c10.81,0.3,21.53,1.5,32.15,3.49
		c19.95,3.74,38.97,10.21,57.06,19.43c21.39,10.9,40.39,25.02,57.02,42.32c15.86,16.5,28.74,35.09,38.61,55.74
		c10.04,21.01,16.42,43.09,19.2,66.2c1.39,11.57,1.79,23.18,1.31,34.83c-0.57,13.74-2.4,27.3-5.68,40.65
		c-10.13,41.23-30.71,76.42-61.65,105.46c-23.14,21.72-49.89,37.42-80.11,47.16c-19.29,6.22-39.07,9.58-59.34,10.09
		c-0.3,0.01-0.6,0.13-0.89,0.19c-3.28,0-6.56,0-9.84,0c-0.3-0.07-0.6-0.17-0.9-0.19c-6.26-0.43-12.54-0.65-18.77-1.33
		c-15.3-1.68-30.23-5.1-44.77-10.15c-32.41-11.27-60.48-29.3-84.26-54.02c-15.56-16.17-28.22-34.37-38.01-54.57
		c-13.1-27.02-20.05-55.58-21.08-85.57c-0.49-14.14,0.45-28.2,2.78-42.16c3.59-21.51,10.31-41.99,20.22-61.42
		c11.21-21.96,25.78-41.42,43.75-58.31c26.78-25.17,57.97-42.36,93.58-51.49c14.45-3.7,29.14-5.79,44.05-6.34
		C251.23,45.88,251.89,45.76,252.55,45.68z M114.34,375.5c25.93-25.67,54.89-47.03,87.47-63.37
		c32.54-16.33,66.93-26.77,102.96-32.21c-2.15-20.51-6.27-40.44-12.41-60.03c-71.85,10.16-140.08-1.07-204.67-33.99
		C62.77,242.64,67.89,319.29,114.34,375.5z M306.36,306.88c-38.82,5.78-75.09,18.53-108.96,38.12
		c-23.83,13.78-45.32,30.55-64.67,50.16c0.42,0.39,0.71,0.67,1.01,0.94c19.92,18.12,42.68,31.34,68.3,39.62
		c17.7,5.71,35.86,8.64,54.45,8.7c6.43,0.02,12.86-0.46,19.29-0.65c0.93-0.03,1.42-0.3,1.79-1.18c2.62-6.22,5.43-12.35,7.92-18.62
		c10.45-26.39,16.85-53.76,19.59-81.99c1.09-11.23,1.47-22.49,1.36-33.77C306.42,307.8,306.39,307.41,306.36,306.88z M282.87,194.13
		c-0.15-0.36-0.22-0.54-0.29-0.72c-8.12-19.09-17.72-37.37-29.43-54.53C238.76,117.8,222,98.82,202.92,81.89
		c-0.33-0.29-1.03-0.43-1.45-0.3c-8.53,2.73-16.83,6.06-24.84,10.06c-25.78,12.88-47.57,30.64-65.11,53.52
		c-4.13,5.38-7.89,11.05-11.91,16.71C157.56,191.49,218.49,202.1,282.87,194.13z M233.92,74.2c33.46,33.19,58.72,71.49,76.04,115.09
		c35.29-8.01,68.06-21.74,98.55-41.34c-20.61-27.34-46.41-47.94-77.97-61.12C299.58,73.91,267.41,69.97,233.92,74.2z M442.43,289.2
		c6.4-41.74,0.17-81.23-19.54-118.62c-32.23,20.68-66.85,35.4-104.07,44.16c6.23,20.53,10.41,41.32,12.63,62.62
		C369.13,275.21,406.04,279.04,442.43,289.2z M308.93,437.64c58.72-15.48,109.21-63.84,127.11-122.38
		c-16.71-4.76-33.7-8.04-50.97-9.9c-17.27-1.86-34.57-2.22-52.12-1.23C334.39,350.39,326.2,394.77,308.93,437.64z"/>
</g>
</svg>
