<?xml version="1.0" encoding="utf-8"?>
<!-- Generator: Adobe Illustrator 24.0.0, SVG Export Plug-In . SVG Version: 6.00 Build 0)  -->
<svg version="1.1" id="email-icon" class="icon email" xmlns="http://www.w3.org/2000/svg" xmlns:xlink="http://www.w3.org/1999/xlink" x="0px" y="0px" viewBox="0 0 517.76 517.13" style="enable-background:new 0 0 517.76 517.13;" xml:space="preserve">
<path d="M39.32,300.56c0.32-0.4,0.79-0.75,0.92-1.21c1.03-3.58,3.29-6.12,6.46-7.99c12.81-7.55,25.6-15.12,38.4-22.69
	c44.92-26.58,89.83-53.16,134.75-79.74c45.81-27.1,91.63-54.21,137.45-81.29c33.03-19.52,66.08-39.01,99.11-58.52
	c2.35-1.39,4.72-2.68,7.41-3.3c0.44-0.1,0.84-0.41,1.25-0.63c0.64,0,1.28,0,1.92,0c0.42,0.18,0.82,0.45,1.25,0.54
	c5.45,1.07,9.85,5.63,10.18,12.6c0.03,0.64,0.01,1.28,0.01,1.92c0,122.07,0,244.14-0.01,366.21c0,1.2-0.08,2.39-0.15,3.59
	c-0.42,7.32-7.55,13.47-16.23,10.88c-7.81-2.33-15.6-4.73-23.39-7.12c-34.61-10.59-69.22-21.19-103.82-31.79
	c-0.6-0.19-1.23-0.31-1.96-0.49c-2.98,2.89-5.97,5.76-8.94,8.67c-9.66,9.45-19.31,18.91-28.97,28.37c-9.6,9.4-19.22,18.78-28.8,28.2
	c-2.32,2.28-4.96,3.98-7.97,5.14c-1.6,0-3.2,0-4.8,0c-0.1-0.12-0.17-0.31-0.29-0.34c-4.38-1.05-7.09-3.97-9.19-7.8
	c-19.27-35.19-38.6-70.34-57.88-105.52c-0.77-1.41-1.67-2.3-3.29-2.79c-34.23-10.42-68.45-20.9-102.67-31.37
	c-10.01-3.06-20.02-6.12-30.02-9.2c-4.85-1.49-8.62-4.15-9.9-9.43c-0.1-0.4-0.55-0.71-0.84-1.07
	C39.32,303.12,39.32,301.84,39.32,300.56z M275.82,357.87c59.28,18.13,118.21,36.16,177.35,54.25c0-103.42,0-206.47,0-309.52
	c-0.13-0.06-0.26-0.11-0.4-0.17C393.88,187.45,334.98,272.47,275.82,357.87z M402.68,110.51c-0.08-0.14-0.16-0.28-0.24-0.42
	C296.15,172.93,189.87,235.77,83.15,298.87c1.52,0.5,2.55,0.85,3.58,1.17c25.67,7.85,51.35,15.7,77.02,23.55
	c8.02,2.45,16.05,4.87,24.05,7.39c1.33,0.42,2.23,0.29,3.16-0.77c1.2-1.39,2.54-2.66,3.82-3.98c10.32-10.71,20.63-21.43,30.95-32.14
	c6.99-7.25,14.01-14.48,21-21.74c10.21-10.59,20.4-21.2,30.61-31.8c7.77-8.06,15.56-16.1,23.32-24.16
	c10.21-10.6,20.4-21.21,30.61-31.8c8.93-9.27,17.88-18.53,26.82-27.79c10.49-10.88,20.98-21.76,31.46-32.64
	C393.93,119.61,398.31,115.05,402.68,110.51z M242.75,409.64c0.19-0.05,0.38-0.11,0.57-0.16c0-0.86,0-1.72,0-2.58
	c0-13.76,0.02-27.52-0.02-41.28c-0.01-3.24,0.92-6.09,2.77-8.75c15.55-22.4,31.08-44.82,46.6-67.24
	c22.63-32.67,45.26-65.35,67.88-98.02c0.47-0.68,0.89-1.39,1.33-2.08c-0.13-0.08-0.25-0.17-0.38-0.25
	c-50.92,52.83-101.84,105.65-152.78,158.5C220.12,368.48,231.43,389.06,242.75,409.64z M268.49,429.05
	c2.66-1.76,35.84-34.49,36.58-36.1c-12.13-3.71-24.25-7.41-36.58-11.18C268.49,397.68,268.49,413.24,268.49,429.05z"/>
</svg>
