<?xml version="1.0" encoding="utf-8"?>
<!-- Generator: Adobe Illustrator 24.0.0, SVG Export Plug-In . SVG Version: 6.00 Build 0)  -->
<svg version="1.1" id="github-icon" class="icon github" xmlns="http://www.w3.org/2000/svg" xmlns:xlink="http://www.w3.org/1999/xlink" x="0px" y="0px" viewBox="0 0 517.76 517.13" style="enable-background:new 0 0 517.76 517.13;" xml:space="preserve">
<g>
	<path d="M477.19,178.88c0,0.64,0,1.28,0,1.92c-0.07,0.34-0.19,0.67-0.19,1.01c-0.17,13.51-2.62,26.61-7.1,39.33
		c-7.67,21.76-20.31,40.29-36.87,56.21c-17.08,16.41-36.87,28.6-58.84,37.34c-2.29,0.91-4.6,1.76-7.02,2.68
		c0.76,0.8,1.43,1.48,2.07,2.18c15.81,17.19,23.64,37.51,23.66,60.82c0.04,42.2,0.01,84.39,0.01,126.59c0,0.48,0.03,0.96,0.04,1.43
		c-64.8,0-129.6,0-194.41,0c-0.04-0.52-0.11-1.03-0.11-1.55c-0.01-16.48-0.01-32.96-0.01-49.44c0-0.54,0-1.08,0-1.7
		c-0.74,0-1.25,0-1.77,0c-8.56,0-17.12,0.12-25.68-0.05c-4.3-0.09-8.67-0.33-12.87-1.16c-27.25-5.4-46.6-20.84-57.52-46.4
		c-4.31-10.09-7.77-20.53-11.62-30.81c-1.48-3.94-4.09-5.73-8.31-5.74c-4.23-0.01-8.46,0.12-12.67-0.66
		c-14.66-2.72-26.38-15.83-27.33-30.68c-0.69-10.75,2.8-19.91,10.69-27.26c6.51-6.07,14.31-9.29,23.22-9.48
		c8.32-0.17,16.64-0.12,24.96-0.04c2.91,0.03,5.85,0.21,8.71,0.72c19.19,3.44,33.12,13.96,41.38,31.61
		c4.63,9.9,8.59,20.12,13.07,30.1c3.27,7.29,9.14,11.02,17.13,11.18c5.8,0.12,11.6,0.02,17.4,0.02c0.44,0,0.87,0,1.44,0
		c1.02-11.09,3.22-21.86,7.37-32.16c4.17-10.36,10.07-19.62,18.1-27.59c-0.52-0.2-0.81-0.32-1.11-0.43
		c-14.84-5.35-28.87-12.31-41.92-21.19c-22.98-15.63-41.46-35.3-53.71-60.43c-11.45-23.49-15.53-48.19-11.65-74.12
		c2.73-18.32,9.12-35.26,19.02-50.91c0.38-0.59,0.56-1.41,0.56-2.12c0.03-13.4-0.05-26.8,0.06-40.2c0.04-4.99,0.29-9.99,0.81-14.95
		c1.34-12.58,4.93-24.55,10.44-35.94c1.35-2.8,2.79-5.55,4.19-8.33c8.24,0,16.48,0,24.72,0c0.29,0.07,0.59,0.19,0.88,0.21
		c12.38,0.79,24.04,4.13,35,9.92c8.9,4.7,16.61,10.92,23.48,18.22c0.74,0.78,1.36,0.9,2.38,0.61c12.65-3.55,25.53-5.87,38.61-7.07
		c8.57-0.79,17.16-1.18,25.75-0.77c7.06,0.34,14.13,0.8,21.15,1.57c10.86,1.19,21.53,3.43,32.04,6.39c0.68,0.19,1.08,0.06,1.56-0.42
		c1.95-1.95,3.88-3.93,5.91-5.79c13.62-12.46,29.6-19.86,47.92-22.18c2.01-0.25,4.02-0.46,6.03-0.68c8.16,0,16.32,0,24.48,0
		c1.05,2.19,2.07,4.39,3.16,6.56c8.14,16.25,12.15,33.47,12.16,51.63c0.01,13.79-0.01,27.58,0.03,41.38c0,0.7,0.26,1.48,0.61,2.1
		c1.95,3.48,4.1,6.86,5.93,10.4c9.19,17.86,14.03,36.85,14.4,56.95C477.01,178.13,477.13,178.51,477.19,178.88z M316.41,303.93
		c0.12-0.04,0.41-0.15,0.71-0.22c6.96-1.62,13.93-3.23,20.89-4.84c22.12-5.12,42.64-13.85,61.13-27.13
		c15.59-11.2,28.63-24.79,38.11-41.57c13.21-23.37,17.12-48.16,10.83-74.38c-3.23-13.45-9-25.75-17.13-36.93
		c-0.71-0.98-1.03-1.96-1.03-3.19c0.04-16.76,0.05-33.52,0.02-50.28c-0.02-10.21-1.97-20.08-5.51-29.65
		c-0.26-0.71-0.59-1.02-1.37-0.98c-1.36,0.08-2.72,0.05-4.07,0.1c-14.58,0.51-27.41,5.56-38.24,15.3
		c-5.41,4.86-10.53,10.06-15.54,15.33c-1.83,1.93-3.29,2.14-5.71,1.26c-13-4.73-26.42-7.79-40.14-9.48
		c-10.61-1.31-21.26-1.75-31.95-1.28c-7.59,0.34-15.14,1.1-22.65,2.31c-12.02,1.93-23.74,5.02-35.18,9.18
		c-0.84,0.31-1.3,0.09-1.86-0.48c-4.75-4.75-9.53-9.47-14.3-14.21c-12.52-12.43-27.66-18.28-45.24-18.04
		c-0.74,0.01-1.05,0.28-1.29,0.93c-3.51,9.49-5.48,19.29-5.53,29.41c-0.08,16.12-0.08,32.24,0.04,48.36
		c0.02,2.78-0.7,4.97-2.29,7.25c-12.2,17.45-18.42,36.91-18.82,58.17c-0.2,10.67,1.55,21.1,4.87,31.24
		c6.41,19.57,17.73,35.95,32.7,49.89c16.6,15.47,35.96,26.3,57.36,33.64c10.83,3.72,22.05,5.94,33.15,8.59
		c2.23,0.53,4.46,1.05,6.85,1.6c-0.42,0.44-0.68,0.74-0.96,1.01c-2.52,2.46-5.04,4.91-7.56,7.37c-7.61,7.43-15.2,14.88-22.83,22.29
		c-3.9,3.78-7.36,7.88-10.05,12.62c-5.81,10.25-8.49,21.43-9.32,33.05c-0.96,13.45-10.81,22.9-24.29,22.9
		c-5.16,0-10.32,0.03-15.48-0.01c-3.24-0.02-6.51,0.12-9.7-0.27c-16.91-2.09-29.08-10.93-36.17-26.4
		c-4.38-9.54-8.27-19.3-12.37-28.97c-4.71-11.09-15.17-18.03-27.22-18.03c-7.56,0-15.12-0.01-22.68,0.01c-0.84,0-1.69,0.03-2.5,0.2
		c-3.33,0.7-6.03,2.33-7.03,5.76c-1.48,5.04,2.34,10.01,7.61,10.11c3.04,0.06,6.1-0.12,9.11,0.19c14.24,1.48,24.09,8.96,29.34,22.24
		c3.86,9.76,7.4,19.66,11.11,29.48c7.27,19.24,26.2,32.29,46.8,32.29c10.04,0,20.08-0.02,30.12,0
		c12.84,0.03,23.34,10.57,23.34,23.41c0,9.24,0,18.48,0,27.72c0,0.46,0,0.93,0,1.38c47.54,0,94.91,0,142.36,0c0-0.6,0-1.12,0-1.63
		c0-33.6,0-67.2-0.01-100.79c0-1.88-0.08-3.76-0.24-5.63c-1.17-13.37-6.14-25.16-15.07-35.17c-3.45-3.87-7.29-7.4-10.99-11.05
		c-5.87-5.77-11.8-11.49-17.67-17.28C320.64,308.46,318.54,306.16,316.41,303.93z"/>
</g>
</svg>
