<?xml version="1.0" encoding="utf-8"?>
<!-- Generator: Adobe Illustrator 24.0.3, SVG Export Plug-In . SVG Version: 6.00 Build 0)  -->
<svg version="1.1" id="Layer_1" xmlns="http://www.w3.org/2000/svg" xmlns:xlink="http://www.w3.org/1999/xlink" x="0px" y="0px"
	 viewBox="0 0 720 720" style="enable-background:new 0 0 720 720;" xml:space="preserve" width="100%" height="100%" preserveAspectRatio="xMinYMax meet">
<style type="text/css">
	.st0{fill:#ffffff;}
</style>
<g id="Outline">
</g>
<g id="Glasses">
	<g>
		<path class="st0" d="M294.7,263.3c1.1,4.4,2.3,5.1,3.3,4.7c0.9-0.3,0.8-2.9,0.3-6.4s-0.3-11-0.3-12.3c0-1.4,3.4,2.2,4.8,5.2
			s6.4,7.8,9.7,9.8c3.3,2,12.6,5.4,17.9,6.9c8.8,2.5,33.2,12,38.9,14c5.8,2,5.3,5.1,6.4,8.8c1.1,3.7,2.6,13.8,5.1,21.1
			c2.5,7.3,7.3,13.5,20.1,13.5c12.8,0,26.3-6.2,36.4-15s16.4-31.6,18.4-39.2s3.6-7.8,5.8-8.1c2.1-0.3,2.3,6.6,3.6,11.3
			c1.2,4.7,5.5,14.7,15.1,19.1c9.7,4.4,20.9-3,28.5-10.3s10.4-22.1,11.1-26c0.6-3.9,2.2-18.2,2.8-21.1c0.6-2.9,1.2-2.9,1.2-4.2
			s-0.2-12.8-0.2-12.8l-3.1-1c-3.3-0.8-12.9-3-22.9-5.1c-10-2-34.9-6.2-43.8-7.1c-8.9-0.8-21.7-0.5-29.1,2.2
			c-7.5,2.7-18.1,11.5-22.4,15c-4.4,3.5-10.6,9.6-11.1,11s2,7.1,7.5,6.9c5.5-0.2,11.1-7.8,15.1-14.5c4.1-6.8,9.5-10.8,14.6-12.5
			s10.7,1.3,15.3,3.7c4.5,2.4,9.5,5.2,17.6,6.4s32,3.4,32,3.4s-3.6,1.5-11.7,5.8c-9.7,5.3-15.6,10.7-19.4,14.2
			c-3.7,3.5-8.3,2-13.9,1.7s-24.9,0.7-38.5,4.1s-39.7,11.3-39.7,11.3s-15.3-5.9-24.3-9.3s-37.9-14.8-43.8-17s-8.4-0.8-9,2.5
			C292.5,247.4,293.6,258.9,294.7,263.3z M492.2,238.5c5.8-2.7,15.1-7.1,19.3-5.7c4.2,1.4,5.6,18.4,4.1,26.8
			c-1.6,8.6-5.2,21.5-14.8,27.2c-9.2,5.4-15.7,6.8-19.5,4.6c-3.7-2.2-6.9-11.1-7.8-20.1C472.6,262.3,468.1,249.6,492.2,238.5z
			 M388.5,277.1c5.1-8.3,9.5-11,26.3-15.4c8.6-2.2,21.8-5.1,28.3-1.9s2.9,25,1.1,30.2c-3.1,8.8-8.7,22.1-22.3,27.8
			c-13.6,5.7-21,6.4-25.9,4.7c-4.8-1.7-9-4-10-12.3C385.2,302.1,383.6,284.9,388.5,277.1z"/>
	</g>
	<g>
		<path class="st0" d="M73.8,161.1c1.1,4.4,2.3,5.1,3.3,4.7c0.9-0.3,0.8-2.9,0.3-6.4s-0.3-11-0.3-12.3c0-1.4,3.4,2.2,4.8,5.2
			s6.4,7.8,9.7,9.8c3.3,2,12.6,5.4,17.9,6.9c8.8,2.5,33.2,12,38.9,14c5.8,2,5.3,5.1,6.4,8.8c1.1,3.7,2.6,13.8,5.1,21.1
			s7.3,13.5,20.1,13.5s26.3-6.2,36.4-15s16.4-31.6,18.4-39.2c2-7.6,3.6-7.8,5.8-8.1c2.1-0.3,2.3,6.6,3.6,11.3
			c1.2,4.7,5.5,14.7,15.1,19.1c9.7,4.4,20.9-3,28.5-10.3s10.4-22.1,11.1-26c0.6-3.9,2.2-18.2,2.8-21.1c0.6-2.9,1.2-2.9,1.2-4.2
			c0-1.4-0.2-12.8-0.2-12.8l-3.1-1c-3.3-0.8-12.9-3-22.9-5.1c-10-2-34.9-6.2-43.8-7.1c-8.9-0.8-21.7-0.5-29.1,2.2
			c-7.5,2.7-18.1,11.5-22.4,15c-4.4,3.5-10.6,9.6-11.1,11s2,7.1,7.5,6.9c5.5-0.2,11.1-7.8,15.1-14.5c4.1-6.8,9.5-10.8,14.6-12.5
			s10.7,1.3,15.3,3.7c4.5,2.4,9.5,5.2,17.6,6.4c8.1,1.2,32,3.4,32,3.4s-3.6,1.5-11.7,5.8c-9.7,5.3-15.6,10.7-19.4,14.2
			c-3.7,3.5-8.3,2-13.9,1.7c-5.6-0.3-24.9,0.7-38.5,4.1c-13.6,3.4-39.7,11.3-39.7,11.3s-15.3-5.9-24.3-9.3c-9-3.4-37.9-14.8-43.8-17
			s-8.4-0.8-9,2.5C71.6,145.3,72.7,156.8,73.8,161.1z M271.3,136.3c5.8-2.7,15.1-7.1,19.3-5.7c4.2,1.4,5.6,18.4,4.1,26.8
			c-1.6,8.6-5.2,21.5-14.8,27.2c-9.2,5.4-15.7,6.8-19.5,4.6c-3.7-2.2-6.9-11.1-7.8-20.1C251.7,160.1,247.2,147.5,271.3,136.3z
			 M167.6,175c5.1-8.3,9.5-11,26.3-15.4c8.6-2.2,21.8-5.1,28.4-1.9c6.5,3.2,2.9,25,1.1,30.2c-3.1,8.8-8.7,22.1-22.3,27.8
			s-21,6.4-25.9,4.7c-4.8-1.7-9-4-10-12.3C164.3,200,162.7,182.8,167.6,175z"/>
	</g>
	<g>
		<path class="st0" d="M132,500.4c1.1,4.4,2.3,5.1,3.3,4.7c0.9-0.3,0.8-2.9,0.3-6.4s-0.3-11-0.3-12.3c0-1.4,3.4,2.2,4.8,5.2
			c1.4,3,6.4,7.8,9.7,9.8s12.6,5.4,17.9,6.9c8.8,2.5,33.2,12,38.9,14c5.8,2,5.3,5.1,6.4,8.8c1.1,3.7,2.6,13.8,5.1,21.1
			s7.3,13.5,20.1,13.5s26.3-6.2,36.4-15s16.4-31.6,18.4-39.1c2-7.6,3.6-7.8,5.8-8.1c2.1-0.3,2.3,6.6,3.6,11.3
			c1.2,4.7,5.5,14.7,15.1,19.1c9.7,4.4,20.9-3,28.5-10.3s10.4-22.1,11.1-26c0.6-3.9,2.2-18.2,2.8-21.1c0.6-2.9,1.2-2.9,1.2-4.2
			c0-1.4-0.2-12.8-0.2-12.8l-3.1-1c-3.3-0.8-12.9-3-22.9-5.1c-10-2-34.9-6.2-43.8-7.1c-8.9-0.8-21.7-0.5-29.1,2.2
			c-7.5,2.7-18.1,11.5-22.4,15c-4.4,3.5-10.6,9.6-11.1,11c-0.5,1.3,2,7.1,7.5,6.9s11.1-7.8,15.1-14.5c4.1-6.8,9.5-10.8,14.6-12.5
			s10.7,1.3,15.3,3.7c4.5,2.4,9.5,5.2,17.6,6.4c8.1,1.2,32,3.4,32,3.4s-3.6,1.5-11.7,5.8c-9.7,5.3-15.6,10.7-19.4,14.2
			c-3.7,3.5-8.3,2-13.9,1.7s-24.9,0.7-38.5,4c-13.6,3.4-39.7,11.3-39.7,11.3s-15.3-5.9-24.3-9.3s-37.9-14.8-43.8-17
			c-5.9-2.2-8.4-0.8-9,2.5C129.9,484.5,130.9,496,132,500.4z M329.5,475.6c5.8-2.7,15.1-7.1,19.3-5.7c4.2,1.3,5.6,18.4,4.1,26.8
			c-1.6,8.6-5.2,21.5-14.8,27.2c-9.2,5.4-15.7,6.8-19.5,4.6c-3.7-2.2-6.9-11.1-7.8-20.1C309.9,499.4,305.4,486.7,329.5,475.6z
			 M225.8,514.2c5.1-8.3,9.5-11,26.3-15.4c8.6-2.2,21.8-5.1,28.4-1.9c6.5,3.2,2.9,25,1.1,30.2c-3.1,8.8-8.7,22.1-22.3,27.8
			c-13.6,5.7-21,6.4-25.9,4.7c-4.8-1.7-9-4-10-12.3C222.5,539.2,221,522,225.8,514.2z"/>
	</g>
	<g>
		<path class="st0" d="M441,464.4c1.1,4.4,2.3,5.1,3.3,4.7c0.9-0.3,0.8-2.9,0.3-6.4s-0.3-11-0.3-12.3c0-1.4,3.4,2.2,4.8,5.2
			s6.4,7.8,9.7,9.8c3.3,2,12.6,5.4,17.9,6.9c8.8,2.5,33.2,12,38.9,14c5.8,2,5.3,5.1,6.4,8.8c1.1,3.7,2.6,13.8,5.1,21.1
			c2.5,7.3,7.3,13.5,20.1,13.5s26.3-6.2,36.5-15c10.1-8.8,16.4-31.6,18.4-39.1c2-7.6,3.6-7.8,5.8-8.1c2.1-0.3,2.3,6.6,3.6,11.3
			c1.2,4.7,5.5,14.7,15.1,19.1c9.7,4.4,20.9-3,28.5-10.3s10.4-22.1,11.1-26c0.6-3.9,2.2-18.2,2.8-21.1s1.2-2.9,1.2-4.2
			c0-1.3-0.2-12.8-0.2-12.8l-3.1-1c-3.3-0.8-12.9-3-22.9-5.1c-10-2-34.9-6.2-43.8-7.1c-8.9-0.8-21.7-0.5-29.1,2.2
			c-7.5,2.7-18.1,11.5-22.4,15c-4.4,3.5-10.6,9.6-11.1,11c-0.5,1.3,2,7.1,7.5,6.9s11.1-7.8,15.1-14.5c4.1-6.8,9.5-10.8,14.6-12.5
			s10.7,1.4,15.3,3.7c4.5,2.4,9.5,5.2,17.6,6.4c8.1,1.2,32,3.4,32,3.4s-3.6,1.5-11.7,5.8c-9.7,5.3-15.6,10.7-19.4,14.2
			c-3.7,3.5-8.3,2-13.9,1.7c-5.6-0.3-24.9,0.7-38.5,4c-13.6,3.4-39.7,11.3-39.7,11.3s-15.3-5.9-24.3-9.3s-37.9-14.8-43.8-17
			s-8.4-0.8-9,2.5C438.8,448.5,439.9,460,441,464.4z M638.5,439.6c5.8-2.7,15.1-7.1,19.3-5.7c4.2,1.3,5.6,18.4,4.1,26.8
			c-1.6,8.6-5.2,21.5-14.8,27.2c-9.2,5.4-15.7,6.8-19.5,4.6c-3.7-2.2-6.9-11.1-7.8-20.1S614.4,450.7,638.5,439.6z M534.8,478.2
			c5.1-8.3,9.5-11,26.3-15.4c8.6-2.2,21.8-5.1,28.3-1.9s2.9,25,1.1,30.2c-3.1,8.8-8.7,22.1-22.3,27.8s-21,6.4-25.9,4.7
			c-4.8-1.7-9-4-10-12.3C531.5,503.2,529.9,486,534.8,478.2z"/>
	</g>
	<g>
		<path class="st0" d="M19.1,626.5c2-7.6,3.6-7.8,5.8-8.1c2.1-0.3,2.3,6.6,3.6,11.3c1.2,4.7,5.5,14.7,15.1,19.1
			c9.7,4.4,20.9-3,28.5-10.3c7.6-7.3,10.4-22.1,11.1-26c0.6-3.9,2.2-18.2,2.8-21.1c0.6-2.9,1.2-2.9,1.2-4.2c0-1.4-0.2-12.8-0.2-12.8
			l-3.1-1c-3.3-0.8-12.9-3-22.9-5.1c-10-2-34.9-6.2-43.8-7.1c-5-0.5-11.4-0.6-17.2-0.1v8.6c2.5,0.8,4.9,2.1,7.1,3.3
			c4.5,2.4,9.5,5.2,17.6,6.4s32,3.4,32,3.4s-3.6,1.5-11.7,5.8c-9.7,5.3-15.6,10.7-19.4,14.2c-3.7,3.5-8.3,2-13.9,1.7
			c-2.2-0.1-6.5-0.1-11.8,0.3v5.7c2.5,0.1,4.7,0.5,6.5,1.4c6.5,3.2,2.9,25,1.1,30.2C6,646.7,3.7,652.5,0,657.7v8.5
			c0.2-0.2,0.5-0.4,0.7-0.6C10.8,656.9,17.1,634.1,19.1,626.5z M78.9,611.7c-1.6,8.6-5.2,21.5-14.8,27.2c-9.2,5.4-15.7,6.8-19.5,4.6
			c-3.7-2.2-6.9-11.1-7.8-20.1c-0.9-8.9-5.5-21.6,18.7-32.7c5.8-2.7,15.1-7.1,19.3-5.7C79.1,586.2,80.4,603.2,78.9,611.7z"/>
		<path class="st0" d="M163.9,326.4c-0.6,2.9-2.2,17.2-2.8,21.1s-3.4,18.7-11.1,26c-7.6,7.3-18.8,14.7-28.5,10.3
			c-0.6-0.3-1.1-0.5-1.6-0.8c1.1,0.7,2.3,1.4,3.5,2c9.7,4.4,20.9-3,28.5-10.3s10.4-22.1,11.1-26c0.6-3.9,2.2-18.2,2.8-21.1
			s1.2-2.9,1.2-4.2c0-1.4-0.2-12.8-0.2-12.8l-1.9-0.6c0,2.3,0.1,11.1,0.1,12.3C165.2,323.5,164.5,323.5,163.9,326.4z"/>
		<path class="st0" d="M14,374.1c-0.8-0.7-1.9-1.3-3.4-1.8c-1.9-0.7-5.9-2.2-10.6-3.9v0.5c5.6,2.1,10.4,3.9,12.5,4.7
			C13.1,373.7,13.6,373.9,14,374.1z"/>
		<path class="st0" d="M102.8,353.4c-2.2,0.3-3.7,0.5-5.8,8.1c-2,7.6-8.3,30.4-18.4,39.1c-10.1,8.8-23.7,15-36.5,15
			c-4.8,0-8.5-0.9-11.3-2.4c3.1,2.2,7.3,3.5,13.2,3.5c12.8,0,26.3-6.2,36.4-15s16.4-31.6,18.4-39.1c1.9-7,3.3-7.7,5.2-8
			C103.9,353.8,103.4,353.3,102.8,353.4z"/>
		<path class="st0" d="M102.7,314.4c-8.1-1.2-13.1-4-17.6-6.4s-10.1-5.4-15.3-3.7c-5.1,1.7-10.6,5.7-14.6,12.5s-9.7,14.3-15.1,14.5
			c-1.1,0-2.1-0.2-2.9-0.5c1.2,1,2.8,1.8,4.8,1.7c5.5-0.2,11.1-7.8,15.1-14.5c4.1-6.8,9.5-10.8,14.6-12.5s10.7,1.3,15.3,3.7
			c4.5,2.4,9.5,5.2,17.6,6.4c6.1,0.9,21.2,2.4,28.2,3.1c1.2-0.6,1.8-0.8,1.8-0.8S110.8,315.6,102.7,314.4z"/>
		<path class="st0" d="M24,128.5c7.6-7.3,10.4-22.1,11.1-26c0.6-3.9,2.2-18.2,2.8-21.1s1.2-2.9,1.2-4.2c0-1.3-0.2-12.8-0.2-12.8
			l-3.1-1c-3.3-0.8-12.9-3-22.9-5.1c-3.2-0.6-7.8-1.5-13-2.4V72c5,0.5,8.7,0.8,8.7,0.8S5.9,74,0,77.1v7.6c2.1-1.4,4.6-2.7,7.5-4.1
			c5.8-2.7,15.1-7.1,19.3-5.7c4.2,1.3,5.6,18.4,4.1,26.8c-1.6,8.6-5.2,21.5-14.8,27.2c-6.9,4-12.3,5.8-16.1,5.5v5.6
			C8.5,140.9,17.6,134.6,24,128.5z"/>
		<path class="st0" d="M461.1,691.5c0.6-3.9,2.2-18.2,2.8-21.1c0.6-2.9,1.2-2.9,1.2-4.2s-0.2-12.8-0.2-12.8l-3.1-1
			c-3.3-0.8-12.9-3-22.9-5.1c-10-2-34.9-6.2-43.8-7.1c-8.9-0.8-21.7-0.5-29.1,2.2c-7.5,2.7-18.1,11.5-22.4,15
			c-4.4,3.5-10.6,9.6-11.1,11c-0.5,1.3,2,7.1,7.5,6.9c5.5-0.2,11.1-7.8,15.1-14.5c4.1-6.8,9.5-10.8,14.6-12.5s10.7,1.4,15.3,3.7
			c4.5,2.4,9.5,5.2,17.6,6.4s32,3.4,32,3.4s-3.6,1.5-11.7,5.8c-9.7,5.3-15.6,10.7-19.4,14.2c-3.7,3.5-8.3,2-13.9,1.7
			s-24.9,0.7-38.5,4c-13.6,3.4-39.7,11.3-39.7,11.3s-15.3-5.9-24.3-9.3c-9-3.4-37.9-14.8-43.8-17c-5.9-2.2-8.4-0.8-9,2.5
			c-0.6,3.4,0.5,14.8,1.6,19.2s2.3,5.1,3.3,4.7c0.9-0.3,0.8-2.9,0.3-6.4s-0.3-11-0.3-12.3c0-1.4,3.4,2.2,4.8,5.2
			c1.4,3,6.4,7.8,9.7,9.8c3.3,2,12.6,5.4,17.9,6.9c8.8,2.5,33.2,12,38.9,14c2.8,1,4.2,2.2,4.9,3.7h11.1c0.4-4.6,1.3-8.9,3.1-11.8
			c5.1-8.3,9.5-11,26.3-15.4c8.6-2.2,21.8-5.1,28.3-1.9c6.1,3,3.3,22.3,1.5,29h6.7c2.1-6,3.6-11.5,4.4-14.5c2-7.6,3.6-7.8,5.8-8.1
			c2.1-0.3,2.3,6.6,3.6,11.3c0.7,2.7,2.4,7.2,5.6,11.3h8.3c-2.6-3.8-4.7-10.7-5.4-17.7c-0.9-8.9-5.5-21.6,18.7-32.7
			c5.8-2.7,15.1-7.1,19.3-5.7c4.2,1.3,5.6,18.4,4.1,26.8c-1.6,8.6-5.2,21.5-14.8,27.2c-1.4,0.8-2.7,1.5-4,2.2h9.2
			c1-0.8,1.9-1.7,2.8-2.5C457.7,710.2,460.5,695.4,461.1,691.5z"/>
		<path class="st0" d="M322.2,26.2c2.5,7.3,7.3,13.5,20.1,13.5c12.8,0,26.3-6.2,36.5-15c6.1-5.3,10.8-15.6,14-24.7h-6.7
			c-0.1,0.5-0.3,0.9-0.4,1.2C382.6,10,377,23.3,363.4,29s-21,6.4-25.9,4.7c-4.8-1.7-9-4-10-12.3c-0.6-5.2-1.4-13.8-0.8-21.5h-11.1
			c0.8,1.5,0.9,3.2,1.5,5.1C318.1,8.8,319.7,18.9,322.2,26.2z"/>
		<path class="st0" d="M421.5,7.8c8.5,3.9,18.3-1.5,25.7-7.8H438c-7.1,3.5-12.3,4.2-15.5,2.4c-0.8-0.5-1.6-1.3-2.4-2.4H412
			C414.3,3,417.4,5.9,421.5,7.8z"/>
		<path class="st0" d="M14,374.1c2.3,1.9,2.2,4.2,3,7c1.1,3.7,2.6,13.8,5.1,21.1c1.6,4.5,4,8.7,8.8,11.1c2.9,1.5,6.5,2.4,11.3,2.4
			c12.8,0,26.3-6.2,36.5-15c10.1-8.8,16.4-31.6,18.4-39.1c2-7.6,3.6-7.8,5.8-8.1c0.6-0.1,1,0.4,1.4,1.3c0.9,2.2,1.3,6.7,2.2,10
			c1.2,4.4,5,13.5,13.5,18.2c0.5,0.3,1.1,0.6,1.6,0.8c9.7,4.4,20.9-3,28.5-10.3s10.4-22.1,11.1-26c0.6-3.9,2.2-18.2,2.8-21.1
			s1.2-2.9,1.2-4.2c0-1.2-0.1-10-0.1-12.3c0-0.4,0-0.6,0-0.6l-3.1-1c-3.3-0.8-12.9-3-22.9-5.1c-10-2-34.9-6.2-43.8-7.1
			c-8.9-0.8-21.7-0.5-29.1,2.2c-7.5,2.7-18.1,11.5-22.4,15c-4.4,3.5-10.6,9.6-11.1,11c-0.4,1.1,1.1,4.9,4.5,6.4
			c0.9,0.4,1.8,0.6,2.9,0.5c5.5-0.2,11.1-7.8,15.1-14.5c4.1-6.8,9.5-10.8,14.6-12.5s10.7,1.4,15.3,3.7c4.5,2.4,9.5,5.2,17.6,6.4
			c8.1,1.2,32,3.4,32,3.4s-0.6,0.2-1.8,0.8c-1.8,0.8-5,2.4-9.8,5c-9.7,5.3-15.6,10.7-19.4,14.2c-3.7,3.5-8.3,2-13.9,1.7
			s-24.9,0.7-38.5,4s-39.7,11.3-39.7,11.3s-5.3-2.1-11.6-4.5v17.9c4.8,1.8,8.7,3.3,10.6,3.9C12.1,372.8,13.2,373.4,14,374.1z
			 M27.5,397.5c-0.9-8.3-2.5-25.4,2.3-33.2c5.1-8.3,9.5-11,26.3-15.4c8.6-2.2,21.8-5.1,28.3-1.9s2.9,25,1.1,30.2
			c-3.1,8.8-8.7,22.1-22.3,27.8c-13.6,5.7-21,6.4-25.9,4.7C32.6,408.1,28.4,405.7,27.5,397.5z M156.9,346.7
			c-1.6,8.6-5.2,21.5-14.8,27.2c-9.2,5.4-15.7,6.8-19.5,4.6c-3.7-2.2-6.9-11.1-7.8-20.1c-0.9-8.9-5.5-21.6,18.7-32.7
			c5.8-2.7,15.1-7.1,19.3-5.7C157.1,321.2,158.4,338.2,156.9,346.7z"/>
		<path class="st0" d="M685.7,578.4c-4.4,3.5-10.6,9.6-11.1,11c-0.5,1.3,2,7.1,7.5,6.9c5.5-0.2,11.1-7.8,15.1-14.5
			c4.1-6.8,9.5-10.8,14.6-12.5c2.7-0.9,5.5-0.5,8.2,0.4v-8.6c-4.5,0.4-8.7,1.1-11.9,2.3C700.6,566.1,690,574.9,685.7,578.4z"/>
		<path class="st0" d="M653.6,619.9c0,0-15.3-5.9-24.3-9.3c-9-3.4-37.9-14.8-43.8-17c-5.9-2.2-8.4-0.8-9,2.5
			c-0.6,3.4,0.5,14.9,1.6,19.2c1.1,4.4,2.3,5.1,3.3,4.7c0.9-0.3,0.8-2.9,0.3-6.4s-0.3-11-0.3-12.3c0-1.4,3.4,2.2,4.8,5.2
			c1.4,3,6.4,7.8,9.7,9.8s12.6,5.4,17.9,6.9c8.8,2.5,33.2,12,38.9,14c5.8,2,5.3,5.1,6.4,8.8c1.1,3.7,2.6,13.8,5.1,21.1
			s7.3,13.5,20.1,13.5c12.5,0,25.7-6,35.7-14.4v-8.5c-3.5,5-8.1,9.5-14.7,12.3c-13.6,5.7-21,6.4-25.9,4.7c-4.8-1.7-9-4-10-12.3
			c-0.9-8.3-2.5-25.4,2.3-33.2c5.1-8.3,9.5-11,26.3-15.4c6.3-1.6,15.1-3.6,21.9-3.3v-5.7c-8.1,0.5-18.5,1.7-26.7,3.8
			C679.8,612,653.6,619.9,653.6,619.9z"/>
		<path class="st0" d="M674.7,351.9c0.3,0.2,0.7,0.5,1,0.7c3.3,2,12.6,5.4,17.9,6.9c5.5,1.6,17.1,5.9,26.4,9.4v-0.5
			c-9.6-3.6-22.4-8.4-28.3-10.1C686.8,356.9,678.5,353.9,674.7,351.9z"/>
		<path class="st0" d="M659.3,336.4c0,1.3-0.2,8.8,0.3,12.3s0.6,6.1-0.3,6.4c0,0,0,0-0.1,0c0.7,1.2,1.4,1.4,2,1.2
			c0.9-0.3,0.8-2.9,0.3-6.4s-0.3-11-0.3-12.3c0-0.1,0-0.1,0-0.2C660.2,336.3,659.3,335.7,659.3,336.4z"/>
		<path class="st0" d="M697.6,92.9c-3.7,3.5-8.3,2-13.9,1.7c-5.6-0.3-24.9,0.7-38.5,4c-13.6,3.4-39.7,11.3-39.7,11.3
			s-15.3-5.9-24.3-9.3s-37.9-14.8-43.8-17c-5.9-2.2-8.4-0.8-9,2.5c-0.6,3.4,0.5,14.8,1.6,19.2s2.3,5.1,3.3,4.7
			c0.9-0.3,0.8-2.9,0.3-6.4s-0.3-11-0.3-12.3c0-1.4,3.4,2.2,4.8,5.2c1.4,3,6.4,7.8,9.7,9.8s12.6,5.4,17.9,6.9
			c8.8,2.5,33.2,12,38.9,14c5.8,2,5.3,5.1,6.4,8.8c1.1,3.7,2.6,13.8,5.1,21.1s7.3,13.5,20.1,13.5s26.3-6.2,36.5-15
			s16.4-31.6,18.4-39.1c2-7.6,3.6-7.8,5.8-8.1c2.1-0.3,2.3,6.6,3.6,11.3c1.2,4.7,5.5,14.7,15.1,19.1c1.5,0.7,3,1.1,4.5,1.2v-5.6
			c-1.3-0.1-2.4-0.4-3.4-1c-3.7-2.2-6.9-11.1-7.8-20.1c-0.8-7.9-4.4-18.6,11.2-28.6v-7.6c-0.9,0.5-1.9,1-3,1.6
			C707.2,83.9,701.4,89.3,697.6,92.9z M657.3,160c-13.6,5.7-21,6.4-25.9,4.7c-4.8-1.7-9-4-10-12.3c-0.9-8.3-2.5-25.4,2.3-33.2
			c5.1-8.3,9.5-11,26.3-15.4c8.6-2.2,21.8-5.1,28.3-1.9s2.9,25,1.1,30.2C676.4,141,670.8,154.3,657.3,160z"/>
		<path class="st0" d="M660.1,53.4c-7.5,2.7-18.1,11.5-22.4,15c-4.4,3.5-10.6,9.6-11.1,11c-0.5,1.3,2,7.1,7.5,6.9
			s11.1-7.8,15.1-14.5c4.1-6.8,9.5-10.8,14.6-12.5s10.7,1.4,15.3,3.7c4.5,2.4,9.5,5.2,17.6,6.4c4.9,0.7,15.6,1.8,23.3,2.6V55.9
			c-11.2-2-24.7-4.1-30.8-4.7C680.3,50.4,667.6,50.7,660.1,53.4z"/>
		<path class="st0" d="M663.5,328.6c-5.9-2.2-8.4-0.8-9,2.5c-0.6,3.4,0.5,14.8,1.6,19.2c1.1,4.3,2.3,5,3.2,4.7c0,0,0,0,0.1,0
			c0.9-0.3,0.8-2.9,0.3-6.4s-0.3-11-0.3-12.3c0-0.7,0.9-0.1,1.9,1s2.2,2.7,2.9,4.2c1.4,3,6.4,7.8,9.7,9.8c0.3,0.2,0.6,0.3,0.9,0.5
			c3.8,2,12.1,5,17,6.4c5.9,1.7,18.7,6.5,28.3,10.1v-17.9c-4.3-1.6-9-3.5-12.7-4.8C698.2,342.3,669.4,330.8,663.5,328.6z"/>
	</g>
</g>
</svg>
