<?xml version="1.0" encoding="utf-8"?>
<!-- Generator: Adobe Illustrator 24.0.3, SVG Export Plug-In . SVG Version: 6.00 Build 0)  -->
<svg version="1.1" id="_x2014_ÎÓÈ_x5F_1" xmlns="http://www.w3.org/2000/svg" xmlns:xlink="http://www.w3.org/1999/xlink"
	 x="0px" y="0px" viewBox="0 0 1200 1200" style="enable-background:new 0 0 1200 1200;" xml:space="preserve" width="100%" height="100%" preserveAspectRatio="xMinYMax meet">
<style type="text/css">
	.st0{fill:#ffffff;}
</style>
<g>

		<rect x="370.7" y="693.8" transform="matrix(0.5233 -0.8521 0.8521 0.5233 -413.1909 653.9465)" class="st0" width="14.5" height="5"/>
	<polygon class="st0" points="435.1,608.2 435.1,608.2 411.2,647 	"/>
	<polygon class="st0" points="433.4,601.2 437.7,603.9 471.1,549.5 446.3,534.3 443.6,538.6 464.1,551.2 405,647.5 406.6,644.9 	"/>
	<polygon class="st0" points="408.6,651.3 408.6,651.3 402.7,660.9 	"/>
	<polygon class="st0" points="490.7,757 495,759.6 495,759.7 548.8,672.1 437.7,603.9 433.4,601.2 406.6,644.9 406.9,644.4
		411.2,647 435.1,608.2 541.8,673.7 493.3,752.7 486.5,748.5 493,737.8 481.9,731 475.4,741.7 463,734.1 470.9,721.3 459.3,714.2
		451.4,727 445.5,723.3 453.4,710.5 414.3,686.5 406.4,699.4 386.5,687.1 396.8,670.5 392.5,667.9 379.6,688.8 383.9,691.4
		408.1,706.3 416,693.5 446.4,712.2 438.6,725 453.1,733.9 461,721.1 463.9,722.9 456.1,735.7 460.4,738.4 461.6,739.1 465.9,741.8
		467.1,742.5 471.4,745.1 471.4,745.2 472.6,745.9 476.9,748.5 477,748.6 483.6,737.9 486.1,739.5 479.6,750.2 483.9,752.8
		485.2,753.6 489.5,756.2 489.4,756.3 	"/>
	<polygon class="st0" points="399.4,666.2 402.7,660.9 408.6,651.3 	"/>
	<path class="st0" d="M396.8,670.5l26.1,16l14.4-23.5l-26.1-16l-4.3-2.6l-0.3,0.5l-1.6,2.7l-12.5,20.3L396.8,670.5z M408.6,651.3
		L408.6,651.3l21.8,13.4l-9.2,14.9l-21.8-13.4L408.6,651.3z"/>
	<path class="st0" d="M491.6,713.5l20.2-32.9l-32.9-20.2l-20.2,32.9L491.6,713.5z M480.6,667.3l24.3,14.9L490,706.5l-24.3-14.9
		L480.6,667.3z"/>
	<path class="st0" d="M472.4,643.7l-20.5-12.6l-9.7,15.8l20.5,12.6L472.4,643.7z M449.1,645.3l4.4-7.2l11.9,7.3l-4.4,7.2
		L449.1,645.3z"/>
	<polygon class="st0" points="456.1,735.7 456.1,735.7 451.6,743 455.9,745.6 460.4,738.4 	"/>
	<polygon class="st0" points="461.6,739.1 461.6,739.1 457.1,746.4 461.4,749 465.9,741.8 	"/>
	<polygon class="st0" points="467.1,742.5 467.1,742.5 462.6,749.8 466.9,752.4 471.4,745.2 471.4,745.1 	"/>
	<polygon class="st0" points="472.6,745.9 472.6,745.9 468.1,753.2 472.4,755.8 476.9,748.5 	"/>
	<polygon class="st0" points="479.6,750.2 479.6,750.2 475.2,757.5 479.5,760.1 483.9,752.8 	"/>
	<polygon class="st0" points="485.2,753.6 485.2,753.6 480.7,760.9 485,763.5 489.4,756.3 489.5,756.2 	"/>
	<polygon class="st0" points="490.7,757 490.7,757 486.2,764.3 490.5,766.9 495,759.7 495,759.6 	"/>
	<path class="st0" d="M528.5,1076.7H726v-145H528.5V1076.7z M533.5,936.7h187.4v135H533.5V936.7z"/>
	<path class="st0" d="M589.4,951.4h-12.6v65.2h12.6V951.4z M584.4,1011.5h-2.5v-55.1h2.5V1011.5z"/>
	<path class="st0" d="M562.2,951.4h-12.1V976h12.1V951.4z M557.2,970.9h-2v-14.5h2V970.9z"/>
	<path class="st0" d="M562.2,990.5h-12.1v26.1h12.1V990.5z M557.2,1011.5h-2v-16h2V1011.5z"/>
	<path class="st0" d="M702.8,954.4h-36.6V991h36.6V954.4z M697.7,986h-26.5v-26.5h26.5V986z"/>
	<path class="st0" d="M624.7,1061.6h85.1v-13.1h-85.1V1061.6z M629.7,1053.6h75.1v3h-75.1V1053.6z"/>
	<path class="st0" d="M624.7,1041.5h85.1v-13.1h-85.1V1041.5z M629.7,1033.4h75.1v3h-75.1V1033.4z"/>
	<path class="st0" d="M550.1,1061.6h19.6v-12.1h-19.6V1061.6z M555.2,1054.6h9.6v2h-9.6V1054.6z"/>
	<path class="st0" d="M579.4,1061.6H599v-12.1h-19.6V1061.6z M584.4,1054.6h9.6v2h-9.6V1054.6z"/>
	<path class="st0" d="M626.6,960.3h-11.2v39.7h11.2V960.3z M621.6,995h-1.1v-29.6h1.1V995z"/>
	<path class="st0" d="M569.3,1026.4c-3.8,0-6.8,3.1-6.8,6.8s3.1,6.8,6.8,6.8c3.8,0,6.8-3.1,6.8-6.8S573,1026.4,569.3,1026.4z
		 M569.3,1034.9c-1,0-1.8-0.8-1.8-1.8s0.8-1.8,1.8-1.8s1.8,0.8,1.8,1.8S570.3,1034.9,569.3,1034.9z"/>
	<polygon class="st0" points="318.4,546.8 311.5,547.9 312.3,552.9 317.1,552.1 349.5,575.2 362.4,652.6 350.2,654.6 351,659.5
		270.4,673 269.6,668.1 257.3,670.1 239.8,565 252,563 251.2,558 304.3,549.1 234,560.9 253.2,675.9 368.2,656.7 354.1,572.3 	"/>
	<path class="st0" d="M257,562.1l35.3-5.9L257,562.1z"/>
	<path class="st0" d="M256.9,592.3l12.6,75.8l0.8,4.9l80.6-13.5l-0.8-4.9l-12.6-75.8L256.9,592.3z M274.5,667.2l-11.8-70.7
		l70.7-11.8l11.8,70.7L274.5,667.2z"/>
	<path class="st0" d="M252,563l4.4,26.1l60.3-10.1l-4.4-26.1l-0.8-5l-7.1,1.2l-53.2,8.9L252,563z M307.3,553.7l3.5,21.1l-50.4,8.4
		l-3.5-21.1l35.3-5.9L307.3,553.7z"/>

		<rect x="273.4" y="603.1" transform="matrix(0.9864 -0.1646 0.1646 0.9864 -95.5869 57.7379)" class="st0" width="54.4" height="5"/>

		<rect x="276.7" y="623.4" transform="matrix(0.9864 -0.1646 0.1646 0.9864 -98.8809 58.5547)" class="st0" width="54.4" height="5"/>

		<rect x="280.1" y="643.7" transform="matrix(0.9864 -0.1646 0.1646 0.9864 -102.1752 59.3917)" class="st0" width="54.4" height="5"/>
	<path class="st0" d="M971.7,1027.4c-3.5-9.7-14.2-14.7-23.8-11.3l-10.4,3.7l0.5,1.4l-4.7,1.7l-0.5-1.4l-111.3,39.8l0.5,1.4
		l-4.7,1.7l-0.5-1.4l-10.4,3.7c-9.7,3.5-14.7,14.2-11.3,23.8l21.7,60.7c3.5,9.7,14.2,14.7,23.8,11.3l141.6-50.7
		c9.7-3.5,14.7-14.2,11.3-23.8L971.7,1027.4z M981.5,1106.8l0.9,2.4l-4.7,1.7l-0.8-2.4l-134.2,48l0.8,2.4l-4.7,1.7l-0.9-2.4
		c-6.8,1.8-13.9-1.8-16.3-8.5l-21.7-60.7c-2.5-7.1,1.2-14.9,8.2-17.4l141.6-50.7c7.1-2.5,14.9,1.2,17.4,8.2l21.7,60.7
		C991.1,1096.5,987.9,1103.9,981.5,1106.8z"/>
	<polygon class="st0" points="810.4,1081.5 837.8,1158.2 838.7,1160.6 843.4,1158.9 842.6,1156.6 816.8,1084.6 951,1036.5
		976.8,1108.5 977.6,1110.9 982.4,1109.2 981.5,1106.8 954.1,1030.1 	"/>
	<path class="st0" d="M847,1149.6l121.9-43.6l-7.5-20.9l-121.9,43.6L847,1149.6z M962.5,1102.9l-112.4,40.2l-4.1-11.4l112.4-40.2
		L962.5,1102.9z"/>
	<polygon class="st0" points="821.9,1062.8 821.4,1061.4 800.4,1002.6 911.7,962.7 932.8,1021.6 933.3,1023 938,1021.3
		937.5,1019.9 914.8,956.3 793.9,999.5 816.7,1063.1 817.2,1064.5 	"/>

		<rect x="811" y="992.8" transform="matrix(0.9415 -0.3369 0.3369 0.9415 -285.0226 348.1401)" class="st0" width="99.3" height="5"/>

		<rect x="822.9" y="1026" transform="matrix(0.9415 -0.3369 0.3369 0.9415 -295.5094 354.0891)" class="st0" width="99.3" height="5"/>

		<rect x="816.9" y="1009.4" transform="matrix(0.9415 -0.3369 0.3369 0.9415 -290.2806 351.1104)" class="st0" width="99.3" height="5"/>
	<path class="st0" d="M533.8,624l118.3,43.7l0.9-2.4l4.7,1.7l-0.9,2.4l118.3,43.7c10.7,3.9,22.5-1.5,26.5-12.2l53.5-144.8
		c3.9-10.7-1.5-22.5-12.2-26.5l-241.2-89.1c-10.7-3.9-22.5,1.5-26.5,12.2l-53.5,144.8C517.7,608.2,523.2,620.1,533.8,624z
		 M526.4,599.3l2.5-6.8l-2.4-0.9l1.7-4.7l2.4,0.9l49.2-133.3c3-8.1,12-12.2,20-9.2L841,534.4c8.1,3,12.2,12,9.2,20L801,687.7
		l2.4,0.9l-1.7,4.7l-2.4-0.9l-2.5,6.8c-3,8.1-12,12.2-20,9.2l-241.2-89.1C527.5,616.3,523.4,607.4,526.4,599.3z"/>
	<path class="st0" d="M648.8,676.6l0.9-2.4l-43.5-16.1l-4.5,12.2l91.7,33.9l4.5-12.2l-43.5-16l-0.9,2.4L648.8,676.6z M690.4,697.8
		l-82.2-30.4l1-2.7l82.2,30.4L690.4,697.8z"/>
	<polygon class="st0" points="801.7,693.3 803.5,688.6 801.1,687.7 530.6,587.8 528.3,586.9 526.5,591.6 528.9,592.5 799.3,692.4
		"/>
	<polygon class="st0" points="653,665.4 652.1,667.7 649.7,674.3 648.8,676.6 653.5,678.4 654.4,676 656.8,669.5 657.7,667.1 	"/>
	<path class="st0" d="M1144.8,905.9V1062c0,10.5,8.6,19.1,19.1,19.1h36.2v-5h-36.2c-7.7,0-14-6.3-14-14V905.9c0-7.7,6.3-14,14-14
		h36.2v-5h-36.2C1153.3,886.8,1144.8,895.4,1144.8,905.9z"/>
	<polygon class="st0" points="1156.9,1062.2 1200,1062.2 1200,1057.1 1161.9,1057.1 1161.9,908.2 1200,908.2 1200,903.1
		1156.9,903.1 	"/>
	<rect x="1186" y="895" class="st0" width="14" height="5"/>
	<polygon class="st0" points="1077.3,611.4 1200,572.4 1200,567.1 1080.6,605 1047.7,501.4 1200,453.1 1200,447.8 1041.4,498.1 	"/>
	<path class="st0" d="M1020.6,506.2l35.1,110.6c2.5,8,11.1,12.4,19.1,9.9l125.2-39.8v-5.3l-126.7,40.2c-5.3,1.7-11.1-1.3-12.8-6.6
		l-35.1-110.6c-1.7-5.3,1.3-11.1,6.6-12.8l168-53.3v-5.3L1030.5,487C1022.5,489.6,1018,498.2,1020.6,506.2z"/>

		<rect x="1036.1" y="511.7" transform="matrix(0.9531 -0.3026 0.3026 0.9531 -108.0302 338.5941)" class="st0" width="5" height="12.4"/>
	<path class="st0" d="M1169.8,662.9l-27.4,126.5c-2.2,10,4.2,19.9,14.2,22l43.5,9.4v-5.2l-42.4-9.2c-7.3-1.6-11.9-8.8-10.3-16
		l27.4-126.5c1.6-7.3,8.8-11.9,16-10.3l9.3,2v-5.2l-8.2-1.8C1181.8,646.6,1171.9,653,1169.8,662.9z"/>
	<polygon class="st0" points="1158.9,791.5 1200,800.4 1200,795.2 1164.9,787.6 1188.9,677 1200,679.4 1200,674.3 1185,671 	"/>
	<path class="st0" d="M1120.7,267.9l43.9,109.2c5.6,14,21.3,20.9,35.4,15.8v-5.4l-1,0.4c-11.7,4.7-25-1-29.7-12.7L1125.4,266
		c-4.7-11.7,1-25,12.7-29.7l62-24.9V206l-63.9,25.7C1121.9,237.4,1115,253.7,1120.7,267.9z"/>
	<polygon class="st0" points="1200,372.5 1200,359 1155.5,248.4 1200,230.5 1200,225.1 1148.9,245.6 	"/>
	<path class="st0" d="M1165.3,325.9c5.9-2.4,8.8-9.1,6.4-15.1c-2.4-5.9-9.1-8.8-15.1-6.4c-5.9,2.4-8.8,9.1-6.4,15.1
		C1152.7,325.4,1159.4,328.3,1165.3,325.9z M1158.6,309.1c3.4-1.3,7.2,0.3,8.5,3.6c1.3,3.4-0.3,7.2-3.6,8.5
		c-3.4,1.3-7.2-0.3-8.5-3.6C1153.6,314.3,1155.2,310.4,1158.6,309.1z"/>
	<path class="st0" d="M55.2,1064V907.9c0-10.5-8.6-19.1-19.1-19.1H0v5h36.2c7.7,0,14,6.3,14,14V1064c0,7.7-6.3,14-14,14H0v5h36.2
		C46.7,1083.1,55.2,1074.5,55.2,1064z"/>
	<polygon class="st0" points="43.1,905.1 0,905.1 0,910.2 38.1,910.2 38.1,1059.1 0,1059.1 0,1064.2 43.1,1064.2 	"/>
	<rect y="897" class="st0" width="14" height="5"/>
	<polygon class="st0" points="20.6,443.3 0,449.8 0,455.1 17.3,449.6 50.2,553.2 0,569.1 0,574.4 56.5,556.5 	"/>
	<path class="st0" d="M77.3,548.4L42.2,437.8c-2.5-8-11.1-12.4-19.1-9.9L0,435.3v5.3l24.6-7.8c5.3-1.7,11.1,1.3,12.8,6.6L72.5,550
		c1.7,5.3-1.3,11.1-6.6,12.8L0,583.6v5.3l67.4-21.4C75.4,565,79.8,556.4,77.3,548.4z"/>

		<rect x="44.2" y="480.6" transform="matrix(0.9531 -0.3025 0.3025 0.9531 -148.2667 37.4386)" class="st0" width="5" height="33.4"/>
	<path class="st0" d="M204.3,848.2l27.4-126.5c2.2-10-4.2-19.9-14.2-22L0,652.5v5.2l216.4,46.9c7.3,1.6,11.9,8.8,10.3,16
		l-27.4,126.5c-1.6,7.3-8.8,11.9-16,10.3L0,817.8v5.2l182.2,39.5C192.2,864.6,202.1,858.2,204.3,848.2z"/>
	<polygon class="st0" points="214.5,722.7 0,676.3 0,681.4 208.5,726.6 184.5,837.2 0,797.2 0,802.4 188.4,843.2 	"/>
	<path class="st0" d="M103.2,682.1c-3.8-0.8-7.6,1.6-8.4,5.4c-0.8,3.8,1.6,7.6,5.4,8.4c3.8,0.8,7.6-1.6,8.4-5.4
		C109.4,686.7,107,682.9,103.2,682.1z M103.6,689.4c-0.2,1.1-1.3,1.8-2.4,1.5c-1.1-0.2-1.8-1.3-1.5-2.4c0.2-1.1,1.3-1.8,2.4-1.5
		S103.9,688.3,103.6,689.4z"/>
	<path class="st0" d="M80.4,821.8L66,818.7c-3-0.6-5.9,1.3-6.6,4.2c-0.6,3,1.3,5.9,4.2,6.6l14.4,3.1c3,0.6,5.9-1.3,6.6-4.2
		C85.3,825.4,83.4,822.5,80.4,821.8z M79.2,827.7l-14.4-3.1c-0.3-0.1-0.4-0.3-0.4-0.6c0.1-0.3,0.3-0.4,0.6-0.4l14.4,3.1
		c0.3,0.1,0.4,0.3,0.4,0.6C79.7,827.6,79.4,827.8,79.2,827.7z"/>
	<path class="st0" d="M181.4,322c8.5-3.4,12.6-13.1,9.2-21.6l-52.3-130c-3.4-8.5-13.1-12.6-21.6-9.2L0,208v5.4l118.5-47.7
		c5.9-2.4,12.7,0.5,15.1,6.4l52.3,130c2.4,5.9-0.5,12.7-6.4,15.1L0,389.5v5.4c0.3-0.1,0.6-0.2,0.9-0.3L181.4,322z"/>
	<polygon class="st0" points="176.2,305 124.7,176.9 0,227.1 0,232.5 121.9,183.5 169.6,302.2 3.3,369.1 0,361 0,374.5 0.5,375.7
		"/>

		<rect x="152.6" y="227.5" transform="matrix(0.9277 -0.3732 0.3732 0.9277 -78.0345 75.1668)" class="st0" width="5" height="23.2"/>
	<path class="st0" d="M75.9,80.7l54.6,47.4c7.9,6.9,20,6,26.9-1.9L259.7,8.3c2.1-2.5,3.5-5.3,4.2-8.3h-5.2c-0.6,1.8-1.5,3.5-2.8,5
		L153.7,122.9c-5.1,5.8-14,6.5-19.8,1.4L79.2,76.9c-5.8-5.1-6.5-14-1.4-19.8L127.3,0h-6.7L74,53.8C67.1,61.8,68,73.8,75.9,80.7z"/>
	<polygon class="st0" points="148.2,118.4 250.9,0 244.2,0 147.7,111.3 90.2,61.4 143.4,0 136.8,0 83.1,61.9 	"/>
	<polygon class="st0" points="479.1,0 472.5,0 449.3,28 415.6,0 407.7,0 449.9,35.1 	"/>
	<path class="st0" d="M467.9,48.3L508,0h-6.5L464,45c-3.6,4.3-10,4.9-14.3,1.3L393.9,0H386l60.5,50.2
		C452.9,55.6,462.5,54.7,467.9,48.3z"/>
	<polygon class="st0" points="485.8,9.4 493.5,0 487,0 481.9,6.1 	"/>
	<path class="st0" d="M861.2,42.7l63.1,113c5,8.9,16.3,12.1,25.2,7.1l201.6-112.6c8.9-5,12.1-16.3,7.1-25.2l-14-25.1h-5.8l15.4,27.6
		c3.6,6.5,1.3,14.7-5.2,18.4L947,158.5c-6.5,3.6-14.7,1.3-18.4-5.2l-63.1-113c-3.6-6.5-1.3-14.7,5.2-18.4L910,0h-10.3l-31.4,17.5
		C859.4,22.5,856.2,33.8,861.2,42.7z"/>
	<polygon class="st0" points="938,146.3 1143,31.9 1125.2,0 1119.4,0 1136.1,29.9 940,139.4 884.8,40.6 957.6,0 947.2,0 878,38.7
		"/>
	<path class="st0" d="M1040.4,104.1l12.9-7.2c2.7-1.5,3.6-4.9,2.1-7.5c-1.5-2.7-4.9-3.6-7.5-2.1l-12.9,7.2c-2.7,1.5-3.6,4.9-2.1,7.5
		S1037.8,105.6,1040.4,104.1z M1037.5,98.8l12.9-7.2c0.2-0.1,0.6,0,0.7,0.2c0.1,0.2,0,0.6-0.2,0.7l-12.9,7.2c-0.2,0.1-0.6,0-0.7-0.2
		C1037.2,99.3,1037.3,98.9,1037.5,98.8z"/>
	<path class="st0" d="M641.1,192.9h117.7c15.4,0,27.9-12.5,27.9-27.9V0h-5v165.1c0,12.6-10.2,22.8-22.8,22.8H641.1
		c-12.6,0-22.8-10.2-22.8-22.8V0h-5v165.1C613.2,180.4,625.7,192.9,641.1,192.9z"/>
	<polygon class="st0" points="769,158.4 769,0 763.9,0 763.9,153.4 636,153.4 636,0 630.9,0 630.9,158.4 	"/>
	<path class="st0" d="M699.9,184.7c6.4,0,11.6-5.2,11.6-11.6s-5.2-11.6-11.6-11.6c-6.4,0-11.6,5.2-11.6,11.6
		S693.5,184.7,699.9,184.7z M699.9,166.6c3.6,0,6.5,2.9,6.5,6.5s-2.9,6.5-6.5,6.5c-3.6,0-6.5-2.9-6.5-6.5S696.3,166.6,699.9,166.6z"
		/>
	<path class="st0" d="M257.8,1181.4l-54.6-47.4c-7.9-6.9-20-6-26.9,1.9l-55.6,64.1h6.7l52.7-60.8c5.1-5.8,14-6.5,19.8-1.4l54.6,47.4
		c4.3,3.8,5.8,9.6,4.2,14.8h5.2C265.4,1193.4,263.3,1186.1,257.8,1181.4z"/>
	<polygon class="st0" points="187.3,1141.8 136.8,1200 143.4,1200 187.8,1148.9 245.3,1198.7 244.2,1200 250.9,1200 252.4,1198.2
		"/>

		<rect x="221" y="1151.8" transform="matrix(0.6553 -0.7553 0.7553 0.6553 -803.4838 570.5905)" class="st0" width="5" height="27.9"/>
	<polygon class="st0" points="381.2,1023.6 305.3,1114.9 407.7,1200 415.6,1200 312.4,1114.3 381.9,1030.7 518.7,1144.4 472.5,1200
		479.1,1200 525.8,1143.7 	"/>
	<path class="st0" d="M540.1,1137.6l-155.5-129.2c-6.5-5.4-16.1-4.5-21.4,2l-74.1,89.2c-5.4,6.5-4.5,16.1,2,21.4l95,78.9h7.9
		l-99.7-82.8c-4.3-3.6-4.9-10-1.3-14.3l74.1-89.2c3.6-4.3,10-4.9,14.3-1.3l155.5,129.2c4.3,3.6,4.9,10,1.3,14.3l-36.7,44.2h6.5
		l34.1-41C547.4,1152.6,546.5,1143,540.1,1137.6z"/>
	<polygon class="st0" points="503.2,1180.5 487,1200 493.5,1200 507.1,1183.7 	"/>

		<rect x="357" y="1029.4" transform="matrix(0.6391 -0.7692 0.7692 0.6391 -662.6304 651.7855)" class="st0" width="12.4" height="5"/>
	<path class="st0" d="M1070,1104.9L899.7,1200H910l162.4-90.7c6.5-3.6,14.7-1.3,18.4,5.2l47.7,85.5h5.8l-49.1-87.9
		C1090.2,1103.1,1078.9,1099.9,1070,1104.9z"/>
	<polygon class="st0" points="947.2,1200 957.6,1200 1081,1131.1 1119.4,1200 1125.2,1200 1082.9,1124.2 	"/>
	<path class="st0" d="M972.6,1167.4c-3.4,1.9-4.6,6.2-2.7,9.6c1.9,3.4,6.2,4.6,9.6,2.7c3.4-1.9,4.6-6.2,2.7-9.6
		C980.3,1166.7,976,1165.5,972.6,1167.4z M977,1175.3c-1,0.5-2.2,0.2-2.7-0.8s-0.2-2.2,0.8-2.7s2.2-0.2,2.7,0.8
		C978.3,1173.5,978,1174.8,977,1175.3z"/>
	<path class="st0" d="M770,1153.9H629.9c-9.2,0-16.6,7.5-16.6,16.6v29.5h5v-29.5c0-6.4,5.2-11.6,11.6-11.6H770
		c6.4,0,11.6,5.2,11.6,11.6v29.5h5v-29.5C786.7,1161.3,779.2,1153.9,770,1153.9z"/>
	<polygon class="st0" points="630.9,1169 630.9,1200 636,1200 636,1174 763.9,1174 763.9,1200 769,1200 769,1169 	"/>
	<rect x="688.3" y="1161.4" class="st0" width="23.2" height="5"/>
	<path class="st0" d="M221.7,934c-2.7-0.8-6.3,0.2-8.3,2.3l-49.8,51.3c-14,14.3-13.7,37.9,0.8,52.6l6.3,6.1
		c15.1,14,38.7,13.6,52.6-0.8l49.8-51.3c2-2.1,2.9-5.7,2-8.3C267.1,960.7,247.1,941.3,221.7,934z M269.5,990.6l-21.9,22.6l1.8,1.8
		l-3.5,3.6l-1.8-1.8l-24.3,25.1c-12,12.5-32.4,12.8-45.5,0.7l-6.2-6.1c-12.5-12.7-12.9-33.1-0.7-45.5l24.3-25.1l-1.8-1.8l3.5-3.6
		l1.8,1.8l21.9-22.6c0.7-0.7,2.4-1.2,3.3-0.9c11,3.2,21,8.8,29.2,16.3l1.8-1.9l3.6,3.5l-1.8,1.9c7.7,8,13.7,17.8,17.2,28.7
		C270.7,988.3,270.3,989.9,269.5,990.6z"/>
	<polygon class="st0" points="221.4,991.4 217.8,987.9 219.6,986.1 195.2,962.4 193.3,960.6 189.8,964.2 191.7,966 244.1,1016.9
		245.9,1018.6 249.4,1015 247.6,1013.2 223.2,989.6 	"/>
	<path class="st0" d="M243,962l1.8-1.8l-3.2-3.1l-22.3,23l3.2,3.1l1.8-1.8l3.6,3.5l-1.8,1.8l3.2,3.1l22.3-23l-3.2-3.1l-1.8,1.8
		L243,962z M229.1,982.7l-2.9-2.8l15.3-15.8l2.9,2.8L229.1,982.7z"/>
	<polygon class="st0" points="243,962 246.6,965.5 248.3,963.7 253.2,958.6 255,956.8 251.4,953.3 249.6,955.1 244.7,960.1 	"/>
	<polygon class="st0" points="224.1,981.4 222.4,983.2 219.6,986.1 217.8,987.9 221.4,991.4 223.2,989.6 226,986.7 227.7,984.9 	"/>
	<polygon class="st0" points="1171,103.6 1172,103.9 1170.4,108.7 1164.5,106.8 1077.1,149.3 1108.6,213.9 1164.6,186.7
		1168.5,176.5 1200,161.2 1200,155.6 1164.6,172.8 1160.6,183 1111,207.2 1083.9,151.6 1190.9,99.5 1200,118.2 1200,106.7
		1193.2,92.8 	"/>
	<polygon class="st0" points="1172,103.9 1171,103.6 1149.9,96.7 1107.1,117.5 1109.3,122 1150.2,102.1 1164.5,106.8 1170.4,108.7
		"/>
	<polygon class="st0" points="1186.9,156.1 1200,149.7 1200,144.1 1184.7,151.6 	"/>
	<polygon class="st0" points="0,106.7 0,118.2 14.7,148.4 0,155.6 0,161.2 21.4,150.7 	"/>
	<polygon class="st0" points="5.5,141.4 0,144.1 0,149.7 7.7,146 	"/>
	<path class="st0" d="M1051.6,295.1l-104.2-80.9L796.9,407.9l104.2,80.9L1051.6,295.1z M804,407l144.3-185.8l96.3,74.8L900.2,481.8
		L804,407z"/>
	<path class="st0" d="M948.6,231.1l-19.8,25.5l86.3,67l19.8-25.5L948.6,231.1z M1014.2,316.5l-78.4-60.9l13.6-17.5l78.4,60.9
		L1014.2,316.5z"/>
	<path class="st0" d="M906.6,285.2l86.3,67l19.8-25.5l-86.3-67L906.6,285.2z M1005.6,327.6L992,345.1l-78.4-60.9l13.6-17.5
		L1005.6,327.6z"/>
	<path class="st0" d="M884.3,313.8l86.3,67l19.8-25.5l-86.3-67L884.3,313.8z M983.3,356.3l-13.6,17.5l-78.4-60.9l13.6-17.5
		L983.3,356.3z"/>
	<path class="st0" d="M873.2,354.1l61.2,47.5l13.9-17.9l-61.2-47.5L873.2,354.1z M941.2,384.6l-7.7,10l-53.2-41.3l7.7-10
		L941.2,384.6z"/>
	<path class="st0" d="M874.8,415.1c5.7,4.4,13.9,3.4,18.4-2.3c4.4-5.7,3.4-13.9-2.3-18.4c-5.7-4.5-13.9-3.4-18.4,2.3
		C868.1,402.4,869.1,410.7,874.8,415.1z M876.5,399.8c2.7-3.5,7.8-4.1,11.3-1.4c3.5,2.7,4.1,7.8,1.4,11.3s-7.8,4.1-11.3,1.4
		C874.4,408.4,873.8,403.3,876.5,399.8z"/>
	<path class="st0" d="M816,411.3l19.9,15.5l7.4-9.5l-19.9-15.5L816,411.3z M836.2,418l-1.2,1.6l-11.9-9.3l1.2-1.6L836.2,418z"/>
	<path class="st0" d="M873.3,455.8l19.9,15.5l7.4-9.5l-19.9-15.5L873.3,455.8z M893.5,462.5l-1.2,1.6l-11.9-9.3l1.2-1.6L893.5,462.5
		z"/>
	<path class="st0" d="M594.1,734.2l-28.5,83.2l213.7,73.3l28.5-83.2L594.1,734.2z M776.1,884.2L572,814.1l25.3-73.6l204.1,70.1
		L776.1,884.2z"/>
	<path class="st0" d="M616.3,750.9L602,746l-4.9,14.3l14.3,4.9L616.3,750.9z M608.2,758.8l-4.8-1.6l1.6-4.8l4.8,1.6L608.2,758.8z"/>
	<path class="st0" d="M628.5,771.1l4.9-14.3l-14.3-4.9l-4.9,14.3L628.5,771.1z M622.3,758.3l4.8,1.6l-1.6,4.8l-4.8-1.6L622.3,758.3z
		"/>
	<path class="st0" d="M645.7,777l4.9-14.3l-14.3-4.9l-4.9,14.3L645.7,777z M639.4,764.2l4.8,1.6l-1.6,4.8l-4.8-1.6L639.4,764.2z"/>
	<path class="st0" d="M662.8,782.9l4.9-14.3l-14.3-4.9l-4.9,14.3L662.8,782.9z M656.5,770.1l4.8,1.6l-1.6,4.8l-4.8-1.6L656.5,770.1z
		"/>
	<path class="st0" d="M680,788.8l4.9-14.3l-14.3-4.9l-4.9,14.3L680,788.8z M673.7,776l4.8,1.6l-1.6,4.8l-4.8-1.6L673.7,776z"/>
	<path class="st0" d="M697.1,794.6l4.9-14.3l-14.3-4.9l-4.9,14.3L697.1,794.6z M690.8,781.8l4.8,1.6l-1.6,4.8l-4.8-1.6L690.8,781.8z
		"/>
	<path class="st0" d="M714.2,800.5l4.9-14.3l-14.3-4.9l-4.9,14.3L714.2,800.5z M708,787.7l4.8,1.6l-1.6,4.8l-4.8-1.6L708,787.7z"/>
	<path class="st0" d="M731.4,806.4l4.9-14.3l-14.3-4.9l-4.9,14.3L731.4,806.4z M725.1,793.6l4.8,1.6l-1.6,4.8l-4.8-1.6L725.1,793.6z
		"/>
	<path class="st0" d="M759.7,800l-14.3-4.9l-4.9,14.3l14.3,4.9L759.7,800z M751.7,807.9l-4.8-1.6l1.6-4.8l4.8,1.6L751.7,807.9z"/>
	<path class="st0" d="M749,831.2l4.9-14.3l-14.3-4.9l-4.9,14.3L749,831.2z M742.7,818.4l4.8,1.6l-1.6,4.8l-4.8-1.6L742.7,818.4z"/>
	<path class="st0" d="M728.9,843.2l14.3,4.9l4.9-14.3l-14.3-4.9L728.9,843.2z M736.9,835.3l4.8,1.6l-1.6,4.8l-4.8-1.6L736.9,835.3z"
		/>
	<path class="st0" d="M728,845.8l-4.9,14.3l14.3,4.9l4.9-14.3L728,845.8z M734.2,858.6l-4.8-1.6l1.6-4.8l4.8,1.6L734.2,858.6z"/>
	<path class="st0" d="M773.4,820.6l4.9-14.3l-14.3-4.9l-4.9,14.3L773.4,820.6z M767.1,807.8l4.8,1.6l-1.6,4.8l-4.8-1.6L767.1,807.8z
		"/>
	<path class="st0" d="M772.5,823.3l-14.3-4.9l-4.9,14.3l14.3,4.9L772.5,823.3z M764.4,831.1l-4.8-1.6l1.6-4.8l4.8,1.6L764.4,831.1z"
		/>
	<path class="st0" d="M766.7,840.2l-14.3-4.9l-4.9,14.3l14.3,4.9L766.7,840.2z M758.6,848.1l-4.8-1.6l1.6-4.8l4.8,1.6L758.6,848.1z"
		/>
	<path class="st0" d="M746.6,852.2l-4.9,14.3l14.3,4.9l4.9-14.3L746.6,852.2z M752.8,865l-4.8-1.6l1.6-4.8l4.8,1.6L752.8,865z"/>
	<path class="st0" d="M782.6,807.8l-4.9,14.3L792,827l4.9-14.3L782.6,807.8z M788.8,820.6L784,819l1.6-4.8l4.8,1.6L788.8,820.6z"/>
	<path class="st0" d="M771.9,839l14.3,4.9l4.9-14.3l-14.3-4.9L771.9,839z M779.9,831.1l4.8,1.6l-1.6,4.8l-4.8-1.6L779.9,831.1z"/>
	<path class="st0" d="M766.1,855.9l14.3,4.9l4.9-14.3l-14.3-4.9L766.1,855.9z M774.1,848l4.8,1.6l-1.6,4.8l-4.8-1.6L774.1,848z"/>
	<path class="st0" d="M760.3,872.9l14.3,4.9l4.9-14.3l-14.3-4.9L760.3,872.9z M768.3,865l4.8,1.6l-1.6,4.8l-4.8-1.6L768.3,865z"/>
	<path class="st0" d="M610.5,767.7l-14.3-4.9l-4.9,14.3l14.3,4.9L610.5,767.7z M602.5,775.6l-4.8-1.6l1.6-4.8l4.8,1.6L602.5,775.6z"
		/>
	<path class="st0" d="M608.4,783l14.3,4.9l4.9-14.3l-14.3-4.9L608.4,783z M616.5,775.1l4.8,1.6l-1.6,4.8l-4.8-1.6L616.5,775.1z"/>
	<path class="st0" d="M625.6,788.9l14.3,4.9l4.9-14.3l-14.3-4.9L625.6,788.9z M633.6,781l4.8,1.6l-1.6,4.8l-4.8-1.6L633.6,781z"/>
	<path class="st0" d="M642.7,794.8l14.3,4.9l4.9-14.3l-14.3-4.9L642.7,794.8z M650.8,786.9l4.8,1.6l-1.6,4.8l-4.8-1.6L650.8,786.9z"
		/>
	<path class="st0" d="M679.1,791.3l-14.3-4.9l-4.9,14.3l14.3,4.9L679.1,791.3z M671.1,799.2l-4.8-1.6l1.6-4.8l4.8,1.6L671.1,799.2z"
		/>
	<path class="st0" d="M696.2,797.2l-14.3-4.9l-4.9,14.3l14.3,4.9L696.2,797.2z M688.2,805.1l-4.8-1.6l1.6-4.8l4.8,1.6L688.2,805.1z"
		/>
	<path class="st0" d="M699.1,798.1l-10.5,30.7l31.4,10.8l10.5-30.7L699.1,798.1z M716.8,833.3l-21.9-7.5l7.3-21.2l21.9,7.5
		L716.8,833.3z"/>
	<path class="st0" d="M604.7,784.6l-14.3-4.9l-4.9,14.3l14.3,4.9L604.7,784.6z M596.7,792.4l-4.8-1.6l1.6-4.8l4.8,1.6L596.7,792.4z"
		/>
	<path class="st0" d="M602.7,799.8l14.3,4.9l4.9-14.3l-14.3-4.9L602.7,799.8z M610.7,791.9l4.8,1.6l-1.6,4.8l-4.8-1.6L610.7,791.9z"
		/>
	<path class="st0" d="M639,796.3l-14.3-4.9l-4.9,14.3l14.3,4.9L639,796.3z M631,804.2l-4.8-1.6l1.6-4.8l4.8,1.6L631,804.2z"/>
	<path class="st0" d="M656.2,802.2l-14.3-4.9l-4.9,14.3l14.3,4.9L656.2,802.2z M648.1,810.1l-4.8-1.6l1.6-4.8l4.8,1.6L648.1,810.1z"
		/>
	<path class="st0" d="M673.3,808.1l-14.3-4.9l-4.9,14.3l14.3,4.9L673.3,808.1z M665.3,816l-4.8-1.6l1.6-4.8l4.8,1.6L665.3,816z"/>
	<path class="st0" d="M690.5,814l-14.3-4.9l-4.9,14.3l14.3,4.9L690.5,814z M682.4,821.9l-4.8-1.6l1.6-4.8l4.8,1.6L682.4,821.9z"/>
	<path class="st0" d="M631,829l82.9,28.4l5.1-14.9l-82.9-28.4L631,829z M639.2,820.5l73.3,25.2l-1.9,5.4l-73.3-25.2L639.2,820.5z"/>
	<path class="st0" d="M584.6,796.8l-4.9,14.3L594,816l4.9-14.3L584.6,796.8z M590.8,809.6L586,808l1.6-4.8l4.8,1.6L590.8,809.6z"/>
	<path class="st0" d="M601.7,802.7l-4.9,14.3l14.3,4.9l4.9-14.3L601.7,802.7z M608,815.5l-4.8-1.6l1.6-4.8l4.8,1.6L608,815.5z"/>
	<path class="st0" d="M618.9,808.5l-4.9,14.3l14.3,4.9l4.9-14.3L618.9,808.5z M625.1,821.3l-4.8-1.6l1.6-4.8l4.8,1.6L625.1,821.3z"
		/>
	<path class="st0" d="M902.5,766.9l1.2,15.3L902.5,766.9z"/>
	<polygon class="st0" points="898.8,719.8 898.8,719.8 902.4,765.5 901.1,749.9 	"/>
	<path class="st0" d="M907.1,761.5l-1.6-21L907.1,761.5z"/>
	<polygon class="st0" points="905.1,735.5 905.1,735.5 904.2,724.5 1103.9,708.8 1107.5,755.7 929.8,769.6 930.9,784.7 909,786.4
		907.5,766.5 909.4,791.4 936.4,789.3 935.2,774.3 979,770.8 978.9,769.6 983.9,769.2 984,770.4 985.4,770.3 985.3,769.1
		990.3,768.7 990.4,769.9 991.8,769.8 991.8,768.6 996.8,768.2 996.9,769.4 998.3,769.3 998.2,768 1003.2,767.7 1003.3,768.9
		1020.7,767.6 1020.6,766.3 1025.6,765.9 1025.7,767.2 1027.2,767.1 1027.1,765.8 1032.1,765.4 1032.2,766.7 1033.7,766.5
		1033.6,765.3 1038.6,764.9 1038.7,766.2 1040.2,766 1040.1,764.8 1045.1,764.4 1045.2,765.6 1046.7,765.5 1046.6,764.3
		1051.6,763.9 1051.7,765.1 1053.2,765 1053.1,763.7 1058.1,763.4 1058.2,764.6 1059.7,764.5 1059.6,763.2 1064.6,762.8
		1064.7,764.1 1066.2,764 1066.1,762.7 1071.2,762.3 1071.3,763.6 1088.6,762.2 1088.5,761 1093.5,760.6 1093.6,761.9 1095,761.7
		1094.9,760.5 1100,760.1 1100.1,761.3 1101.5,761.2 1101.4,760 1106.4,759.6 1106.5,760.8 1107.9,760.7 1107.8,759.5 1112.9,759.1
		1108.5,703.4 903.8,719.5 	"/>
	<polygon class="st0" points="907.1,761.5 907.1,761.5 905.5,740.5 	"/>
	<polygon class="st0" points="900,735.8 905.1,735.5 903.8,719.5 898.1,646.6 869.5,648.8 869.9,653.8 893.5,652 898.8,719.8
		901.1,749.9 	"/>
	<polygon class="st0" points="902.5,766.9 903.7,782.2 906.7,820.3 911.7,819.9 909.4,791.4 907.5,766.5 	"/>
	<path class="st0" d="M1048.6,753.4l-2.6-33.8l-57.3,4.5l2.6,33.8L1048.6,753.4z M1041.4,725.1l1.9,23.8l-47.2,3.7l-1.9-23.8
		L1041.4,725.1z"/>
	<path class="st0" d="M907.5,766.5L907.5,766.5l19.8-1.5l-2.4-31.1l-19.8,1.5l-5,0.4l1.1,14.1l1.2,15.6l0.1,1.4L907.5,766.5z
		 M905.5,740.5l14.7-1.2l1.6,21l-14.7,1.2L905.5,740.5z"/>
	<polygon class="st0" points="978.9,769.6 979,770.8 979.9,783 984.9,782.6 984,770.4 983.9,769.2 	"/>
	<polygon class="st0" points="985.3,769.1 985.4,770.3 986.4,782.5 991.4,782.1 990.4,769.9 990.3,768.7 	"/>
	<polygon class="st0" points="991.8,768.6 991.8,769.8 992.8,782 997.8,781.6 996.9,769.4 996.8,768.2 	"/>
	<polygon class="st0" points="998.2,768 998.3,769.3 999.3,781.5 1004.3,781.1 1003.3,768.9 1003.2,767.7 	"/>
	<polygon class="st0" points="1088.5,761 1088.6,762.2 1089.5,774.4 1094.6,774 1093.6,761.9 1093.5,760.6 	"/>
	<polygon class="st0" points="1094.9,760.5 1095,761.7 1096,773.9 1101,773.5 1100.1,761.3 1100,760.1 	"/>
	<polygon class="st0" points="1101.4,760 1101.5,761.2 1102.4,773.4 1107.5,773 1106.5,760.8 1106.4,759.6 	"/>
	<polygon class="st0" points="1107.9,760.7 1108.9,772.9 1113.9,772.5 1112.9,759.1 1107.8,759.5 	"/>
	<polygon class="st0" points="1020.6,766.3 1020.7,767.6 1021.6,779.8 1026.6,779.4 1025.7,767.2 1025.6,765.9 	"/>
	<polygon class="st0" points="1027.1,765.8 1027.2,767.1 1028.1,779.2 1033.1,778.9 1032.2,766.7 1032.1,765.4 	"/>
	<polygon class="st0" points="1033.6,765.3 1033.7,766.5 1034.6,778.7 1039.7,778.3 1038.7,766.2 1038.6,764.9 	"/>
	<polygon class="st0" points="1040.1,764.8 1040.2,766 1041.1,778.2 1046.2,777.8 1045.2,765.6 1045.1,764.4 	"/>
	<polygon class="st0" points="1046.6,764.3 1046.7,765.5 1047.7,777.7 1052.7,777.3 1051.7,765.1 1051.6,763.9 	"/>
	<polygon class="st0" points="1053.1,763.7 1053.2,765 1054.2,777.2 1059.2,776.8 1058.2,764.6 1058.1,763.4 	"/>
	<polygon class="st0" points="1059.6,763.2 1059.7,764.5 1060.7,776.7 1065.7,776.3 1064.7,764.1 1064.6,762.8 	"/>
	<polygon class="st0" points="1066.1,762.7 1066.2,764 1067.2,776.2 1072.2,775.8 1071.3,763.6 1071.2,762.3 	"/>
	<path class="st0" d="M289.5,480.6l-49.3-89.4l-7.3,4l-2.9-5.3l7.3-4l-12-21.8l-34.7-10l-92.7,51.1c-4.6,2.6-6.3,8.4-3.8,13
		l16.1,29.1l8.5-4.7l16.8,30.5l-8.5,4.7l39.1,70.9c2.6,4.6,8.4,6.3,13,3.8l106.6-58.8C290.4,491,292.1,485.2,289.5,480.6z
		 M283.3,489.2L176.7,548c-2.2,1.2-5,0.4-6.2-1.8l-36.6-66.4l8.5-4.7l-21.7-39.3l-8.5,4.7l-13.6-24.7c-1.2-2.2-0.4-5,1.8-6.2
		l90.8-50.1l30.7,8.9l8.6,15.5l-7.3,4L231,402l7.3-4l46.9,85C286.3,485.2,285.5,488,283.3,489.2z"/>
	<path class="st0" d="M216.4,386.6c-2.2-4-7.5-5.3-11.9-2.9l-75,41.4c-4.4,2.4-6.1,7.6-3.9,11.6l49.4,89.6c2.2,4,7.5,5.3,11.9,2.9
		l75-41.4c4.4-2.4,6.1-7.6,3.9-11.6L216.4,386.6z M259.5,483.4l-75,41.4c-1.9,1-4.2,0.6-5-0.9L130,434.2c-0.8-1.5,0-3.7,1.9-4.7
		l75-41.4c1.9-1,4.2-0.6,5,0.9l49.4,89.6C262.3,480.2,261.4,482.3,259.5,483.4z"/>
	<path class="st0" d="M405.1,365.9c0,8.2,6.7,14.9,14.9,14.9s14.9-6.7,14.9-14.9c0-8.2-6.7-14.9-14.9-14.9S405.1,357.7,405.1,365.9z
		 M429.8,365.9c0,5.4-4.4,9.8-9.8,9.8s-9.8-4.4-9.8-9.8s4.4-9.8,9.8-9.8C425.4,356,429.8,360.4,429.8,365.9z"/>
	<path class="st0" d="M392.1,365.9c0,15.4,12.5,27.9,27.9,27.9s27.9-12.5,27.9-27.9S435.4,338,420,338
		C404.6,337.9,392.1,350.4,392.1,365.9z M442.9,365.9c0,12.6-10.3,22.9-22.9,22.9s-22.9-10.3-22.9-22.9S407.4,343,420,343
		C432.6,342.9,442.9,353.2,442.9,365.9z"/>
	<path class="st0" d="M336.4,365.9c0,46.1,37.5,83.6,83.6,83.6s83.6-37.5,83.6-83.6s-37.5-83.6-83.6-83.6S336.4,319.8,336.4,365.9z
		 M498.6,365.9c0,43.3-35.2,78.6-78.6,78.6c-43.3,0-78.6-35.2-78.6-78.6c0-43.3,35.2-78.6,78.6-78.6
		C463.3,287.3,498.6,322.5,498.6,365.9z"/>
	<path class="st0" d="M1024,882.9l23.8,71.3L1024,882.9z"/>
	<path class="st0" d="M1028.8,881.3l23.8,71.3l50.4-16.8l-23.8-71.3L1028.8,881.3z M1051,947.8l-20.6-61.7l45.6-15.2l20.6,61.7
		L1051,947.8z"/>
	<path class="st0" d="M1068.9,936.5l15.6-5.2l-6.2-18.6l-15.6,5.2L1068.9,936.5z M1075.1,919.1l3,9l-6.1,2l-3-9L1075.1,919.1z"/>
	<path class="st0" d="M1067.1,879.2l-15.6,5.2l6.2,18.6l15.6-5.2L1067.1,879.2z M1060.9,896.6l-3-9l6.1-2l3,9L1060.9,896.6z"/>
	<path class="st0" d="M1019.1,852.3l-45.3,15.1c-6,2-11,8.6-11.2,14.7c-0.5,19.5,2.6,39.3,8.8,58c6.2,18.7,15.7,36.3,27.8,51.7
		c3.8,4.8,11.8,7.1,17.8,5l45.3-15.1l-9.7-29.1l-23.8-71.3L1019.1,852.3z M1055.9,978.5l-40.5,13.5c-4,1.3-9.8-0.2-12.3-3.4
		c-23.6-29.7-36.5-68.5-35.5-106.4c0.1-4,3.7-8.7,7.8-10.1l40.5-13.5l8.1,24.3l23.8,71.3L1055.9,978.5z"/>
	<path class="st0" d="M267.6,237.4c3.2,9.3,13.3,14.3,22.6,11.1l52.3-17.9c-2.5-0.8-4.9-1.8-7.2-2.9l-46.7,16
		c-6.7,2.3-13.9-1.3-16.2-7.9l-25.7-75.2c-2.3-6.7,1.3-13.9,7.9-16.2l1.3-0.4l3.9-15.3l23-7.9l13,9.6l6.6-2.2
		c1.3-2.3,2.7-4.6,4.2-6.8l-9.9,3.4l-13-9.6l-28.1,9.6l-3.9,15.4c-8.4,3.6-12.8,13.2-9.8,22.1L267.6,237.4z"/>
	<path class="st0" d="M406.9,92.3c6.7-2.3,13.9,1.3,16.2,7.9l25.7,75.2c2.3,6.7-1.3,13.9-7.9,16.2l-12,4.1c-1.2,2.3-2.5,4.5-3.9,6.7
		l17.6-6c9.3-3.2,14.3-13.3,11.1-22.6L428,98.6c-3.2-9.3-13.3-14.3-22.6-11.1l-19,6.5c2.5,0.8,5,1.7,7.5,2.8L406.9,92.3z"/>
	<path class="st0" d="M297.3,185.8c6.6,19.3,20.7,34,37.9,41.9c2.3,1.1,4.7,2,7.2,2.9c14.4,4.8,30.5,5.2,46-0.1s28-15.4,36.4-28.1
		c1.4-2.2,2.7-4.4,3.9-6.7c8.8-16.8,10.9-37.1,4.3-56.4c-6.8-19.8-21.4-34.8-39.3-42.6c-2.4-1.1-4.9-2-7.5-2.8
		c-14-4.3-29.4-4.5-44.3,0.6s-27,14.6-35.5,26.6c-1.5,2.2-2.9,4.4-4.2,6.8C293,145.1,290.6,165.9,297.3,185.8z M343.7,99.4
		c34.8-11.9,72.8,6.7,84.7,41.6c11.9,34.8-6.7,72.8-41.6,84.7c-34.8,11.9-72.8-6.7-84.7-41.6C290.2,149.3,308.9,111.3,343.7,99.4z"
		/>
	<path class="st0" d="M385.2,220.8c32.1-11,49.3-46.1,38.4-78.2c-11-32.1-46.1-49.3-78.2-38.4c-32.1,11-49.3,46.1-38.4,78.2
		C318,214.6,353,231.8,385.2,220.8z M347,109c29.5-10.1,61.7,5.7,71.8,35.2c10.1,29.5-5.7,61.7-35.2,71.8s-61.7-5.7-71.8-35.2
		C301.7,151.3,317.5,119.1,347,109z"/>
	<path class="st0" d="M378.6,201.6c21.5-7.4,33-30.8,25.7-52.3c-7.4-21.5-30.8-33-52.3-25.7c-21.5,7.4-33,30.8-25.7,52.3
		C333.6,197.4,357.1,208.9,378.6,201.6z M353.6,128.3c18.9-6.5,39.5,3.7,45.9,22.5c6.5,18.9-3.7,39.5-22.5,45.9
		c-18.9,6.5-39.5-3.7-45.9-22.5C324.6,155.4,334.7,134.8,353.6,128.3z"/>
	<path class="st0" d="M375.3,191.9l-1.6-4.8c-13.6,4.6-28.4-2.6-33-16.2c-1.7-4.9-1.9-10.2-0.5-15.2l-4.9-1.3
		c-1.6,6-1.4,12.3,0.6,18.1C341.4,188.8,359.1,197.5,375.3,191.9z"/>
	<path class="st0" d="M567.1,273.9l118.8-10.5L567.1,273.9z"/>
	<path class="st0" d="M699.5,262.2l-5.1,0.4L699.5,262.2z"/>
	<path class="st0" d="M705,266.8l-142.4,12.6c-0.9,0.1-1.7-0.6-1.8-1.5l-0.3-3.4l-16.6,1.5c-0.9,0.1-1.6,0.9-1.5,1.8l11.1,125.5
		c0.1,0.9,0.9,1.6,1.8,1.5l179-15.8c0.9-0.1,1.6-0.9,1.5-1.8l-6.7-76.3l-2.7,0.2c-0.9,0.1-1.7-0.6-1.8-1.5l-2.6-29.5
		c-0.1-0.9,0.6-1.7,1.5-1.8l2.7-0.2l-1.5-16.4c-0.1-0.9-0.9-1.6-1.8-1.5l-16.6,1.5l0.3,3.4C706.6,265.9,705.9,266.7,705,266.8z
		 M720.1,267.1l10.2,115.5c0.1,0.9-0.6,1.7-1.5,1.8l-169,14.9c-0.9,0.1-1.7-0.6-1.8-1.5l-10.2-115.5c-0.1-0.9,0.6-1.7,1.5-1.8
		l169-14.9C719.2,265.5,720,266.2,720.1,267.1z"/>
	<path class="st0" d="M556.6,320.5l98.3-8.7c0.9-0.1,1.6-0.9,1.5-1.8l-2.1-23.9c-0.1-0.9-0.9-1.6-1.8-1.5l-98.3,8.7
		c-0.9,0.1-1.6,0.9-1.5,1.8l2.1,23.9C554.9,319.9,555.7,320.6,556.6,320.5z M559.7,297.8L648,290c0.9-0.1,1.7,0.6,1.8,1.5l1.2,13.8
		c0.1,0.9-0.6,1.7-1.5,1.8l-88.3,7.8c-0.9,0.1-1.7-0.6-1.8-1.5l-1.2-13.8C558.1,298.7,558.7,297.9,559.7,297.8z"/>
	<path class="st0" d="M658.9,311.4l59.1-5.2c0.9-0.1,1.6-0.9,1.5-1.8l-2.1-23.9c-0.1-0.9-0.9-1.6-1.8-1.5l-59.1,5.2
		c-0.9,0.1-1.6,0.9-1.5,1.8l2.1,23.9C657.2,310.8,658,311.5,658.9,311.4z M661.9,288.8l49.1-4.3c0.9-0.1,1.7,0.6,1.8,1.5l1.2,13.8
		c0.1,0.9-0.6,1.7-1.5,1.8l-49.1,4.3c-0.9,0.1-1.7-0.6-1.8-1.5l-1.2-13.8C660.3,289.7,661,288.9,661.9,288.8z"/>
	<path class="st0" d="M698.2,247.4c0.9-0.1,1.7,0.6,1.8,1.5l1,11.5c0.1,0.9-0.6,1.7-1.5,1.8l-5.1,0.5c0.4,0.5,0.4,1.2,0.1,1.8
		l-0.8,1.5c-0.5,0.8-1.5,1.1-2.3,0.6l-5.5-3.2l-118.7,10.5c-0.9,0.1-1.7-0.6-1.8-1.5l-1-11.5c-0.1-0.9,0.6-1.7,1.5-1.8l97.6-8.6
		l-7.6-4.4l-95.4,8.4c-0.9,0.1-1.6,0.9-1.5,1.8l1.6,18.1l0.3,3.4c0.1,0.9,0.9,1.6,1.8,1.5L705,266.8c0.9-0.1,1.6-0.9,1.5-1.8
		l-0.3-3.4l-1.6-18.1c-0.1-0.9-0.9-1.6-1.8-1.5l-38.3,3.4l7.6,4.4L698.2,247.4z"/>
	<path class="st0" d="M721.9,280.1l2.6,29.5c0.1,0.9,0.9,1.6,1.8,1.5l2.7-0.2l7.4-0.7c0.9-0.1,1.6-0.9,1.5-1.8l-2.6-29.5
		c-0.1-0.9-0.9-1.6-1.8-1.5l-7.4,0.7l-2.7,0.2C722.5,278.4,721.8,279.2,721.9,280.1z M728.9,282.9c0.9-0.1,1.7,0.6,1.8,1.5l1.7,19.5
		c0.1,0.9-0.6,1.7-1.5,1.8c-0.9,0.1-1.7-0.6-1.8-1.5l-1.7-19.5C727.3,283.8,728,283,728.9,282.9z"/>
	<path class="st0" d="M536.8,177.8l119,68.3l7.6,4.4l22.5,12.9l5.5,3.2c0.8,0.5,1.8,0.2,2.3-0.6l0.8-1.5c0.3-0.6,0.3-1.3-0.1-1.8
		c-0.1-0.2-0.3-0.3-0.5-0.5l-21.7-12.5l-7.6-4.4l-125.3-71.9c-0.8-0.5-1.8-0.2-2.3,0.6l-0.8,1.5C535.7,176.3,536,177.3,536.8,177.8z
		"/>
	<path class="st0" d="M356.3,726.7l-72.3,99l-34.4,9.3c-3.5,0.8-4.4,2.8-4.6,3.9c-0.2,1.1-0.2,3.4,2.7,5.5l195.9,143
		c3,2.2,5,1.5,6,0.9c1-0.6,2.5-2.1,2-5.8l-5.8-38.9l72.2-98.9L356.3,726.7z M444.7,941l-3,4.1l-0.9-0.6l5.8,38.9v0.1
		c0,0-0.1,0-0.1-0.1l-195.9-143c-0.2-0.1-0.3-0.2-0.4-0.3c0.1,0,0.3-0.1,0.5-0.1l34.3-9.2l-1-0.7l3-4.1l2,1.5l68.3-93.6l153.7,112
		l-68.3,93.6L444.7,941z"/>
	<polygon class="st0" points="287,825.9 284,830 285,830.7 440.8,944.5 441.7,945.1 444.7,941 442.6,939.5 289,827.4 	"/>
	<path class="st0" d="M284.6,832.8l-20.1,5.8l178,129.9l-3.6-23.1L284.6,832.8z M275.7,840.6l7.8-2.3l150.6,110l1.4,9L275.7,840.6z"
		/>
	<path class="st0" d="M358,740l-62.8,86l146.3,106.8l62.8-86L358,740z M440.4,925.7L302.3,824.9l56.8-77.8l138.1,100.8L440.4,925.7z
		"/>
</g>
</svg>
