<?xml version="1.0" encoding="utf-8"?>
<!-- Generator: Adobe Illustrator 24.0.0, SVG Export Plug-In . SVG Version: 6.00 Build 0)  -->
<svg version="1.1" id="hero-charm" class="hero-charm" xmlns="http://www.w3.org/2000/svg" xmlns:xlink="http://www.w3.org/1999/xlink" x="0px" y="0px"
	 viewBox="0 0 284.1 266.2" style="enable-background:new 0 0 284.1 266.2;" xml:space="preserve">
<g>
	<path d="M128.8,165.8c-9.3-6-18.5-12-27.8-18c2.9-4.3,5.8-8.5,8.7-12.7s5.8-8.4,8.7-12.6s5.8-8.4,8.8-12.8
		c-14.8-5.5-29.5-10.9-44.3-16.3c-0.4,0.5-0.7,0.9-1,1.4c-6.4,9.3-12.7,18.5-19.1,27.8c-3.1,4.5-6.2,9-9.3,13.5
		c-5.1,7.6-6.3,15.8-3.2,24.4c2.2,5.9,6.1,10.5,11.4,14c18.7,12.2,37.4,24.4,56.2,36.6c2.7,1.8,5.6,3.2,8.7,4.1
		c12,3.6,24.4-0.7,31.5-11c13.5-19.7,27-39.3,40.5-59c17.5-25.6,35.1-51.1,52.7-76.6c0.2-0.3,0.4-0.6,0.7-0.9
		c0.2,0.2,0.4,0.4,0.6,0.6c7.8,8.3,15.7,16.7,23.5,25c0.7,0.7,1.4,1.5,2,2.2c4.7,5.5,6.8,11.8,5.7,19c-0.2,1.1-0.4,2.3-0.8,3.4
		c-12,36.8-23.9,73.7-35.9,110.5c-1.5,4.5-4.2,8.3-8.1,11.1c-3.5,2.5-7.3,4.3-11.6,5.1c-35.4,6.7-70.8,13.5-106.2,20.2
		c-0.7,0.1-1.5,0.3-2.2,0.5c-7.3,1.7-14.4,1.1-21.4-1.7c-4.9-2-9.1-4.9-12.7-8.7C59.5,227.8,34,200.7,8.6,173.6
		c-0.9-0.9-1.7-1.8-2.5-2.8c-4.6-5.3-6.7-11.3-5.9-18.3c0.2-1.5,0.6-3,1-4.4c7.2-22.2,14.4-44.3,21.6-66.5
		c4.7-14.4,9.4-28.8,14-43.2c1.9-5.9,5.5-10.2,10.9-13.3c3-1.7,6.2-2.8,9.6-3.5c35.3-6.7,70.7-13.5,106-20.2
		c0.7-0.1,1.4-0.3,2.1-0.5c7.7-1.7,15.1-0.9,22.2,2.2c4.5,2,8.3,4.8,11.7,8.3c6.6,7,13.1,14,19.7,21c0.3,0.3,0.5,0.6,0.8,1
		C189.6,77.4,159.3,121.5,128.8,165.8z"/>
</g>
</svg>
