<?xml version="1.0" encoding="utf-8"?>
<!-- Generator: Adobe Illustrator 24.0.0, SVG Export Plug-In . SVG Version: 6.00 Build 0)  -->
<svg version="1.1" id="instagram-icon" class="icon instagram" xmlns="http://www.w3.org/2000/svg" xmlns:xlink="http://www.w3.org/1999/xlink" x="0px" y="0px" viewBox="0 0 517.76 517.13" style="enable-background:new 0 0 517.76 517.13;" xml:space="preserve">
<g>
	<path d="M458.2,303.38c-0.12,0.61-0.33,1.21-0.35,1.82c-0.38,14.38-0.61,28.77-1.13,43.15c-0.74,20.39-5.69,39.64-16.14,57.32
		c-11.81,19.98-28.84,33.71-50.3,42.2c-12.78,5.06-26.03,7.66-39.73,8.14c-14.86,0.52-29.71,1.22-44.57,1.47
		c-19.91,0.34-39.82,0.34-59.74,0.44c-8.08,0.04-16.16,0.12-24.24-0.1c-19.57-0.54-39.17-0.74-58.71-1.99
		c-25.54-1.64-48.47-10.41-67.74-27.69C82.38,416.32,73.69,401.59,68,384.96c-4.71-13.76-6.58-27.95-6.86-42.43
		c-0.18-9.19-0.68-18.37-0.84-27.56c-0.25-14.71-0.37-29.42-0.5-44.14c-0.11-13.43-0.32-26.87-0.21-40.3
		c0.17-19.26,0.37-38.53,1.75-57.76c0.57-7.89,1.09-15.81,2.3-23.61c3.29-21.03,12.37-39.39,26.79-55.02
		c13.51-14.66,30.41-23.64,49.49-28.79c9.22-2.48,18.64-3.69,28.14-4.41c11.25-0.86,22.52-1.07,33.79-1.17
		c9.68-0.08,19.35-0.18,29.03-0.23c11.6-0.06,23.2-0.03,34.79-0.1c9.43-0.06,18.87-0.34,28.3-0.28c15.99,0.1,31.97,0.49,47.92,1.7
		c6.85,0.52,13.72,0.87,20.57,1.49c14.8,1.34,28.56,5.95,41.45,13.29c25.85,14.72,41.64,36.96,48.96,65.52
		c2.33,9.1,3.32,18.39,3.85,27.74c0.94,16.37,1.15,32.76,1.1,49.15c0,0.76,0.23,1.52,0.35,2.28
		C458.2,248.02,458.2,275.7,458.2,303.38z M256.83,87.14c0,0.08,0,0.16,0,0.24c-9.04,0-18.08-0.06-27.12,0.02
		c-8.39,0.07-16.79,0.23-25.18,0.45c-10.15,0.27-20.29,0.67-30.44,0.97c-9.3,0.28-18.49,1.26-27.47,3.83
		c-10.96,3.14-21.17,7.76-29.9,15.23c-15.39,13.18-23.49,30.27-26.14,50.05c-1.01,7.51-1.13,15.13-1.55,22.71
		c-0.94,16.93-1.37,33.87-1.32,50.82c0.01,3.04,0.12,6.07,0.14,9.11c0.07,9.2,0.15,18.39,0.16,27.59
		c0.02,24.39,0.14,48.77,0.94,73.15c0.4,12.22,1.94,24.2,5.9,35.81c6.75,19.8,19.52,34.2,38.5,43.09
		c11.86,5.55,24.43,7.89,37.4,8.44c8.7,0.36,17.41,0.71,26.12,0.92c13.35,0.32,26.69,0.67,40.04,0.74
		c18.95,0.09,37.91-0.07,56.87-0.12c3.04-0.01,6.08,0.03,9.12-0.01c4.64-0.06,9.27-0.11,13.91-0.28c9.18-0.34,18.36-0.85,27.55-1.13
		c11.58-0.36,22.92-2,33.86-5.94c11.23-4.04,21.2-10.06,29.35-18.9c12.64-13.71,19.08-30.14,20.78-48.47
		c0.98-10.5,1.5-21.05,1.86-31.59c0.42-12.14,0.54-24.3,0.59-36.45c0.05-13.04-0.13-26.07-0.21-39.11
		c-0.06-10.08-0.1-20.15-0.17-30.23c-0.03-3.92-0.04-7.84-0.17-11.75c-0.39-11.58-0.91-23.16-1.24-34.74
		c-0.3-10.55-2-20.83-5.38-30.82c-6.9-20.43-20.14-35.11-39.87-43.92c-11.79-5.27-24.25-7.42-37.04-7.99
		c-8.7-0.39-17.41-0.7-26.12-0.9c-14.31-0.33-28.61-0.58-42.92-0.78C270.74,87.06,263.79,87.14,256.83,87.14z"/>
	<path d="M258.97,358.97C204.22,358.64,159,315.04,158.83,259c-0.18-56.77,45.09-99.33,97.96-100.62
		c55.3-1.35,101.23,42.75,102.58,97.94C360.69,310.54,317.43,358.6,258.97,358.97z M258.97,331.14
		c41.36-0.4,71.89-33.69,72.53-71.11c0.69-40.29-31.59-72.76-70.44-73.81c-38.99-1.05-74.39,29.63-74.39,72.43
		C186.68,300.26,220.24,330.71,258.97,331.14z"/>
	<path d="M387.87,149.78c-0.02,11.12-8.86,19.94-19.99,19.91c-10.97-0.02-19.83-8.88-19.84-19.84c-0.01-11.18,8.78-20.03,19.88-20
		C379.11,129.89,387.89,138.65,387.87,149.78z"/>
</g>
</svg>
