<?xml version="1.0" encoding="utf-8"?>
<!-- Generator: Adobe Illustrator 24.0.0, SVG Export Plug-In . SVG Version: 6.00 Build 0)  -->
<svg version="1.1" id="linkedin-icon" class="icon linkedin" xmlns="http://www.w3.org/2000/svg" xmlns:xlink="http://www.w3.org/1999/xlink" x="0px" y="0px" viewBox="0 0 517.76 517.13" style="enable-background:new 0 0 517.76 517.13;" xml:space="preserve">
<g>
	<path d="M205.24,481.04c-0.74-0.24-1.48-0.51-2.23-0.71c-8.38-2.23-13.97-9.48-13.97-18.16c0-85.4,0-170.8,0-256.2
		c0-10.96,8.08-19.05,19-19.05c3.84,0,7.68,0.01,11.52,0c8.8-0.02,17.6-0.08,26.39-0.07c12.64,0,25.28,0.03,37.91,0.08
		c7.55,0.03,13.13,3.44,16.86,9.95c0.1,0.17,0.2,0.34,0.34,0.59c0.32-0.18,0.63-0.33,0.92-0.51c12.91-8.12,26.93-13.14,42.02-15.25
		c10.91-1.53,21.83-1.43,32.78-0.45c11.64,1.04,23,3.32,33.92,7.55c23.95,9.26,40.84,25.83,51.12,49.28
		c4.75,10.82,7.79,22.13,9.79,33.74c2.12,12.27,3.13,24.65,3.37,37.1c0.08,4.03,0.23,8.07,0.23,12.1
		c0.02,47.12,0.04,94.24-0.02,141.36c-0.01,9.04-6.12,15.36-12.44,17.49c-1.27,0.43-2.57,0.79-3.86,1.19c-28.24,0-56.48,0-84.72,0
		c-0.36-0.16-0.7-0.38-1.07-0.46c-8.71-1.82-15.01-9.57-15.01-18.5c0.01-9.28,0.04-18.56,0.04-27.84c-0.01-25.2-0.04-50.4-0.03-75.6
		c0.01-15.47,0.16-30.95-1.2-46.39c-0.46-5.17-1.5-10.19-3.68-14.93c-2.14-4.67-5.65-7.65-10.78-8.6
		c-6.55-1.21-13.05-0.97-19.46,0.84c-3.82,1.08-6.91,3.27-9.27,6.46c-2.36,3.2-3.78,6.84-4.79,10.64
		c-2.17,8.09-2.84,16.37-2.85,24.7c-0.04,30.92-0.02,61.84-0.02,92.76c0,12.44,0.01,24.88,0,37.32c-0.02,9.75-5.36,16.61-14.8,19.09
		c-0.45,0.12-0.88,0.32-1.32,0.48C261.72,481.04,233.48,481.04,205.24,481.04z M281.56,456.28c0-0.65,0-1.16,0-1.68
		c0-38.68-0.05-77.35,0.04-116.03c0.02-7.74,0.38-15.5,0.98-23.23c0.62-8.03,2.38-15.87,5.49-23.35
		c4.92-11.83,12.98-20.5,25.23-24.88c11.39-4.08,22.99-4.73,34.81-2.17c9.18,1.99,16.78,6.49,22.52,13.97
		c4.72,6.14,7.43,13.18,9.09,20.67c2.23,10.12,2.86,20.41,2.87,30.74c0.04,41.48,0.02,82.95,0.02,124.43c0,0.5,0,1,0,1.49
		c22.78,0,45.4,0,68.12,0c0-0.63,0-1.18,0-1.73c-0.03-44.83-0.05-89.67-0.08-134.5c0-2.4-0.07-4.8-0.07-7.19
		c-0.02-11.09-0.85-22.12-2.45-33.09c-1.47-10.07-3.81-19.92-7.67-29.36c-8.27-20.24-22.62-33.99-43.63-40.4
		c-15.45-4.72-31.28-5.91-47.32-4.22c-10.11,1.07-19.69,4.03-28.72,8.7c-7.93,4.1-14.87,9.49-20.97,15.99
		c-3.65,3.9-8.87,5.1-13.71,3.2c-4.79-1.88-7.68-6.24-7.69-11.63c-0.01-2.68,0-5.36,0-8.04c0-0.79,0-1.57,0-2.37
		c-21.66,0-43.16,0-64.69,0c0,81.59,0,163.12,0,244.69C236.33,456.28,258.87,456.28,281.56,456.28z"/>
	<path d="M65.32,481.04c-1.21-0.37-2.44-0.7-3.64-1.11c-7.74-2.65-12.55-9.52-12.68-18.08c0-0.24,0-0.48,0-0.72
		c0-84.72,0-169.44-0.01-254.16c0-4,0.72-7.8,2.86-11.23c3.76-6.03,9.37-8.78,16.32-8.8c26.52-0.05,53.04-0.05,79.56,0
		c10.37,0.02,18.35,8.12,18.51,18.57c0,0.16,0,0.32,0,0.48c0,85.28,0.01,170.56-0.01,255.84c0,7.12-2.87,12.81-9.14,16.45
		c-1.73,1.01-3.76,1.51-5.65,2.25c-0.39,0.15-0.77,0.34-1.16,0.52C121.96,481.04,93.64,481.04,65.32,481.04z M141.6,456.32
		c0-81.66,0-163.2,0-244.76c-22.65,0-45.23,0-67.82,0c0,81.63,0,163.19,0,244.76C96.42,456.32,118.97,456.32,141.6,456.32z"/>
	<path d="M109.48,36.08c1.5,0.15,3,0.29,4.49,0.44c14.97,1.54,27.85,7.61,38.72,17.96c9.4,8.95,15.54,19.77,18.38,32.46
		c6.49,29.03-7.3,58.95-34.03,72.15c-19.13,9.45-38.91,10.24-58.15,0.34c-20.03-10.31-32.16-26.78-35.6-49.3
		c-0.26-1.73-0.51-3.45-0.77-5.18c0-2.48,0-4.96,0-7.44c0.32-2.04,0.62-4.08,0.97-6.11c2.41-14.38,8.33-26.99,19.11-37
		c11.02-10.23,23.99-16.39,39.04-17.9c1.41-0.14,2.83-0.29,4.24-0.43C107.08,36.08,108.28,36.08,109.48,36.08z M67.2,101.32
		c0.04,22.12,18.05,39.89,39.47,40.35c23.23,0.5,40.99-18.24,41.45-39.72c0.47-22.14-17.72-40.93-39.92-41.12
		C85.46,60.65,67.24,78.75,67.2,101.32z"/>
</g>
</svg>
