<?xml version="1.0" encoding="utf-8"?>
<!-- Generator: Adobe Illustrator 24.0.0, SVG Export Plug-In . SVG Version: 6.00 Build 0)  -->
<svg version="1.1" id="resume-icon" class="icon resume" xmlns="http://www.w3.org/2000/svg" xmlns:xlink="http://www.w3.org/1999/xlink" x="0px" y="0px" viewBox="0 0 517.76 517.13" style="enable-background:new 0 0 517.76 517.13;" xml:space="preserve">
<path d="M400.48,517.13c-113.28,0-226.56,0-339.84,0c-0.61-0.14-1.22-0.36-1.84-0.42c-21.42-2.16-39.28-19.56-41.91-40.8
	c-0.14-1.16-0.59-2.28-0.89-3.42c0-142.56,0-285.12,0-427.68c0.38-1.79,0.8-3.56,1.12-5.36C21.43,15.5,42.26-0.03,64.37,0
	c97.18,0.12,194.37,0.07,291.55,0.01c4.95,0,8.72,1.73,11.92,5.46c17.65,20.58,35.38,41.09,53.09,61.63
	c6.74,7.81,13.44,15.66,20.23,23.43c2.49,2.85,3.8,6.05,3.72,9.84c-0.02,0.96,0,1.92,0,2.88c0,82.47,0.01,164.93-0.04,247.4
	c0,2.1,0.64,3.55,2.11,5.01c14.02,13.92,27.97,27.91,41.94,41.88c6.8,6.8,11.58,14.64,12.54,24.44c0.02,0.21,0.23,0.4,0.35,0.6
	c0,3.04,0,6.08,0,9.12c-0.25,1.48-0.43,2.98-0.76,4.44c-3.06,13.22-10.32,23.43-22.09,30.23c-9.32,5.39-19.29,6.91-29.8,4.18
	c-1.29-0.34-2.57-0.76-4.13-1.22c-0.15,2.07-0.22,3.96-0.45,5.83c-2.33,19.69-17.02,36.11-36.31,40.56
	C405.67,516.3,403.06,516.66,400.48,517.13z M344.8,25.13c-1.42,0-2.45,0-3.48,0c-91.76,0-183.51,0-275.27,0
	c-0.8,0-1.6-0.02-2.4,0.01c-7.81,0.32-13.96,3.68-18.36,10.14c-2.8,4.11-3.78,8.73-3.78,13.65c0.01,139.68,0.01,279.35,0.01,419.03
	c0,0.56-0.01,1.12,0.01,1.68c0.33,10.07,6.65,18.56,16.11,21.24c2.49,0.71,5.2,0.92,7.81,0.92c110.08,0.04,220.17,0.04,330.25,0.04
	c0.64,0,1.28,0.01,1.92,0c12.29-0.21,21.99-9.96,22.1-22.25c0.05-6.16-0.03-12.32,0.04-18.48c0.01-1.39-0.43-2.37-1.41-3.35
	c-40.63-40.6-81.23-81.23-121.83-121.85c-0.49-0.49-1.04-0.93-1.61-1.43c-20.07,10.03-41.22,14.92-63.53,14.56
	c-22.31-0.36-43.32-5.84-62.93-16.53c-19.6-10.69-35.68-25.31-48.16-43.82c-35.71-52.93-29.85-123.47,14.07-169.91
	c43.96-46.48,114.02-56.36,168.83-23.59c27.39,16.37,47.02,39.56,58.11,69.5c13.76,37.16,11.26,73.7-5.6,109
	c21.26,21.43,42.38,42.72,63.5,64.01c0.03,0.03,0.14,0.01,0.21-0.01c0.07-0.02,0.14-0.07,0.32-0.16c0-71.22,0-142.49-0.01-213.77
	c0-0.4-0.07-0.79-0.12-1.19c-0.01-0.07-0.08-0.13-0.13-0.19c-0.05-0.06-0.12-0.1-0.34-0.29c-0.79,0-1.74,0-2.69,0
	c-15.28,0-30.56,0.01-45.84-0.01c-1.75,0-3.53-0.03-5.26-0.31c-12.8-2.14-20.68-13.36-20.58-24.68c0.18-19.6,0.05-39.2,0.05-58.8
	C344.8,27.34,344.8,26.4,344.8,25.13z M189.59,222.95c-26.14-25.01-25.58-63.59-3.93-87.53c21.22-23.46,56.5-27.5,82.14-9.25
	c12.98,9.23,21.55,21.64,24.87,37.22c4.92,23.08-1.74,42.88-18.38,59.62c10.59,4.67,20.01,10.62,28.48,18.08
	c8.45,7.43,15.49,16.05,21.38,25.75c29.51-39.9,30.09-104.17-15.22-146.18c-44.4-41.17-113.91-39.03-155.59,4.6
	c-41.81,43.78-37.14,104.59-12.06,139.06C153.19,245.74,169.23,232,189.59,222.95z M158.77,284.82
	c43.49,40.28,109.07,36.58,147.35,1.77c-5.63-11.96-13.68-22.04-24.2-30.11c-14.29-10.96-30.49-16.71-48.48-17.06
	C198.96,238.75,170.67,259.89,158.77,284.82z M368.27,361.99c0.39,0.43,0.79,0.92,1.23,1.37c25.83,25.84,51.66,51.69,77.53,77.48
	c1.56,1.56,3.43,2.9,5.35,3.99c3.57,2.02,7.4,2.35,11.34,0.98c7.14-2.48,12.92-10.43,13.03-17.99c0.08-4.96-2.05-8.9-5.48-12.33
	c-25.57-25.54-51.12-51.1-76.67-76.65c-0.55-0.55-1.14-1.07-1.49-1.39C384.79,345.68,376.56,353.8,368.27,361.99z M194.74,177.16
	c0.06,20.52,16.85,37.19,37.39,37.11c20.42-0.08,37.04-16.81,36.97-37.24c-0.07-20.57-16.81-37.22-37.34-37.14
	C211.42,139.97,194.68,156.82,194.74,177.16z M350.22,343.39c8-8,16.18-16.18,24.08-24.09c-10.87-10.87-21.91-21.91-33.05-33.05
	c-6.96,8.97-15.13,17.11-24.08,24.08C328.36,321.54,339.41,332.59,350.22,343.39z M404.79,86.89C393.1,73.34,381.74,60.15,370,46.54
	c0,13.85,0,27.04,0,40.35C381.49,86.89,392.81,86.89,404.79,86.89z"/>
<path d="M233.97,400.17c19.11,0,38.22,0.05,57.34-0.04c4.39-0.02,9.66,2.56,11.75,7.96c3.18,8.19-2.71,17.04-11.51,17.09
	c-14.63,0.08-29.27,0.02-43.9,0.02c-23.59,0-47.18-0.01-70.77,0.01c-4.58,0-8.27-1.75-10.81-5.56c-2.71-4.05-2.99-8.42-0.73-12.74
	c2.29-4.39,6.03-6.74,11.06-6.74C195.59,400.16,214.78,400.17,233.97,400.17z"/>
</svg>
