<?xml version="1.0" encoding="utf-8"?>
<!-- Generator: Adobe Illustrator 24.0.0, SVG Export Plug-In . SVG Version: 6.00 Build 0)  -->
<svg version="1.1" id="twitter-icon" class="icon twitter" xmlns="http://www.w3.org/2000/svg" xmlns:xlink="http://www.w3.org/1999/xlink" x="0px" y="0px" viewBox="0 0 517.76 517.13" style="enable-background:new 0 0 517.76 517.13;" xml:space="preserve">
<path d="M133.26,374.07c-0.97-0.44-1.67-0.8-2.39-1.09c-10.49-4.26-20.48-9.42-29.5-16.32c-16.68-12.75-28.74-28.97-36.24-48.57
	c-0.49-1.27-0.95-2.55-1.45-3.81c-2.03-5.09-0.91-9.55,2.69-13.51c0.85-0.94,1.73-1.86,2.69-2.89c-2.43-2.27-4.78-4.4-7.07-6.6
	c-12.63-12.12-21.81-26.47-27.63-42.98c-3.86-10.95-5.74-22.26-5.98-33.85c-0.03-1.51,0.07-3.06,0.39-4.53
	c1.27-5.79,5.02-9.09,10.72-10.28c1.39-0.29,2.8-0.49,4.55-0.79c-0.49-0.94-0.85-1.7-1.26-2.43c-5.84-10.49-10.05-21.58-12.13-33.43
	c-3.98-22.73-1.13-44.58,8.65-65.5c1.35-2.89,2.9-5.7,4.4-8.52c0.49-0.91,1.07-1.79,1.71-2.6c4.1-5.11,10.87-6.26,16.31-2.63
	c1.57,1.05,2.94,2.46,4.24,3.86c5.66,6.09,11.07,12.42,16.91,18.34c18.46,18.7,39.64,33.77,62.78,46.14
	c24.23,12.95,49.89,21.81,76.9,26.75c6.59,1.21,13.25,2.04,20.2,3.09c0-1.16-0.03-2.1,0.01-3.03c0.26-6.47,0.28-12.95,0.85-19.39
	c0.99-11.09,4.29-21.6,9.04-31.65c10.88-23.01,28.19-39.66,50.65-51.23c10.82-5.57,22.2-9.48,34.25-11.2
	c30.38-4.35,58.15,2.12,82.92,20.5c3.52,2.62,6.8,5.58,10.12,8.45c1.49,1.29,3.11,2.13,5.03,2.62c15.22,3.85,29.82,1.95,43.91-4.65
	c3.62-1.69,7.12-3.63,10.7-5.4c2.88-1.42,5.88-1.96,9.07-1.16c5.57,1.39,9.17,5.84,9.36,11.59c0.29,8.68-1.45,17.01-4.26,25.15
	c-5.4,15.65-14.21,29.3-25.01,41.7c-3.77,4.33-8.03,8.24-12.21,12.19c-1.6,1.51-2.26,3.07-2.23,5.25
	c0.06,6.23,0.12,12.48-0.19,18.69c-0.66,12.86-2.17,25.64-4.65,38.29c-4.89,24.99-12.82,48.97-23.91,71.91
	c-12.91,26.71-29.6,50.8-49.92,72.38c-21.68,23.03-46.54,41.91-74.55,56.6c-26.97,14.15-55.51,23.65-85.48,28.96
	c-12.22,2.17-24.53,3.35-36.92,4.04c-14.31,0.79-28.59,0.64-42.87-0.61c-27.49-2.4-54.1-8.53-79.89-18.29
	c-15.98-6.05-31.12-13.78-45.74-22.57c-1.85-1.11-3.72-2.19-5.57-3.3c-5.27-3.15-7.23-7.99-5.66-13.93
	c1.51-5.71,5.7-9.07,11.69-9.14c2.55-0.03,5.11,0.23,7.65,0.47c10.86,1.03,21.7,0.98,32.56,0.01c24.42-2.16,47.5-8.98,69.43-19.84
	C131.62,374.99,132.29,374.59,133.26,374.07z M478.88,109.97c-0.82,0.14-1.36,0.21-1.89,0.34c-14.46,3.54-29.02,4.38-43.77,2.06
	c-7.75-1.22-14.43-4.22-20.05-9.85c-7.01-7.01-15.13-12.54-24.19-16.62c-16.42-7.4-33.5-8.33-50.95-4.98
	c-19.41,3.72-35.75,13.01-49.14,27.52c-14.58,15.8-21.6,34.46-21.19,55.93c0.12,6.34,1.15,12.56,2.41,18.76
	c0.28,1.38,0.35,2.88,0.14,4.27c-0.97,6.39-6,10.68-12.51,10.6c-3.43-0.04-6.86-0.37-10.29-0.62c-12.78-0.92-25.41-2.87-37.92-5.58
	c-25.13-5.43-49.13-14.06-72.02-25.76c-15.35-7.85-29.85-17.02-43.62-27.4c-11.9-8.98-22.91-18.96-33.37-29.57
	c-0.65-0.66-1.32-1.29-2.13-2.07c-0.27,0.56-0.44,0.83-0.52,1.12c-3.83,13.41-5.1,26.98-2.37,40.77
	c2.66,13.41,8.07,25.55,16.7,36.22c5.27,6.52,11.41,12.07,18.25,16.89c1.43,1.01,2.89,2.05,4.08,3.33
	c3.57,3.85,4.17,8.38,2.29,13.15c-1.87,4.75-5.44,7.44-10.63,7.57c-2.79,0.07-5.63,0.13-8.37-0.3c-6.78-1.07-13.52-2.43-20.28-3.66
	c-0.59-0.11-1.2-0.16-1.97-0.26c0.5,1.71,0.89,3.18,1.35,4.62c8.09,25.28,24.24,43.37,48.5,54.16c5.13,2.28,10.49,3.85,15.97,5.05
	c2.36,0.52,4.65,1.2,6.49,2.88c3.85,3.51,5.1,7.83,3.83,12.84c-1.19,4.7-4.28,7.55-8.91,8.79c-6.81,1.83-13.75,2.91-20.8,3.32
	c-1.96,0.11-3.92,0.32-6.25,0.52c0.58,0.96,0.95,1.63,1.39,2.26c3.36,4.89,7.15,9.43,11.43,13.55
	c13.1,12.62,28.53,20.68,46.55,23.51c4.49,0.7,9.06,0.94,13.58,1.43c4.27,0.46,7.65,2.45,9.53,6.38c2.93,6.11,1.58,12.02-3.46,15.91
	c-10.17,7.83-20.99,14.61-32.4,20.47c-19.71,10.14-40.59,16.71-62.36,20.63c-1.99,0.36-3.97,0.79-5.95,1.18
	c0.63,0.68,1.24,0.99,1.89,1.21c4.92,1.66,9.83,3.37,14.77,4.95c19.5,6.23,39.48,10.04,59.86,11.71c10.2,0.83,20.43,0.99,30.67,0.72
	c17.08-0.44,33.95-2.5,50.64-6.05c23.34-4.96,45.65-12.86,66.85-23.85c25.36-13.15,47.97-29.97,67.73-50.59
	c19.86-20.72,35.97-44.05,48.24-70.01c8.68-18.36,15.16-37.45,19.49-57.29c2.99-13.7,4.77-27.56,5.57-41.54
	c0.28-4.79,0.32-9.59,0.35-14.38c0.02-3.35-0.17-6.71-0.3-10.07c-0.22-5.59,2.18-9.91,6.58-13.14c4.73-3.48,8.93-7.51,12.95-11.76
	c7.14-7.56,12.64-16.27,17.51-25.41C477.53,112.62,478.13,111.42,478.88,109.97z"/>
</svg>
