<?xml version="1.0" standalone="no"?>
<!DOCTYPE svg PUBLIC "-//W3C//DTD SVG 1.1//EN" "http://www.w3.org/Graphics/SVG/1.1/DTD/svg11.dtd" >
<svg xmlns="http://www.w3.org/2000/svg" xmlns:xlink="http://www.w3.org/1999/xlink" version="1.1">
<metadata>
Created by FontForge 20190801 at Sat Sep  7 00:26:29 2019
 By Jimmy Wärting

</metadata>
<defs>
<font id="SFProDisplay-LightItalic" horiz-adv-x="0" >
  <font-face 
    font-family="SFProDisplay"
    font-weight="300"
    font-style="italic"
    font-stretch="normal"
    units-per-em="2048"
    panose-1="0 0 0 0 0 0 0 0 0 0"
    ascent="1638"
    descent="-410"
    x-height="1040"
    cap-height="1443"
    bbox="-505 -494 2714 2170"
    underline-thickness="95"
    underline-position="-369"
    slope="-12"
    stemh="120"
    stemv="134"
    unicode-range="U+0020-1F16B"
  />
<missing-glyph horiz-adv-x="2048" 
d="M338 1642l65 308h1848l-66 -308h-1847zM247 1215l66 308h1847l-65 -308h-1848zM156 788l66 307h1847l-65 -307h-1848zM66 361l65 307h1847l-65 -307h-1847zM-25 -67l65 308h1847l-65 -308h-1847zM-116 -494l65 308h1848l-66 -308h-1847z" />
    <glyph glyph-name=".notdef" horiz-adv-x="2048" 
d="M338 1642l65 308h1848l-66 -308h-1847zM247 1215l66 308h1847l-65 -308h-1848zM156 788l66 307h1847l-65 -307h-1848zM66 361l65 307h1847l-65 -307h-1847zM-25 -67l65 308h1847l-65 -308h-1847zM-116 -494l65 308h1848l-66 -308h-1847z" />
    <glyph glyph-name=".null" 
 />
    <glyph glyph-name="nonmarkingreturn" unicode="&#x2029;" 
 />
    <glyph glyph-name="nonmarkingreturn" unicode="&#x2028;" 
 />
    <glyph glyph-name="space" unicode=" " horiz-adv-x="479" 
 />
    <glyph glyph-name="A" unicode="A" horiz-adv-x="1261" 
d="M996 0l-67 443h-609l-256 -443h-152l845 1443h138l231 -1443h-130zM794 1274l-409 -714h526l-113 714h-4z" />
    <glyph glyph-name="Agrave" unicode="&#xc0;" horiz-adv-x="1261" 
d="M792 1558l-129 288h146l91 -288h-108zM996 0l-67 443h-609l-256 -443h-152l845 1443h138l231 -1443h-130zM794 1274l-409 -714h526l-113 714h-4z" />
    <glyph glyph-name="Aacute" unicode="&#xc1;" horiz-adv-x="1261" 
d="M901 1558h-110l213 288h148zM996 0l-67 443h-609l-256 -443h-152l845 1443h138l231 -1443h-130zM794 1274l-409 -714h526l-113 714h-4z" />
    <glyph glyph-name="Adieresis" unicode="&#xc4;" horiz-adv-x="1261" 
d="M709 1623c-49 0 -89 40 -89 88c0 50 40 89 89 89s88 -39 88 -89c0 -48 -39 -88 -88 -88zM1050 1623c-48 0 -88 40 -88 88c0 50 40 89 88 89c50 0 89 -39 89 -89c0 -48 -39 -88 -89 -88zM996 0l-67 443h-609l-256 -443h-152l845 1443h138l231 -1443h-130zM794 1274
l-409 -714h526l-113 714h-4z" />
    <glyph glyph-name="Adieresismacron" unicode="&#x1de;" horiz-adv-x="1261" 
d="M1245 1979l-19 -91h-617l20 91h616zM701 1730c48 0 88 -39 88 -88s-40 -88 -88 -88s-88 39 -88 88s40 88 88 88zM1029 1730c49 0 88 -39 88 -88s-39 -88 -88 -88c-47 0 -87 39 -87 88s40 88 87 88zM996 0l-67 443h-609l-256 -443h-152l845 1443h138l231 -1443h-130z
M794 1274l-409 -714h526l-113 714h-4z" />
    <glyph glyph-name="Aring" unicode="&#x212b;" horiz-adv-x="1261" 
d="M881 1539c-100 0 -182 83 -182 183s82 182 182 182s182 -82 182 -182s-82 -183 -182 -183zM881 1611c62 0 111 49 111 111c0 61 -49 110 -111 110s-110 -49 -110 -110c0 -62 48 -111 110 -111zM996 0l-67 443h-609l-256 -443h-152l845 1443h138l231 -1443h-130zM794 1274
l-409 -714h526l-113 714h-4z" />
    <glyph glyph-name="Aring" unicode="&#xc5;" horiz-adv-x="1261" 
d="M881 1539c-100 0 -182 83 -182 183s82 182 182 182s182 -82 182 -182s-82 -183 -182 -183zM881 1611c62 0 111 49 111 111c0 61 -49 110 -111 110s-110 -49 -110 -110c0 -62 48 -111 110 -111zM996 0l-67 443h-609l-256 -443h-152l845 1443h138l231 -1443h-130zM794 1274
l-409 -714h526l-113 714h-4z" />
    <glyph glyph-name="Aringacute" unicode="&#x1fa;" horiz-adv-x="1261" 
d="M1032 2095h131l-175 -168h-117zM871 1514c-96 0 -176 67 -176 169c0 105 80 181 182 181c97 0 177 -67 176 -169c-1 -105 -79 -181 -182 -181zM871 1584c65 0 110 44 109 109c0 60 -43 101 -103 101c-63 0 -109 -44 -109 -109c0 -60 44 -101 103 -101zM996 0l-67 443
h-609l-256 -443h-152l845 1443h138l231 -1443h-130zM794 1274l-409 -714h526l-113 714h-4z" />
    <glyph glyph-name="Atilde" unicode="&#xc3;" horiz-adv-x="1261" 
d="M568 1617c24 120 89 208 196 208c133 0 160 -146 239 -146c45 0 74 45 92 115h101c-24 -121 -89 -209 -196 -209c-134 0 -159 145 -239 145c-46 0 -74 -43 -91 -113h-102zM996 0l-67 443h-609l-256 -443h-152l845 1443h138l231 -1443h-130zM794 1274l-409 -714h526
l-113 714h-4z" />
    <glyph glyph-name="Abrevegrave" unicode="&#x1eb0;" horiz-adv-x="1261" 
d="M964 1805h-109l-160 211h127zM861 1546c-204 0 -279 141 -270 256h96c-1 -90 56 -167 180 -167c104 0 186 61 207 167h99c-23 -152 -141 -256 -312 -256zM996 0l-67 443h-609l-256 -443h-152l845 1443h138l231 -1443h-130zM794 1274l-409 -714h526l-113 714h-4z" />
    <glyph glyph-name="Adotmacron" unicode="&#x1e0;" horiz-adv-x="1261" 
d="M1245 1979l-20 -91h-617l21 91h616zM870 1570c-55 0 -100 45 -100 100c0 56 45 101 100 101c56 0 101 -45 101 -101c0 -55 -45 -100 -101 -100zM996 0l-67 443h-609l-256 -443h-152l845 1443h138l231 -1443h-130zM794 1274l-409 -714h526l-113 714h-4z" />
    <glyph glyph-name="Aringbelow" unicode="&#x1e00;" horiz-adv-x="1261" 
d="M996 0l-67 443h-609l-256 -443h-152l845 1443h138l231 -1443h-130zM794 1274l-409 -714h526l-113 714h-4zM470 -429c-100 0 -182 82 -182 182s82 182 182 182s182 -82 182 -182s-82 -182 -182 -182zM470 -358c62 0 111 50 111 111s-49 111 -111 111
c-61 0 -110 -50 -110 -111s49 -111 110 -111z" />
    <glyph glyph-name="Acircumflex" unicode="&#xc2;" horiz-adv-x="1261" 
d="M952 1852l213 -294h-124l-148 208h-4l-228 -208h-130l317 294h104zM996 0l-67 443h-609l-256 -443h-152l845 1443h138l231 -1443h-130zM794 1274l-409 -714h526l-113 714h-4z" />
    <glyph glyph-name="Acircumflexdotbelow" unicode="&#x1eac;" horiz-adv-x="1261" 
d="M952 1852l213 -294h-124l-148 208h-4l-228 -208h-130l317 294h104zM996 0l-67 443h-609l-256 -443h-152l845 1443h138l231 -1443h-130zM794 1274l-409 -714h526l-113 714h-4zM471 -335c-49 0 -89 39 -89 88c0 50 40 88 89 88s88 -38 88 -88c0 -49 -39 -88 -88 -88z" />
    <glyph glyph-name="Acircumflexacute" unicode="&#x1ea4;" horiz-adv-x="1261" 
d="M1058 1805l226 211h142l-244 -211h-124zM832 1785h116l225 -241h-129l-157 168h-5l-228 -168h-149zM996 0l-67 443h-609l-256 -443h-152l845 1443h138l231 -1443h-130zM794 1274l-409 -714h526l-113 714h-4z" />
    <glyph glyph-name="Acircumflextilde" unicode="&#x1eaa;" horiz-adv-x="1261" 
d="M1038 1830c-120 0 -156 123 -236 123c-50 0 -89 -38 -99 -107h-92c20 126 98 194 201 194c119 0 154 -122 235 -122c48 0 85 37 99 108h92c-20 -124 -101 -196 -200 -196zM831 1778h116l226 -234h-129l-159 163h-4l-227 -163h-149zM996 0l-67 443h-609l-256 -443h-152
l845 1443h138l231 -1443h-130zM794 1274l-409 -714h526l-113 714h-4z" />
    <glyph glyph-name="Acircumflexgrave" unicode="&#x1ea6;" horiz-adv-x="1261" 
d="M1249 1805h-108l-160 211h127zM832 1785h116l225 -241h-129l-157 168h-5l-228 -168h-149zM996 0l-67 443h-609l-256 -443h-152l845 1443h138l231 -1443h-130zM794 1274l-409 -714h526l-113 714h-4z" />
    <glyph glyph-name="Acircumflexhookabove" unicode="&#x1ea8;" horiz-adv-x="1261" 
d="M999 1933l18 73c17 8 57 15 89 15c102 0 167 -52 167 -131c0 -74 -50 -132 -138 -161l-50 57c54 16 92 48 92 92c0 42 -35 69 -92 69c-30 0 -62 -6 -86 -14zM832 1785h116l225 -241h-129l-157 168h-5l-228 -168h-149zM996 0l-67 443h-609l-256 -443h-152l845 1443h138
l231 -1443h-130zM794 1274l-409 -714h526l-113 714h-4z" />
    <glyph glyph-name="Abreve" unicode="&#x102;" horiz-adv-x="1261" 
d="M861 1555c-217 0 -287 159 -267 275h95c-10 -97 45 -186 178 -186c111 0 195 68 210 186h99c-17 -163 -137 -275 -315 -275zM996 0l-67 443h-609l-256 -443h-152l845 1443h138l231 -1443h-130zM794 1274l-409 -714h526l-113 714h-4z" />
    <glyph glyph-name="Abreveacute" unicode="&#x1eae;" horiz-adv-x="1261" 
d="M804 1805l226 211h141l-243 -211h-124zM861 1546c-204 0 -279 141 -270 256h96c-1 -90 56 -167 180 -167c104 0 186 61 207 167h99c-23 -152 -141 -256 -312 -256zM996 0l-67 443h-609l-256 -443h-152l845 1443h138l231 -1443h-130zM794 1274l-409 -714h526l-113 714h-4z
" />
    <glyph glyph-name="Abrevetilde" unicode="&#x1eb4;" horiz-adv-x="1261" 
d="M1042 1829c-128 0 -146 133 -232 133c-48 0 -90 -41 -102 -115h-94c23 129 103 202 206 202c127 0 144 -132 231 -132c47 0 87 40 102 115h94c-23 -127 -106 -203 -205 -203zM847 1546c-158 0 -256 90 -256 224c0 10 1 23 2 34h94c-1 -6 -1 -13 -1 -18
c0 -93 67 -152 173 -152c109 0 200 67 226 170h107c-36 -152 -174 -258 -345 -258zM996 0l-67 443h-609l-256 -443h-152l845 1443h138l231 -1443h-130zM794 1274l-409 -714h526l-113 714h-4z" />
    <glyph glyph-name="Abrevehookabove" unicode="&#x1eb2;" horiz-adv-x="1261" 
d="M733 1985l19 80c20 8 62 15 95 15c108 0 178 -58 178 -141c0 -79 -54 -143 -146 -173l-56 62c61 15 101 51 101 98c0 44 -35 73 -98 73c-34 0 -67 -6 -93 -14zM847 1546c-158 0 -256 90 -256 224c0 10 1 23 2 34h94c-1 -6 -1 -13 -1 -18c0 -93 67 -152 173 -152
c109 0 200 67 226 170h107c-36 -152 -174 -258 -345 -258zM996 0l-67 443h-609l-256 -443h-152l845 1443h138l231 -1443h-130zM794 1274l-409 -714h526l-113 714h-4z" />
    <glyph glyph-name="Abrevedotbelow" unicode="&#x1eb6;" horiz-adv-x="1261" 
d="M861 1555c-217 0 -287 159 -267 275h95c-10 -97 45 -186 178 -186c111 0 195 68 210 186h99c-17 -163 -137 -275 -315 -275zM996 0l-67 443h-609l-256 -443h-152l845 1443h138l231 -1443h-130zM794 1274l-409 -714h526l-113 714h-4zM471 -335c-49 0 -89 39 -89 88
c0 50 40 88 89 88s88 -38 88 -88c0 -49 -39 -88 -88 -88z" />
    <glyph glyph-name="Ainvertedbreve" unicode="&#x202;" horiz-adv-x="1261" 
d="M853 1830c216 0 286 -159 267 -275h-95c9 97 -45 186 -178 186c-111 0 -195 -68 -211 -186h-98c16 163 137 275 315 275zM996 0l-67 443h-609l-256 -443h-152l845 1443h138l231 -1443h-130zM794 1274l-409 -714h526l-113 714h-4z" />
    <glyph glyph-name="Acaron" unicode="&#x1cd;" horiz-adv-x="1261" 
d="M807 1558l-213 294h124l147 -208h5l228 208h129l-317 -294h-103zM996 0l-67 443h-609l-256 -443h-152l845 1443h138l231 -1443h-130zM794 1274l-409 -714h526l-113 714h-4z" />
    <glyph glyph-name="Adotaccent" unicode="&#x226;" horiz-adv-x="1261" 
d="M879 1623c-48 0 -88 40 -88 88c0 50 40 89 88 89c50 0 89 -39 89 -89c0 -48 -39 -88 -89 -88zM996 0l-67 443h-609l-256 -443h-152l845 1443h138l231 -1443h-130zM794 1274l-409 -714h526l-113 714h-4z" />
    <glyph glyph-name="Adotbelow" unicode="&#x1ea0;" horiz-adv-x="1261" 
d="M996 0l-67 443h-609l-256 -443h-152l845 1443h138l231 -1443h-130zM794 1274l-409 -714h526l-113 714h-4zM471 -335c-49 0 -89 39 -89 88c0 50 40 88 89 88s88 -38 88 -88c0 -49 -39 -88 -88 -88z" />
    <glyph glyph-name="Ahookabove" unicode="&#x1ea2;" horiz-adv-x="1261" 
d="M711 1746l15 82c25 14 69 24 113 24c89 0 154 -54 154 -131c0 -92 -70 -168 -176 -198l-34 65c72 25 110 66 110 116c0 37 -34 66 -81 66c-36 0 -76 -8 -101 -24zM996 0l-67 443h-609l-256 -443h-152l845 1443h138l231 -1443h-130zM794 1274l-409 -714h526l-113 714h-4z
" />
    <glyph glyph-name="Adblgrave" unicode="&#x200;" horiz-adv-x="1261" 
d="M941 1558l-77 288h136l44 -288h-103zM650 1558l-119 288h147l82 -288h-110zM996 0l-67 443h-609l-256 -443h-152l845 1443h138l231 -1443h-130zM794 1274l-409 -714h526l-113 714h-4z" />
    <glyph glyph-name="Amacron" unicode="&#x100;" horiz-adv-x="1261" 
d="M1159 1753l-20 -95h-540l20 95h540zM996 0l-67 443h-609l-256 -443h-152l845 1443h138l231 -1443h-130zM794 1274l-409 -714h526l-113 714h-4z" />
    <glyph glyph-name="Aogonek" unicode="&#x104;" horiz-adv-x="1261" 
d="M1048 -301l-20 -93c-17 -11 -58 -18 -98 -18c-106 0 -177 59 -177 146c0 98 83 192 242 273l-69 436h-608l-253 -443h-153l843 1443h138l232 -1433l-15 -9c-159 -79 -237 -160 -237 -231c0 -51 40 -84 103 -84c29 0 54 4 72 13zM792 1274l-409 -714h526l-113 714h-4z" />
    <glyph glyph-name="Aogonek.mini" horiz-adv-x="1261" 
d="M1048 -301l-20 -93c-17 -11 -58 -18 -98 -18c-106 0 -177 59 -177 146c0 98 83 192 242 273l-69 436h-608l-253 -443h-153l843 1443h138l232 -1433l-15 -9c-159 -79 -237 -160 -237 -231c0 -51 40 -84 103 -84c29 0 54 4 72 13zM792 1274l-409 -714h526l-113 714h-4z" />
    <glyph glyph-name="Aringbelow.mini" horiz-adv-x="1261" 
d="M996 0l-67 443h-609l-256 -443h-152l845 1443h138l231 -1443h-130zM794 1274l-409 -714h526l-113 714h-4zM457 -494c-100 0 -182 82 -182 182s82 183 182 183s182 -83 182 -183s-82 -182 -182 -182zM457 -422c61 0 110 49 110 110c0 62 -49 111 -110 111
c-62 0 -111 -49 -111 -111c0 -61 49 -110 111 -110z" />
    <glyph glyph-name="A.mini" horiz-adv-x="1223" 
d="M966 0l-72 407h-593l-245 -407h-144l806 1335h132l240 -1335h-124zM754 1177l-391 -659h514l-119 659h-4z" />
    <glyph glyph-name="Adieresismacron.mini" horiz-adv-x="1223" 
d="M559 1806l22 102h644l-22 -102h-644zM649 1468c-56 0 -102 46 -102 102c0 57 46 102 102 102s102 -45 102 -102c0 -56 -46 -102 -102 -102zM1013 1468c-57 0 -102 46 -102 102c0 57 45 102 102 102c56 0 102 -45 102 -102c0 -56 -46 -102 -102 -102zM966 0l-72 407h-593
l-245 -407h-144l806 1335h132l240 -1335h-124zM754 1177l-391 -659h514l-119 659h-4z" />
    <glyph glyph-name="Aringacute.mini" horiz-adv-x="1223" 
d="M892 1953h139l-136 -128h-111zM813 1412c-99 0 -179 77 -179 176c0 98 81 175 179 175c99 0 178 -77 178 -175c0 -99 -79 -176 -178 -176zM713 1587c0 -57 43 -101 100 -101c56 0 100 44 100 101s-43 101 -100 101s-100 -44 -100 -101zM966 0l-72 407h-593l-245 -407
h-144l806 1335h132l240 -1335h-124zM754 1177l-391 -659h514l-119 659h-4z" />
    <glyph glyph-name="Abrevegrave.mini" horiz-adv-x="1223" 
d="M938 1731h-149l-196 207h168zM508 1739h117c3 -105 82 -170 197 -170c114 0 198 66 219 170h119c-27 -165 -160 -271 -342 -271c-186 0 -310 105 -310 271zM966 0l-72 407h-593l-245 -407h-144l806 1335h132l240 -1335h-124zM754 1177l-391 -659h514l-119 659h-4z" />
    <glyph glyph-name="Adotmacron.mini" horiz-adv-x="1223" 
d="M1203 1806h-644l22 102h644zM831 1470c-57 0 -103 47 -103 104s46 104 103 104c58 0 104 -47 104 -104s-46 -104 -104 -104zM966 0l-72 407h-593l-245 -407h-144l806 1335h132l240 -1335h-124zM754 1177l-391 -659h514l-119 659h-4z" />
    <glyph glyph-name="Acircumflexacute.mini" horiz-adv-x="1223" 
d="M974 1717l267 221h168l-286 -221h-149zM923 1692l237 -224h-164l-150 147h-12l-212 -147h-181l332 224h150zM966 0l-72 407h-593l-245 -407h-144l806 1335h132l240 -1335h-124zM754 1177l-391 -659h514l-119 659h-4z" />
    <glyph glyph-name="Acircumflextilde.mini" horiz-adv-x="1223" 
d="M1006 1736c-107 0 -157 102 -236 102c-50 0 -82 -31 -101 -89h-110c23 126 111 191 211 191c108 0 158 -101 236 -101c51 0 83 31 101 89h110c-23 -126 -111 -192 -211 -192zM923 1692l237 -224h-164l-150 147h-12l-212 -147h-181l332 224h150zM966 0l-72 407h-593
l-245 -407h-144l806 1335h132l240 -1335h-124zM754 1177l-391 -659h514l-119 659h-4z" />
    <glyph glyph-name="Acircumflexgrave.mini" horiz-adv-x="1223" 
d="M1213 1717h-147l-194 221h166zM923 1692l237 -224h-164l-150 147h-12l-212 -147h-181l332 224h150zM966 0l-72 407h-593l-245 -407h-144l806 1335h132l240 -1335h-124zM754 1177l-391 -659h514l-119 659h-4z" />
    <glyph glyph-name="Acircumflexhookabove.mini" horiz-adv-x="1223" 
d="M968 1831l17 88c25 11 65 19 97 19c119 0 196 -59 196 -150c0 -82 -57 -156 -150 -188l-66 67c60 17 103 59 103 107c0 45 -36 73 -102 73c-33 0 -70 -7 -95 -16zM923 1692l237 -224h-164l-150 147h-12l-212 -147h-181l332 224h150zM966 0l-72 407h-593l-245 -407h-144
l806 1335h132l240 -1335h-124zM754 1177l-391 -659h514l-119 659h-4z" />
    <glyph glyph-name="Abreveacute.mini" horiz-adv-x="1223" 
d="M733 1731l265 207h170l-285 -207h-150zM508 1739h117c3 -105 82 -170 197 -170c114 0 198 66 219 170h118c-26 -165 -159 -271 -341 -271c-186 0 -310 105 -310 271zM966 0l-72 407h-593l-245 -407h-144l806 1335h132l240 -1335h-124zM754 1177l-391 -659h514l-119 659
h-4z" />
    <glyph glyph-name="Abrevehookabove.mini" horiz-adv-x="1223" 
d="M687 1908l18 88c25 10 65 18 97 18c119 0 196 -58 196 -148c0 -87 -71 -163 -178 -191l-40 77c65 13 105 52 105 100c0 45 -37 72 -102 72c-31 0 -68 -7 -96 -16zM508 1739h117c3 -105 82 -170 197 -170c114 0 198 66 219 170h119c-27 -165 -160 -271 -342 -271
c-186 0 -310 106 -310 271zM966 0l-72 407h-593l-245 -407h-144l806 1335h132l240 -1335h-124zM754 1177l-391 -659h514l-119 659h-4z" />
    <glyph glyph-name="Abrevetilde.mini" horiz-adv-x="1223" 
d="M944 1736c-108 0 -158 102 -236 102c-51 0 -83 -31 -101 -89h-110c23 126 111 191 211 191c107 0 158 -101 236 -101c50 0 82 31 101 89h110c-23 -126 -111 -192 -211 -192zM484 1689h117c5 -64 78 -123 194 -123c118 0 197 50 215 123h119c-24 -126 -160 -221 -338 -221
c-186 0 -306 117 -307 221zM966 0l-72 407h-593l-245 -407h-144l806 1335h132l240 -1335h-124zM754 1177l-391 -659h514l-119 659h-4z" />
    <glyph glyph-name="B" unicode="B" horiz-adv-x="1256" 
d="M590 0h-564l307 1443h496c231 0 384 -127 384 -317c0 -186 -142 -336 -330 -378l-1 -4c162 -23 262 -140 262 -297c0 -264 -224 -447 -554 -447zM446 1322l-110 -520h348c222 0 387 125 387 297c0 143 -101 223 -291 223h-334zM191 121h397c244 0 412 134 412 315
c0 165 -120 248 -318 248h-371z" />
    <glyph glyph-name="Blinebelow" unicode="&#x1e06;" horiz-adv-x="1256" 
d="M590 0h-564l307 1443h496c231 0 384 -127 384 -317c0 -186 -142 -336 -330 -378l-1 -4c162 -23 262 -140 262 -297c0 -264 -224 -447 -554 -447zM446 1322l-110 -520h348c222 0 387 125 387 297c0 143 -101 223 -291 223h-334zM191 121h397c244 0 412 134 412 315
c0 165 -120 248 -318 248h-371zM730 -200l-21 -95h-540l21 95h540z" />
    <glyph glyph-name="Bdotbelow" unicode="&#x1e04;" horiz-adv-x="1256" 
d="M590 0h-564l307 1443h496c231 0 384 -127 384 -317c0 -186 -142 -336 -330 -378l-1 -4c162 -23 262 -140 262 -297c0 -264 -224 -447 -554 -447zM446 1322l-110 -520h348c222 0 387 125 387 297c0 143 -101 223 -291 223h-334zM191 121h397c244 0 412 134 412 315
c0 165 -120 248 -318 248h-371zM449 -335c-49 0 -89 39 -89 88c0 50 40 88 89 88s88 -38 88 -88c0 -49 -39 -88 -88 -88z" />
    <glyph glyph-name="Bdotaccent" unicode="&#x1e02;" horiz-adv-x="1256" 
d="M799 1623c-49 0 -89 40 -89 88c0 50 40 89 89 89s88 -39 88 -89c0 -48 -39 -88 -88 -88zM590 0h-564l307 1443h496c231 0 384 -127 384 -317c0 -186 -142 -336 -330 -378l-1 -4c162 -23 262 -140 262 -297c0 -264 -224 -447 -554 -447zM446 1322l-110 -520h348
c222 0 387 125 387 297c0 143 -101 223 -291 223h-334zM191 121h397c244 0 412 134 412 315c0 165 -120 248 -318 248h-371z" />
    <glyph glyph-name="C" unicode="C" horiz-adv-x="1382" 
d="M1265 976c0 5 0 11 -1 17c-14 210 -178 346 -411 346c-344 0 -592 -318 -592 -742c0 -302 173 -493 445 -493c212 0 384 114 457 307h139c-82 -266 -313 -433 -599 -433c-353 0 -582 241 -582 613c0 496 311 874 735 874c314 0 533 -186 547 -470v-19h-138z" />
    <glyph glyph-name="Cacute" unicode="&#x106;" horiz-adv-x="1382" 
d="M942 1560h-109l213 288h148zM1265 976c0 5 0 11 -1 17c-14 210 -178 346 -411 346c-344 0 -592 -318 -592 -742c0 -302 173 -493 445 -493c212 0 384 114 457 307h139c-82 -266 -313 -433 -599 -433c-353 0 -582 241 -582 613c0 496 311 874 735 874
c314 0 533 -186 547 -470v-19h-138z" />
    <glyph glyph-name="Ccaron" unicode="&#x10c;" horiz-adv-x="1382" 
d="M849 1560l-213 294h123l148 -208h5l228 208h129l-317 -294h-103zM1265 976c0 5 0 11 -1 17c-14 210 -178 346 -411 346c-344 0 -592 -318 -592 -742c0 -302 173 -493 445 -493c212 0 384 114 457 307h139c-82 -266 -313 -433 -599 -433c-353 0 -582 241 -582 613
c0 496 311 874 735 874c314 0 533 -186 547 -470v-19h-138z" />
    <glyph glyph-name="Ccircumflex" unicode="&#x108;" horiz-adv-x="1382" 
d="M994 1854l212 -294h-123l-148 208h-5l-228 -208h-129l317 294h104zM1265 976c0 5 0 11 -1 17c-14 210 -178 346 -411 346c-344 0 -592 -318 -592 -742c0 -302 173 -493 445 -493c212 0 384 114 457 307h139c-82 -266 -313 -433 -599 -433c-353 0 -582 241 -582 613
c0 496 311 874 735 874c314 0 533 -186 547 -470v-19h-138z" />
    <glyph glyph-name="Cdotaccent" unicode="&#x10a;" horiz-adv-x="1382" 
d="M921 1625c-48 0 -88 39 -88 88s40 88 88 88c49 0 89 -39 89 -88s-40 -88 -89 -88zM1265 976c0 5 0 11 -1 17c-14 210 -178 346 -411 346c-344 0 -592 -318 -592 -742c0 -302 173 -493 445 -493c212 0 384 114 457 307h139c-82 -266 -313 -433 -599 -433
c-353 0 -582 241 -582 613c0 496 311 874 735 874c314 0 533 -186 547 -470v-19h-138z" />
    <glyph glyph-name="Ccedilla" unicode="&#xc7;" horiz-adv-x="1382" 
d="M464 -437l20 87c26 -9 65 -18 112 -18c69 0 131 24 131 79c0 53 -52 79 -138 79h-50l14 68l75 124c-310 32 -507 264 -507 609c0 496 311 874 735 874c314 0 533 -186 547 -470v-19h-138c0 5 0 11 -1 17c-14 210 -178 346 -411 346c-344 0 -592 -318 -592 -742
c0 -302 173 -493 445 -493c212 0 384 114 457 307h139c-78 -256 -295 -420 -566 -432l-67 -111c93 0 178 -50 178 -154c0 -117 -107 -174 -240 -174c-53 0 -104 10 -143 23z" />
    <glyph glyph-name="Ccedillaacute" unicode="&#x1e08;" horiz-adv-x="1382" 
d="M942 1560h-109l213 288h148zM464 -437l20 87c26 -9 65 -18 112 -18c69 0 131 24 131 79c0 53 -52 79 -138 79h-50l14 68l75 124c-310 32 -507 264 -507 609c0 496 311 874 735 874c314 0 533 -186 547 -470v-19h-138c0 5 0 11 -1 17c-14 210 -178 346 -411 346
c-344 0 -592 -318 -592 -742c0 -302 173 -493 445 -493c212 0 384 114 457 307h139c-78 -256 -295 -420 -566 -432l-67 -111c93 0 178 -50 178 -154c0 -117 -107 -174 -240 -174c-53 0 -104 10 -143 23z" />
    <glyph glyph-name="Ccedilla.mini" horiz-adv-x="1382" 
d="M457 -409l20 87c25 -9 65 -18 112 -18c68 0 131 25 131 79s-52 79 -133 79h-51l15 69l59 97c-300 39 -489 269 -489 607c0 496 311 874 735 874c314 0 533 -186 547 -470v-19h-138c0 5 0 11 -1 17c-14 210 -178 346 -411 346c-344 0 -592 -318 -592 -742
c0 -302 173 -493 445 -493c212 0 384 114 457 307h139c-80 -262 -305 -427 -584 -433l-49 -81c88 0 171 -51 171 -155c0 -117 -107 -173 -240 -173c-53 0 -104 9 -143 22z" />
    <glyph glyph-name="Ccedillaacute.mini" horiz-adv-x="1382" 
d="M942 1560h-109l213 288h148zM457 -409l20 87c25 -9 65 -18 112 -18c68 0 131 25 131 79s-52 79 -133 79h-51l15 69l59 97c-300 39 -489 269 -489 607c0 496 311 874 735 874c314 0 533 -186 547 -470v-19h-138c0 5 0 11 -1 17c-14 210 -178 346 -411 346
c-344 0 -592 -318 -592 -742c0 -302 173 -493 445 -493c212 0 384 114 457 307h139c-80 -262 -305 -427 -584 -433l-49 -81c88 0 171 -51 171 -155c0 -117 -107 -173 -240 -173c-53 0 -104 9 -143 22z" />
    <glyph glyph-name="D" unicode="D" horiz-adv-x="1391" 
d="M333 1443h421c381 0 600 -219 600 -577c0 -509 -323 -866 -802 -866h-524zM447 1321l-255 -1199h351c396 0 671 306 671 727c0 304 -165 472 -482 472h-285z" />
    <glyph glyph-name="Ddotaccent" unicode="&#x1e0a;" horiz-adv-x="1391" 
d="M791 1623c-49 0 -89 40 -89 88c0 50 40 89 89 89s89 -39 89 -89c0 -48 -40 -88 -89 -88zM333 1443h421c381 0 600 -219 600 -577c0 -509 -323 -866 -802 -866h-524zM447 1321l-255 -1199h351c396 0 671 306 671 727c0 304 -165 472 -482 472h-285z" />
    <glyph glyph-name="Dcircumflexbelow" unicode="&#x1e12;" horiz-adv-x="1391" 
d="M333 1443h421c381 0 600 -219 600 -577c0 -509 -323 -866 -802 -866h-524zM447 1321l-255 -1199h351c396 0 671 306 671 727c0 304 -165 472 -482 472h-285zM504 -131l213 -294h-124l-147 208h-5l-228 -208h-129l317 294h103z" />
    <glyph glyph-name="Dcommaaccent" unicode="&#x1e10;" horiz-adv-x="1391" 
d="M333 1443h421c381 0 600 -219 600 -577c0 -509 -323 -866 -802 -866h-524zM447 1321l-255 -1199h351c396 0 671 306 671 727c0 304 -165 472 -482 472h-285zM373 -483h-103l137 352h121z" />
    <glyph glyph-name="Dlinebelow" unicode="&#x1e0e;" horiz-adv-x="1391" 
d="M333 1443h421c381 0 600 -219 600 -577c0 -509 -323 -866 -802 -866h-524zM447 1321l-255 -1199h351c396 0 671 306 671 727c0 304 -165 472 -482 472h-285zM719 -200l-21 -95h-540l21 95h540z" />
    <glyph glyph-name="Dcaron" unicode="&#x10e;" horiz-adv-x="1391" 
d="M718 1558l-213 294h124l148 -208h4l228 208h130l-317 -294h-104zM333 1443h421c381 0 600 -219 600 -577c0 -509 -323 -866 -802 -866h-524zM447 1321l-255 -1199h351c396 0 671 306 671 727c0 304 -165 472 -482 472h-285z" />
    <glyph glyph-name="Ddotbelow" unicode="&#x1e0c;" horiz-adv-x="1391" 
d="M333 1443h421c381 0 600 -219 600 -577c0 -509 -323 -866 -802 -866h-524zM447 1321l-255 -1199h351c396 0 671 306 671 727c0 304 -165 472 -482 472h-285zM438 -335c-49 0 -89 39 -89 88c0 50 40 88 89 88s88 -38 88 -88c0 -49 -39 -88 -88 -88z" />
    <glyph glyph-name="Dcroat" unicode="&#x110;" horiz-adv-x="1391" 
d="M39 681l26 124h133l135 638h421c381 0 600 -219 600 -577c0 -509 -323 -866 -802 -866h-524l144 681h-133zM447 1321l-110 -516h371l-26 -124h-371l-119 -559h351c396 0 671 306 671 727c0 304 -165 472 -482 472h-285z" />
    <glyph glyph-name="Dcommaaccent.mini" horiz-adv-x="1391" 
d="M333 1443h421c381 0 600 -219 600 -577c0 -509 -323 -866 -802 -866h-524zM447 1321l-255 -1199h351c396 0 671 306 671 727c0 304 -165 472 -482 472h-285zM390 -432h-105l133 289h118z" />
    <glyph glyph-name="E" unicode="E" horiz-adv-x="1102" 
d="M925 124l-26 -124h-873l307 1443h873l-27 -124h-733l-110 -519h696l-27 -122h-695l-118 -554h733z" />
    <glyph glyph-name="Egrave" unicode="&#xc8;" horiz-adv-x="1102" 
d="M739 1558l-129 288h146l91 -288h-108zM925 124l-26 -124h-873l307 1443h873l-27 -124h-733l-110 -519h696l-27 -122h-695l-118 -554h733z" />
    <glyph glyph-name="Edblgrave" unicode="&#x204;" horiz-adv-x="1102" 
d="M888 1558l-77 288h136l44 -288h-103zM597 1558l-119 288h147l82 -288h-110zM925 124l-26 -124h-873l307 1443h873l-27 -124h-733l-110 -519h696l-27 -122h-695l-118 -554h733z" />
    <glyph glyph-name="Eacute" unicode="&#xc9;" horiz-adv-x="1102" 
d="M847 1558h-109l213 288h148zM925 124l-26 -124h-873l307 1443h873l-27 -124h-733l-110 -519h696l-27 -122h-695l-118 -554h733z" />
    <glyph glyph-name="Ecircumflex" unicode="&#xca;" horiz-adv-x="1102" 
d="M898 1852l213 -294h-123l-148 208h-5l-228 -208h-129l317 294h103zM925 124l-26 -124h-873l307 1443h873l-27 -124h-733l-110 -519h696l-27 -122h-695l-118 -554h733z" />
    <glyph glyph-name="Ecircumflexhookabove" unicode="&#x1ec2;" horiz-adv-x="1102" 
d="M946 1933l18 73c17 8 56 15 89 15c101 0 167 -52 167 -131c0 -74 -51 -132 -139 -161l-49 57c54 16 92 48 92 92c0 42 -36 69 -92 69c-31 0 -62 -6 -86 -14zM779 1785h116l225 -241h-129l-157 168h-5l-229 -168h-148zM925 124l-26 -124h-873l307 1443h873l-27 -124h-733
l-110 -519h696l-27 -122h-695l-118 -554h733z" />
    <glyph glyph-name="Ecircumflexgrave" unicode="&#x1ec0;" horiz-adv-x="1102" 
d="M1196 1805h-108l-160 211h126zM779 1785h116l225 -241h-129l-157 168h-5l-229 -168h-148zM925 124l-26 -124h-873l307 1443h873l-27 -124h-733l-110 -519h696l-27 -122h-695l-118 -554h733z" />
    <glyph glyph-name="Ecircumflextilde" unicode="&#x1ec4;" horiz-adv-x="1102" 
d="M984 1830c-119 0 -156 123 -236 123c-49 0 -88 -38 -98 -107h-93c21 126 99 194 202 194c118 0 154 -122 235 -122c48 0 85 37 98 108h92c-19 -124 -100 -196 -200 -196zM778 1778h116l226 -234h-129l-159 163h-5l-227 -163h-148zM925 124l-26 -124h-873l307 1443h873
l-27 -124h-733l-110 -519h696l-27 -122h-695l-118 -554h733z" />
    <glyph glyph-name="Ecircumflexdotbelow" unicode="&#x1ec6;" horiz-adv-x="1102" 
d="M898 1852l213 -294h-123l-148 208h-5l-228 -208h-129l317 294h103zM925 124l-26 -124h-873l307 1443h873l-27 -124h-733l-110 -519h696l-27 -122h-695l-118 -554h733zM431 -335c-48 0 -88 39 -88 88c0 50 40 88 88 88c49 0 89 -38 89 -88c0 -49 -40 -88 -89 -88z" />
    <glyph glyph-name="Ecircumflexacute" unicode="&#x1ebe;" horiz-adv-x="1102" 
d="M1005 1805l226 211h141l-243 -211h-124zM779 1785h116l225 -241h-129l-157 168h-5l-229 -168h-148zM925 124l-26 -124h-873l307 1443h873l-27 -124h-733l-110 -519h696l-27 -122h-695l-118 -554h733z" />
    <glyph glyph-name="Edieresis" unicode="&#xcb;" horiz-adv-x="1102" 
d="M655 1623c-48 0 -88 40 -88 88c0 50 40 89 88 89c50 0 89 -39 89 -89c0 -48 -39 -88 -89 -88zM997 1623c-48 0 -88 40 -88 88c0 50 40 89 88 89c49 0 89 -39 89 -89c0 -48 -40 -88 -89 -88zM925 124l-26 -124h-873l307 1443h873l-27 -124h-733l-110 -519h696l-27 -122
h-695l-118 -554h733z" />
    <glyph glyph-name="Edotbelow" unicode="&#x1eb8;" horiz-adv-x="1102" 
d="M925 124l-26 -124h-873l307 1443h873l-27 -124h-733l-110 -519h696l-27 -122h-695l-118 -554h733zM431 -335c-48 0 -88 39 -88 88c0 50 40 88 88 88c49 0 89 -38 89 -88c0 -49 -40 -88 -89 -88z" />
    <glyph glyph-name="Einvertedbreve" unicode="&#x206;" horiz-adv-x="1102" 
d="M799 1830c217 0 287 -159 267 -275h-94c9 97 -46 186 -179 186c-110 0 -194 -68 -210 -186h-99c17 163 137 275 315 275zM925 124l-26 -124h-873l307 1443h873l-27 -124h-733l-110 -519h696l-27 -122h-695l-118 -554h733z" />
    <glyph glyph-name="Ehookabove" unicode="&#x1eba;" horiz-adv-x="1102" 
d="M658 1746l15 82c25 14 69 24 113 24c88 0 154 -54 154 -131c0 -92 -70 -168 -176 -198l-34 65c72 25 110 66 110 116c0 37 -34 66 -81 66c-36 0 -76 -8 -101 -24zM925 124l-26 -124h-873l307 1443h873l-27 -124h-733l-110 -519h696l-27 -122h-695l-118 -554h733z" />
    <glyph glyph-name="Ecaron" unicode="&#x11a;" horiz-adv-x="1102" 
d="M753 1558l-212 294h123l148 -208h5l228 208h129l-317 -294h-104zM925 124l-26 -124h-873l307 1443h873l-27 -124h-733l-110 -519h696l-27 -122h-695l-118 -554h733z" />
    <glyph glyph-name="Emacron" unicode="&#x112;" horiz-adv-x="1102" 
d="M1106 1753l-21 -95h-539l20 95h540zM925 124l-26 -124h-873l307 1443h873l-27 -124h-733l-110 -519h696l-27 -122h-695l-118 -554h733z" />
    <glyph glyph-name="Emacrongrave" unicode="&#x1e14;" horiz-adv-x="1102" 
d="M903 1805h-109l-159 211h126zM1111 1599h-617l20 92h616zM925 124l-26 -124h-873l307 1443h873l-27 -124h-733l-110 -519h696l-27 -122h-695l-118 -554h733z" />
    <glyph glyph-name="Emacronacute" unicode="&#x1e16;" horiz-adv-x="1102" 
d="M782 1805l226 211h142l-244 -211h-124zM1111 1599h-617l20 92h616zM925 124l-26 -124h-873l307 1443h873l-27 -124h-733l-110 -519h696l-27 -122h-695l-118 -554h733z" />
    <glyph glyph-name="Etilde" unicode="&#x1ebc;" horiz-adv-x="1102" 
d="M515 1617c24 120 89 208 195 208c134 0 161 -146 240 -146c45 0 73 45 92 115h100c-24 -121 -88 -209 -196 -209c-133 0 -158 145 -238 145c-46 0 -74 -43 -92 -113h-101zM925 124l-26 -124h-873l307 1443h873l-27 -124h-733l-110 -519h696l-27 -122h-695l-118 -554h733z
" />
    <glyph glyph-name="Ecircumflexbelow" unicode="&#x1e18;" horiz-adv-x="1102" 
d="M925 124l-26 -124h-873l307 1443h873l-27 -124h-733l-110 -519h696l-27 -122h-695l-118 -554h733zM502 -131l196 -301h-123l-132 214h-5l-220 -214h-129l306 301h107z" />
    <glyph glyph-name="Ebreve" unicode="&#x114;" horiz-adv-x="1102" 
d="M808 1555c-217 0 -287 159 -267 275h94c-9 -97 46 -186 179 -186c110 0 194 68 210 186h99c-17 -163 -137 -275 -315 -275zM925 124l-26 -124h-873l307 1443h873l-27 -124h-733l-110 -519h696l-27 -122h-695l-118 -554h733z" />
    <glyph glyph-name="Etildebelow" unicode="&#x1e1a;" horiz-adv-x="1102" 
d="M925 124l-26 -124h-873l307 1443h873l-27 -124h-733l-110 -519h696l-27 -122h-695l-118 -554h733zM121 -335c25 120 89 208 196 208c133 0 160 -146 240 -146c45 0 73 45 92 115h100c-24 -121 -88 -209 -196 -209c-133 0 -159 145 -238 145c-47 0 -74 -43 -92 -113h-102z
" />
    <glyph glyph-name="Edotaccent" unicode="&#x116;" horiz-adv-x="1102" 
d="M826 1623c-48 0 -88 40 -88 88c0 50 40 89 88 89c49 0 89 -39 89 -89c0 -48 -40 -88 -89 -88zM925 124l-26 -124h-873l307 1443h873l-27 -124h-733l-110 -519h696l-27 -122h-695l-118 -554h733z" />
    <glyph glyph-name="Ecedilla" unicode="&#x228;" horiz-adv-x="1102" 
d="M263 -437l19 87c26 -9 65 -18 112 -18c69 0 132 24 132 79c0 53 -53 79 -139 79h-50l14 68l86 142h-411l307 1443h873l-27 -124h-733l-110 -519h696l-27 -122h-695l-118 -554h733l-26 -124h-352l-79 -132c92 0 177 -50 177 -154c0 -117 -107 -174 -240 -174
c-53 0 -104 10 -142 23z" />
    <glyph glyph-name="Ecedillabreve" unicode="&#x1e1c;" horiz-adv-x="1102" 
d="M808 1555c-217 0 -287 159 -267 275h94c-9 -97 46 -186 179 -186c110 0 194 68 210 186h99c-17 -163 -137 -275 -315 -275zM263 -437l19 87c26 -9 65 -18 112 -18c69 0 132 24 132 79c0 53 -53 79 -139 79h-50l14 68l86 142h-411l307 1443h873l-27 -124h-733l-110 -519
h696l-27 -122h-695l-118 -554h733l-26 -124h-352l-79 -132c92 0 177 -50 177 -154c0 -117 -107 -174 -240 -174c-53 0 -104 10 -142 23z" />
    <glyph glyph-name="Eogonek" unicode="&#x118;" horiz-adv-x="1102" 
d="M26 0l307 1443h873l-27 -124h-733l-111 -519h697l-27 -122h-696l-118 -554h734l-24 -114l-13 -8c-161 -86 -238 -163 -238 -232c0 -51 40 -84 103 -84c28 0 53 4 72 13l-20 -93c-17 -11 -58 -18 -98 -18c-106 0 -177 59 -177 146c0 93 79 186 226 263v3h-730z" />
    <glyph glyph-name="Eogonek.mini" horiz-adv-x="1102" 
d="M26 0l307 1443h873l-27 -124h-733l-111 -519h697l-27 -122h-696l-118 -554h734l-24 -114l-13 -8c-161 -86 -238 -163 -238 -232c0 -51 40 -84 103 -84c28 0 53 4 72 13l-20 -93c-17 -11 -58 -18 -98 -18c-106 0 -177 59 -177 146c0 93 79 186 226 263v3h-730z" />
    <glyph glyph-name="Ecedillabreve.mini" horiz-adv-x="1102" 
d="M808 1555c-217 0 -287 159 -267 275h94c-9 -97 46 -186 179 -186c110 0 194 68 210 186h99c-17 -163 -137 -275 -315 -275zM255 -409l20 87c26 -9 65 -18 112 -18c68 0 131 25 131 79s-52 79 -133 79h-50l14 69l69 113h-392l307 1443h873l-27 -124h-733l-110 -519h696
l-27 -122h-695l-118 -554h733l-26 -124h-369l-63 -103c88 0 171 -51 171 -155c0 -117 -107 -173 -240 -173c-53 0 -104 9 -143 22z" />
    <glyph glyph-name="Ecedilla.mini" horiz-adv-x="1102" 
d="M255 -409l20 87c26 -9 65 -18 112 -18c68 0 131 25 131 79s-52 79 -133 79h-50l14 69l69 113h-392l307 1443h873l-27 -124h-733l-110 -519h696l-27 -122h-695l-118 -554h733l-26 -124h-369l-63 -103c88 0 171 -51 171 -155c0 -117 -107 -173 -240 -173
c-53 0 -104 9 -143 22z" />
    <glyph glyph-name="E.mini" horiz-adv-x="1069" 
d="M893 117l-24 -117h-847l284 1335h846l-25 -118h-713l-102 -477h678l-25 -115h-678l-107 -508h713z" />
    <glyph glyph-name="Emacronacute.mini" horiz-adv-x="1069" 
d="M724 1731l265 207h169l-284 -207h-150zM1088 1510h-644l22 102h644zM893 117l-24 -117h-847l284 1335h846l-25 -118h-713l-102 -477h678l-25 -115h-678l-107 -508h713z" />
    <glyph glyph-name="Ecircumflexhookabove.mini" horiz-adv-x="1069" 
d="M916 1831l17 88c25 11 65 19 97 19c120 0 196 -59 196 -150c0 -82 -56 -156 -150 -188l-66 67c60 17 103 59 103 107c0 45 -36 73 -102 73c-32 0 -69 -7 -95 -16zM871 1692l237 -224h-163l-151 147h-12l-212 -147h-180l331 224h150zM893 117l-24 -117h-847l284 1335h846
l-25 -118h-713l-102 -477h678l-25 -115h-678l-107 -508h713z" />
    <glyph glyph-name="Emacrongrave.mini" horiz-adv-x="1069" 
d="M900 1731h-148l-196 207h167zM1088 1510h-644l22 102h644zM893 117l-24 -117h-847l284 1335h846l-25 -118h-713l-102 -477h678l-25 -115h-678l-107 -508h713z" />
    <glyph glyph-name="Ecircumflexacute.mini" horiz-adv-x="1069" 
d="M922 1717l267 221h168l-286 -221h-149zM871 1692l237 -224h-163l-151 147h-12l-212 -147h-180l331 224h150zM893 117l-24 -117h-847l284 1335h846l-25 -118h-713l-102 -477h678l-25 -115h-678l-107 -508h713z" />
    <glyph glyph-name="Ecircumflexgrave.mini" horiz-adv-x="1069" 
d="M1161 1717h-147l-194 221h166zM871 1692l237 -224h-163l-151 147h-12l-212 -147h-180l331 224h150zM893 117l-24 -117h-847l284 1335h846l-25 -118h-713l-102 -477h678l-25 -115h-678l-107 -508h713z" />
    <glyph glyph-name="Ecircumflextilde.mini" horiz-adv-x="1069" 
d="M954 1736c-107 0 -157 102 -236 102c-50 0 -82 -31 -101 -89h-110c23 126 111 191 211 191c108 0 158 -101 236 -101c51 0 83 31 101 89h110c-23 -126 -110 -192 -211 -192zM871 1692l237 -224h-163l-151 147h-12l-212 -147h-180l331 224h150zM893 117l-24 -117h-847
l284 1335h846l-25 -118h-713l-102 -477h678l-25 -115h-678l-107 -508h713z" />
    <glyph glyph-name="F" unicode="F" horiz-adv-x="1059" 
d="M165 0h-139l307 1443h857l-26 -124h-718l-115 -542h659l-26 -122h-660z" />
    <glyph glyph-name="Fdotaccent" unicode="&#x1e1e;" horiz-adv-x="1059" 
d="M818 1623c-48 0 -88 40 -88 88c0 50 40 89 88 89c50 0 89 -39 89 -89c0 -48 -39 -88 -89 -88zM165 0h-139l307 1443h857l-26 -124h-718l-115 -542h659l-26 -122h-660z" />
    <glyph glyph-name="G" unicode="G" horiz-adv-x="1420" 
d="M1378 721l-45 -207c-74 -341 -312 -536 -631 -536c-361 0 -582 251 -582 613c0 427 254 874 735 874c322 0 531 -193 547 -472v-10h-138c-19 218 -174 356 -410 356c-393 0 -594 -378 -594 -742c0 -294 165 -493 443 -493c249 0 439 160 493 417l17 79h-435l26 121h574z
" />
    <glyph glyph-name="Gacute" unicode="&#x1f4;" horiz-adv-x="1420" 
d="M933 1558h-110l213 288h149zM1378 721l-45 -207c-74 -341 -312 -536 -631 -536c-361 0 -582 251 -582 613c0 427 254 874 735 874c322 0 531 -193 547 -472v-10h-138c-19 218 -174 356 -410 356c-393 0 -594 -378 -594 -742c0 -294 165 -493 443 -493
c249 0 439 160 493 417l17 79h-435l26 121h574z" />
    <glyph glyph-name="Gcaron" unicode="&#x1e6;" horiz-adv-x="1420" 
d="M839 1558l-213 294h124l147 -208h5l228 208h129l-316 -294h-104zM1378 721l-45 -207c-74 -341 -312 -536 -631 -536c-361 0 -582 251 -582 613c0 427 254 874 735 874c322 0 531 -193 547 -472v-10h-138c-19 218 -174 356 -410 356c-393 0 -594 -378 -594 -742
c0 -294 165 -493 443 -493c249 0 439 160 493 417l17 79h-435l26 121h574z" />
    <glyph glyph-name="Gcircumflex" unicode="&#x11c;" horiz-adv-x="1420" 
d="M984 1852l213 -294h-124l-147 208h-5l-228 -208h-129l316 294h104zM1378 721l-45 -207c-74 -341 -312 -536 -631 -536c-361 0 -582 251 -582 613c0 427 254 874 735 874c322 0 531 -193 547 -472v-10h-138c-19 218 -174 356 -410 356c-393 0 -594 -378 -594 -742
c0 -294 165 -493 443 -493c249 0 439 160 493 417l17 79h-435l26 121h574z" />
    <glyph glyph-name="Gbreve" unicode="&#x11e;" horiz-adv-x="1420" 
d="M893 1555c-216 0 -286 159 -267 275h95c-9 -97 45 -186 178 -186c111 0 195 68 211 186h98c-17 -163 -137 -275 -315 -275zM1378 721l-45 -207c-74 -341 -312 -536 -631 -536c-361 0 -582 251 -582 613c0 427 254 874 735 874c322 0 531 -193 547 -472v-10h-138
c-19 218 -174 356 -410 356c-393 0 -594 -378 -594 -742c0 -294 165 -493 443 -493c249 0 439 160 493 417l17 79h-435l26 121h574z" />
    <glyph glyph-name="Gmacron" unicode="&#x1e20;" horiz-adv-x="1420" 
d="M1191 1753l-20 -95h-540l20 95h540zM1378 721l-45 -207c-74 -341 -312 -536 -631 -536c-361 0 -582 251 -582 613c0 427 254 874 735 874c322 0 531 -193 547 -472v-10h-138c-19 218 -174 356 -410 356c-393 0 -594 -378 -594 -742c0 -294 165 -493 443 -493
c249 0 439 160 493 417l17 79h-435l26 121h574z" />
    <glyph glyph-name="Gdotaccent" unicode="&#x120;" horiz-adv-x="1420" 
d="M912 1623c-49 0 -89 40 -89 88c0 50 40 89 89 89s88 -39 88 -89c0 -48 -39 -88 -88 -88zM1378 721l-45 -207c-74 -341 -312 -536 -631 -536c-361 0 -582 251 -582 613c0 427 254 874 735 874c322 0 531 -193 547 -472v-10h-138c-19 218 -174 356 -410 356
c-393 0 -594 -378 -594 -742c0 -294 165 -493 443 -493c249 0 439 160 493 417l17 79h-435l26 121h574z" />
    <glyph glyph-name="Gcommaaccent" unicode="&#x122;" horiz-adv-x="1420" 
d="M1378 721l-45 -207c-74 -341 -312 -536 -631 -536c-361 0 -582 251 -582 613c0 427 254 874 735 874c322 0 531 -193 547 -472v-10h-138c-19 218 -174 356 -410 356c-393 0 -594 -378 -594 -742c0 -294 165 -493 443 -493c249 0 439 160 493 417l17 79h-435l26 121h574z
M578 -483h-103l137 352h120z" />
    <glyph glyph-name="Gcommaaccent.mini" horiz-adv-x="1420" 
d="M1378 721l-45 -207c-74 -341 -312 -536 -631 -536c-361 0 -582 251 -582 613c0 427 254 874 735 874c322 0 531 -193 547 -472v-10h-138c-19 218 -174 356 -410 356c-393 0 -594 -378 -594 -742c0 -294 165 -493 443 -493c249 0 439 160 493 417l17 79h-435l26 121h574z
M595 -432h-105l132 289h118z" />
    <glyph glyph-name="H" unicode="H" horiz-adv-x="1394" 
d="M1146 0h-139l144 677h-841l-145 -677h-139l307 1443h139l-136 -642h841l137 642h139z" />
    <glyph glyph-name="Hdieresis" unicode="&#x1e26;" horiz-adv-x="1394" 
d="M773 1623c-48 0 -88 40 -88 88c0 50 40 89 88 89c50 0 89 -39 89 -89c0 -48 -39 -88 -89 -88zM1115 1623c-48 0 -88 40 -88 88c0 50 40 89 88 89c49 0 89 -39 89 -89c0 -48 -40 -88 -89 -88zM1146 0h-139l144 677h-841l-145 -677h-139l307 1443h139l-136 -642h841
l137 642h139z" />
    <glyph glyph-name="Hcaron" unicode="&#x21e;" horiz-adv-x="1394" 
d="M871 1558l-212 294h123l148 -208h4l229 208h129l-317 -294h-104zM1146 0h-139l144 677h-841l-145 -677h-139l307 1443h139l-136 -642h841l137 642h139z" />
    <glyph glyph-name="Hcircumflex" unicode="&#x124;" horiz-adv-x="1394" 
d="M1016 1852l213 -294h-124l-147 208h-5l-228 -208h-129l317 294h103zM1146 0h-139l144 677h-841l-145 -677h-139l307 1443h139l-136 -642h841l137 642h139z" />
    <glyph glyph-name="Hdotbelow" unicode="&#x1e24;" horiz-adv-x="1394" 
d="M1146 0h-139l144 677h-841l-145 -677h-139l307 1443h139l-136 -642h841l137 642h139zM553 -335c-49 0 -89 39 -89 88c0 50 40 88 89 88s88 -38 88 -88c0 -49 -39 -88 -88 -88z" />
    <glyph glyph-name="Hdotaccent" unicode="&#x1e22;" horiz-adv-x="1394" 
d="M944 1623c-48 0 -88 40 -88 88c0 50 40 89 88 89c49 0 89 -39 89 -89c0 -48 -40 -88 -89 -88zM1146 0h-139l144 677h-841l-145 -677h-139l307 1443h139l-136 -642h841l137 642h139z" />
    <glyph glyph-name="Hbrevebelow" unicode="&#x1e2a;" horiz-adv-x="1394" 
d="M1146 0h-139l144 677h-841l-145 -677h-139l307 1443h139l-136 -642h841l137 642h139zM538 -389c-214 0 -283 163 -260 284h97c-12 -102 40 -195 169 -195c108 0 189 71 202 195h102c-15 -169 -133 -284 -310 -284z" />
    <glyph glyph-name="Hcedilla" unicode="&#x1e28;" horiz-adv-x="1394" 
d="M-119 -437l19 87c26 -9 65 -18 112 -18c69 0 132 24 132 79c0 53 -53 79 -138 79h-51l14 68l86 142h-29l307 1443h139l-136 -642h841l137 642h139l-307 -1443h-139l144 677h-841l-145 -677l-79 -132c92 0 177 -50 177 -154c0 -117 -107 -174 -240 -174
c-53 0 -104 10 -142 23z" />
    <glyph glyph-name="Hbar" unicode="&#x126;" horiz-adv-x="1394" 
d="M115 1085l23 110h142l53 248h139l-53 -248h842l53 248h139l-53 -248h139l-24 -110h-138l-231 -1085h-139l144 677h-841l-145 -677h-139l231 1085h-142zM336 801h841l60 284h-841z" />
    <glyph glyph-name="Hcedilla.mini" horiz-adv-x="1394" 
d="M-109 -409l20 87c25 -9 64 -18 111 -18c69 0 132 25 132 79s-52 79 -133 79h-51l15 69l69 113h-28l307 1443h139l-136 -642h841l137 642h139l-307 -1443h-139l144 677h-841l-145 -677l-62 -103c88 0 171 -51 171 -155c0 -117 -108 -173 -240 -173c-53 0 -104 9 -143 22z
" />
    <glyph glyph-name="I" unicode="I" horiz-adv-x="413" 
d="M165 0h-139l307 1443h139z" />
    <glyph glyph-name="Idotaccent" unicode="&#x130;" horiz-adv-x="413" 
d="M460 1623c-48 0 -89 40 -89 88c0 50 41 89 89 89c49 0 89 -39 89 -89c0 -48 -40 -88 -89 -88zM165 0h-139l307 1443h139z" />
    <glyph glyph-name="Igrave" unicode="&#xcc;" horiz-adv-x="413" 
d="M373 1558l-129 288h146l91 -288h-108zM165 0h-139l307 1443h139z" />
    <glyph glyph-name="Idblgrave" unicode="&#x208;" horiz-adv-x="413" 
d="M521 1558l-76 288h136l43 -288h-103zM231 1558l-120 288h148l82 -288h-110zM165 0h-139l307 1443h139z" />
    <glyph glyph-name="Iacute" unicode="&#xcd;" horiz-adv-x="413" 
d="M481 1558h-110l214 288h148zM165 0h-139l307 1443h139z" />
    <glyph glyph-name="Icircumflex" unicode="&#xce;" horiz-adv-x="413" 
d="M532 1852l213 -294h-124l-147 208h-5l-228 -208h-129l317 294h103zM165 0h-139l307 1443h139z" />
    <glyph glyph-name="Icaron" unicode="&#x1cf;" horiz-adv-x="413" 
d="M387 1558l-213 294h124l148 -208h4l229 208h129l-317 -294h-104zM165 0h-139l307 1443h139z" />
    <glyph glyph-name="Idieresis" unicode="&#xcf;" horiz-adv-x="413" 
d="M289 1623c-48 0 -88 40 -88 88c0 50 40 89 88 89c49 0 89 -39 89 -89c0 -48 -40 -88 -89 -88zM631 1623c-49 0 -89 40 -89 88c0 50 40 89 89 89s88 -39 88 -89c0 -48 -39 -88 -88 -88zM165 0h-139l307 1443h139z" />
    <glyph glyph-name="Idieresisacute" unicode="&#x1e2e;" horiz-adv-x="413" 
d="M398 1805l226 211h142l-244 -211h-124zM282 1554c-48 0 -88 39 -88 88s40 88 88 88s87 -39 87 -88s-39 -88 -87 -88zM610 1554c-48 0 -87 39 -87 88s39 88 87 88s88 -39 88 -88s-40 -88 -88 -88zM165 0h-139l307 1443h139z" />
    <glyph glyph-name="Ibreve" unicode="&#x12c;" horiz-adv-x="413" 
d="M442 1555c-217 0 -287 159 -267 275h94c-9 -97 45 -186 179 -186c110 0 194 68 210 186h99c-17 -163 -137 -275 -315 -275zM165 0h-139l307 1443h139z" />
    <glyph glyph-name="Idotbelow" unicode="&#x1eca;" horiz-adv-x="413" 
d="M165 0h-139l307 1443h139zM43 -335c-49 0 -89 39 -89 88c0 50 40 88 89 88s88 -38 88 -88c0 -49 -39 -88 -88 -88z" />
    <glyph glyph-name="Iinvertedbreve" unicode="&#x20a;" horiz-adv-x="413" 
d="M433 1830c217 0 287 -159 267 -275h-94c9 97 -46 186 -179 186c-110 0 -194 -68 -210 -186h-99c17 163 137 275 315 275zM165 0h-139l307 1443h139z" />
    <glyph glyph-name="Imacron" unicode="&#x12a;" horiz-adv-x="413" 
d="M740 1753l-21 -95h-540l21 95h540zM165 0h-139l307 1443h139z" />
    <glyph glyph-name="Itildebelow" unicode="&#x1e2c;" horiz-adv-x="413" 
d="M165 0h-139l307 1443h139zM-267 -335c24 120 89 208 195 208c134 0 161 -146 240 -146c45 0 73 45 92 115h100c-24 -121 -88 -209 -196 -209c-133 0 -158 145 -238 145c-46 0 -74 -43 -92 -113h-101z" />
    <glyph glyph-name="Ihookabove" unicode="&#x1ec8;" horiz-adv-x="413" 
d="M292 1746l15 82c25 14 69 24 113 24c88 0 154 -54 154 -131c0 -92 -70 -168 -176 -198l-34 65c72 25 110 66 110 116c0 37 -34 66 -81 66c-36 0 -76 -8 -101 -24zM165 0h-139l307 1443h139z" />
    <glyph glyph-name="Itilde" unicode="&#x128;" horiz-adv-x="413" 
d="M149 1617c24 120 89 208 195 208c133 0 161 -146 240 -146c45 0 73 45 92 115h100c-24 -121 -88 -209 -196 -209c-133 0 -158 145 -238 145c-47 0 -74 -43 -92 -113h-101zM165 0h-139l307 1443h139z" />
    <glyph glyph-name="Iogonek" unicode="&#x12e;" horiz-adv-x="413" 
d="M24 -412c-105 0 -177 59 -177 146c0 85 56 165 177 258l309 1451h139l-304 -1432l-12 -8c-142 -96 -189 -161 -189 -230c0 -54 41 -87 104 -87c31 0 56 4 71 13l-20 -93c-16 -11 -58 -18 -98 -18z" />
    <glyph glyph-name="Iogonek.mini" horiz-adv-x="413" 
d="M24 -412c-105 0 -177 59 -177 146c0 85 56 165 177 258l309 1451h139l-304 -1432l-12 -8c-142 -96 -189 -161 -189 -230c0 -54 41 -87 104 -87c31 0 56 4 71 13l-20 -93c-16 -11 -58 -18 -98 -18z" />
    <glyph glyph-name="I.mini" horiz-adv-x="399" 
d="M155 0h-133l284 1335h134z" />
    <glyph glyph-name="Idieresisacute.mini" horiz-adv-x="399" 
d="M351 1731l271 217h176l-308 -217h-139zM241 1468c-56 0 -102 46 -102 102c0 57 46 102 102 102c57 0 102 -45 102 -102c0 -56 -45 -102 -102 -102zM605 1468c-57 0 -102 46 -102 102c0 57 45 102 102 102c56 0 102 -45 102 -102c0 -56 -46 -102 -102 -102zM155 0h-133
l284 1335h134z" />
    <glyph glyph-name="I.1" horiz-adv-x="875" 
d="M-31 0l25 118h288l257 1207h-288l25 118h715l-25 -118h-288l-257 -1207h288l-25 -118h-715z" />
    <glyph glyph-name="Idotaccent.1" horiz-adv-x="875" 
d="M690 1623c-49 0 -89 40 -89 88c0 50 40 89 89 89s88 -39 88 -89c0 -48 -39 -88 -88 -88zM-31 0l25 118h288l257 1207h-288l25 118h715l-25 -118h-288l-257 -1207h288l-25 -118h-715z" />
    <glyph glyph-name="Igrave.1" horiz-adv-x="875" 
d="M602 1558l-129 288h146l91 -288h-108zM-31 0l25 118h288l257 1207h-288l25 118h715l-25 -118h-288l-257 -1207h288l-25 -118h-715z" />
    <glyph glyph-name="Idblgrave.1" horiz-adv-x="875" 
d="M751 1558l-77 288h136l44 -288h-103zM461 1558l-120 288h147l82 -288h-109zM-31 0l25 118h288l257 1207h-288l25 118h715l-25 -118h-288l-257 -1207h288l-25 -118h-715z" />
    <glyph glyph-name="Iacute.1" horiz-adv-x="875" 
d="M711 1558h-110l213 288h148zM-31 0l25 118h288l257 1207h-288l25 118h715l-25 -118h-288l-257 -1207h288l-25 -118h-715z" />
    <glyph glyph-name="Icircumflex.1" horiz-adv-x="875" 
d="M762 1852l213 -294h-124l-147 208h-5l-228 -208h-130l317 294h104zM-31 0l25 118h288l257 1207h-288l25 118h715l-25 -118h-288l-257 -1207h288l-25 -118h-715z" />
    <glyph glyph-name="Icaron.1" horiz-adv-x="875" 
d="M617 1558l-213 294h124l147 -208h5l228 208h129l-317 -294h-103zM-31 0l25 118h288l257 1207h-288l25 118h715l-25 -118h-288l-257 -1207h288l-25 -118h-715z" />
    <glyph glyph-name="Idieresis.1" horiz-adv-x="875" 
d="M519 1623c-49 0 -89 40 -89 88c0 50 40 89 89 89s88 -39 88 -89c0 -48 -39 -88 -88 -88zM860 1623c-48 0 -88 40 -88 88c0 50 40 89 88 89c50 0 89 -39 89 -89c0 -48 -39 -88 -89 -88zM-31 0l25 118h288l257 1207h-288l25 118h715l-25 -118h-288l-257 -1207h288l-25 -118
h-715z" />
    <glyph glyph-name="Idieresisacute.1" horiz-adv-x="875" 
d="M627 1805l227 211h141l-244 -211h-124zM511 1554c-48 0 -88 39 -88 88s40 88 88 88s88 -39 88 -88s-40 -88 -88 -88zM839 1554c-47 0 -87 39 -87 88s40 88 87 88c49 0 88 -39 88 -88s-39 -88 -88 -88zM-31 0l25 118h288l257 1207h-288l25 118h715l-25 -118h-288
l-257 -1207h288l-25 -118h-715z" />
    <glyph glyph-name="Ibreve.1" horiz-adv-x="875" 
d="M671 1555c-216 0 -287 159 -267 275h95c-10 -97 45 -186 178 -186c111 0 195 68 210 186h99c-17 -163 -137 -275 -315 -275zM-31 0l25 118h288l257 1207h-288l25 118h715l-25 -118h-288l-257 -1207h288l-25 -118h-715z" />
    <glyph glyph-name="Idotbelow.1" horiz-adv-x="875" 
d="M-31 0l25 118h288l257 1207h-288l25 118h715l-25 -118h-288l-257 -1207h288l-25 -118h-715zM274 -335c-48 0 -88 39 -88 88c0 50 40 88 88 88c49 0 89 -38 89 -88c0 -49 -40 -88 -89 -88z" />
    <glyph glyph-name="Iinvertedbreve.1" horiz-adv-x="875" 
d="M663 1830c216 0 286 -159 267 -275h-95c9 97 -45 186 -178 186c-111 0 -195 -68 -211 -186h-98c17 163 137 275 315 275zM-31 0l25 118h288l257 1207h-288l25 118h715l-25 -118h-288l-257 -1207h288l-25 -118h-715z" />
    <glyph glyph-name="Imacron.1" horiz-adv-x="875" 
d="M969 1753l-20 -95h-540l20 95h540zM-31 0l25 118h288l257 1207h-288l25 118h715l-25 -118h-288l-257 -1207h288l-25 -118h-715z" />
    <glyph glyph-name="Itildebelow.1" horiz-adv-x="875" 
d="M-31 0l25 118h288l257 1207h-288l25 118h715l-25 -118h-288l-257 -1207h288l-25 -118h-715zM-36 -335c24 120 89 208 196 208c133 0 160 -146 240 -146c45 0 73 45 92 115h100c-24 -121 -88 -209 -196 -209c-133 0 -159 145 -239 145c-46 0 -73 -43 -91 -113h-102z" />
    <glyph glyph-name="Ihookabove.1" horiz-adv-x="875" 
d="M521 1746l15 82c25 14 69 24 113 24c89 0 155 -54 155 -131c0 -92 -70 -168 -177 -198l-34 65c72 25 111 66 111 116c0 37 -35 66 -82 66c-36 0 -75 -8 -101 -24zM-31 0l25 118h288l257 1207h-288l25 118h715l-25 -118h-288l-257 -1207h288l-25 -118h-715z" />
    <glyph glyph-name="Itilde.1" horiz-adv-x="875" 
d="M378 1617c24 120 89 208 196 208c133 0 160 -146 239 -146c45 0 74 45 92 115h101c-24 -121 -88 -209 -196 -209c-134 0 -159 145 -239 145c-46 0 -74 -43 -91 -113h-102zM-31 0l25 118h288l257 1207h-288l25 118h715l-25 -118h-288l-257 -1207h288l-25 -118h-715z" />
    <glyph glyph-name="Iogonek.1" horiz-adv-x="875" 
d="M251 1325l25 118h715l-25 -118h-288l-257 -1207h288l-23 -108l-16 -9c-148 -76 -233 -154 -238 -224c-5 -55 34 -91 103 -91c28 0 55 4 72 11l-19 -92c-16 -10 -58 -17 -99 -17c-112 0 -184 62 -177 154c5 92 86 184 221 254v4h-564l25 118h288l257 1207h-288z" />
    <glyph glyph-name="Iogonek.mini.1" horiz-adv-x="875" 
d="M251 1325l25 118h715l-25 -118h-288l-257 -1207h288l-23 -108l-16 -9c-148 -76 -233 -154 -238 -224c-5 -55 34 -91 103 -91c28 0 55 4 72 11l-19 -92c-16 -10 -58 -17 -99 -17c-112 0 -184 62 -177 154c5 92 86 184 221 254v4h-564l25 118h288l257 1207h-288z" />
    <glyph glyph-name="I.mini.1" horiz-adv-x="849" 
d="M-34 0l23 108h280l238 1119h-280l24 108h693l-23 -108h-280l-238 -1119h281l-23 -108h-695z" />
    <glyph glyph-name="Idieresisacute.mini.1" horiz-adv-x="849" 
d="M574 1731l272 217h176l-309 -217h-139zM464 1468c-56 0 -102 46 -102 102c0 57 46 102 102 102c57 0 102 -45 102 -102c0 -56 -45 -102 -102 -102zM828 1468c-56 0 -102 46 -102 102c0 57 46 102 102 102s102 -45 102 -102c0 -56 -46 -102 -102 -102zM-34 0l23 108h280
l238 1119h-280l24 108h693l-23 -108h-280l-238 -1119h281l-23 -108h-695z" />
    <glyph glyph-name="J" unicode="J" horiz-adv-x="996" 
d="M11 318v22h138v-6c0 -139 99 -229 249 -229c155 0 255 100 296 290l222 1048h139l-229 -1083c-52 -242 -207 -383 -441 -383c-219 0 -374 145 -374 341z" />
    <glyph glyph-name="Jacute" horiz-adv-x="996" 
d="M1064 1558h-110l214 288h148zM11 318v22h138v-6c0 -139 99 -229 249 -229c155 0 255 100 296 290l222 1048h139l-229 -1083c-52 -242 -207 -383 -441 -383c-219 0 -374 145 -374 341z" />
    <glyph glyph-name="Jcircumflex" unicode="&#x134;" horiz-adv-x="996" 
d="M1115 1852l213 -294h-124l-147 208h-5l-228 -208h-129l317 294h103zM11 318v22h138v-6c0 -139 99 -229 249 -229c155 0 255 100 296 290l222 1048h139l-229 -1083c-52 -242 -207 -383 -441 -383c-219 0 -374 145 -374 341z" />
    <glyph glyph-name="K" unicode="&#x212a;" horiz-adv-x="1209" 
d="M165 0h-139l307 1443h139l-158 -743h4l835 743h183l-715 -640l466 -803h-159l-414 718l-241 -210z" />
    <glyph glyph-name="K" unicode="K" horiz-adv-x="1209" 
d="M165 0h-139l307 1443h139l-158 -743h4l835 743h183l-715 -640l466 -803h-159l-414 718l-241 -210z" />
    <glyph glyph-name="Kacute" unicode="&#x1e30;" horiz-adv-x="1209" 
d="M844 1558h-109l213 288h148zM165 0h-139l307 1443h139l-158 -743h4l835 743h183l-715 -640l466 -803h-159l-414 718l-241 -210z" />
    <glyph glyph-name="Kcaron" unicode="&#x1e8;" horiz-adv-x="1209" 
d="M751 1558l-213 294h124l147 -208h5l228 208h129l-317 -294h-103zM165 0h-139l307 1443h139l-158 -743h4l835 743h183l-715 -640l466 -803h-159l-414 718l-241 -210z" />
    <glyph glyph-name="Kdotbelow" unicode="&#x1e32;" horiz-adv-x="1209" 
d="M165 0h-139l307 1443h139l-158 -743h4l835 743h183l-715 -640l466 -803h-159l-414 718l-241 -210zM474 -335c-49 0 -89 39 -89 88c0 50 40 88 89 88s88 -38 88 -88c0 -49 -39 -88 -88 -88z" />
    <glyph glyph-name="Klinebelow" unicode="&#x1e34;" horiz-adv-x="1209" 
d="M165 0h-139l307 1443h139l-158 -743h4l835 743h183l-715 -640l466 -803h-159l-414 718l-241 -210zM755 -200l-21 -95h-540l21 95h540z" />
    <glyph glyph-name="Kcommaaccent" unicode="&#x136;" horiz-adv-x="1209" 
d="M165 0h-139l307 1443h139l-158 -743h4l835 743h183l-715 -640l466 -803h-159l-414 718l-241 -210zM409 -483h-103l137 352h121z" />
    <glyph glyph-name="Kcommaaccent.mini" horiz-adv-x="1209" 
d="M165 0h-139l307 1443h139l-158 -743h4l835 743h183l-715 -640l466 -803h-159l-414 718l-241 -210zM426 -432h-105l133 289h118z" />
    <glyph glyph-name="L" unicode="L" horiz-adv-x="1053" 
d="M912 124l-26 -124h-860l307 1443h139l-280 -1319h720z" />
    <glyph glyph-name="Lacute" unicode="&#x139;" horiz-adv-x="1053" 
d="M481 1558h-110l213 288h148zM912 124l-26 -124h-860l307 1443h139l-280 -1319h720z" />
    <glyph glyph-name="Lcircumflexbelow" unicode="&#x1e3c;" horiz-adv-x="1053" 
d="M912 124l-26 -124h-860l307 1443h139l-280 -1319h720zM475 -131l196 -301h-124l-132 214h-4l-220 -214h-129l306 301h107z" />
    <glyph glyph-name="Ldot" unicode="&#x13f;" horiz-adv-x="1053" 
d="M912 124l-26 -124h-860l307 1443h139l-280 -1319h720zM705 628c-52 0 -93 42 -93 94s41 94 93 94s94 -42 94 -94s-42 -94 -94 -94z" />
    <glyph glyph-name="Ldotbelow" unicode="&#x1e36;" horiz-adv-x="1053" 
d="M912 124l-26 -124h-860l307 1443h139l-280 -1319h720zM404 -335c-49 0 -89 39 -89 88c0 50 40 88 89 88s88 -38 88 -88c0 -49 -39 -88 -88 -88z" />
    <glyph glyph-name="Ldotbelowmacron" unicode="&#x1e38;" horiz-adv-x="1053" 
d="M739 1753l-20 -95h-540l20 95h540zM912 124l-26 -124h-860l307 1443h139l-280 -1319h720zM404 -335c-49 0 -89 39 -89 88c0 50 40 88 89 88s88 -38 88 -88c0 -49 -39 -88 -88 -88z" />
    <glyph glyph-name="Llinebelow" unicode="&#x1e3a;" horiz-adv-x="1053" 
d="M912 124l-26 -124h-860l307 1443h139l-280 -1319h720zM685 -200l-20 -95h-540l20 95h540z" />
    <glyph glyph-name="Lcommaaccent" unicode="&#x13b;" horiz-adv-x="1053" 
d="M912 124l-26 -124h-860l307 1443h139l-280 -1319h720zM340 -483h-104l138 352h120z" />
    <glyph glyph-name="Lcaron" unicode="&#x13d;" horiz-adv-x="1053" 
d="M749 1500h136l-146 -480h-92zM912 124l-26 -124h-860l307 1443h139l-280 -1319h720z" />
    <glyph glyph-name="Lslash" unicode="&#x141;" horiz-adv-x="1053" 
d="M-2 512l25 118l152 70l158 743h139l-142 -671l366 171l-26 -118l-365 -170l-113 -531h720l-26 -124h-860l124 583z" />
    <glyph glyph-name="Lcommaaccent.mini" horiz-adv-x="1053" 
d="M912 124l-26 -124h-860l307 1443h139l-280 -1319h720zM356 -432h-104l132 289h118z" />
    <glyph glyph-name="M" unicode="M" horiz-adv-x="1667" 
d="M156 0h-130l307 1443h150l267 -1271h4l802 1271h170l-307 -1443h-130l254 1192h-6l-755 -1185h-119l-250 1185h-5z" />
    <glyph glyph-name="Macute" unicode="&#x1e3e;" horiz-adv-x="1667" 
d="M1065 1558h-110l214 288h148zM156 0h-130l307 1443h150l267 -1271h4l802 1271h170l-307 -1443h-130l254 1192h-6l-755 -1185h-119l-250 1185h-5z" />
    <glyph glyph-name="Mdotaccent" unicode="&#x1e40;" horiz-adv-x="1667" 
d="M1044 1623c-48 0 -88 40 -88 88c0 50 40 89 88 89c49 0 89 -39 89 -89c0 -48 -40 -88 -89 -88zM156 0h-130l307 1443h150l267 -1271h4l802 1271h170l-307 -1443h-130l254 1192h-6l-755 -1185h-119l-250 1185h-5z" />
    <glyph glyph-name="Mdotbelow" unicode="&#x1e42;" horiz-adv-x="1667" 
d="M156 0h-130l307 1443h150l267 -1271h4l802 1271h170l-307 -1443h-130l254 1192h-6l-755 -1185h-119l-250 1185h-5zM670 -335c-48 0 -88 39 -88 88c0 50 40 88 88 88c49 0 89 -38 89 -88c0 -49 -40 -88 -89 -88z" />
    <glyph glyph-name="N" unicode="N" horiz-adv-x="1400" 
d="M165 0h-139l307 1443h139l581 -1236h4l263 1236h139l-307 -1443h-139l-581 1236h-4z" />
    <glyph glyph-name="Ngrave" unicode="&#x1f8;" horiz-adv-x="1400" 
d="M871 1558l-129 288h146l91 -288h-108zM165 0h-139l307 1443h139l581 -1236h4l263 1236h139l-307 -1443h-139l-581 1236h-4z" />
    <glyph glyph-name="Nacute" unicode="&#x143;" horiz-adv-x="1400" 
d="M979 1558h-110l214 288h148zM165 0h-139l307 1443h139l581 -1236h4l263 1236h139l-307 -1443h-139l-581 1236h-4z" />
    <glyph glyph-name="Ntilde" unicode="&#xd1;" horiz-adv-x="1400" 
d="M647 1617c24 120 89 208 195 208c133 0 161 -146 240 -146c45 0 73 45 92 115h100c-24 -121 -88 -209 -196 -209c-133 0 -158 145 -238 145c-46 0 -74 -43 -92 -113h-101zM165 0h-139l307 1443h139l581 -1236h4l263 1236h139l-307 -1443h-139l-581 1236h-4z" />
    <glyph glyph-name="Ndotbelow" unicode="&#x1e46;" horiz-adv-x="1400" 
d="M165 0h-139l307 1443h139l581 -1236h4l263 1236h139l-307 -1443h-139l-581 1236h-4zM537 -335c-49 0 -89 39 -89 88c0 50 40 88 89 88s88 -38 88 -88c0 -49 -39 -88 -88 -88z" />
    <glyph glyph-name="Ndotaccent" unicode="&#x1e44;" horiz-adv-x="1400" 
d="M958 1623c-48 0 -88 40 -88 88c0 50 40 89 88 89c49 0 89 -39 89 -89c0 -48 -40 -88 -89 -88zM165 0h-139l307 1443h139l581 -1236h4l263 1236h139l-307 -1443h-139l-581 1236h-4z" />
    <glyph glyph-name="Ncaron" unicode="&#x147;" horiz-adv-x="1400" 
d="M885 1558l-213 294h124l148 -208h4l229 208h129l-317 -294h-104zM165 0h-139l307 1443h139l581 -1236h4l263 1236h139l-307 -1443h-139l-581 1236h-4z" />
    <glyph glyph-name="Ncircumflexbelow" unicode="&#x1e4a;" horiz-adv-x="1400" 
d="M165 0h-139l307 1443h139l581 -1236h4l263 1236h139l-307 -1443h-139l-581 1236h-4zM608 -131l195 -301h-123l-132 214h-5l-220 -214h-128l306 301h107z" />
    <glyph glyph-name="Nlinebelow" unicode="&#x1e48;" horiz-adv-x="1400" 
d="M165 0h-139l307 1443h139l581 -1236h4l263 1236h139l-307 -1443h-139l-581 1236h-4zM818 -200l-21 -95h-540l21 95h540z" />
    <glyph glyph-name="Ncommaaccent" unicode="&#x145;" horiz-adv-x="1400" 
d="M165 0h-139l307 1443h139l581 -1236h4l263 1236h139l-307 -1443h-139l-581 1236h-4zM472 -483h-103l137 352h121z" />
    <glyph glyph-name="Ncommaaccent.mini" horiz-adv-x="1400" 
d="M165 0h-139l307 1443h139l581 -1236h4l263 1236h139l-307 -1443h-139l-581 1236h-4zM489 -432h-105l133 289h118z" />
    <glyph glyph-name="O" unicode="O" horiz-adv-x="1491" 
d="M710 -22c-354 0 -589 246 -589 621c0 481 315 866 745 866c353 0 588 -246 588 -621c0 -481 -315 -866 -744 -866zM864 1339c-351 0 -603 -326 -603 -734c0 -307 178 -501 450 -501c351 0 603 326 603 734c0 307 -177 501 -450 501z" />
    <glyph glyph-name="Odieresis" unicode="&#xd6;" horiz-adv-x="1491" 
d="M765 1623c-49 0 -89 40 -89 88c0 50 40 89 89 89s88 -39 88 -89c0 -48 -39 -88 -88 -88zM1106 1623c-48 0 -88 40 -88 88c0 50 40 89 88 89c50 0 89 -39 89 -89c0 -48 -39 -88 -89 -88zM710 -22c-354 0 -589 246 -589 621c0 481 315 866 745 866c353 0 588 -246 588 -621
c0 -481 -315 -866 -744 -866zM864 1339c-351 0 -603 -326 -603 -734c0 -307 178 -501 450 -501c351 0 603 326 603 734c0 307 -177 501 -450 501z" />
    <glyph glyph-name="Oslash" unicode="&#xd8;" horiz-adv-x="1491" 
d="M82 117l131 123c-59 98 -92 219 -92 359c0 481 315 866 745 866c188 0 343 -70 446 -192l115 109l67 -78l-123 -116c54 -95 83 -211 83 -344c0 -481 -315 -866 -744 -866c-182 0 -333 65 -436 179l-126 -118zM864 1339c-351 0 -603 -326 -603 -734
c0 -103 20 -192 56 -267l895 841c-79 102 -199 160 -348 160zM1314 838c0 95 -17 180 -49 251l-891 -838c79 -94 195 -147 337 -147c351 0 603 326 603 734z" />
    <glyph glyph-name="Otilde" unicode="&#xd5;" horiz-adv-x="1491" 
d="M624 1617c24 120 89 208 196 208c133 0 160 -146 239 -146c45 0 73 45 92 115h101c-24 -121 -89 -209 -196 -209c-134 0 -159 145 -239 145c-46 0 -74 -43 -92 -113h-101zM710 -22c-354 0 -589 246 -589 621c0 481 315 866 745 866c353 0 588 -246 588 -621
c0 -481 -315 -866 -744 -866zM864 1339c-351 0 -603 -326 -603 -734c0 -307 178 -501 450 -501c351 0 603 326 603 734c0 307 -177 501 -450 501z" />
    <glyph glyph-name="Oacute" unicode="&#xd3;" horiz-adv-x="1491" 
d="M957 1558h-110l213 288h148zM710 -22c-354 0 -589 246 -589 621c0 481 315 866 745 866c353 0 588 -246 588 -621c0 -481 -315 -866 -744 -866zM864 1339c-351 0 -603 -326 -603 -734c0 -307 178 -501 450 -501c351 0 603 326 603 734c0 307 -177 501 -450 501z" />
    <glyph glyph-name="Ocircumflex" unicode="&#xd4;" horiz-adv-x="1491" 
d="M1008 1852l213 -294h-124l-148 208h-4l-228 -208h-130l317 294h104zM710 -22c-354 0 -589 246 -589 621c0 481 315 866 745 866c353 0 588 -246 588 -621c0 -481 -315 -866 -744 -866zM864 1339c-351 0 -603 -326 -603 -734c0 -307 178 -501 450 -501
c351 0 603 326 603 734c0 307 -177 501 -450 501z" />
    <glyph glyph-name="Ograve" unicode="&#xd2;" horiz-adv-x="1491" 
d="M848 1558l-129 288h146l91 -288h-108zM710 -22c-354 0 -589 246 -589 621c0 481 315 866 745 866c353 0 588 -246 588 -621c0 -481 -315 -866 -744 -866zM864 1339c-351 0 -603 -326 -603 -734c0 -307 178 -501 450 -501c351 0 603 326 603 734c0 307 -177 501 -450 501z
" />
    <glyph glyph-name="Ocircumflexhookabove" unicode="&#x1ed4;" horiz-adv-x="1491" 
d="M1055 1933l18 73c17 8 57 15 89 15c102 0 167 -52 167 -131c0 -74 -50 -132 -138 -161l-50 57c54 16 92 48 92 92c0 42 -35 69 -92 69c-30 0 -62 -6 -86 -14zM888 1785h116l225 -241h-129l-157 168h-5l-228 -168h-149zM710 -22c-354 0 -589 246 -589 621
c0 481 315 866 745 866c353 0 588 -246 588 -621c0 -481 -315 -866 -744 -866zM864 1339c-351 0 -603 -326 -603 -734c0 -307 178 -501 450 -501c351 0 603 326 603 734c0 307 -177 501 -450 501z" />
    <glyph glyph-name="Ocircumflexgrave" unicode="&#x1ed2;" horiz-adv-x="1491" 
d="M1305 1805h-108l-160 211h127zM888 1785h116l225 -241h-129l-157 168h-5l-228 -168h-149zM710 -22c-354 0 -589 246 -589 621c0 481 315 866 745 866c353 0 588 -246 588 -621c0 -481 -315 -866 -744 -866zM864 1339c-351 0 -603 -326 -603 -734
c0 -307 178 -501 450 -501c351 0 603 326 603 734c0 307 -177 501 -450 501z" />
    <glyph glyph-name="Odotbelow" unicode="&#x1ecc;" horiz-adv-x="1491" 
d="M710 -22c-354 0 -589 246 -589 621c0 481 315 866 745 866c353 0 588 -246 588 -621c0 -481 -315 -866 -744 -866zM864 1339c-351 0 -603 -326 -603 -734c0 -307 178 -501 450 -501c351 0 603 326 603 734c0 307 -177 501 -450 501zM651 -335c-49 0 -89 39 -89 88
c0 50 40 88 89 88s88 -38 88 -88c0 -49 -39 -88 -88 -88z" />
    <glyph glyph-name="Odblgrave" unicode="&#x20c;" horiz-adv-x="1491" 
d="M997 1558l-77 288h136l44 -288h-103zM706 1558l-119 288h147l82 -288h-110zM710 -22c-354 0 -589 246 -589 621c0 481 315 866 745 866c353 0 588 -246 588 -621c0 -481 -315 -866 -744 -866zM864 1339c-351 0 -603 -326 -603 -734c0 -307 178 -501 450 -501
c351 0 603 326 603 734c0 307 -177 501 -450 501z" />
    <glyph glyph-name="Otildeacute" unicode="&#x1e4c;" horiz-adv-x="1491" 
d="M905 1831l208 185h141l-226 -185h-123zM1035 1545c-130 0 -147 150 -230 150c-48 0 -94 -52 -108 -131h-91c26 137 108 217 210 217c128 0 144 -150 229 -150c48 0 90 50 107 132h92c-27 -134 -110 -218 -209 -218zM710 -22c-354 0 -589 246 -589 621
c0 481 315 866 745 866c353 0 588 -246 588 -621c0 -481 -315 -866 -744 -866zM864 1339c-351 0 -603 -326 -603 -734c0 -307 178 -501 450 -501c351 0 603 326 603 734c0 307 -177 501 -450 501z" />
    <glyph glyph-name="Omacronacute" unicode="&#x1e52;" horiz-adv-x="1491" 
d="M891 1805l226 211h142l-244 -211h-124zM1220 1599h-616l19 92h617zM710 -22c-354 0 -589 246 -589 621c0 481 315 866 745 866c353 0 588 -246 588 -621c0 -481 -315 -866 -744 -866zM864 1339c-351 0 -603 -326 -603 -734c0 -307 178 -501 450 -501
c351 0 603 326 603 734c0 307 -177 501 -450 501z" />
    <glyph glyph-name="Ocircumflextilde" unicode="&#x1ed6;" horiz-adv-x="1491" 
d="M1094 1830c-120 0 -156 123 -236 123c-50 0 -89 -38 -99 -107h-92c20 126 98 194 201 194c118 0 154 -122 235 -122c48 0 85 37 98 108h93c-20 -124 -101 -196 -200 -196zM887 1778h116l226 -234h-129l-159 163h-4l-227 -163h-149zM710 -22c-354 0 -589 246 -589 621
c0 481 315 866 745 866c353 0 588 -246 588 -621c0 -481 -315 -866 -744 -866zM864 1339c-351 0 -603 -326 -603 -734c0 -307 178 -501 450 -501c351 0 603 326 603 734c0 307 -177 501 -450 501z" />
    <glyph glyph-name="Odotaccentmacron" unicode="&#x230;" horiz-adv-x="1491" 
d="M1301 1979l-20 -91h-617l21 91h616zM926 1570c-55 0 -100 45 -100 100c0 56 45 101 100 101c56 0 101 -45 101 -101c0 -55 -45 -100 -101 -100zM710 -22c-354 0 -589 246 -589 621c0 481 315 866 745 866c353 0 588 -246 588 -621c0 -481 -315 -866 -744 -866zM864 1339
c-351 0 -603 -326 -603 -734c0 -307 178 -501 450 -501c351 0 603 326 603 734c0 307 -177 501 -450 501z" />
    <glyph glyph-name="Omacrongrave" unicode="&#x1e50;" horiz-adv-x="1491" 
d="M1012 1805h-109l-159 211h126zM1220 1599h-616l19 92h617zM710 -22c-354 0 -589 246 -589 621c0 481 315 866 745 866c353 0 588 -246 588 -621c0 -481 -315 -866 -744 -866zM864 1339c-351 0 -603 -326 -603 -734c0 -307 178 -501 450 -501c351 0 603 326 603 734
c0 307 -177 501 -450 501z" />
    <glyph glyph-name="Ocaron" unicode="&#x1d1;" horiz-adv-x="1491" 
d="M863 1558l-213 294h124l147 -208h5l228 208h129l-317 -294h-103zM710 -22c-354 0 -589 246 -589 621c0 481 315 866 745 866c353 0 588 -246 588 -621c0 -481 -315 -866 -744 -866zM864 1339c-351 0 -603 -326 -603 -734c0 -307 178 -501 450 -501c351 0 603 326 603 734
c0 307 -177 501 -450 501z" />
    <glyph glyph-name="Oslashacute" unicode="&#x1fe;" horiz-adv-x="1491" 
d="M957 1558h-110l213 288h148zM82 117l131 123c-59 98 -92 219 -92 359c0 481 315 866 745 866c188 0 343 -70 446 -192l115 109l67 -78l-123 -116c54 -95 83 -211 83 -344c0 -481 -315 -866 -744 -866c-182 0 -333 65 -436 179l-126 -118zM864 1339
c-351 0 -603 -326 -603 -734c0 -103 20 -192 56 -267l895 841c-79 102 -199 160 -348 160zM1314 838c0 95 -17 180 -49 251l-891 -838c79 -94 195 -147 337 -147c351 0 603 326 603 734z" />
    <glyph glyph-name="Ohungarumlaut" unicode="&#x150;" horiz-adv-x="1491" 
d="M809 1558h-103l166 288h136zM1099 1558h-110l205 288h147zM710 -22c-354 0 -589 246 -589 621c0 481 315 866 745 866c353 0 588 -246 588 -621c0 -481 -315 -866 -744 -866zM864 1339c-351 0 -603 -326 -603 -734c0 -307 178 -501 450 -501c351 0 603 326 603 734
c0 307 -177 501 -450 501z" />
    <glyph glyph-name="Obreve" unicode="&#x14e;" horiz-adv-x="1491" 
d="M917 1555c-217 0 -287 159 -267 275h95c-10 -97 45 -186 178 -186c111 0 194 68 210 186h99c-17 -163 -137 -275 -315 -275zM710 -22c-354 0 -589 246 -589 621c0 481 315 866 745 866c353 0 588 -246 588 -621c0 -481 -315 -866 -744 -866zM864 1339
c-351 0 -603 -326 -603 -734c0 -307 178 -501 450 -501c351 0 603 326 603 734c0 307 -177 501 -450 501z" />
    <glyph glyph-name="Oinvertedbreve" unicode="&#x20e;" horiz-adv-x="1491" 
d="M909 1830c216 0 286 -159 266 -275h-94c9 97 -45 186 -179 186c-110 0 -194 -68 -210 -186h-98c16 163 137 275 315 275zM710 -22c-354 0 -589 246 -589 621c0 481 315 866 745 866c353 0 588 -246 588 -621c0 -481 -315 -866 -744 -866zM864 1339
c-351 0 -603 -326 -603 -734c0 -307 178 -501 450 -501c351 0 603 326 603 734c0 307 -177 501 -450 501z" />
    <glyph glyph-name="Ohookabove" unicode="&#x1ece;" horiz-adv-x="1491" 
d="M767 1746l15 82c25 14 69 24 113 24c88 0 154 -54 154 -131c0 -92 -70 -168 -176 -198l-34 65c72 25 110 66 110 116c0 37 -34 66 -81 66c-36 0 -76 -8 -101 -24zM710 -22c-354 0 -589 246 -589 621c0 481 315 866 745 866c353 0 588 -246 588 -621
c0 -481 -315 -866 -744 -866zM864 1339c-351 0 -603 -326 -603 -734c0 -307 178 -501 450 -501c351 0 603 326 603 734c0 307 -177 501 -450 501z" />
    <glyph glyph-name="Odieresismacron" unicode="&#x22a;" horiz-adv-x="1491" 
d="M1301 1979l-19 -91h-617l20 91h616zM757 1730c48 0 88 -39 88 -88s-40 -88 -88 -88s-88 39 -88 88s40 88 88 88zM1085 1730c49 0 88 -39 88 -88s-39 -88 -88 -88c-47 0 -87 39 -87 88s40 88 87 88zM710 -22c-354 0 -589 246 -589 621c0 481 315 866 745 866
c353 0 588 -246 588 -621c0 -481 -315 -866 -744 -866zM864 1339c-351 0 -603 -326 -603 -734c0 -307 178 -501 450 -501c351 0 603 326 603 734c0 307 -177 501 -450 501z" />
    <glyph glyph-name="Otildemacron" unicode="&#x22c;" horiz-adv-x="1491" 
d="M1301 1979l-20 -91h-617l21 91h616zM1035 1545c-130 0 -147 150 -230 150c-48 0 -94 -52 -108 -131h-91c26 137 108 217 210 217c128 0 144 -150 229 -150c48 0 90 50 107 132h92c-27 -134 -110 -218 -209 -218zM710 -22c-354 0 -589 246 -589 621c0 481 315 866 745 866
c353 0 588 -246 588 -621c0 -481 -315 -866 -744 -866zM864 1339c-351 0 -603 -326 -603 -734c0 -307 178 -501 450 -501c351 0 603 326 603 734c0 307 -177 501 -450 501z" />
    <glyph glyph-name="Odotaccent" unicode="&#x22e;" horiz-adv-x="1491" 
d="M935 1623c-48 0 -88 40 -88 88c0 50 40 89 88 89c50 0 89 -39 89 -89c0 -48 -39 -88 -89 -88zM710 -22c-354 0 -589 246 -589 621c0 481 315 866 745 866c353 0 588 -246 588 -621c0 -481 -315 -866 -744 -866zM864 1339c-351 0 -603 -326 -603 -734
c0 -307 178 -501 450 -501c351 0 603 326 603 734c0 307 -177 501 -450 501z" />
    <glyph glyph-name="Ocircumflexdotbelow" unicode="&#x1ed8;" horiz-adv-x="1491" 
d="M1008 1852l213 -294h-124l-148 208h-4l-228 -208h-130l317 294h104zM710 -22c-354 0 -589 246 -589 621c0 481 315 866 745 866c353 0 588 -246 588 -621c0 -481 -315 -866 -744 -866zM864 1339c-351 0 -603 -326 -603 -734c0 -307 178 -501 450 -501
c351 0 603 326 603 734c0 307 -177 501 -450 501zM651 -335c-49 0 -89 39 -89 88c0 50 40 88 89 88s88 -38 88 -88c0 -49 -39 -88 -88 -88z" />
    <glyph glyph-name="Ocircumflexacute" unicode="&#x1ed0;" horiz-adv-x="1491" 
d="M1114 1805l226 211h142l-244 -211h-124zM888 1785h116l225 -241h-129l-157 168h-5l-228 -168h-149zM710 -22c-354 0 -589 246 -589 621c0 481 315 866 745 866c353 0 588 -246 588 -621c0 -481 -315 -866 -744 -866zM864 1339c-351 0 -603 -326 -603 -734
c0 -307 178 -501 450 -501c351 0 603 326 603 734c0 307 -177 501 -450 501z" />
    <glyph glyph-name="Otildedieresis" unicode="&#x1e4e;" horiz-adv-x="1491" 
d="M823 2033c48 0 88 -39 88 -88s-40 -88 -88 -88s-88 39 -88 88s40 88 88 88zM1151 2033c49 0 88 -39 88 -88s-39 -88 -88 -88c-47 0 -87 39 -87 88s40 88 87 88zM1035 1545c-130 0 -147 150 -230 150c-48 0 -94 -52 -108 -131h-91c26 137 108 217 210 217
c128 0 144 -150 229 -150c48 0 90 50 107 132h92c-27 -134 -110 -218 -209 -218zM710 -22c-354 0 -589 246 -589 621c0 481 315 866 745 866c353 0 588 -246 588 -621c0 -481 -315 -866 -744 -866zM864 1339c-351 0 -603 -326 -603 -734c0 -307 178 -501 450 -501
c351 0 603 326 603 734c0 307 -177 501 -450 501z" />
    <glyph glyph-name="Omacron" unicode="&#x14c;" horiz-adv-x="1491" 
d="M1215 1753l-20 -95h-540l20 95h540zM710 -22c-354 0 -589 246 -589 621c0 481 315 866 745 866c353 0 588 -246 588 -621c0 -481 -315 -866 -744 -866zM864 1339c-351 0 -603 -326 -603 -734c0 -307 178 -501 450 -501c351 0 603 326 603 734c0 307 -177 501 -450 501z
" />
    <glyph glyph-name="Oogonek" unicode="&#x1ea;" horiz-adv-x="1491" 
d="M853 -394c-17 -11 -58 -18 -98 -18c-106 0 -177 59 -177 146c0 90 55 164 197 246v4c-23 -4 -48 -6 -69 -6c-353 0 -584 247 -584 626c0 476 317 861 745 861c353 0 585 -247 585 -626c0 -357 -191 -651 -460 -798c-160 -85 -294 -182 -294 -270c0 -52 40 -85 103 -85
c30 0 54 4 72 13zM1312 836c0 307 -174 503 -445 503c-352 0 -605 -326 -605 -731c0 -308 173 -504 444 -504c352 0 606 326 606 732z" />
    <glyph glyph-name="Oogonekmacron" unicode="&#x1ec;" horiz-adv-x="1491" 
d="M1215 1753l-20 -95h-540l20 95h540zM853 -394c-17 -11 -58 -18 -98 -18c-106 0 -177 59 -177 146c0 90 55 164 197 246v4c-23 -4 -48 -6 -69 -6c-353 0 -584 247 -584 626c0 476 317 861 745 861c353 0 585 -247 585 -626c0 -357 -191 -651 -460 -798
c-160 -85 -294 -182 -294 -270c0 -52 40 -85 103 -85c30 0 54 4 72 13zM1312 836c0 307 -174 503 -445 503c-352 0 -605 -326 -605 -731c0 -308 173 -504 444 -504c352 0 606 326 606 732z" />
    <glyph glyph-name="Ohorn" unicode="&#x1a0;" horiz-adv-x="1491" 
d="M1452 839c0 -476 -318 -861 -746 -861c-353 0 -584 246 -584 626c0 476 317 862 745 862c253 0 312 -106 457 -106c75 0 113 35 128 106l35 170h124l-45 -217c-21 -104 -98 -166 -199 -166c-12 0 -37 4 -46 9v-4c84 -106 131 -254 131 -419zM1312 835
c0 308 -175 505 -445 505c-352 0 -605 -327 -605 -732c0 -309 173 -504 444 -504c352 0 606 325 606 731z" />
    <glyph glyph-name="Ohorndotbelow" unicode="&#x1ee2;" horiz-adv-x="1491" 
d="M1452 839c0 -476 -318 -861 -746 -861c-353 0 -584 246 -584 626c0 476 317 862 745 862c253 0 312 -106 457 -106c75 0 113 35 128 106l35 170h124l-45 -217c-21 -104 -98 -166 -199 -166c-12 0 -37 4 -46 9v-4c84 -106 131 -254 131 -419zM1312 835
c0 308 -175 505 -445 505c-352 0 -605 -327 -605 -732c0 -309 173 -504 444 -504c352 0 606 325 606 731zM655 -335c-49 0 -89 39 -89 88c0 50 40 88 89 88s88 -38 88 -88c0 -49 -39 -88 -88 -88z" />
    <glyph glyph-name="Ohornhookabove" unicode="&#x1ede;" horiz-adv-x="1491" 
d="M771 1746l15 82c25 14 69 24 113 24c88 0 154 -54 154 -131c0 -92 -70 -168 -176 -198l-34 65c72 25 110 66 110 116c0 37 -34 66 -81 66c-36 0 -76 -8 -101 -24zM1452 839c0 -476 -318 -861 -746 -861c-353 0 -584 246 -584 626c0 476 317 862 745 862
c253 0 312 -106 457 -106c75 0 113 35 128 106l35 170h124l-45 -217c-21 -104 -98 -166 -199 -166c-12 0 -37 4 -46 9v-4c84 -106 131 -254 131 -419zM1312 835c0 308 -175 505 -445 505c-352 0 -605 -327 -605 -732c0 -309 173 -504 444 -504c352 0 606 325 606 731z" />
    <glyph glyph-name="Ohorntilde" unicode="&#x1ee0;" horiz-adv-x="1491" 
d="M628 1617c24 120 89 208 195 208c133 0 161 -146 240 -146c45 0 73 45 92 115h100c-24 -121 -88 -209 -196 -209c-133 0 -158 145 -238 145c-46 0 -74 -43 -92 -113h-101zM1452 839c0 -476 -318 -861 -746 -861c-353 0 -584 246 -584 626c0 476 317 862 745 862
c253 0 312 -106 457 -106c75 0 113 35 128 106l35 170h124l-45 -217c-21 -104 -98 -166 -199 -166c-12 0 -37 4 -46 9v-4c84 -106 131 -254 131 -419zM1312 835c0 308 -175 505 -445 505c-352 0 -605 -327 -605 -732c0 -309 173 -504 444 -504c352 0 606 325 606 731z" />
    <glyph glyph-name="Ohorngrave" unicode="&#x1edc;" horiz-adv-x="1491" 
d="M852 1558l-129 288h146l91 -288h-108zM1452 839c0 -476 -318 -861 -746 -861c-353 0 -584 246 -584 626c0 476 317 862 745 862c253 0 312 -106 457 -106c75 0 113 35 128 106l35 170h124l-45 -217c-21 -104 -98 -166 -199 -166c-12 0 -37 4 -46 9v-4
c84 -106 131 -254 131 -419zM1312 835c0 308 -175 505 -445 505c-352 0 -605 -327 -605 -732c0 -309 173 -504 444 -504c352 0 606 325 606 731z" />
    <glyph glyph-name="Ohornacute" unicode="&#x1eda;" horiz-adv-x="1491" 
d="M960 1558h-110l214 288h148zM1452 839c0 -476 -318 -861 -746 -861c-353 0 -584 246 -584 626c0 476 317 862 745 862c253 0 312 -106 457 -106c75 0 113 35 128 106l35 170h124l-45 -217c-21 -104 -98 -166 -199 -166c-12 0 -37 4 -46 9v-4c84 -106 131 -254 131 -419z
M1312 835c0 308 -175 505 -445 505c-352 0 -605 -327 -605 -732c0 -309 173 -504 444 -504c352 0 606 325 606 731z" />
    <glyph glyph-name="Oogonek.mini" horiz-adv-x="1491" 
d="M853 -394c-17 -11 -58 -18 -98 -18c-106 0 -177 59 -177 146c0 90 55 164 197 246v4c-23 -4 -48 -6 -69 -6c-353 0 -584 247 -584 626c0 476 317 861 745 861c353 0 585 -247 585 -626c0 -357 -191 -651 -460 -798c-160 -85 -294 -182 -294 -270c0 -52 40 -85 103 -85
c30 0 54 4 72 13zM1312 836c0 307 -174 503 -445 503c-352 0 -605 -326 -605 -731c0 -308 173 -504 444 -504c352 0 606 326 606 732z" />
    <glyph glyph-name="Ocircumflexacute.mini" horiz-adv-x="1447" 
d="M1028 1717l267 221h168l-286 -221h-149zM977 1692l237 -224h-164l-150 147h-12l-212 -147h-181l331 224h151zM686 -20c-343 0 -574 227 -578 573c-5 446 298 802 715 802c343 0 573 -227 577 -573c4 -447 -297 -802 -714 -802zM821 1236c-342 0 -584 -301 -580 -677
c4 -281 181 -460 446 -460c343 0 585 301 580 677c-3 281 -180 460 -446 460z" />
    <glyph glyph-name="O.mini" horiz-adv-x="1447" 
d="M686 -20c-343 0 -574 227 -578 573c-5 446 298 802 715 802c343 0 573 -227 577 -573c4 -447 -297 -802 -714 -802zM821 1236c-342 0 -584 -301 -580 -677c4 -281 181 -460 446 -460c343 0 585 301 580 677c-3 281 -180 460 -446 460z" />
    <glyph glyph-name="Ocircumflexgrave.mini" horiz-adv-x="1447" 
d="M1267 1717h-147l-194 221h166zM977 1692l237 -224h-164l-150 147h-12l-212 -147h-181l331 224h151zM686 -20c-343 0 -574 227 -578 573c-5 446 298 802 715 802c343 0 573 -227 577 -573c4 -447 -297 -802 -714 -802zM821 1236c-342 0 -584 -301 -580 -677
c4 -281 181 -460 446 -460c343 0 585 301 580 677c-3 281 -180 460 -446 460z" />
    <glyph glyph-name="Otildemacron.mini" horiz-adv-x="1447" 
d="M1257 1806h-644l21 102h645zM1017 1469c-130 0 -171 128 -256 128c-61 0 -102 -42 -120 -107h-110c23 134 124 212 230 212c129 0 170 -128 255 -128c61 0 102 41 121 106h110c-24 -133 -125 -211 -230 -211zM686 -20c-343 0 -574 227 -578 573c-5 446 298 802 715 802
c343 0 573 -227 577 -573c4 -447 -297 -802 -714 -802zM821 1236c-342 0 -584 -301 -580 -677c4 -281 181 -460 446 -460c343 0 585 301 580 677c-3 281 -180 460 -446 460z" />
    <glyph glyph-name="Omacronacute.mini" horiz-adv-x="1447" 
d="M829 1731l265 207h170l-284 -207h-151zM1194 1510h-644l22 102h644zM686 -20c-343 0 -574 227 -578 573c-5 446 298 802 715 802c343 0 573 -227 577 -573c4 -447 -297 -802 -714 -802zM821 1236c-342 0 -584 -301 -580 -677c4 -281 181 -460 446 -460
c343 0 585 301 580 677c-3 281 -180 460 -446 460z" />
    <glyph glyph-name="Omacrongrave.mini" horiz-adv-x="1447" 
d="M1006 1731h-148l-197 207h167zM1194 1510h-644l22 102h644zM686 -20c-343 0 -574 227 -578 573c-5 446 298 802 715 802c343 0 573 -227 577 -573c4 -447 -297 -802 -714 -802zM821 1236c-342 0 -584 -301 -580 -677c4 -281 181 -460 446 -460c343 0 585 301 580 677
c-3 281 -180 460 -446 460z" />
    <glyph glyph-name="Otildedieresis.mini" horiz-adv-x="1447" 
d="M763 1760c-59 0 -100 38 -100 90s41 89 100 89c57 0 99 -37 99 -89s-42 -90 -99 -90zM1126 1760c-57 0 -99 38 -99 90s42 89 99 89c58 0 100 -37 100 -89s-42 -90 -100 -90zM1017 1469c-130 0 -171 128 -256 128c-61 0 -102 -42 -120 -107h-110c23 134 124 212 230 212
c129 0 170 -128 255 -128c61 0 102 41 121 106h110c-24 -133 -125 -211 -230 -211zM686 -20c-343 0 -574 227 -578 573c-5 446 298 802 715 802c343 0 573 -227 577 -573c4 -447 -297 -802 -714 -802zM821 1236c-342 0 -584 -301 -580 -677c4 -281 181 -460 446 -460
c343 0 585 301 580 677c-3 281 -180 460 -446 460z" />
    <glyph glyph-name="Otildeacute.mini" horiz-adv-x="1447" 
d="M851 1737l250 201h169l-270 -201h-149zM1017 1469c-130 0 -171 128 -256 128c-61 0 -102 -42 -120 -107h-110c23 134 124 212 230 212c129 0 170 -128 255 -128c61 0 102 41 121 106h110c-24 -133 -125 -211 -230 -211zM686 -20c-343 0 -574 227 -578 573
c-5 446 298 802 715 802c343 0 573 -227 577 -573c4 -447 -297 -802 -714 -802zM821 1236c-342 0 -584 -301 -580 -677c4 -281 181 -460 446 -460c343 0 585 301 580 677c-3 281 -180 460 -446 460z" />
    <glyph glyph-name="Odieresismacron.mini" horiz-adv-x="1447" 
d="M613 1806l21 102h645l-22 -102h-644zM703 1468c-57 0 -102 46 -102 102c0 57 45 102 102 102c56 0 102 -45 102 -102c0 -56 -46 -102 -102 -102zM1067 1468c-57 0 -103 46 -103 102c0 57 46 102 103 102c56 0 102 -45 102 -102c0 -56 -46 -102 -102 -102zM686 -20
c-343 0 -574 227 -578 573c-5 446 298 802 715 802c343 0 573 -227 577 -573c4 -447 -297 -802 -714 -802zM821 1236c-342 0 -584 -301 -580 -677c4 -281 181 -460 446 -460c343 0 585 301 580 677c-3 281 -180 460 -446 460z" />
    <glyph glyph-name="Odotaccentmacron.mini" horiz-adv-x="1447" 
d="M1257 1806h-644l21 102h645zM885 1470c-58 0 -103 47 -103 104s45 104 103 104s104 -47 104 -104s-46 -104 -104 -104zM686 -20c-343 0 -574 227 -578 573c-5 446 298 802 715 802c343 0 573 -227 577 -573c4 -447 -297 -802 -714 -802zM821 1236
c-342 0 -584 -301 -580 -677c4 -281 181 -460 446 -460c343 0 585 301 580 677c-3 281 -180 460 -446 460z" />
    <glyph glyph-name="Ocircumflexhookabove.mini" horiz-adv-x="1447" 
d="M1022 1831l17 88c25 11 64 19 97 19c119 0 196 -59 196 -150c0 -82 -57 -156 -151 -188l-65 67c60 17 103 59 103 107c0 45 -37 73 -102 73c-33 0 -70 -7 -95 -16zM977 1692l237 -224h-164l-150 147h-12l-212 -147h-181l331 224h151zM686 -20c-343 0 -574 227 -578 573
c-5 446 298 802 715 802c343 0 573 -227 577 -573c4 -447 -297 -802 -714 -802zM821 1236c-342 0 -584 -301 -580 -677c4 -281 181 -460 446 -460c343 0 585 301 580 677c-3 281 -180 460 -446 460z" />
    <glyph glyph-name="Ocircumflextilde.mini" horiz-adv-x="1447" 
d="M1060 1736c-107 0 -157 102 -236 102c-51 0 -82 -31 -101 -89h-110c23 126 111 191 211 191c108 0 158 -101 236 -101c51 0 83 31 101 89h110c-23 -126 -111 -192 -211 -192zM977 1692l237 -224h-164l-150 147h-12l-212 -147h-181l331 224h151zM686 -20
c-343 0 -574 227 -578 573c-5 446 298 802 715 802c343 0 573 -227 577 -573c4 -447 -297 -802 -714 -802zM821 1236c-342 0 -584 -301 -580 -677c4 -281 181 -460 446 -460c343 0 585 301 580 677c-3 281 -180 460 -446 460z" />
    <glyph glyph-name="P" unicode="P" horiz-adv-x="1195" 
d="M334 1443h476c241 0 416 -153 416 -385c0 -320 -248 -514 -583 -514h-361l-116 -544h-140zM448 1321l-140 -655h329c265 0 447 139 447 380c0 168 -120 275 -317 275h-319z" />
    <glyph glyph-name="Pdotaccent" unicode="&#x1e56;" horiz-adv-x="1195" 
d="M768 1623c-49 0 -89 40 -89 88c0 50 40 89 89 89s88 -39 88 -89c0 -48 -39 -88 -88 -88zM334 1443h476c241 0 416 -153 416 -385c0 -320 -248 -514 -583 -514h-361l-116 -544h-140zM448 1321l-140 -655h329c265 0 447 139 447 380c0 168 -120 275 -317 275h-319z" />
    <glyph glyph-name="Pacute" unicode="&#x1e54;" horiz-adv-x="1195" 
d="M789 1558h-110l213 288h148zM334 1443h476c241 0 416 -153 416 -385c0 -320 -248 -514 -583 -514h-361l-116 -544h-140zM448 1321l-140 -655h329c265 0 447 139 447 380c0 168 -120 275 -317 275h-319z" />
    <glyph glyph-name="Q" unicode="Q" horiz-adv-x="1491" 
d="M1184 -169h-136l-99 191c-74 -28 -155 -44 -239 -44c-354 0 -589 246 -589 621c0 481 315 866 745 866c353 0 588 -246 588 -621c0 -337 -155 -627 -396 -771zM711 104c64 0 123 11 180 31l-135 260h136l108 -207c192 122 314 366 314 650c0 307 -177 501 -450 501
c-351 0 -603 -326 -603 -734c0 -307 178 -501 450 -501z" />
    <glyph glyph-name="R" unicode="R" horiz-adv-x="1227" 
d="M26 0l308 1443h469c275 0 427 -149 427 -375c0 -230 -152 -413 -405 -458l216 -610h-144l-207 591h-398l-126 -591h-140zM448 1321l-130 -607h372c234 0 397 139 397 341c0 162 -107 266 -292 266h-347z" />
    <glyph glyph-name="Rcaron" unicode="&#x158;" horiz-adv-x="1227" 
d="M701 1558l-213 294h124l148 -208h4l229 208h129l-317 -294h-104zM26 0l308 1443h469c275 0 427 -149 427 -375c0 -230 -152 -413 -405 -458l216 -610h-144l-207 591h-398l-126 -591h-140zM448 1321l-130 -607h372c234 0 397 139 397 341c0 162 -107 266 -292 266h-347z
" />
    <glyph glyph-name="Rlinebelow" unicode="&#x1e5e;" horiz-adv-x="1227" 
d="M26 0l308 1443h469c275 0 427 -149 427 -375c0 -230 -152 -413 -405 -458l216 -610h-144l-207 591h-398l-126 -591h-140zM448 1321l-130 -607h372c234 0 397 139 397 341c0 162 -107 266 -292 266h-347zM751 -200l-20 -95h-540l20 95h540z" />
    <glyph glyph-name="Rdotbelowmacron" unicode="&#x1e5c;" horiz-adv-x="1227" 
d="M1054 1753l-21 -95h-540l21 95h540zM26 0l308 1443h469c275 0 427 -149 427 -375c0 -230 -152 -413 -405 -458l216 -610h-144l-207 591h-398l-126 -591h-140zM448 1321l-130 -607h372c234 0 397 139 397 341c0 162 -107 266 -292 266h-347zM470 -335c-48 0 -88 39 -88 88
c0 50 40 88 88 88c49 0 89 -38 89 -88c0 -49 -40 -88 -89 -88z" />
    <glyph glyph-name="Rdblgrave" unicode="&#x210;" horiz-adv-x="1227" 
d="M836 1558l-77 288h136l43 -288h-102zM545 1558l-119 288h147l82 -288h-110zM26 0l308 1443h469c275 0 427 -149 427 -375c0 -230 -152 -413 -405 -458l216 -610h-144l-207 591h-398l-126 -591h-140zM448 1321l-130 -607h372c234 0 397 139 397 341
c0 162 -107 266 -292 266h-347z" />
    <glyph glyph-name="Rinvertedbreve" unicode="&#x212;" horiz-adv-x="1227" 
d="M747 1830c217 0 287 -159 267 -275h-94c9 97 -46 186 -179 186c-110 0 -194 -68 -210 -186h-99c17 163 137 275 315 275zM26 0l308 1443h469c275 0 427 -149 427 -375c0 -230 -152 -413 -405 -458l216 -610h-144l-207 591h-398l-126 -591h-140zM448 1321l-130 -607h372
c234 0 397 139 397 341c0 162 -107 266 -292 266h-347z" />
    <glyph glyph-name="Racute" unicode="&#x154;" horiz-adv-x="1227" 
d="M795 1558h-110l214 288h148zM26 0l308 1443h469c275 0 427 -149 427 -375c0 -230 -152 -413 -405 -458l216 -610h-144l-207 591h-398l-126 -591h-140zM448 1321l-130 -607h372c234 0 397 139 397 341c0 162 -107 266 -292 266h-347z" />
    <glyph glyph-name="Rdotbelow" unicode="&#x1e5a;" horiz-adv-x="1227" 
d="M26 0l308 1443h469c275 0 427 -149 427 -375c0 -230 -152 -413 -405 -458l216 -610h-144l-207 591h-398l-126 -591h-140zM448 1321l-130 -607h372c234 0 397 139 397 341c0 162 -107 266 -292 266h-347zM470 -335c-48 0 -88 39 -88 88c0 50 40 88 88 88
c49 0 89 -38 89 -88c0 -49 -40 -88 -89 -88z" />
    <glyph glyph-name="Rdotaccent" unicode="&#x1e58;" horiz-adv-x="1227" 
d="M774 1623c-48 0 -88 40 -88 88c0 50 40 89 88 89c49 0 89 -39 89 -89c0 -48 -40 -88 -89 -88zM26 0l308 1443h469c275 0 427 -149 427 -375c0 -230 -152 -413 -405 -458l216 -610h-144l-207 591h-398l-126 -591h-140zM448 1321l-130 -607h372c234 0 397 139 397 341
c0 162 -107 266 -292 266h-347z" />
    <glyph glyph-name="Rcommaaccent" unicode="&#x156;" horiz-adv-x="1227" 
d="M26 0l308 1443h469c275 0 427 -149 427 -375c0 -230 -152 -413 -405 -458l216 -610h-144l-207 591h-398l-126 -591h-140zM448 1321l-130 -607h372c234 0 397 139 397 341c0 162 -107 266 -292 266h-347zM406 -483h-103l137 352h120z" />
    <glyph glyph-name="Rcommaaccent.mini" horiz-adv-x="1227" 
d="M26 0l308 1443h469c275 0 427 -149 427 -375c0 -230 -152 -413 -405 -458l216 -610h-144l-207 591h-398l-126 -591h-140zM448 1321l-130 -607h372c234 0 397 139 397 341c0 162 -107 266 -292 266h-347zM423 -432h-105l132 289h118z" />
    <glyph glyph-name="S" unicode="S" horiz-adv-x="1213" 
d="M51 416h137c17 -186 175 -314 413 -314c210 0 363 105 363 281c0 134 -79 207 -265 271l-107 37c-241 83 -353 193 -353 378c0 235 200 396 486 396c285 0 493 -160 499 -410h-137c-10 168 -149 286 -363 286c-218 0 -344 -121 -344 -262c0 -122 82 -197 274 -263
l108 -38c233 -78 346 -193 346 -370c0 -229 -183 -430 -509 -430c-301 0 -539 168 -548 438z" />
    <glyph glyph-name="Scaron" unicode="&#x160;" horiz-adv-x="1214" 
d="M745 1558l-213 294h124l148 -208h4l228 208h130l-317 -294h-104zM51 416h137c17 -186 175 -314 413 -314c210 0 363 105 363 281c0 134 -79 207 -265 271l-107 37c-241 83 -353 193 -353 378c0 235 200 396 486 396c285 0 493 -160 499 -410h-137
c-10 168 -149 286 -363 286c-218 0 -344 -121 -344 -262c0 -122 82 -197 274 -263l108 -38c233 -78 346 -193 346 -370c0 -229 -183 -430 -509 -430c-301 0 -539 168 -548 438z" />
    <glyph glyph-name="Scedilla" unicode="&#x15e;" horiz-adv-x="1214" 
d="M51 416h137c17 -186 175 -314 413 -314c210 0 363 105 363 281c0 134 -79 207 -265 271l-107 37c-241 83 -353 193 -353 378c0 235 200 396 486 396c285 0 493 -160 499 -410h-137c-10 168 -149 286 -363 286c-218 0 -344 -121 -344 -262c0 -122 82 -197 274 -263
l108 -38c233 -78 346 -193 346 -370c0 -221 -172 -417 -478 -429l-66 -111c92 0 177 -50 177 -154c0 -117 -107 -174 -240 -174c-53 0 -103 10 -142 23l19 87c26 -9 65 -18 112 -18c69 0 132 24 132 79c0 53 -53 79 -138 79h-51l14 68l75 124c-264 26 -463 187 -471 434z
" />
    <glyph glyph-name="Sdotaccent" unicode="&#x1e60;" horiz-adv-x="1214" 
d="M818 1623c-49 0 -89 40 -89 88c0 50 40 89 89 89s89 -39 89 -89c0 -48 -40 -88 -89 -88zM51 416h137c17 -186 175 -314 413 -314c210 0 363 105 363 281c0 134 -79 207 -265 271l-107 37c-241 83 -353 193 -353 378c0 235 200 396 486 396c285 0 493 -160 499 -410h-137
c-10 168 -149 286 -363 286c-218 0 -344 -121 -344 -262c0 -122 82 -197 274 -263l108 -38c233 -78 346 -193 346 -370c0 -229 -183 -430 -509 -430c-301 0 -539 168 -548 438z" />
    <glyph glyph-name="Sdotbelow" unicode="&#x1e62;" horiz-adv-x="1214" 
d="M51 416h137c17 -186 175 -314 413 -314c210 0 363 105 363 281c0 134 -79 207 -265 271l-107 37c-241 83 -353 193 -353 378c0 235 200 396 486 396c285 0 493 -160 499 -410h-137c-10 168 -149 286 -363 286c-218 0 -344 -121 -344 -262c0 -122 82 -197 274 -263
l108 -38c233 -78 346 -193 346 -370c0 -229 -183 -430 -509 -430c-301 0 -539 168 -548 438zM527 -335c-48 0 -88 39 -88 88c0 50 40 88 88 88c50 0 89 -38 89 -88c0 -49 -39 -88 -89 -88z" />
    <glyph glyph-name="Scommaaccent" unicode="&#x218;" horiz-adv-x="1214" 
d="M51 416h137c17 -186 175 -314 413 -314c210 0 363 105 363 281c0 134 -79 207 -265 271l-107 37c-241 83 -353 193 -353 378c0 235 200 396 486 396c285 0 493 -160 499 -410h-137c-10 168 -149 286 -363 286c-218 0 -344 -121 -344 -262c0 -122 82 -197 274 -263
l108 -38c233 -78 346 -193 346 -370c0 -229 -183 -430 -509 -430c-301 0 -539 168 -548 438zM463 -483h-103l137 352h120z" />
    <glyph glyph-name="Sdotbelowdotaccent" unicode="&#x1e68;" horiz-adv-x="1214" 
d="M818 1623c-49 0 -89 40 -89 88c0 50 40 89 89 89s89 -39 89 -89c0 -48 -40 -88 -89 -88zM51 416h137c17 -186 175 -314 413 -314c210 0 363 105 363 281c0 134 -79 207 -265 271l-107 37c-241 83 -353 193 -353 378c0 235 200 396 486 396c285 0 493 -160 499 -410h-137
c-10 168 -149 286 -363 286c-218 0 -344 -121 -344 -262c0 -122 82 -197 274 -263l108 -38c233 -78 346 -193 346 -370c0 -229 -183 -430 -509 -430c-301 0 -539 168 -548 438zM527 -335c-48 0 -88 39 -88 88c0 50 40 88 88 88c50 0 89 -38 89 -88c0 -49 -39 -88 -89 -88z
" />
    <glyph glyph-name="Scarondotaccent" unicode="&#x1e66;" horiz-adv-x="1214" 
d="M843 1834c-53 0 -96 43 -96 97s43 96 96 96c54 0 97 -42 97 -96s-43 -97 -97 -97zM722 1544l-225 241h129l157 -168h4l229 168h149l-327 -241h-116zM51 416h137c17 -186 175 -314 413 -314c210 0 363 105 363 281c0 134 -79 207 -265 271l-107 37
c-241 83 -353 193 -353 378c0 235 200 396 486 396c285 0 493 -160 499 -410h-137c-10 168 -149 286 -363 286c-218 0 -344 -121 -344 -262c0 -122 82 -197 274 -263l108 -38c233 -78 346 -193 346 -370c0 -229 -183 -430 -509 -430c-301 0 -539 168 -548 438z" />
    <glyph glyph-name="Scircumflex" unicode="&#x15c;" horiz-adv-x="1214" 
d="M890 1852l213 -294h-124l-147 208h-5l-228 -208h-129l317 294h103zM51 416h137c17 -186 175 -314 413 -314c210 0 363 105 363 281c0 134 -79 207 -265 271l-107 37c-241 83 -353 193 -353 378c0 235 200 396 486 396c285 0 493 -160 499 -410h-137
c-10 168 -149 286 -363 286c-218 0 -344 -121 -344 -262c0 -122 82 -197 274 -263l108 -38c233 -78 346 -193 346 -370c0 -229 -183 -430 -509 -430c-301 0 -539 168 -548 438z" />
    <glyph glyph-name="Sacutedotaccent" unicode="&#x1e64;" horiz-adv-x="1214" 
d="M934 1558h-110l213 288h148zM662 1600c-48 0 -88 39 -88 88c0 50 40 88 88 88c49 0 89 -38 89 -88c0 -49 -40 -88 -89 -88zM51 416h137c17 -186 175 -314 413 -314c210 0 363 105 363 281c0 134 -79 207 -265 271l-107 37c-241 83 -353 193 -353 378
c0 235 200 396 486 396c285 0 493 -160 499 -410h-137c-10 168 -149 286 -363 286c-218 0 -344 -121 -344 -262c0 -122 82 -197 274 -263l108 -38c233 -78 346 -193 346 -370c0 -229 -183 -430 -509 -430c-301 0 -539 168 -548 438z" />
    <glyph glyph-name="Sacute" unicode="&#x15a;" horiz-adv-x="1214" 
d="M839 1558h-110l214 288h148zM51 416h137c17 -186 175 -314 413 -314c210 0 363 105 363 281c0 134 -79 207 -265 271l-107 37c-241 83 -353 193 -353 378c0 235 200 396 486 396c285 0 493 -160 499 -410h-137c-10 168 -149 286 -363 286c-218 0 -344 -121 -344 -262
c0 -122 82 -197 274 -263l108 -38c233 -78 346 -193 346 -370c0 -229 -183 -430 -509 -430c-301 0 -539 168 -548 438z" />
    <glyph glyph-name="Germandbls" unicode="&#x1e9e;" horiz-adv-x="1379" 
d="M163 0h-136l200 946c76 360 329 523 652 519c204 -1 389 -63 510 -156l-22 -103l-469 -408l29 -5c249 -45 350 -187 350 -363c0 -263 -211 -453 -497 -453c-116 0 -243 27 -333 70l29 137c87 -53 199 -81 311 -81c197 0 348 131 348 303c0 133 -76 249 -301 283l-111 17
l22 107l489 429c-106 64 -227 95 -358 97c-262 5 -457 -134 -515 -408z" />
    <glyph glyph-name="Scommaaccent.mini" horiz-adv-x="1214" 
d="M51 416h137c17 -186 175 -314 413 -314c210 0 363 105 363 281c0 134 -79 207 -265 271l-107 37c-241 83 -353 193 -353 378c0 235 200 396 486 396c285 0 493 -160 499 -410h-137c-10 168 -149 286 -363 286c-218 0 -344 -121 -344 -262c0 -122 82 -197 274 -263
l108 -38c233 -78 346 -193 346 -370c0 -229 -183 -430 -509 -430c-301 0 -539 168 -548 438zM480 -432h-105l133 289h117z" />
    <glyph glyph-name="Scedilla.mini" horiz-adv-x="1214" 
d="M51 416h137c17 -186 175 -314 413 -314c210 0 363 105 363 281c0 134 -79 207 -265 271l-107 37c-241 83 -353 193 -353 378c0 235 200 396 486 396c285 0 493 -160 499 -410h-137c-10 168 -149 286 -363 286c-218 0 -344 -121 -344 -262c0 -122 82 -197 274 -263
l108 -38c233 -78 346 -193 346 -370c0 -225 -178 -424 -495 -430l-50 -81c88 0 171 -51 171 -155c0 -117 -107 -173 -240 -173c-53 0 -104 9 -143 22l20 87c26 -9 65 -18 112 -18c69 0 131 25 131 79s-52 79 -133 79h-50l14 69l60 97c-255 31 -446 191 -454 432z" />
    <glyph glyph-name="S.mini" horiz-adv-x="1178" 
d="M42 385h130c19 -171 176 -288 408 -288c205 0 354 97 352 257c-2 123 -80 190 -262 249l-105 35c-236 77 -344 179 -346 349c-2 219 190 368 467 368s481 -148 488 -380h-130c-12 154 -150 263 -358 263c-214 0 -335 -110 -333 -240c2 -112 82 -181 270 -242l106 -35
c227 -73 337 -179 339 -342c2 -215 -174 -399 -489 -399c-293 0 -525 155 -537 405z" />
    <glyph glyph-name="Scarondotaccent.mini" horiz-adv-x="1178" 
d="M827 1732c-57 0 -103 45 -103 102s46 104 103 104s103 -47 103 -104s-46 -102 -103 -102zM682 1468l-237 224h164l150 -146h12l212 146h181l-331 -224h-151zM42 385h130c19 -171 176 -288 408 -288c205 0 354 97 352 257c-2 123 -80 190 -262 249l-105 35
c-236 77 -344 179 -346 349c-2 219 190 368 467 368s481 -148 488 -380h-130c-12 154 -150 263 -358 263c-214 0 -335 -110 -333 -240c2 -112 82 -181 270 -242l106 -35c227 -73 337 -179 339 -342c2 -215 -174 -399 -489 -399c-293 0 -525 155 -537 405z" />
    <glyph glyph-name="T" unicode="T" horiz-adv-x="1188" 
d="M553 0h-139l280 1319h-482l26 124h1104l-26 -124h-482z" />
    <glyph glyph-name="Tcircumflexbelow" unicode="&#x1e70;" horiz-adv-x="1188" 
d="M553 0h-139l280 1319h-482l26 124h1104l-26 -124h-482zM505 -131l196 -301h-124l-132 214h-4l-220 -214h-129l306 301h107z" />
    <glyph glyph-name="Tdotbelow" unicode="&#x1e6c;" horiz-adv-x="1188" 
d="M553 0h-139l280 1319h-482l26 124h1104l-26 -124h-482zM434 -335c-49 0 -89 39 -89 88c0 50 40 88 89 88s89 -38 89 -88c0 -49 -40 -88 -89 -88z" />
    <glyph glyph-name="Tcommaaccent" unicode="&#x21a;" horiz-adv-x="1188" 
d="M553 0h-139l280 1319h-482l26 124h1104l-26 -124h-482zM370 -483h-103l137 352h120z" />
    <glyph glyph-name="Tdotaccent" unicode="&#x1e6a;" horiz-adv-x="1188" 
d="M849 1623c-48 0 -88 40 -88 88c0 50 40 89 88 89c50 0 89 -39 89 -89c0 -48 -39 -88 -89 -88zM553 0h-139l280 1319h-482l26 124h1104l-26 -124h-482z" />
    <glyph glyph-name="Tcedilla" unicode="&#x162;" horiz-adv-x="1188" 
d="M269 -437l19 87c26 -9 65 -18 112 -18c69 0 132 24 132 79c0 53 -53 79 -139 79h-50l14 68l86 142h-29l280 1319h-482l26 124h1104l-26 -124h-482l-281 -1319l-79 -132c92 0 177 -50 177 -154c0 -117 -107 -174 -240 -174c-53 0 -104 10 -142 23z" />
    <glyph glyph-name="Tlinebelow" unicode="&#x1e6e;" horiz-adv-x="1188" 
d="M553 0h-139l280 1319h-482l26 124h1104l-26 -124h-482zM715 -200l-20 -95h-540l20 95h540z" />
    <glyph glyph-name="Tcaron" unicode="&#x164;" horiz-adv-x="1188" 
d="M777 1558l-213 294h124l147 -208h5l228 208h129l-317 -294h-103zM553 0h-139l280 1319h-482l26 124h1104l-26 -124h-482z" />
    <glyph glyph-name="Tbar" unicode="&#x166;" horiz-adv-x="1188" 
d="M553 0h-139l142 668h-346l23 110h346l115 541h-482l26 124h1104l-26 -124h-482l-115 -541h343l-24 -110h-343z" />
    <glyph glyph-name="Tcommaaccent.mini" horiz-adv-x="1188" 
d="M553 0h-139l280 1319h-482l26 124h1104l-26 -124h-482zM386 -432h-104l132 289h118z" />
    <glyph glyph-name="Tcedilla.mini" horiz-adv-x="1188" 
d="M279 -409l20 87c25 -9 64 -18 111 -18c69 0 132 25 132 79s-52 79 -133 79h-51l14 69l70 113h-28l280 1319h-482l26 124h1104l-26 -124h-482l-281 -1319l-62 -103c88 0 171 -51 171 -155c0 -117 -108 -173 -241 -173c-53 0 -103 9 -142 22z" />
    <glyph glyph-name="U" unicode="U" horiz-adv-x="1399" 
d="M628 -22c-314 0 -495 189 -496 439c-1 45 4 90 13 135l189 891h139l-187 -884c-10 -43 -14 -92 -13 -134c5 -194 137 -321 377 -321c235 0 413 144 465 384l204 955h139l-209 -980c-66 -306 -278 -485 -621 -485z" />
    <glyph glyph-name="Ugrave" unicode="&#xd9;" horiz-adv-x="1399" 
d="M855 1558l-129 288h146l91 -288h-108zM628 -22c-314 0 -495 189 -496 439c-1 45 4 90 13 135l189 891h139l-187 -884c-10 -43 -14 -92 -13 -134c5 -194 137 -321 377 -321c235 0 413 144 465 384l204 955h139l-209 -980c-66 -306 -278 -485 -621 -485z" />
    <glyph glyph-name="Udblgrave" unicode="&#x214;" horiz-adv-x="1399" 
d="M1004 1558l-77 288h136l44 -288h-103zM713 1558l-119 288h147l82 -288h-110zM628 -22c-314 0 -495 189 -496 439c-1 45 4 90 13 135l189 891h139l-187 -884c-10 -43 -14 -92 -13 -134c5 -194 137 -321 377 -321c235 0 413 144 465 384l204 955h139l-209 -980
c-66 -306 -278 -485 -621 -485z" />
    <glyph glyph-name="Uacute" unicode="&#xda;" horiz-adv-x="1399" 
d="M963 1558h-109l213 288h148zM628 -22c-314 0 -495 189 -496 439c-1 45 4 90 13 135l189 891h139l-187 -884c-10 -43 -14 -92 -13 -134c5 -194 137 -321 377 -321c235 0 413 144 465 384l204 955h139l-209 -980c-66 -306 -278 -485 -621 -485z" />
    <glyph glyph-name="Uhungarumlaut" unicode="&#x170;" horiz-adv-x="1399" 
d="M816 1558h-103l166 288h136zM1106 1558h-110l205 288h147zM628 -22c-314 0 -495 189 -496 439c-1 45 4 90 13 135l189 891h139l-187 -884c-10 -43 -14 -92 -13 -134c5 -194 137 -321 377 -321c235 0 413 144 465 384l204 955h139l-209 -980c-66 -306 -278 -485 -621 -485
z" />
    <glyph glyph-name="Ucircumflex" unicode="&#xdb;" horiz-adv-x="1399" 
d="M1015 1852l212 -294h-123l-148 208h-5l-228 -208h-129l317 294h104zM628 -22c-314 0 -495 189 -496 439c-1 45 4 90 13 135l189 891h139l-187 -884c-10 -43 -14 -92 -13 -134c5 -194 137 -321 377 -321c235 0 413 144 465 384l204 955h139l-209 -980
c-66 -306 -278 -485 -621 -485z" />
    <glyph glyph-name="Ucaron" unicode="&#x1d3;" horiz-adv-x="1399" 
d="M870 1558l-213 294h123l148 -208h5l228 208h129l-317 -294h-103zM628 -22c-314 0 -495 189 -496 439c-1 45 4 90 13 135l189 891h139l-187 -884c-10 -43 -14 -92 -13 -134c5 -194 137 -321 377 -321c235 0 413 144 465 384l204 955h139l-209 -980
c-66 -306 -278 -485 -621 -485z" />
    <glyph glyph-name="Ucircumflexbelow" unicode="&#x1e76;" horiz-adv-x="1399" 
d="M628 -22c-314 0 -495 189 -496 439c-1 45 4 90 13 135l189 891h139l-187 -884c-10 -43 -14 -92 -13 -134c5 -194 137 -321 377 -321c235 0 413 144 465 384l204 955h139l-209 -980c-66 -306 -278 -485 -621 -485zM620 -131l196 -301h-124l-132 214h-4l-220 -214h-129
l306 301h107z" />
    <glyph glyph-name="Udieresis" unicode="&#xdc;" horiz-adv-x="1399" 
d="M771 1623c-48 0 -88 40 -88 88c0 50 40 89 88 89c50 0 89 -39 89 -89c0 -48 -39 -88 -89 -88zM1113 1623c-48 0 -88 40 -88 88c0 50 40 89 88 89c49 0 89 -39 89 -89c0 -48 -40 -88 -89 -88zM628 -22c-314 0 -495 189 -496 439c-1 45 4 90 13 135l189 891h139l-187 -884
c-10 -43 -14 -92 -13 -134c5 -194 137 -321 377 -321c235 0 413 144 465 384l204 955h139l-209 -980c-66 -306 -278 -485 -621 -485z" />
    <glyph glyph-name="Udieresisgrave" unicode="&#x1db;" horiz-adv-x="1399" 
d="M1028 1805h-109l-159 211h126zM764 1554c-48 0 -87 39 -87 88s39 88 87 88s88 -39 88 -88s-40 -88 -88 -88zM1092 1554c-47 0 -87 39 -87 88s40 88 87 88c49 0 88 -39 88 -88s-39 -88 -88 -88zM628 -22c-314 0 -495 189 -496 439c-1 45 4 90 13 135l189 891h139
l-187 -884c-10 -43 -14 -92 -13 -134c5 -194 137 -321 377 -321c235 0 413 144 465 384l204 955h139l-209 -980c-66 -306 -278 -485 -621 -485z" />
    <glyph glyph-name="Udieresisacute" unicode="&#x1d7;" horiz-adv-x="1399" 
d="M880 1805l226 211h142l-244 -211h-124zM764 1554c-48 0 -88 39 -88 88s40 88 88 88s87 -39 87 -88s-39 -88 -87 -88zM1092 1554c-48 0 -87 39 -87 88s39 88 87 88s88 -39 88 -88s-40 -88 -88 -88zM628 -22c-314 0 -495 189 -496 439c-1 45 4 90 13 135l189 891h139
l-187 -884c-10 -43 -14 -92 -13 -134c5 -194 137 -321 377 -321c235 0 413 144 465 384l204 955h139l-209 -980c-66 -306 -278 -485 -621 -485z" />
    <glyph glyph-name="Udieresismacron" unicode="&#x1d5;" horiz-adv-x="1399" 
d="M1308 1979l-20 -91h-616l20 91h616zM764 1730c48 0 87 -39 87 -88s-39 -88 -87 -88s-88 39 -88 88s40 88 88 88zM1092 1730c48 0 88 -39 88 -88s-40 -88 -88 -88s-87 39 -87 88s39 88 87 88zM628 -22c-314 0 -495 189 -496 439c-1 45 4 90 13 135l189 891h139l-187 -884
c-10 -43 -14 -92 -13 -134c5 -194 137 -321 377 -321c235 0 413 144 465 384l204 955h139l-209 -980c-66 -306 -278 -485 -621 -485z" />
    <glyph glyph-name="Udieresiscaron" unicode="&#x1d9;" horiz-adv-x="1399" 
d="M902 1795l-217 223h130l148 -152h5l212 152h148l-310 -223h-116zM764 1730c48 0 87 -39 87 -88s-39 -88 -87 -88s-88 39 -88 88s40 88 88 88zM1092 1730c48 0 88 -39 88 -88s-40 -88 -88 -88s-87 39 -87 88s39 88 87 88zM628 -22c-314 0 -495 189 -496 439
c-1 45 4 90 13 135l189 891h139l-187 -884c-10 -43 -14 -92 -13 -134c5 -194 137 -321 377 -321c235 0 413 144 465 384l204 955h139l-209 -980c-66 -306 -278 -485 -621 -485z" />
    <glyph glyph-name="Udieresisbelow" unicode="&#x1e72;" horiz-adv-x="1399" 
d="M628 -22c-314 0 -495 189 -496 439c-1 45 4 90 13 135l189 891h139l-187 -884c-10 -43 -14 -92 -13 -134c5 -194 137 -321 377 -321c235 0 413 144 465 384l204 955h139l-209 -980c-66 -306 -278 -485 -621 -485zM378 -335c-49 0 -89 39 -89 88c0 50 40 88 89 88
s89 -38 89 -88c0 -49 -40 -88 -89 -88zM720 -335c-49 0 -89 39 -89 88c0 50 40 88 89 88s88 -38 88 -88c0 -49 -39 -88 -88 -88z" />
    <glyph glyph-name="Utildebelow" unicode="&#x1e74;" horiz-adv-x="1399" 
d="M628 -22c-314 0 -495 189 -496 439c-1 45 4 90 13 135l189 891h139l-187 -884c-10 -43 -14 -92 -13 -134c5 -194 137 -321 377 -321c235 0 413 144 465 384l204 955h139l-209 -980c-66 -306 -278 -485 -621 -485zM239 -335c24 120 89 208 196 208
c133 0 160 -146 239 -146c45 0 74 45 92 115h101c-24 -121 -88 -209 -196 -209c-134 0 -159 145 -239 145c-46 0 -74 -43 -91 -113h-102z" />
    <glyph glyph-name="Uhookabove" unicode="&#x1ee6;" horiz-adv-x="1399" 
d="M774 1746l15 82c25 14 69 24 113 24c88 0 154 -54 154 -131c0 -92 -70 -168 -176 -198l-34 65c72 25 110 66 110 116c0 37 -34 66 -81 66c-36 0 -76 -8 -101 -24zM628 -22c-314 0 -495 189 -496 439c-1 45 4 90 13 135l189 891h139l-187 -884c-10 -43 -14 -92 -13 -134
c5 -194 137 -321 377 -321c235 0 413 144 465 384l204 955h139l-209 -980c-66 -306 -278 -485 -621 -485z" />
    <glyph glyph-name="Ubreve" unicode="&#x16c;" horiz-adv-x="1399" 
d="M924 1555c-217 0 -287 159 -267 275h94c-9 -97 46 -186 179 -186c110 0 194 68 210 186h99c-17 -163 -137 -275 -315 -275zM628 -22c-314 0 -495 189 -496 439c-1 45 4 90 13 135l189 891h139l-187 -884c-10 -43 -14 -92 -13 -134c5 -194 137 -321 377 -321
c235 0 413 144 465 384l204 955h139l-209 -980c-66 -306 -278 -485 -621 -485z" />
    <glyph glyph-name="Uinvertedbreve" unicode="&#x216;" horiz-adv-x="1399" 
d="M915 1830c217 0 287 -159 267 -275h-94c9 97 -45 186 -179 186c-110 0 -194 -68 -210 -186h-99c17 163 137 275 315 275zM628 -22c-314 0 -495 189 -496 439c-1 45 4 90 13 135l189 891h139l-187 -884c-10 -43 -14 -92 -13 -134c5 -194 137 -321 377 -321
c235 0 413 144 465 384l204 955h139l-209 -980c-66 -306 -278 -485 -621 -485z" />
    <glyph glyph-name="Utildeacute" unicode="&#x1e78;" horiz-adv-x="1399" 
d="M912 1831l208 185h141l-226 -185h-123zM1042 1545c-130 0 -147 150 -230 150c-48 0 -94 -52 -108 -131h-91c26 137 107 217 210 217c128 0 144 -150 229 -150c48 0 89 50 107 132h92c-27 -134 -111 -218 -209 -218zM628 -22c-314 0 -495 189 -496 439c-1 45 4 90 13 135
l189 891h139l-187 -884c-10 -43 -14 -92 -13 -134c5 -194 137 -321 377 -321c235 0 413 144 465 384l204 955h139l-209 -980c-66 -306 -278 -485 -621 -485z" />
    <glyph glyph-name="Udotbelow" unicode="&#x1ee4;" horiz-adv-x="1399" 
d="M628 -22c-314 0 -495 189 -496 439c-1 45 4 90 13 135l189 891h139l-187 -884c-10 -43 -14 -92 -13 -134c5 -194 137 -321 377 -321c235 0 413 144 465 384l204 955h139l-209 -980c-66 -306 -278 -485 -621 -485zM549 -335c-49 0 -89 39 -89 88c0 50 40 88 89 88
s88 -38 88 -88c0 -49 -39 -88 -88 -88z" />
    <glyph glyph-name="Utilde" unicode="&#x168;" horiz-adv-x="1399" 
d="M631 1617c24 120 89 208 195 208c134 0 161 -146 240 -146c45 0 73 45 92 115h101c-25 -121 -89 -209 -197 -209c-133 0 -158 145 -238 145c-46 0 -74 -43 -92 -113h-101zM628 -22c-314 0 -495 189 -496 439c-1 45 4 90 13 135l189 891h139l-187 -884
c-10 -43 -14 -92 -13 -134c5 -194 137 -321 377 -321c235 0 413 144 465 384l204 955h139l-209 -980c-66 -306 -278 -485 -621 -485z" />
    <glyph glyph-name="Umacron" unicode="&#x16a;" horiz-adv-x="1399" 
d="M1222 1753l-20 -95h-540l20 95h540zM628 -22c-314 0 -495 189 -496 439c-1 45 4 90 13 135l189 891h139l-187 -884c-10 -43 -14 -92 -13 -134c5 -194 137 -321 377 -321c235 0 413 144 465 384l204 955h139l-209 -980c-66 -306 -278 -485 -621 -485z" />
    <glyph glyph-name="Umacrondieresis" unicode="&#x1e7a;" horiz-adv-x="1399" 
d="M817 1823c-48 0 -87 40 -87 89s39 88 87 88s88 -39 88 -88s-40 -89 -88 -89zM1145 1823c-47 0 -87 40 -87 89s40 88 87 88c49 0 88 -39 88 -88s-39 -89 -88 -89zM1227 1599h-617l20 92h616zM628 -22c-314 0 -495 189 -496 439c-1 45 4 90 13 135l189 891h139l-187 -884
c-10 -43 -14 -92 -13 -134c5 -194 137 -321 377 -321c235 0 413 144 465 384l204 955h139l-209 -980c-66 -306 -278 -485 -621 -485z" />
    <glyph glyph-name="Uring" unicode="&#x16e;" horiz-adv-x="1399" 
d="M944 1539c-100 0 -182 83 -182 183s82 182 182 182s182 -82 182 -182s-82 -183 -182 -183zM944 1611c62 0 110 49 110 111c0 61 -48 110 -110 110s-111 -49 -111 -110c0 -62 49 -111 111 -111zM628 -22c-314 0 -495 189 -496 439c-1 45 4 90 13 135l189 891h139
l-187 -884c-10 -43 -14 -92 -13 -134c5 -194 137 -321 377 -321c235 0 413 144 465 384l204 955h139l-209 -980c-66 -306 -278 -485 -621 -485z" />
    <glyph glyph-name="Uogonek" unicode="&#x172;" horiz-adv-x="1399" 
d="M795 -394c-16 -11 -58 -18 -98 -18c-106 0 -177 59 -177 146c0 89 59 167 197 248v3c-20 -5 -59 -8 -89 -8c-318 0 -495 187 -496 440c-1 45 4 88 13 132l189 894h139l-187 -887c-10 -45 -14 -92 -14 -132c5 -196 134 -320 378 -320c233 0 414 146 465 387l204 952h139
l-209 -978c-45 -211 -162 -344 -319 -427c-173 -92 -290 -182 -290 -267c0 -52 40 -85 104 -85c29 0 53 4 71 13z" />
    <glyph glyph-name="Uhorn" unicode="&#x1af;" horiz-adv-x="1545" 
d="M625 -23c-318 0 -495 187 -496 440c-1 44 4 87 13 132l188 894h140l-187 -887c-10 -44 -14 -91 -14 -132c5 -196 134 -320 378 -320c232 0 413 146 465 387l204 952h162c69 0 108 30 122 94l33 158h122l-39 -182c-23 -110 -103 -170 -225 -170l-57 1l-188 -879
c-65 -305 -280 -488 -621 -488z" />
    <glyph glyph-name="Uhorngrave" unicode="&#x1eea;" horiz-adv-x="1545" 
d="M860 1558l-129 288h146l91 -288h-108zM625 -23c-318 0 -495 187 -496 440c-1 44 4 87 13 132l188 894h140l-187 -887c-10 -44 -14 -91 -14 -132c5 -196 134 -320 378 -320c232 0 413 146 465 387l204 952h162c69 0 108 30 122 94l33 158h122l-39 -182
c-23 -110 -103 -170 -225 -170l-57 1l-188 -879c-65 -305 -280 -488 -621 -488z" />
    <glyph glyph-name="Uhornacute" unicode="&#x1ee8;" horiz-adv-x="1545" 
d="M968 1558h-109l213 288h148zM625 -23c-318 0 -495 187 -496 440c-1 44 4 87 13 132l188 894h140l-187 -887c-10 -44 -14 -91 -14 -132c5 -196 134 -320 378 -320c232 0 413 146 465 387l204 952h162c69 0 108 30 122 94l33 158h122l-39 -182
c-23 -110 -103 -170 -225 -170l-57 1l-188 -879c-65 -305 -280 -488 -621 -488z" />
    <glyph glyph-name="Uhorndotbelow" unicode="&#x1ef0;" horiz-adv-x="1545" 
d="M625 -23c-318 0 -495 187 -496 440c-1 44 4 87 13 132l188 894h140l-187 -887c-10 -44 -14 -91 -14 -132c5 -196 134 -320 378 -320c232 0 413 146 465 387l204 952h162c69 0 108 30 122 94l33 158h122l-39 -182c-23 -110 -103 -170 -225 -170l-57 1l-188 -879
c-65 -305 -280 -488 -621 -488zM530 -335c-49 0 -89 39 -89 88c0 50 40 88 89 88s88 -38 88 -88c0 -49 -39 -88 -88 -88z" />
    <glyph glyph-name="Uhornhookabove" unicode="&#x1eec;" horiz-adv-x="1545" 
d="M779 1746l15 82c25 14 69 24 113 24c88 0 154 -54 154 -131c0 -92 -70 -168 -176 -198l-34 65c72 25 110 66 110 116c0 37 -34 66 -81 66c-36 0 -76 -8 -101 -24zM625 -23c-318 0 -495 187 -496 440c-1 44 4 87 13 132l188 894h140l-187 -887c-10 -44 -14 -91 -14 -132
c5 -196 134 -320 378 -320c232 0 413 146 465 387l204 952h162c69 0 108 30 122 94l33 158h122l-39 -182c-23 -110 -103 -170 -225 -170l-57 1l-188 -879c-65 -305 -280 -488 -621 -488z" />
    <glyph glyph-name="Uhorntilde" unicode="&#x1eee;" horiz-adv-x="1545" 
d="M636 1617c24 120 89 208 195 208c134 0 161 -146 240 -146c45 0 73 45 92 115h101c-24 -121 -89 -209 -197 -209c-133 0 -158 145 -238 145c-46 0 -74 -43 -92 -113h-101zM625 -23c-318 0 -495 187 -496 440c-1 44 4 87 13 132l188 894h140l-187 -887
c-10 -44 -14 -91 -14 -132c5 -196 134 -320 378 -320c232 0 413 146 465 387l204 952h162c69 0 108 30 122 94l33 158h122l-39 -182c-23 -110 -103 -170 -225 -170l-57 1l-188 -879c-65 -305 -280 -488 -621 -488z" />
    <glyph glyph-name="Uogonek.mini" horiz-adv-x="1399" 
d="M795 -394c-16 -11 -58 -18 -98 -18c-106 0 -177 59 -177 146c0 89 59 167 197 248v3c-20 -5 -59 -8 -89 -8c-318 0 -495 187 -496 440c-1 45 4 88 13 132l189 894h139l-187 -887c-10 -45 -14 -92 -14 -132c5 -196 134 -320 378 -320c233 0 414 146 465 387l204 952h139
l-209 -978c-45 -211 -162 -344 -319 -427c-173 -92 -290 -182 -290 -267c0 -52 40 -85 104 -85c29 0 53 4 71 13z" />
    <glyph glyph-name="U.mini" horiz-adv-x="1358" 
d="M606 -20c-305 0 -482 174 -485 406c-2 42 3 83 11 125l174 824h133l-174 -818c-8 -39 -12 -83 -10 -122c7 -179 138 -295 372 -295c230 0 402 132 449 352l189 883h132l-193 -908c-61 -282 -265 -447 -598 -447z" />
    <glyph glyph-name="Udieresismacron.mini" horiz-adv-x="1358" 
d="M619 1806l22 102h644l-21 -102h-645zM710 1468c-57 0 -102 46 -102 102c0 57 45 102 102 102c56 0 102 -45 102 -102c0 -56 -46 -102 -102 -102zM1073 1468c-56 0 -102 46 -102 102c0 57 46 102 102 102c57 0 102 -45 102 -102c0 -56 -45 -102 -102 -102zM606 -20
c-305 0 -482 174 -485 406c-2 42 3 83 11 125l174 824h133l-174 -818c-8 -39 -12 -83 -10 -122c7 -179 138 -295 372 -295c230 0 402 132 449 352l189 883h132l-193 -908c-61 -282 -265 -447 -598 -447z" />
    <glyph glyph-name="Udieresiscaron.mini" horiz-adv-x="1358" 
d="M858 1724l-237 224h163l151 -147h12l212 147h180l-331 -224h-150zM710 1468c-57 0 -102 46 -102 102c0 57 45 102 102 102c56 0 102 -45 102 -102c0 -56 -46 -102 -102 -102zM1073 1468c-56 0 -102 46 -102 102c0 57 46 102 102 102c57 0 102 -45 102 -102
c0 -56 -45 -102 -102 -102zM606 -20c-305 0 -482 174 -485 406c-2 42 3 83 11 125l174 824h133l-174 -818c-8 -39 -12 -83 -10 -122c7 -179 138 -295 372 -295c230 0 402 132 449 352l189 883h132l-193 -908c-61 -282 -265 -447 -598 -447z" />
    <glyph glyph-name="Udieresisacute.mini" horiz-adv-x="1358" 
d="M819 1731l272 217h176l-308 -217h-140zM710 1468c-57 0 -102 46 -102 102c0 57 45 102 102 102c56 0 102 -45 102 -102c0 -56 -46 -102 -102 -102zM1073 1468c-56 0 -102 46 -102 102c0 57 46 102 102 102c57 0 102 -45 102 -102c0 -56 -45 -102 -102 -102zM606 -20
c-305 0 -482 174 -485 406c-2 42 3 83 11 125l174 824h133l-174 -818c-8 -39 -12 -83 -10 -122c7 -179 138 -295 372 -295c230 0 402 132 449 352l189 883h132l-193 -908c-61 -282 -265 -447 -598 -447z" />
    <glyph glyph-name="Udieresisgrave.mini" horiz-adv-x="1358" 
d="M977 1731h-137l-221 217h174zM710 1468c-57 0 -102 46 -102 102c0 57 45 102 102 102c56 0 102 -45 102 -102c0 -56 -46 -102 -102 -102zM1073 1468c-56 0 -102 46 -102 102c0 57 46 102 102 102c57 0 102 -45 102 -102c0 -56 -45 -102 -102 -102zM606 -20
c-305 0 -482 174 -485 406c-2 42 3 83 11 125l174 824h133l-174 -818c-8 -39 -12 -83 -10 -122c7 -179 138 -295 372 -295c230 0 402 132 449 352l189 883h132l-193 -908c-61 -282 -265 -447 -598 -447z" />
    <glyph glyph-name="Utildeacute.mini" horiz-adv-x="1358" 
d="M858 1737l250 201h169l-271 -201h-148zM1024 1469c-130 0 -171 128 -256 128c-61 0 -102 -42 -120 -107h-110c23 134 124 212 229 212c130 0 171 -128 256 -128c61 0 102 41 120 106h110c-23 -133 -124 -211 -229 -211zM606 -20c-305 0 -482 174 -485 406
c-2 42 3 83 11 125l174 824h133l-174 -818c-8 -39 -12 -83 -10 -122c7 -179 138 -295 372 -295c230 0 402 132 449 352l189 883h132l-193 -908c-61 -282 -265 -447 -598 -447z" />
    <glyph glyph-name="Umacrondieresis.mini" horiz-adv-x="1358" 
d="M765 1735c-55 0 -100 44 -100 99s45 99 100 99s99 -44 99 -99s-44 -99 -99 -99zM1128 1735c-55 0 -99 44 -99 99s44 99 99 99c56 0 100 -44 100 -99s-44 -99 -100 -99zM557 1510l22 102h644l-22 -102h-644zM606 -20c-305 0 -482 174 -485 406c-2 42 3 83 11 125l174 824
h133l-174 -818c-8 -39 -12 -83 -10 -122c7 -179 138 -295 372 -295c230 0 402 132 449 352l189 883h132l-193 -908c-61 -282 -265 -447 -598 -447z" />
    <glyph glyph-name="V" unicode="V" horiz-adv-x="1263" 
d="M590 0h-139l-231 1443h132l200 -1261h4l724 1261h154z" />
    <glyph glyph-name="Vtilde" unicode="&#x1e7c;" horiz-adv-x="1262" 
d="M569 1617c24 120 89 208 195 208c134 0 161 -146 240 -146c45 0 73 45 92 115h101c-24 -121 -89 -209 -197 -209c-133 0 -158 145 -238 145c-46 0 -74 -43 -92 -113h-101zM590 0h-139l-231 1443h132l200 -1261h4l724 1261h154z" />
    <glyph glyph-name="Vdotbelow" unicode="&#x1e7e;" horiz-adv-x="1262" 
d="M590 0h-139l-231 1443h132l200 -1261h4l724 1261h154zM471 -335c-48 0 -88 39 -88 88c0 50 40 88 88 88c50 0 89 -38 89 -88c0 -49 -39 -88 -89 -88z" />
    <glyph glyph-name="W" unicode="W" horiz-adv-x="1845" 
d="M1063 1212l-604 -1212h-134l-90 1443h129l68 -1225h4l608 1225h129l101 -1224h4l580 1224h145l-698 -1443h-133l-105 1212h-4z" />
    <glyph glyph-name="Wgrave" unicode="&#x1e80;" horiz-adv-x="1845" 
d="M1078 1558l-129 288h146l91 -288h-108zM1063 1212l-604 -1212h-134l-90 1443h129l68 -1225h4l608 1225h129l101 -1224h4l580 1224h145l-698 -1443h-133l-105 1212h-4z" />
    <glyph glyph-name="Wacute" unicode="&#x1e82;" horiz-adv-x="1845" 
d="M1187 1558h-110l214 288h148zM1063 1212l-604 -1212h-134l-90 1443h129l68 -1225h4l608 1225h129l101 -1224h4l580 1224h145l-698 -1443h-133l-105 1212h-4z" />
    <glyph glyph-name="Wdotaccent" unicode="&#x1e86;" horiz-adv-x="1845" 
d="M1166 1623c-49 0 -89 40 -89 88c0 50 40 89 89 89s88 -39 88 -89c0 -48 -39 -88 -88 -88zM1063 1212l-604 -1212h-134l-90 1443h129l68 -1225h4l608 1225h129l101 -1224h4l580 1224h145l-698 -1443h-133l-105 1212h-4z" />
    <glyph glyph-name="Wdotbelow" unicode="&#x1e88;" horiz-adv-x="1845" 
d="M1063 1212l-604 -1212h-134l-90 1443h129l68 -1225h4l608 1225h129l101 -1224h4l580 1224h145l-698 -1443h-133l-105 1212h-4zM754 -335c-49 0 -89 39 -89 88c0 50 40 88 89 88s89 -38 89 -88c0 -49 -40 -88 -89 -88z" />
    <glyph glyph-name="Wdieresis" unicode="&#x1e84;" horiz-adv-x="1845" 
d="M995 1623c-49 0 -89 40 -89 88c0 50 40 89 89 89s88 -39 88 -89c0 -48 -39 -88 -88 -88zM1337 1623c-49 0 -89 40 -89 88c0 50 40 89 89 89s88 -39 88 -89c0 -48 -39 -88 -88 -88zM1063 1212l-604 -1212h-134l-90 1443h129l68 -1225h4l608 1225h129l101 -1224h4l580 1224
h145l-698 -1443h-133l-105 1212h-4z" />
    <glyph glyph-name="Wcircumflex" unicode="&#x174;" horiz-adv-x="1845" 
d="M1238 1852l213 -294h-124l-147 208h-5l-228 -208h-129l316 294h104zM1063 1212l-604 -1212h-134l-90 1443h129l68 -1225h4l608 1225h129l101 -1224h4l580 1224h145l-698 -1443h-133l-105 1212h-4z" />
    <glyph glyph-name="X" unicode="X" horiz-adv-x="1255" 
d="M-77 0l661 731l-344 712h156l291 -614h5l548 614h177l-660 -731l344 -712h-156l-291 615h-6l-548 -615h-177z" />
    <glyph glyph-name="Xdotaccent" unicode="&#x1e8a;" horiz-adv-x="1255" 
d="M877 1623c-48 0 -88 40 -88 88c0 50 40 89 88 89c49 0 89 -39 89 -89c0 -48 -40 -88 -89 -88zM-77 0l661 731l-344 712h156l291 -614h5l548 614h177l-660 -731l344 -712h-156l-291 615h-6l-548 -615h-177z" />
    <glyph glyph-name="Xdieresis" unicode="&#x1e8c;" horiz-adv-x="1255" 
d="M706 1623c-48 0 -88 40 -88 88c0 50 40 89 88 89c49 0 89 -39 89 -89c0 -48 -40 -88 -89 -88zM1048 1623c-49 0 -89 40 -89 88c0 50 40 89 89 89s89 -39 89 -89c0 -48 -40 -88 -89 -88zM-77 0l661 731l-344 712h156l291 -614h5l548 614h177l-660 -731l344 -712h-156
l-291 615h-6l-548 -615h-177z" />
    <glyph glyph-name="Y" unicode="Y" horiz-adv-x="1219" 
d="M570 0h-140l132 631l-342 812h145l288 -691h4l574 691h160l-693 -831z" />
    <glyph glyph-name="Ygrave" unicode="&#x1ef2;" horiz-adv-x="1219" 
d="M774 1558l-129 288h146l91 -288h-108zM570 0h-140l132 631l-342 812h145l288 -691h4l574 691h160l-693 -831z" />
    <glyph glyph-name="Yacute" unicode="&#xdd;" horiz-adv-x="1219" 
d="M882 1558h-110l214 288h148zM570 0h-140l132 631l-342 812h145l288 -691h4l574 691h160l-693 -831z" />
    <glyph glyph-name="Ydotaccent" unicode="&#x1e8e;" horiz-adv-x="1219" 
d="M861 1623c-48 0 -88 40 -88 88c0 50 40 89 88 89c49 0 89 -39 89 -89c0 -48 -40 -88 -89 -88zM570 0h-140l132 631l-342 812h145l288 -691h4l574 691h160l-693 -831z" />
    <glyph glyph-name="Ydotbelow" unicode="&#x1ef4;" horiz-adv-x="1219" 
d="M570 0h-140l132 631l-342 812h145l288 -691h4l574 691h160l-693 -831zM445 -335c-48 0 -88 39 -88 88c0 50 40 88 88 88c50 0 89 -38 89 -88c0 -49 -39 -88 -89 -88z" />
    <glyph glyph-name="Ydieresis" unicode="&#x178;" horiz-adv-x="1219" 
d="M690 1623c-48 0 -88 40 -88 88c0 50 40 89 88 89c50 0 89 -39 89 -89c0 -48 -39 -88 -89 -88zM1032 1623c-48 0 -88 40 -88 88c0 50 40 89 88 89c49 0 89 -39 89 -89c0 -48 -40 -88 -89 -88zM570 0h-140l132 631l-342 812h145l288 -691h4l574 691h160l-693 -831z" />
    <glyph glyph-name="Ytilde" unicode="&#x1ef8;" horiz-adv-x="1219" 
d="M550 1617c24 120 89 208 195 208c134 0 161 -146 240 -146c45 0 73 45 92 115h100c-24 -121 -88 -209 -196 -209c-133 0 -158 145 -238 145c-46 0 -74 -43 -92 -113h-101zM570 0h-140l132 631l-342 812h145l288 -691h4l574 691h160l-693 -831z" />
    <glyph glyph-name="Ycircumflex" unicode="&#x176;" horiz-adv-x="1219" 
d="M933 1852l213 -294h-124l-147 208h-5l-228 -208h-129l317 294h103zM570 0h-140l132 631l-342 812h145l288 -691h4l574 691h160l-693 -831z" />
    <glyph glyph-name="Ymacron" unicode="&#x232;" horiz-adv-x="1219" 
d="M1141 1753l-21 -95h-540l21 95h540zM570 0h-140l132 631l-342 812h145l288 -691h4l574 691h160l-693 -831z" />
    <glyph glyph-name="Yhookabove" unicode="&#x1ef6;" horiz-adv-x="1219" 
d="M693 1746l15 82c25 14 69 24 113 24c88 0 154 -54 154 -131c0 -92 -70 -168 -176 -198l-34 65c72 25 110 66 110 116c0 37 -34 66 -81 66c-36 0 -76 -8 -101 -24zM570 0h-140l132 631l-342 812h145l288 -691h4l574 691h160l-693 -831z" />
    <glyph glyph-name="Z" unicode="Z" horiz-adv-x="1226" 
d="M-24 0l22 99l1113 1217v4h-826l27 123h1010l-21 -100l-1111 -1216l-1 -4h865l-26 -123h-1052z" />
    <glyph glyph-name="Zacute" unicode="&#x179;" horiz-adv-x="1226" 
d="M883 1558h-110l213 288h148zM-24 0l22 99l1113 1217v4h-826l27 123h1010l-21 -100l-1111 -1216l-1 -4h865l-26 -123h-1052z" />
    <glyph glyph-name="Zcaron" unicode="&#x17d;" horiz-adv-x="1226" 
d="M789 1558l-213 294h124l147 -208h5l228 208h129l-317 -294h-103zM-24 0l22 99l1113 1217v4h-826l27 123h1010l-21 -100l-1111 -1216l-1 -4h865l-26 -123h-1052z" />
    <glyph glyph-name="Zcircumflex" unicode="&#x1e90;" horiz-adv-x="1226" 
d="M934 1852l213 -294h-124l-148 208h-4l-229 -208h-129l317 294h104zM-24 0l22 99l1113 1217v4h-826l27 123h1010l-21 -100l-1111 -1216l-1 -4h865l-26 -123h-1052z" />
    <glyph glyph-name="Zlinebelow" unicode="&#x1e94;" horiz-adv-x="1226" 
d="M-24 0l22 99l1113 1217v4h-826l27 123h1010l-21 -100l-1111 -1216l-1 -4h865l-26 -123h-1052zM764 -200l-20 -95h-540l20 95h540z" />
    <glyph glyph-name="Zdotbelow" unicode="&#x1e92;" horiz-adv-x="1226" 
d="M-24 0l22 99l1113 1217v4h-826l27 123h1010l-21 -100l-1111 -1216l-1 -4h865l-26 -123h-1052zM483 -335c-48 0 -88 39 -88 88c0 50 40 88 88 88c49 0 89 -38 89 -88c0 -49 -40 -88 -89 -88z" />
    <glyph glyph-name="Zdotaccent" unicode="&#x17b;" horiz-adv-x="1226" 
d="M861 1623c-48 0 -88 40 -88 88c0 50 40 89 88 89c50 0 89 -39 89 -89c0 -48 -39 -88 -89 -88zM-24 0l22 99l1113 1217v4h-826l27 123h1010l-21 -100l-1111 -1216l-1 -4h865l-26 -123h-1052z" />
    <glyph glyph-name="AE" unicode="&#xc6;" horiz-adv-x="1857" 
d="M835 0l95 443h-578l-301 -443h-149l984 1443h1068l-27 -124h-672l-111 -526h635l-26 -122h-636l-116 -547h672l-26 -124h-812zM1118 1327h-161l-528 -766h525z" />
    <glyph glyph-name="AEmacron" unicode="&#x1e2;" horiz-adv-x="1857" 
d="M1655 1753l-20 -95h-540l20 95h540zM835 0l95 443h-578l-301 -443h-149l984 1443h1068l-27 -124h-672l-111 -526h635l-26 -122h-636l-116 -547h672l-26 -124h-812zM1118 1327h-161l-528 -766h525z" />
    <glyph glyph-name="AEacute" unicode="&#x1fc;" horiz-adv-x="1857" 
d="M1396 1558h-109l213 288h148zM835 0l95 443h-578l-301 -443h-149l984 1443h1068l-27 -124h-672l-111 -526h635l-26 -122h-636l-116 -547h672l-26 -124h-812zM1118 1327h-161l-528 -766h525z" />
    <glyph glyph-name="OE" unicode="&#x152;" horiz-adv-x="2237" 
d="M1155 0l47 218h-3c-124 -153 -301 -240 -497 -240c-353 0 -584 247 -584 626c0 476 317 861 745 861c258 0 446 -136 523 -367h3l73 345h873l-27 -124h-733l-111 -519h697l-27 -122h-696l-118 -554h734l-26 -124h-873zM1308 836c0 307 -174 503 -445 503
c-352 0 -605 -326 -605 -731c0 -308 173 -504 445 -504c352 0 605 326 605 732z" />
    <glyph glyph-name="Eth" unicode="&#xd0;" horiz-adv-x="1391" 
d="M39 681l26 124h133l135 638h421c381 0 600 -219 600 -577c0 -509 -323 -866 -802 -866h-524l144 681h-133zM447 1321l-110 -516h371l-26 -124h-371l-119 -559h351c396 0 671 306 671 727c0 304 -165 472 -482 472h-285z" />
    <glyph glyph-name="Thorn" unicode="&#xde;" horiz-adv-x="1173" 
d="M23 0l307 1443h136l-59 -274h356c232 0 387 -149 387 -349c0 -279 -215 -469 -547 -469h-369l-74 -351h-137zM382 1046l-121 -573h337c258 0 410 131 410 334c0 139 -98 239 -290 239h-336z" />
    <glyph glyph-name="Ereversed" unicode="&#x18e;" horiz-adv-x="1102" 
d="M8 124h732l118 554h-695l25 122h696l110 519h-732l26 124h872l-306 -1443h-872z" />
    <glyph glyph-name="Alphagreek" unicode="&#x391;" horiz-adv-x="1261" 
d="M996 0l-67 443h-609l-256 -443h-152l845 1443h138l231 -1443h-130zM794 1274l-409 -714h526l-113 714h-4z" />
    <glyph glyph-name="Betagreek" unicode="&#x392;" horiz-adv-x="1256" 
d="M590 0h-564l307 1443h496c231 0 384 -127 384 -317c0 -186 -142 -336 -330 -378l-1 -4c162 -23 262 -140 262 -297c0 -264 -224 -447 -554 -447zM446 1322l-110 -520h348c222 0 387 125 387 297c0 143 -101 223 -291 223h-334zM191 121h397c244 0 412 134 412 315
c0 165 -120 248 -318 248h-371z" />
    <glyph glyph-name="Gammagreek" unicode="&#x393;" horiz-adv-x="1080" 
d="M184 0h-140l307 1443h837l-26 -124h-698z" />
    <glyph glyph-name="Deltagreek" unicode="&#x2206;" horiz-adv-x="1316" 
d="M1135 0h-1177l21 97l805 1346h138l234 -1346zM821 1274l-674 -1146l-1 -4h875l1 2l-197 1148h-4z" />
    <glyph glyph-name="Deltagreek" unicode="&#x394;" horiz-adv-x="1316" 
d="M1135 0h-1177l21 97l805 1346h138l234 -1346zM821 1274l-674 -1146l-1 -4h875l1 2l-197 1148h-4z" />
    <glyph glyph-name="Epsilongreek" unicode="&#x395;" horiz-adv-x="1102" 
d="M925 124l-26 -124h-873l307 1443h873l-27 -124h-733l-110 -519h696l-27 -122h-695l-118 -554h733z" />
    <glyph glyph-name="Zetagreek" unicode="&#x396;" horiz-adv-x="1226" 
d="M-24 0l22 99l1113 1217v4h-826l27 123h1010l-21 -100l-1111 -1216l-1 -4h865l-26 -123h-1052z" />
    <glyph glyph-name="Etagreek" unicode="&#x397;" horiz-adv-x="1394" 
d="M1146 0h-139l144 677h-841l-145 -677h-139l307 1443h139l-136 -642h841l137 642h139z" />
    <glyph glyph-name="Thetagreek" unicode="&#x398;" horiz-adv-x="1536" 
d="M734 -22c-353 0 -592 246 -592 621c0 481 319 866 748 866c354 0 592 -246 592 -621c0 -481 -318 -866 -748 -866zM1342 838c0 307 -181 501 -453 501c-351 0 -607 -326 -607 -734c0 -307 181 -501 454 -501c351 0 606 326 606 734zM1121 661h-643l26 122h643z" />
    <glyph glyph-name="Iotagreek" unicode="&#x399;" horiz-adv-x="413" 
d="M165 0h-139l307 1443h139z" />
    <glyph glyph-name="Iotagreek.1" horiz-adv-x="875" 
d="M-31 0l25 118h288l257 1207h-288l25 118h715l-25 -118h-288l-257 -1207h288l-25 -118h-715z" />
    <glyph glyph-name="Kappagreek" unicode="&#x39a;" horiz-adv-x="1209" 
d="M165 0h-139l307 1443h139l-158 -743h4l835 743h183l-715 -640l466 -803h-159l-414 718l-241 -210z" />
    <glyph glyph-name="Lambdagreek" unicode="&#x39b;" horiz-adv-x="1247" 
d="M787 1274l-713 -1274h-152l828 1443h138l215 -1443h-130l-182 1274h-4z" />
    <glyph glyph-name="Mugreek" unicode="&#x39c;" horiz-adv-x="1667" 
d="M156 0h-130l307 1443h150l267 -1271h4l802 1271h170l-307 -1443h-130l254 1192h-6l-755 -1185h-119l-250 1185h-5z" />
    <glyph glyph-name="Nugreek" unicode="&#x39d;" horiz-adv-x="1400" 
d="M165 0h-139l307 1443h139l581 -1236h4l263 1236h139l-307 -1443h-139l-581 1236h-4z" />
    <glyph glyph-name="Xigreek" unicode="&#x39e;" horiz-adv-x="1263" 
d="M306 1443h1042l-27 -128h-1042zM1108 675h-888l28 127h887zM27 128h1042l-27 -128h-1042z" />
    <glyph glyph-name="Omicrongreek" unicode="&#x39f;" horiz-adv-x="1491" 
d="M710 -22c-354 0 -589 246 -589 621c0 481 315 866 745 866c353 0 588 -246 588 -621c0 -481 -315 -866 -744 -866zM864 1339c-351 0 -603 -326 -603 -734c0 -307 178 -501 450 -501c351 0 603 326 603 734c0 307 -177 501 -450 501z" />
    <glyph glyph-name="Pigreek" unicode="&#x3a0;" horiz-adv-x="1410" 
d="M1144 0h-140l282 1319h-822l-281 -1319h-139l307 1443h1100z" />
    <glyph glyph-name="Rhogreek" unicode="&#x3a1;" horiz-adv-x="1195" 
d="M334 1443h476c241 0 416 -153 416 -385c0 -320 -248 -514 -583 -514h-361l-116 -544h-140zM448 1321l-140 -655h329c265 0 447 139 447 380c0 168 -120 275 -317 275h-319z" />
    <glyph glyph-name="Sigmagreek" unicode="&#x3a3;" horiz-adv-x="1258" 
d="M202 127l-1 -4h865l-26 -123h-1045l21 99l565 653l-275 587l22 104h999l-26 -123h-832l-1 -4l261 -562l-5 -16z" />
    <glyph glyph-name="Taugreek" unicode="&#x3a4;" horiz-adv-x="1188" 
d="M553 0h-139l280 1319h-482l26 124h1104l-26 -124h-482z" />
    <glyph glyph-name="Upsilongreek" unicode="&#x3a5;" horiz-adv-x="1219" 
d="M570 0h-140l132 631l-342 812h145l288 -691h4l574 691h160l-693 -831z" />
    <glyph glyph-name="Phigreek" unicode="&#x3a6;" horiz-adv-x="1631" 
d="M622 -58l29 137c-352 27 -550 226 -550 534c0 426 322 740 822 748l29 134h139l-28 -134c352 -27 550 -226 550 -535c0 -425 -323 -740 -823 -747l-29 -137h-139zM678 202l219 1035c-404 -3 -656 -259 -656 -610c0 -249 149 -410 437 -425zM817 203
c404 3 656 256 656 611c0 248 -150 409 -436 423z" />
    <glyph glyph-name="Chigreek" unicode="&#x3a7;" horiz-adv-x="1255" 
d="M-77 0l661 731l-344 712h156l291 -614h5l548 614h177l-660 -731l344 -712h-156l-291 615h-6l-548 -615h-177z" />
    <glyph glyph-name="Psigreek" unicode="&#x3a8;" horiz-adv-x="1569" 
d="M744 0h-140l73 345c-308 23 -471 171 -471 426c0 42 5 86 15 133l113 539h139l-112 -535c-11 -50 -16 -95 -16 -136c0 -193 128 -291 359 -301l207 972h140l-207 -972c318 3 471 163 532 451l111 521h139l-112 -526c-81 -381 -272 -557 -697 -572z" />
    <glyph glyph-name="Omegagreek" unicode="&#x2126;" horiz-adv-x="1532" 
d="M813 0l33 154c307 145 489 402 489 727c0 273 -176 459 -455 459c-365 0 -607 -292 -607 -675c0 -229 102 -399 311 -511l-33 -154h-521l26 124h361v6c-186 117 -284 291 -284 533c0 453 304 803 764 803c355 0 578 -232 578 -573c0 -327 -182 -620 -473 -763v-6h373
l-26 -124h-536z" />
    <glyph glyph-name="Omegagreek" unicode="&#x3a9;" horiz-adv-x="1532" 
d="M813 0l33 154c307 145 489 402 489 727c0 273 -176 459 -455 459c-365 0 -607 -292 -607 -675c0 -229 102 -399 311 -511l-33 -154h-521l26 124h361v6c-186 117 -284 291 -284 533c0 453 304 803 764 803c355 0 578 -232 578 -573c0 -327 -182 -620 -473 -763v-6h373
l-26 -124h-536z" />
    <glyph glyph-name="Alphatonosgreek" unicode="&#x386;" horiz-adv-x="1261" 
d="M996 0l-67 443h-609l-256 -443h-152l845 1443h138l231 -1443h-130zM274 1142l123 301h152l-160 -301h-115zM794 1274l-409 -714h526l-113 714h-4z" />
    <glyph glyph-name="Epsilontonosgreek" unicode="&#x388;" horiz-adv-x="1321" 
d="M142 1142l123 301h152l-161 -301h-114zM1144 124l-26 -124h-873l307 1443h873l-27 -124h-733l-111 -519h696l-26 -122h-695l-118 -554h733z" />
    <glyph glyph-name="Etatonosgreek" unicode="&#x389;" horiz-adv-x="1613" 
d="M142 1142l123 301h152l-161 -301h-114zM1365 0h-139l144 677h-841l-145 -677h-139l307 1443h139l-137 -642h842l137 642h139z" />
    <glyph glyph-name="Iotatonosgreek" unicode="&#x38a;" horiz-adv-x="632" 
d="M142 1142l123 301h152l-161 -301h-114zM384 0h-139l307 1443h139z" />
    <glyph glyph-name="Iotadieresisgreek" unicode="&#x3aa;" horiz-adv-x="413" 
d="M289 1623c-48 0 -88 40 -88 88c0 50 40 89 88 89c49 0 89 -39 89 -89c0 -48 -40 -88 -89 -88zM631 1623c-49 0 -89 40 -89 88c0 50 40 89 89 89s88 -39 88 -89c0 -48 -39 -88 -88 -88zM165 0h-139l307 1443h139z" />
    <glyph glyph-name="Iotatonosgreek.1" horiz-adv-x="1111" 
d="M142 1142l123 301h152l-161 -301h-114zM204 0l26 118h288l256 1207h-288l25 118h716l-26 -118h-287l-257 -1207h288l-25 -118h-716z" />
    <glyph glyph-name="Iotadieresisgreek.1" horiz-adv-x="875" 
d="M519 1623c-49 0 -89 40 -89 88c0 50 40 89 89 89s88 -39 88 -89c0 -48 -39 -88 -88 -88zM860 1623c-48 0 -88 40 -88 88c0 50 40 89 88 89c50 0 89 -39 89 -89c0 -48 -39 -88 -89 -88zM-31 0l25 118h288l257 1207h-288l25 118h715l-25 -118h-288l-257 -1207h288l-25 -118
h-715z" />
    <glyph glyph-name="Omicrontonosgreek" unicode="&#x38c;" horiz-adv-x="1633" 
d="M852 -22c-353 0 -589 246 -589 621c0 481 316 866 745 866c353 0 589 -246 589 -621c0 -481 -316 -866 -745 -866zM142 1142l123 301h152l-161 -301h-114zM1007 1339c-351 0 -604 -326 -604 -734c0 -307 178 -501 450 -501c351 0 604 326 604 734
c0 307 -178 501 -450 501z" />
    <glyph glyph-name="Upsilontonosgreek" unicode="&#x38e;" horiz-adv-x="1479" 
d="M142 1142l123 301h152l-161 -301h-114zM830 0h-141l133 631l-342 812h145l287 -691h4l575 691h159l-692 -831z" />
    <glyph glyph-name="Upsilondieresisgreek" unicode="&#x3ab;" horiz-adv-x="1219" 
d="M690 1623c-48 0 -88 40 -88 88c0 50 40 89 88 89c50 0 89 -39 89 -89c0 -48 -39 -88 -89 -88zM1032 1623c-48 0 -88 40 -88 88c0 50 40 89 88 89c49 0 89 -39 89 -89c0 -48 -40 -88 -89 -88zM570 0h-140l132 631l-342 812h145l288 -691h4l574 691h160l-693 -831z" />
    <glyph glyph-name="Omegatonosgreek" unicode="&#x38f;" horiz-adv-x="1689" 
d="M970 0l33 154c307 145 489 402 489 727c0 273 -176 459 -455 459c-365 0 -607 -292 -607 -675c0 -229 102 -399 311 -511l-33 -154h-521l26 124h361v6c-186 117 -284 291 -284 533c0 453 304 803 764 803c355 0 578 -232 578 -573c0 -327 -182 -620 -473 -763v-6h373
l-26 -124h-536zM142 1142l123 301h152l-161 -301h-114z" />
    <glyph glyph-name="Acyrillic" unicode="&#x410;" horiz-adv-x="1274" 
d="M1003 0l-68 443h-608l-256 -443h-152l844 1443h138l232 -1443h-130zM801 1274l-409 -714h526l-113 714h-4z" />
    <glyph glyph-name="uni04D0" unicode="&#x4d0;" horiz-adv-x="1274" 
d="M860 1551c-199 0 -289 133 -273 283h98c-11 -107 42 -198 181 -198c121 0 206 69 229 198h102c-25 -174 -155 -283 -337 -283zM1003 0l-68 443h-608l-256 -443h-152l844 1443h138l232 -1443h-130zM801 1274l-409 -714h526l-113 714h-4z" />
    <glyph glyph-name="uni04D2" unicode="&#x4d2;" horiz-adv-x="1274" 
d="M715 1623c-48 0 -88 40 -88 88c0 50 40 89 88 89c49 0 89 -39 89 -89c0 -48 -40 -88 -89 -88zM1057 1623c-49 0 -89 40 -89 88c0 50 40 89 89 89s88 -39 88 -89c0 -48 -39 -88 -88 -88zM1003 0l-68 443h-608l-256 -443h-152l844 1443h138l232 -1443h-130zM801 1274
l-409 -714h526l-113 714h-4z" />
    <glyph glyph-name="uniF50E" horiz-adv-x="1274" 
d="M1166 1753l-21 -95h-540l21 95h540zM1003 0l-68 443h-608l-256 -443h-152l844 1443h138l232 -1443h-130zM801 1274l-409 -714h526l-113 714h-4z" />
    <glyph glyph-name="uniF460" horiz-adv-x="1274" 
d="M907 1558h-110l214 288h148zM1003 0l-68 443h-608l-256 -443h-152l844 1443h138l232 -1443h-130zM801 1274l-409 -714h526l-113 714h-4z" />
    <glyph glyph-name="Becyrillic" unicode="&#x411;" horiz-adv-x="1200" 
d="M569 0h-538l307 1443h838l-27 -124h-698l-99 -467h317c267 0 446 -148 446 -368c0 -256 -219 -484 -546 -484zM196 122h360c240 0 417 148 417 342c0 172 -129 265 -331 265h-316z" />
    <glyph glyph-name="Vecyrillic" unicode="&#x412;" horiz-adv-x="1266" 
d="M595 0h-564l307 1443h496c231 0 384 -127 384 -317c0 -186 -142 -336 -330 -378l-1 -4c162 -23 262 -140 262 -297c0 -264 -224 -447 -554 -447zM451 1322l-110 -520h348c222 0 387 125 387 297c0 143 -101 223 -291 223h-334zM196 121h397c244 0 412 134 412 315
c0 165 -120 248 -318 248h-371z" />
    <glyph glyph-name="Gecyrillic" unicode="&#x413;" horiz-adv-x="1059" 
d="M170 0h-139l307 1443h851l-27 -124h-711z" />
    <glyph glyph-name="Gjecyrillic" unicode="&#x403;" horiz-adv-x="1059" 
d="M825 1558h-110l214 288h148zM170 0h-139l307 1443h851l-27 -124h-711z" />
    <glyph glyph-name="Geupturncyrillic" unicode="&#x490;" horiz-adv-x="1059" 
d="M451 1319l-280 -1319h-140l307 1443h723l57 273h128l-84 -397h-711z" />
    <glyph glyph-name="uni04F6" unicode="&#x4f6;" horiz-adv-x="1059" 
d="M156 -285l68 285h-193l307 1443h851l-27 -124h-711l-254 -1195h184l-98 -409h-127z" />
    <glyph glyph-name="uni0492" unicode="&#x492;" horiz-adv-x="1059" 
d="M170 0h-139l140 661h-105l23 109h106l143 673h851l-27 -124h-711l-117 -549h564l-23 -109h-564z" />
    <glyph glyph-name="uniF53C" horiz-adv-x="1072" 
d="M172 0h-140l307 1443h858l-27 -124h-717l-116 -542h660l-27 -122h-659z" />
    <glyph glyph-name="uni04FA" unicode="&#x4fa;" horiz-adv-x="1059" 
d="M170 0l-10 -48c-47 -232 -151 -319 -338 -319c-27 0 -61 2 -73 5l27 117c9 -3 25 -5 43 -5c111 0 170 59 201 203l10 47h1l140 661h-105l23 109h106l143 673h851l-27 -124h-711l-117 -549h581l-24 -109h-580z" />
    <glyph glyph-name="Decyrillic" unicode="&#x414;" horiz-adv-x="1409" 
d="M27 0l-61 -285h-128l87 409h103c115 54 185 191 238 384l255 935h874l-281 -1319h183l-87 -409h-127l61 285h-1117zM396 503c-45 -166 -94 -287 -187 -369l-2 -10h768l254 1195h-609z" />
    <glyph glyph-name="uni0414.BUL" horiz-adv-x="1484" 
d="M69 0l-61 -285h-128l87 409h131l771 1319h136l210 -1319h131l-87 -409h-127l61 285h-1124zM893 1253l-649 -1129h831l-170 1129h-12z" />
    <glyph glyph-name="Iecyrillic" unicode="&#x415;" horiz-adv-x="1115" 
d="M931 124l-26 -124h-873l307 1443h873l-26 -124h-733l-111 -519h696l-26 -122h-696l-117 -554h732z" />
    <glyph glyph-name="Iocyrillic" unicode="&#x401;" horiz-adv-x="1115" 
d="M662 1623c-49 0 -89 40 -89 88c0 50 40 89 89 89s88 -39 88 -89c0 -48 -39 -88 -88 -88zM1004 1623c-49 0 -89 40 -89 88c0 50 40 89 89 89s88 -39 88 -89c0 -48 -39 -88 -88 -88zM931 124l-26 -124h-873l307 1443h873l-26 -124h-733l-111 -519h696l-26 -122h-696
l-117 -554h732z" />
    <glyph glyph-name="uni04D6" unicode="&#x4d6;" horiz-adv-x="1115" 
d="M807 1551c-199 0 -289 133 -274 283h99c-11 -107 42 -198 180 -198c122 0 207 69 230 198h102c-25 -174 -155 -283 -337 -283zM931 124l-26 -124h-873l307 1443h873l-26 -124h-733l-111 -519h696l-26 -122h-696l-117 -554h732z" />
    <glyph glyph-name="uniF510" horiz-adv-x="1115" 
d="M1112 1753l-20 -95h-540l20 95h540zM931 124l-26 -124h-873l307 1443h873l-26 -124h-733l-111 -519h696l-26 -122h-696l-117 -554h732z" />
    <glyph glyph-name="uniF512" horiz-adv-x="1115" 
d="M1199 1979l-20 -91h-617l20 91h617zM655 1730c47 0 87 -39 87 -88s-40 -88 -87 -88c-49 0 -88 39 -88 88s39 88 88 88zM983 1730c48 0 88 -39 88 -88s-40 -88 -88 -88s-88 39 -88 88s40 88 88 88zM931 124l-26 -124h-873l307 1443h873l-26 -124h-733l-111 -519h696
l-26 -122h-696l-117 -554h732z" />
    <glyph glyph-name="uni0400" unicode="&#x400;" horiz-adv-x="1115" 
d="M745 1558l-129 288h146l91 -288h-108zM931 124l-26 -124h-873l307 1443h873l-26 -124h-733l-111 -519h696l-26 -122h-696l-117 -554h732z" />
    <glyph glyph-name="uniF461" horiz-adv-x="1115" 
d="M854 1558h-110l214 288h148zM931 124l-26 -124h-873l307 1443h873l-26 -124h-733l-111 -519h696l-26 -122h-696l-117 -554h732z" />
    <glyph glyph-name="uniF469" horiz-adv-x="1102" 
d="M743 1602l93 301h149l-127 -301h-115zM602 1619c-49 0 -89 39 -89 88c0 50 40 88 89 88s88 -38 88 -88c0 -49 -39 -88 -88 -88zM1075 1619c-48 0 -88 39 -88 88c0 50 40 88 88 88c50 0 89 -38 89 -88c0 -49 -39 -88 -89 -88zM925 124l-26 -124h-873l307 1443h873
l-27 -124h-733l-110 -519h696l-27 -122h-695l-118 -554h733z" />
    <glyph glyph-name="uniF514" horiz-adv-x="1115" 
d="M876 1895c-217 0 -287 159 -267 275h94c-9 -96 45 -186 179 -186c110 0 194 69 210 186h98c-16 -163 -136 -275 -314 -275zM853 1847c217 0 287 -160 267 -275h-95c10 96 -45 186 -178 186c-111 0 -194 -69 -210 -186h-99c17 163 137 275 315 275zM931 124l-26 -124h-873
l307 1443h873l-26 -124h-733l-111 -519h696l-26 -122h-696l-117 -554h732z" />
    <glyph glyph-name="Zhecyrillic" unicode="&#x416;" horiz-adv-x="1900" 
d="M928 710l-832 -710h-188l895 762l-505 681h156l488 -668h8l143 668h136l-143 -670h9l773 670h179l-825 -713l548 -730h-159l-529 708h-9l-151 -708h-136l150 710h-8z" />
    <glyph glyph-name="uni04C1" unicode="&#x4c1;" horiz-adv-x="1900" 
d="M1192 1551c-199 0 -289 133 -273 283h98c-11 -107 42 -198 180 -198c122 0 207 69 230 198h102c-25 -174 -155 -283 -337 -283zM928 710l-832 -710h-188l895 762l-505 681h156l488 -668h8l143 668h136l-143 -670h9l773 670h179l-825 -713l548 -730h-159l-529 708h-9
l-151 -708h-136l150 710h-8z" />
    <glyph glyph-name="uni04DC" unicode="&#x4dc;" horiz-adv-x="1900" 
d="M1047 1623c-49 0 -89 40 -89 88c0 50 40 89 89 89s89 -39 89 -89c0 -48 -40 -88 -89 -88zM1389 1623c-49 0 -89 40 -89 88c0 50 40 89 89 89s88 -39 88 -89c0 -48 -39 -88 -88 -88zM928 710l-832 -710h-188l895 762l-505 681h156l488 -668h8l143 668h136l-143 -670h9
l773 670h179l-825 -713l548 -730h-159l-529 708h-9l-151 -708h-136l150 710h-8z" />
    <glyph glyph-name="uni0496" unicode="&#x496;" horiz-adv-x="2003" 
d="M928 710l-832 -710h-188l895 762l-505 681h156l488 -668h8l143 668h136l-143 -670h9l773 670h179l-825 -713l455 -606h205l-97 -409h-128l68 285h-114l-529 708h-9l-151 -708h-136l150 710h-8z" />
    <glyph glyph-name="uni0416.BUL" horiz-adv-x="1989" 
d="M-92 0l811 835l-405 608h159l491 -744h13l159 744h134l-159 -744h14l805 744h177l-689 -638l441 -805h-155l-393 719l-241 -211l-107 -508h-134l108 512l-147 208l-699 -720h-183z" />
    <glyph glyph-name="Zecyrillic" unicode="&#x417;" horiz-adv-x="1173" 
d="M401 683l25 124h202c225 0 381 117 381 284c0 156 -124 257 -307 257c-174 0 -315 -107 -351 -260h-133c42 227 241 378 496 378c253 0 433 -147 433 -361c0 -184 -148 -336 -352 -362l-1 -4c165 -35 269 -153 269 -318c0 -254 -224 -444 -539 -444
c-310 0 -500 186 -491 408h132c3 -163 142 -288 370 -288c227 0 388 134 388 313c0 171 -126 273 -329 273h-193z" />
    <glyph glyph-name="uni04DE" unicode="&#x4de;" horiz-adv-x="1173" 
d="M597 1623c-48 0 -88 40 -88 88c0 50 40 89 88 89c49 0 89 -39 89 -89c0 -48 -40 -88 -89 -88zM939 1623c-49 0 -89 40 -89 88c0 50 40 89 89 89s88 -39 88 -89c0 -48 -39 -88 -88 -88zM401 683l25 124h202c225 0 381 117 381 284c0 156 -124 257 -307 257
c-174 0 -315 -107 -351 -260h-133c42 227 241 378 496 378c253 0 433 -147 433 -361c0 -184 -148 -336 -352 -362l-1 -4c165 -35 269 -153 269 -318c0 -254 -224 -444 -539 -444c-310 0 -500 186 -491 408h132c3 -163 142 -288 370 -288c227 0 388 134 388 313
c0 171 -126 273 -329 273h-193z" />
    <glyph glyph-name="uni0498" unicode="&#x498;" horiz-adv-x="1173" 
d="M401 683l25 124h202c225 0 381 117 381 284c0 156 -124 257 -307 257c-174 0 -315 -107 -351 -260h-133c42 227 241 378 496 378c253 0 433 -147 433 -361c0 -184 -148 -336 -352 -362l-1 -4c165 -35 269 -153 269 -318c0 -237 -195 -419 -478 -442l-56 -264h-127l57 265
c-271 24 -435 199 -426 405h132c3 -163 142 -288 370 -288c227 0 388 134 388 313c0 171 -126 273 -329 273h-193z" />
    <glyph glyph-name="uniF50A" horiz-adv-x="1173" 
d="M306 -437l20 87c25 -9 64 -18 111 -18c69 0 132 24 132 79c0 53 -53 79 -138 79h-51l15 68l73 121c-276 21 -444 197 -435 406h132c3 -163 142 -288 370 -288c227 0 388 134 388 313c0 171 -126 273 -329 273h-193l25 124h202c225 0 381 117 381 284
c0 156 -124 257 -307 257c-174 0 -315 -107 -351 -260h-133c42 227 241 378 496 378c253 0 433 -147 433 -361c0 -184 -148 -336 -352 -362l-1 -4c165 -35 269 -153 269 -318c0 -239 -199 -422 -485 -442l-67 -111c93 0 178 -50 178 -154c0 -117 -108 -174 -240 -174
c-53 0 -104 10 -143 23z" />
    <glyph glyph-name="uniF516" horiz-adv-x="1173" 
d="M695 1558l-213 294h124l148 -208h4l229 208h129l-317 -294h-104zM401 683l25 124h202c225 0 381 117 381 284c0 156 -124 257 -307 257c-174 0 -315 -107 -351 -260h-133c42 227 241 378 496 378c253 0 433 -147 433 -361c0 -184 -148 -336 -352 -362l-1 -4
c165 -35 269 -153 269 -318c0 -254 -224 -444 -539 -444c-310 0 -500 186 -491 408h132c3 -163 142 -288 370 -288c227 0 388 134 388 313c0 171 -126 273 -329 273h-193z" />
    <glyph glyph-name="Iicyrillic" unicode="&#x418;" horiz-adv-x="1407" 
d="M1016 0l257 1206h-12l-1092 -1206h-138l307 1443h138l-257 -1207h12l1092 1207h138l-307 -1443h-138z" />
    <glyph glyph-name="Iishortcyrillic" unicode="&#x419;" horiz-adv-x="1407" 
d="M931 1551c-200 0 -290 133 -274 283h99c-12 -107 41 -198 180 -198c121 0 207 69 230 198h101c-25 -174 -155 -283 -336 -283zM1016 0l257 1206h-12l-1092 -1206h-138l307 1443h138l-257 -1207h12l1092 1207h138l-307 -1443h-138z" />
    <glyph glyph-name="uni040D" unicode="&#x40d;" horiz-adv-x="1407" 
d="M869 1558l-129 288h146l91 -288h-108zM1016 0l257 1206h-12l-1092 -1206h-138l307 1443h138l-257 -1207h12l1092 1207h138l-307 -1443h-138z" />
    <glyph glyph-name="uni04E2" unicode="&#x4e2;" horiz-adv-x="1407" 
d="M1236 1753l-20 -95h-540l20 95h540zM1016 0l257 1206h-12l-1092 -1206h-138l307 1443h138l-257 -1207h12l1092 1207h138l-307 -1443h-138z" />
    <glyph glyph-name="uni04E4" unicode="&#x4e4;" horiz-adv-x="1407" 
d="M785 1623c-48 0 -88 40 -88 88c0 50 40 89 88 89c50 0 89 -39 89 -89c0 -48 -39 -88 -89 -88zM1127 1623c-48 0 -88 40 -88 88c0 50 40 89 88 89c49 0 89 -39 89 -89c0 -48 -40 -88 -89 -88zM1016 0l257 1206h-12l-1092 -1206h-138l307 1443h138l-257 -1207h12l1092 1207
h138l-307 -1443h-138z" />
    <glyph glyph-name="uni048A" unicode="&#x48a;" horiz-adv-x="1473" 
d="M931 1551c-200 0 -290 133 -274 283h99c-12 -107 41 -198 180 -198c121 0 207 69 230 198h101c-25 -174 -155 -283 -336 -283zM1016 0l257 1206h-12l-1092 -1206h-138l307 1443h138l-257 -1207h12l1092 1207h138l-280 -1319h168v-39l-183 -370h-129l142 285h-163z" />
    <glyph glyph-name="uniF462" horiz-adv-x="1407" 
d="M978 1558h-110l213 288h148zM1016 0l257 1206h-12l-1092 -1206h-138l307 1443h138l-257 -1207h12l1092 1207h138l-307 -1443h-138z" />
    <glyph glyph-name="uniF532" horiz-adv-x="1407" 
d="M931 1551c-200 0 -290 133 -274 283h99c-12 -107 41 -198 180 -198c121 0 207 69 230 198h101c-25 -174 -155 -283 -336 -283zM733 -362l27 117c9 -3 25 -5 43 -5c112 0 170 59 201 203l10 47h2l257 1206h-12l-1092 -1206h-138l307 1443h138l-257 -1207h12l1092 1207h138
l-307 -1443l-10 -48c-47 -232 -151 -319 -338 -319c-27 0 -61 2 -73 5z" />
    <glyph glyph-name="Kacyrillic" unicode="&#x41a;" horiz-adv-x="1220" 
d="M335 772h9l821 671h189l-876 -710l612 -733h-169l-592 706h-8l-151 -706h-139l307 1443h139z" />
    <glyph glyph-name="Kjecyrillic" unicode="&#x40c;" horiz-adv-x="1220" 
d="M854 1558h-110l213 288h148zM335 772h9l821 671h189l-876 -710l612 -733h-169l-592 706h-8l-151 -706h-139l307 1443h139z" />
    <glyph glyph-name="uni049A" unicode="&#x49a;" horiz-adv-x="1312" 
d="M335 772h9l821 671h189l-876 -710l509 -609h205l-98 -409h-128l68 285h-113l-592 706h-8l-151 -706h-139l307 1443h139z" />
    <glyph glyph-name="uni049C" unicode="&#x49c;" horiz-adv-x="1287" 
d="M313 683l-145 -683h-137l307 1443h137l-139 -649h131l69 324h112l-69 -324h65l607 649h179l-675 -718l402 -725h-159l-377 683h-65l-73 -344h-112l73 344h-131z" />
    <glyph glyph-name="uni049E" unicode="&#x49e;" horiz-adv-x="1220" 
d="M335 772h9l821 671h189l-876 -710l612 -733h-169l-592 706h-8l-151 -706h-139l253 1189h-142l23 110h142l31 144h139l-30 -144h194l-23 -110h-194z" />
    <glyph glyph-name="uni04A0" unicode="&#x4a0;" horiz-adv-x="1774" 
d="M890 772h8l821 671h189l-875 -710l611 -733h-169l-592 706h-8l-151 -706h-139l284 1333h-654l23 110h793l-23 -110z" />
    <glyph glyph-name="uni04C3" unicode="&#x4c3;" horiz-adv-x="1202" 
d="M383 -400c-25 0 -49 2 -65 5l25 121c20 -2 39 -3 64 -3c283 0 488 252 488 526c0 267 -203 422 -552 422h-33l-142 -671h-137l307 1443h137l-139 -650h21l810 650h190l-834 -663c313 -39 514 -232 514 -532c0 -348 -278 -648 -654 -648z" />
    <glyph glyph-name="uni041A.BUL" horiz-adv-x="1230" 
d="M172 0h-140l307 1443h140l-158 -743h4l834 743h183l-714 -640l466 -803h-159l-415 718l-240 -210z" />
    <glyph glyph-name="Elcyrillic" unicode="&#x41b;" horiz-adv-x="1327" 
d="M1074 0h-140l281 1319h-586l-222 -809c-85 -311 -195 -519 -446 -519c-29 0 -52 6 -63 10l26 123c7 -3 31 -7 52 -7c158 0 238 171 300 400l252 926h853z" />
    <glyph glyph-name="uni04C5" unicode="&#x4c5;" horiz-adv-x="1385" 
d="M948 -285l143 285h-163l27 124h6l254 1195h-586l-222 -809c-85 -311 -195 -519 -446 -519c-29 0 -52 6 -63 10l26 123c7 -3 31 -7 52 -7c158 0 238 171 300 400l252 926h853l-281 -1319h160v-39l-182 -370h-130z" />
    <glyph glyph-name="uniF530" horiz-adv-x="1416" 
d="M1053 -285l68 285h-193l27 124h6l254 1195h-586l-222 -809c-85 -311 -195 -519 -446 -519c-29 0 -52 6 -63 10l26 123c7 -3 31 -7 52 -7c158 0 238 171 300 400l252 926h853l-281 -1319h179l-98 -409h-128z" />
    <glyph glyph-name="uni052E" unicode="&#x52e;" horiz-adv-x="1416" 
d="M1053 -285l68 285h-193l27 124h6l254 1195h-586l-222 -809c-85 -311 -195 -519 -446 -519c-29 0 -52 6 -63 10l26 123c7 -3 31 -7 52 -7c158 0 238 171 300 400l252 926h853l-281 -1319h179l-98 -409h-128z" />
    <glyph glyph-name="uni0512" unicode="&#x512;" horiz-adv-x="1327" 
d="M646 -362l27 117c9 -3 25 -5 43 -5c112 0 170 59 201 203l10 47h7l281 1319h-586l-222 -809c-85 -311 -195 -519 -446 -519c-29 0 -52 6 -63 10l26 123c7 -3 31 -7 52 -7c158 0 238 171 300 400l252 926h853l-307 -1443h-7l-10 -48c-47 -232 -151 -319 -338 -319
c-27 0 -61 2 -73 5z" />
    <glyph glyph-name="uni041B.BUL" horiz-adv-x="1242" 
d="M-78 0l825 1443h138l211 -1443h-134l-177 1260h-4l-704 -1260h-155z" />
    <glyph glyph-name="Emcyrillic" unicode="&#x41c;" horiz-adv-x="1680" 
d="M162 0h-130l307 1443h151l267 -1271h4l802 1271h170l-307 -1443h-130l253 1192h-6l-754 -1185h-120l-249 1185h-6z" />
    <glyph glyph-name="uni04CD" unicode="&#x4cd;" horiz-adv-x="1754" 
d="M162 0h-130l307 1443h151l267 -1271h4l802 1271h170l-281 -1319h177v-39l-182 -370h-130l143 285h-164l253 1192h-6l-754 -1185h-120l-249 1185h-6z" />
    <glyph glyph-name="Encyrillic" unicode="&#x41d;" horiz-adv-x="1407" 
d="M1152 0h-139l144 677h-841l-144 -677h-140l307 1443h140l-137 -642h841l137 642h139z" />
    <glyph glyph-name="uni04C7" unicode="&#x4c7;" horiz-adv-x="1407" 
d="M728 -362l27 117c9 -3 26 -5 43 -5c112 0 170 59 202 203l10 47h3l144 677h-841l-144 -677h-140l307 1443h140l-137 -642h841l137 642h139l-307 -1443h-2l-10 -48c-48 -232 -151 -319 -339 -319c-26 0 -61 2 -73 5z" />
    <glyph glyph-name="uni04A2" unicode="&#x4a2;" horiz-adv-x="1501" 
d="M1138 -285l68 285h-193l144 677h-841l-144 -677h-140l307 1443h140l-137 -642h841l137 642h139l-280 -1319h185l-98 -409h-128z" />
    <glyph glyph-name="uni04C9" unicode="&#x4c9;" horiz-adv-x="1470" 
d="M1033 -285l143 285h-163l144 677h-841l-144 -677h-140l307 1443h140l-137 -642h841l137 642h139l-280 -1319h166v-39l-182 -370h-130z" />
    <glyph glyph-name="uni04A4" unicode="&#x4a4;" horiz-adv-x="2033" 
d="M1152 0h-139l144 677h-841l-144 -677h-140l307 1443h140l-137 -642h841l137 642h842l-25 -124h-704z" />
    <glyph glyph-name="Ocyrillic" unicode="&#x41e;" horiz-adv-x="1504" 
d="M716 -22c-353 0 -588 246 -588 621c0 481 315 866 744 866c354 0 589 -246 589 -621c0 -481 -315 -866 -745 -866zM871 1339c-351 0 -603 -326 -603 -734c0 -307 177 -501 450 -501c351 0 603 326 603 734c0 307 -178 501 -450 501z" />
    <glyph glyph-name="uni04E6" unicode="&#x4e6;" horiz-adv-x="1504" 
d="M771 1623c-48 0 -88 40 -88 88c0 50 40 89 88 89c49 0 89 -39 89 -89c0 -48 -40 -88 -89 -88zM1113 1623c-49 0 -89 40 -89 88c0 50 40 89 89 89s88 -39 88 -89c0 -48 -39 -88 -88 -88zM716 -22c-353 0 -588 246 -588 621c0 481 315 866 744 866c354 0 589 -246 589 -621
c0 -481 -315 -866 -745 -866zM871 1339c-351 0 -603 -326 -603 -734c0 -307 177 -501 450 -501c351 0 603 326 603 734c0 307 -178 501 -450 501z" />
    <glyph glyph-name="uniF518" horiz-adv-x="1504" 
d="M1222 1753l-21 -95h-540l21 95h540zM716 -22c-353 0 -588 246 -588 621c0 481 315 866 744 866c354 0 589 -246 589 -621c0 -481 -315 -866 -745 -866zM871 1339c-351 0 -603 -326 -603 -734c0 -307 177 -501 450 -501c351 0 603 326 603 734c0 307 -178 501 -450 501z
" />
    <glyph glyph-name="uniF463" horiz-adv-x="1504" 
d="M963 1558h-110l214 288h148zM716 -22c-353 0 -588 246 -588 621c0 481 315 866 744 866c354 0 589 -246 589 -621c0 -481 -315 -866 -745 -866zM871 1339c-351 0 -603 -326 -603 -734c0 -307 177 -501 450 -501c351 0 603 326 603 734c0 307 -178 501 -450 501z" />
    <glyph glyph-name="uniF4D2" horiz-adv-x="1504" 
d="M855 1558l-130 288h147l91 -288h-108zM716 -22c-353 0 -588 246 -588 621c0 481 315 866 744 866c354 0 589 -246 589 -621c0 -481 -315 -866 -745 -866zM871 1339c-351 0 -603 -326 -603 -734c0 -307 177 -501 450 -501c351 0 603 326 603 734c0 307 -178 501 -450 501z
" />
    <glyph glyph-name="uniF51A" horiz-adv-x="1504" 
d="M916 1551c-199 0 -289 133 -273 283h98c-11 -107 42 -198 180 -198c122 0 207 69 230 198h102c-25 -174 -155 -283 -337 -283zM716 -22c-353 0 -588 246 -588 621c0 481 315 866 744 866c354 0 589 -246 589 -621c0 -481 -315 -866 -745 -866zM871 1339
c-351 0 -603 -326 -603 -734c0 -307 177 -501 450 -501c351 0 603 326 603 734c0 307 -178 501 -450 501z" />
    <glyph glyph-name="uni04E8" unicode="&#x4e8;" horiz-adv-x="1501" 
d="M871 1465c353 0 588 -246 588 -621c0 -481 -315 -866 -744 -866c-354 0 -589 246 -589 621c0 481 315 866 745 866zM869 1339c-294 0 -519 -229 -584 -544h1033c1 14 1 29 1 43c0 307 -177 501 -450 501zM266 605c0 -307 178 -501 450 -501c305 0 536 247 591 580h-1038
c-2 -26 -3 -53 -3 -79z" />
    <glyph glyph-name="uniF49A" horiz-adv-x="1501" 
d="M1257 1753l-20 -95h-540l20 95h540zM871 1465c353 0 588 -246 588 -621c0 -481 -315 -866 -744 -866c-354 0 -589 246 -589 621c0 481 315 866 745 866zM869 1339c-294 0 -519 -229 -584 -544h1033c1 14 1 29 1 43c0 307 -177 501 -450 501zM266 605
c0 -307 178 -501 450 -501c305 0 536 247 591 580h-1038c-2 -26 -3 -53 -3 -79z" />
    <glyph glyph-name="uniF51C" horiz-adv-x="1501" 
d="M952 1551c-199 0 -289 133 -274 283h99c-11 -107 41 -198 180 -198c121 0 207 69 230 198h101c-24 -174 -154 -283 -336 -283zM871 1465c353 0 588 -246 588 -621c0 -481 -315 -866 -744 -866c-354 0 -589 246 -589 621c0 481 315 866 745 866zM869 1339
c-294 0 -519 -229 -584 -544h1033c1 14 1 29 1 43c0 307 -177 501 -450 501zM266 605c0 -307 178 -501 450 -501c305 0 536 247 591 580h-1038c-2 -26 -3 -53 -3 -79z" />
    <glyph glyph-name="uniF51E" horiz-adv-x="1501" 
d="M1020 1895c-216 0 -286 159 -266 275h94c-9 -96 45 -186 179 -186c110 0 194 69 210 186h98c-16 -163 -137 -275 -315 -275zM998 1847c216 0 287 -160 267 -275h-95c10 96 -45 186 -178 186c-111 0 -195 -69 -210 -186h-99c17 163 137 275 315 275zM871 1465
c353 0 588 -246 588 -621c0 -481 -315 -866 -744 -866c-354 0 -589 246 -589 621c0 481 315 866 745 866zM869 1339c-294 0 -519 -229 -584 -544h1033c1 14 1 29 1 43c0 307 -177 501 -450 501zM266 605c0 -307 178 -501 450 -501c305 0 536 247 591 580h-1038
c-2 -26 -3 -53 -3 -79z" />
    <glyph glyph-name="uni04EA" unicode="&#x4ea;" horiz-adv-x="1501" 
d="M807 1623c-49 0 -89 40 -89 88c0 50 40 89 89 89s88 -39 88 -89c0 -48 -39 -88 -88 -88zM1149 1623c-49 0 -89 40 -89 88c0 50 40 89 89 89s88 -39 88 -89c0 -48 -39 -88 -88 -88zM871 1465c353 0 588 -246 588 -621c0 -481 -315 -866 -744 -866
c-354 0 -589 246 -589 621c0 481 315 866 745 866zM869 1339c-294 0 -519 -229 -584 -544h1033c1 14 1 29 1 43c0 307 -177 501 -450 501zM266 605c0 -307 178 -501 450 -501c305 0 536 247 591 580h-1038c-2 -26 -3 -53 -3 -79z" />
    <glyph glyph-name="uni0472" unicode="&#x472;" horiz-adv-x="1501" 
d="M871 1465c353 0 588 -246 588 -621c0 -481 -315 -866 -744 -866c-354 0 -589 246 -589 621c0 481 315 866 745 866zM869 1339c-303 0 -532 -243 -589 -573c68 54 154 87 258 87c227 0 328 -136 524 -136c116 0 201 41 257 95v26c0 307 -177 501 -450 501zM266 605
c0 -307 178 -501 450 -501c311 0 544 256 594 598c-71 -60 -164 -100 -276 -99c-238 0 -334 136 -524 136c-108 0 -185 -35 -243 -84c0 -16 -1 -33 -1 -50z" />
    <glyph glyph-name="Pecyrillic" unicode="&#x41f;" horiz-adv-x="1383" 
d="M1131 0h-137l280 1318h-824l-280 -1318h-139l307 1443h1100z" />
    <glyph glyph-name="uni0524" unicode="&#x524;" horiz-adv-x="1482" 
d="M1119 -285l68 285h-193l280 1318h-824l-280 -1318h-139l307 1443h1100l-281 -1319h187l-98 -409h-127z" />
    <glyph glyph-name="Dzhecyrillic" unicode="&#x40f;" horiz-adv-x="1383" 
d="M1131 0h-460l-61 -285h-123l61 285h-517l307 1443h137l-281 -1318h825l280 1318h139z" />
    <glyph glyph-name="Ercyrillic" unicode="&#x420;" horiz-adv-x="1209" 
d="M341 1443h476c241 0 416 -153 416 -385c0 -320 -248 -514 -583 -514h-361l-116 -544h-141zM454 1321l-139 -655h329c265 0 446 139 446 380c0 168 -119 275 -317 275h-319z" />
    <glyph glyph-name="uni048E" unicode="&#x48e;" horiz-adv-x="1205" 
d="M339 1443h476c241 0 416 -153 416 -385c0 -231 -129 -396 -326 -470l105 -238l-132 -59l-107 262c-40 -6 -81 -9 -123 -9h-361l-116 -544h-140zM624 918l114 47l114 -264c146 56 237 175 237 345c0 168 -120 275 -317 275h-319l-140 -655h329c29 0 57 2 84 5z" />
    <glyph glyph-name="uniF4D4" horiz-adv-x="1209" 
d="M701 1558l-213 294h124l148 -208h4l229 208h129l-317 -294h-104zM341 1443h476c241 0 416 -153 416 -385c0 -320 -248 -514 -583 -514h-361l-116 -544h-141zM454 1321l-139 -655h329c265 0 446 139 446 380c0 168 -119 275 -317 275h-319z" />
    <glyph glyph-name="Escyrillic" unicode="&#x421;" horiz-adv-x="1395" 
d="M1272 976c0 5 -1 11 -1 17c-15 210 -179 346 -411 346c-344 0 -593 -318 -593 -742c0 -302 173 -493 445 -493c213 0 385 114 457 307h140c-82 -266 -313 -433 -599 -433c-354 0 -583 241 -583 613c0 496 312 874 735 874c315 0 534 -186 547 -470c1 -10 1 -13 1 -19
h-138z" />
    <glyph glyph-name="uni04AA" unicode="&#x4aa;" horiz-adv-x="1395" 
d="M471 -437l20 87c25 -9 64 -18 111 -18c69 0 132 24 132 79c0 53 -53 79 -138 79h-51l15 68l75 124c-311 32 -508 264 -508 609c0 496 312 874 735 874c315 0 534 -186 547 -470c1 -10 1 -13 1 -19h-138c0 5 -1 11 -1 17c-15 210 -179 346 -411 346
c-344 0 -593 -318 -593 -742c0 -302 173 -493 445 -493c213 0 385 114 457 307h140c-79 -256 -296 -420 -566 -432l-67 -111c93 0 178 -50 178 -154c0 -117 -107 -174 -240 -174c-53 0 -104 10 -143 23z" />
    <glyph glyph-name="uniF53E" horiz-adv-x="1395" 
d="M1272 976c0 5 -1 11 -1 17c-15 210 -179 346 -411 346c-344 0 -593 -318 -593 -742c0 -302 173 -493 445 -493c213 0 385 114 457 307h140c-78 -253 -292 -417 -559 -432l-56 -264h-127l57 268c-304 36 -497 267 -497 608c0 496 312 874 735 874c315 0 534 -186 547 -470
c1 -10 1 -13 1 -19h-138z" />
    <glyph glyph-name="Tecyrillic" unicode="&#x422;" horiz-adv-x="1201" 
d="M560 0h-140l281 1319h-482l25 124h1104l-26 -124h-482z" />
    <glyph glyph-name="uni04AC" unicode="&#x4ac;" horiz-adv-x="1201" 
d="M545 -285l69 285h-194l281 1319h-482l25 124h1104l-26 -124h-482l-254 -1195h185l-98 -409h-128z" />
    <glyph glyph-name="Ucyrillic" unicode="&#x423;" horiz-adv-x="1203" 
d="M165 -10c-36 0 -62 6 -74 12l26 124c12 -4 36 -9 73 -9c114 0 194 52 303 208l-262 1118h143l216 -961h12l606 961h156l-693 -1072c-173 -267 -289 -381 -506 -381z" />
    <glyph glyph-name="Ushortcyrillic" unicode="&#x40e;" horiz-adv-x="1203" 
d="M817 1551c-199 0 -290 133 -274 283h99c-11 -107 41 -198 180 -198c121 0 207 69 230 198h101c-24 -174 -155 -283 -336 -283zM165 -10c-36 0 -62 6 -74 12l26 124c12 -4 36 -9 73 -9c114 0 194 52 303 208l-262 1118h143l216 -961h12l606 961h156l-693 -1072
c-173 -267 -289 -381 -506 -381z" />
    <glyph glyph-name="uni04EE" unicode="&#x4ee;" horiz-adv-x="1203" 
d="M1122 1753l-20 -95h-540l20 95h540zM165 -10c-36 0 -62 6 -74 12l26 124c12 -4 36 -9 73 -9c114 0 194 52 303 208l-262 1118h143l216 -961h12l606 961h156l-693 -1072c-173 -267 -289 -381 -506 -381z" />
    <glyph glyph-name="uni04F0" unicode="&#x4f0;" horiz-adv-x="1203" 
d="M672 1623c-49 0 -89 40 -89 88c0 50 40 89 89 89s88 -39 88 -89c0 -48 -39 -88 -88 -88zM1013 1623c-48 0 -88 40 -88 88c0 50 40 89 88 89c50 0 89 -39 89 -89c0 -48 -39 -88 -89 -88zM165 -10c-36 0 -62 6 -74 12l26 124c12 -4 36 -9 73 -9c114 0 194 52 303 208
l-262 1118h143l216 -961h12l606 961h156l-693 -1072c-173 -267 -289 -381 -506 -381z" />
    <glyph glyph-name="uni04F2" unicode="&#x4f2;" horiz-adv-x="1203" 
d="M716 1558h-103l166 288h136zM1006 1558h-109l204 288h147zM165 -10c-36 0 -62 6 -74 12l26 124c12 -4 36 -9 73 -9c114 0 194 52 303 208l-262 1118h143l216 -961h12l606 961h156l-693 -1072c-173 -267 -289 -381 -506 -381z" />
    <glyph glyph-name="uniF4CC" horiz-adv-x="1203" 
d="M864 1558h-110l213 288h148zM165 -10c-36 0 -62 6 -74 12l26 124c12 -4 36 -9 73 -9c114 0 194 52 303 208l-262 1118h143l216 -961h12l606 961h156l-693 -1072c-173 -267 -289 -381 -506 -381z" />
    <glyph glyph-name="uniF464" horiz-adv-x="1203" 
d="M864 1558h-110l213 288h148zM165 -10c-36 0 -62 6 -74 12l26 124c12 -4 36 -9 73 -9c114 0 194 52 303 208l-262 1118h143l216 -961h12l606 961h156l-693 -1072c-173 -267 -289 -381 -506 -381z" />
    <glyph glyph-name="Efcyrillic" unicode="&#x424;" horiz-adv-x="1579" 
d="M743 -17h-136l33 154c-333 10 -534 192 -534 485c0 392 328 682 784 691l31 147h135l-31 -147c333 -10 534 -192 534 -485c0 -392 -328 -682 -784 -691zM245 625c0 -225 158 -360 421 -365l198 930c-359 -9 -619 -246 -619 -565zM1420 825c0 225 -158 360 -421 365
l-198 -930c359 9 619 246 619 565z" />
    <glyph glyph-name="Xacyrillic" unicode="&#x425;" horiz-adv-x="1268" 
d="M-71 0l662 731l-345 712h156l291 -614h6l548 614h176l-660 -731l344 -712h-156l-291 615h-5l-549 -615h-177z" />
    <glyph glyph-name="uni04B2" unicode="&#x4b2;" horiz-adv-x="1351" 
d="M-71 0l662 731l-345 712h156l291 -614h6l548 614h176l-660 -731l285 -588h182l-98 -409h-128l69 285h-122l-291 615h-5l-549 -615h-177z" />
    <glyph glyph-name="uni04FE" unicode="&#x4fe;" horiz-adv-x="1268" 
d="M-71 0l604 667h-373l23 110h386l-323 666h156l291 -614h6l548 614h176l-601 -666h371l-23 -110h-385l322 -667h-156l-291 615h-5l-549 -615h-177z" />
    <glyph glyph-name="uni04FC" unicode="&#x4fc;" horiz-adv-x="1264" 
d="M244 1443h156l291 -614h5l548 614h177l-660 -730l201 -414c40 -82 67 -147 89 -212c18 -55 25 -98 25 -152c0 -188 -134 -314 -334 -314c-37 0 -64 2 -83 7l24 115c14 -4 36 -7 61 -7c115 0 195 77 195 187c0 35 -4 66 -16 103c-17 56 -42 118 -81 200l-184 389h-5
l-549 -615h-176l661 731z" />
    <glyph glyph-name="Tsecyrillic" unicode="&#x426;" horiz-adv-x="1475" 
d="M1253 -285h-128l61 285h-1153l308 1443h140l-281 -1318h816l280 1318h142l-281 -1319h183z" />
    <glyph glyph-name="uni04B4" unicode="&#x4b4;" horiz-adv-x="1783" 
d="M215 1333l23 110h961l-24 -110h-409l-257 -1208h815l281 1318h141l-281 -1319h183l-87 -409h-127l61 285h-1154l285 1333h-411z" />
    <glyph glyph-name="Checyrillic" unicode="&#x427;" horiz-adv-x="1278" 
d="M1025 0h-139l140 657h-12c-86 -56 -221 -104 -390 -104c-319 0 -478 217 -414 519l79 371h139l-79 -372c-49 -231 54 -391 289 -391c196 0 337 62 419 124l136 639h139z" />
    <glyph glyph-name="uni04F4" unicode="&#x4f4;" horiz-adv-x="1278" 
d="M719 1623c-48 0 -88 40 -88 88c0 50 40 89 88 89c50 0 89 -39 89 -89c0 -48 -39 -88 -89 -88zM1061 1623c-48 0 -88 40 -88 88c0 50 40 89 88 89c49 0 89 -39 89 -89c0 -48 -40 -88 -89 -88zM1025 0h-139l140 657h-12c-86 -56 -221 -104 -390 -104
c-319 0 -478 217 -414 519l79 371h139l-79 -372c-49 -231 54 -391 289 -391c196 0 337 62 419 124l136 639h139z" />
    <glyph glyph-name="uni04B6" unicode="&#x4b6;" horiz-adv-x="1375" 
d="M1012 -285l68 285h-194l140 657h-12c-86 -56 -221 -104 -390 -104c-319 0 -478 217 -414 519l79 371h139l-79 -372c-49 -231 54 -391 289 -391c196 0 337 62 419 124l136 639h139l-280 -1319h185l-98 -409h-127z" />
    <glyph glyph-name="uni04CB" unicode="&#x4cb;" horiz-adv-x="1278" 
d="M766 -285h-127l95 409h178l114 533h-12c-86 -56 -221 -104 -390 -104c-319 0 -478 217 -414 519l79 371h139l-79 -372c-49 -231 54 -391 289 -391c196 0 337 62 419 124l136 639h139l-280 -1319h1l-27 -124h-194z" />
    <glyph glyph-name="uniF4C6" horiz-adv-x="1278" 
d="M605 -362l27 117c9 -3 25 -5 43 -5c112 0 170 59 201 203l10 47l140 657h-12c-86 -56 -221 -104 -390 -104c-319 0 -478 217 -414 519l79 371h139l-79 -372c-49 -231 54 -391 289 -391c196 0 337 62 419 124l136 639h139l-307 -1443h1l-10 -48
c-47 -232 -151 -319 -338 -319c-27 0 -61 2 -73 5z" />
    <glyph glyph-name="uni04B8" unicode="&#x4b8;" horiz-adv-x="1279" 
d="M1025 0h-139l140 657h-12c-74 -48 -185 -90 -321 -101l-65 -306h-113l65 305c-289 19 -431 229 -370 517l79 371h139l-79 -372c-47 -220 45 -377 258 -390l76 357h113l-76 -355c154 15 267 68 337 121l136 639h139z" />
    <glyph glyph-name="uni04BA" unicode="&#x4ba;" horiz-adv-x="1292" 
d="M338 1443h139l-133 -626h11c87 55 222 103 390 103c319 0 479 -217 414 -519l-85 -401h-139l85 402c49 231 -54 392 -288 392c-197 0 -338 -63 -419 -124l-143 -670h-139z" />
    <glyph glyph-name="uniF49E" horiz-adv-x="1292" 
d="M104 1152l23 110h172l39 181h139l-38 -181h419l-24 -110h-419l-71 -335h11c87 55 222 103 390 103c319 0 479 -217 414 -519l-85 -401h-139l85 402c49 231 -54 392 -288 392c-197 0 -338 -63 -419 -124l-143 -670h-139l245 1152h-172z" />
    <glyph glyph-name="uni0526" unicode="&#x526;" horiz-adv-x="1423" 
d="M1060 -285l68 285h-193l85 402c49 231 -54 392 -288 392c-197 0 -338 -63 -419 -124l-143 -670h-139l307 1443h139l-133 -626h11c87 55 222 103 390 103c319 0 479 -217 414 -519l-58 -277h184l-98 -409h-127z" />
    <glyph glyph-name="Tshecyrillic" unicode="&#x40b;" horiz-adv-x="1656" 
d="M1086 766c-180 0 -335 -103 -407 -198l-121 -568h-139l280 1319h-482l27 124h1103l-26 -124h-483l-122 -576h13c89 76 219 147 382 147c287 0 439 -193 373 -504l-83 -386h-139l83 392c51 241 -53 374 -259 374z" />
    <glyph glyph-name="Shacyrillic" unicode="&#x428;" horiz-adv-x="1832" 
d="M31 0l307 1443h139l-281 -1319h565l281 1319h140l-281 -1319h565l281 1319h139l-307 -1443h-1548z" />
    <glyph glyph-name="Shchacyrillic" unicode="&#x429;" horiz-adv-x="1928" 
d="M31 0l307 1443h139l-281 -1319h565l281 1319h140l-281 -1319h565l281 1319h139l-280 -1319h185l-98 -409h-128l68 285h-1602z" />
    <glyph glyph-name="Hardsigncyrillic" unicode="&#x42a;" horiz-adv-x="1438" 
d="M800 0h-538l281 1319h-339l27 124h478l-119 -558h307c268 0 447 -153 447 -388c0 -294 -233 -497 -544 -497zM870 763h-305l-137 -641h359c239 0 414 151 414 367c0 176 -129 274 -331 274z" />
    <glyph glyph-name="Yericyrillic" unicode="&#x42b;" horiz-adv-x="1586" 
d="M31 0l307 1443h139l-118 -558h307c263 0 446 -150 446 -388c0 -296 -234 -497 -543 -497h-538zM1338 0h-140l307 1443h140zM639 763h-306l-137 -641h360c238 0 414 151 414 367c0 180 -133 274 -331 274z" />
    <glyph glyph-name="uni04F8" unicode="&#x4f8;" horiz-adv-x="1586" 
d="M874 1623c-48 0 -88 40 -88 88c0 50 40 89 88 89c49 0 89 -39 89 -89c0 -48 -40 -88 -89 -88zM1216 1623c-49 0 -89 40 -89 88c0 50 40 89 89 89s89 -39 89 -89c0 -48 -40 -88 -89 -88zM31 0l307 1443h139l-118 -558h307c263 0 446 -150 446 -388
c0 -296 -234 -497 -543 -497h-538zM1338 0h-140l307 1443h140zM639 763h-306l-137 -641h360c238 0 414 151 414 367c0 180 -133 274 -331 274z" />
    <glyph glyph-name="uniF520" horiz-adv-x="1586" 
d="M1325 1753l-21 -95h-540l21 95h540zM31 0l307 1443h139l-118 -558h307c263 0 446 -150 446 -388c0 -296 -234 -497 -543 -497h-538zM1338 0h-140l307 1443h140zM639 763h-306l-137 -641h360c238 0 414 151 414 367c0 180 -133 274 -331 274z" />
    <glyph glyph-name="uniF536" horiz-adv-x="1586" 
d="M1020 1551c-200 0 -290 133 -274 283h98c-11 -107 42 -198 181 -198c121 0 207 69 229 198h102c-25 -174 -155 -283 -336 -283zM31 0l307 1443h139l-118 -558h307c263 0 446 -150 446 -388c0 -296 -234 -497 -543 -497h-538zM1338 0h-140l307 1443h140zM639 763h-306
l-137 -641h360c238 0 414 151 414 367c0 180 -133 274 -331 274z" />
    <glyph glyph-name="uniF465" horiz-adv-x="1586" 
d="M1066 1558h-110l214 288h148zM31 0l307 1443h139l-118 -558h307c263 0 446 -150 446 -388c0 -296 -234 -497 -543 -497h-538zM1338 0h-140l307 1443h140zM639 763h-306l-137 -641h360c238 0 414 151 414 367c0 180 -133 274 -331 274z" />
    <glyph glyph-name="uni048C" unicode="&#x48c;" horiz-adv-x="1390" 
d="M228 0l250 1178h-323l24 117h324l45 211h139l-45 -211h419l-24 -117h-419l-62 -293h307c263 0 447 -150 447 -388c0 -296 -235 -497 -544 -497h-538zM394 122h359c239 0 415 151 415 367c0 180 -134 274 -332 274h-305z" />
    <glyph glyph-name="uni0462" unicode="&#x462;" horiz-adv-x="1390" 
d="M228 0l250 1178h-323l24 117h324l45 211h139l-45 -211h419l-24 -117h-419l-62 -293h307c263 0 447 -150 447 -388c0 -296 -235 -497 -544 -497h-538zM394 122h359c239 0 415 151 415 367c0 180 -134 274 -332 274h-305z" />
    <glyph glyph-name="Softsigncyrillic" unicode="&#x42c;" horiz-adv-x="1192" 
d="M31 0l307 1443h139l-118 -558h307c263 0 446 -150 446 -388c0 -296 -234 -497 -543 -497h-538zM639 763h-306l-137 -641h360c238 0 414 151 414 367c0 180 -133 274 -331 274z" />
    <glyph glyph-name="Ljecyrillic" unicode="&#x409;" horiz-adv-x="2080" 
d="M407 510c-90 -332 -206 -519 -446 -519c-25 0 -48 4 -63 10l26 123c11 -4 35 -7 52 -7c152 0 234 157 300 400l252 926h834l-116 -544h307c263 0 446 -153 446 -391c0 -270 -220 -508 -546 -508h-538l281 1319h-567zM1526 777h-305l-140 -655h359c240 0 417 158 417 366
c0 192 -133 289 -331 289z" />
    <glyph glyph-name="Njecyrillic" unicode="&#x40a;" horiz-adv-x="2085" 
d="M952 0l144 677h-780l-145 -677h-138l307 1443h139l-137 -642h780l137 642h139l-136 -643h320c249 0 423 -138 423 -350c0 -239 -204 -450 -523 -450h-530zM1117 122h352c242 0 393 133 393 312c0 160 -123 244 -307 244h-319z" />
    <glyph glyph-name="Ereversedcyrillic" unicode="&#x42d;" horiz-adv-x="1377" 
d="M589 -22c-279 0 -498 187 -514 437h141c28 -189 181 -311 389 -311c286 0 510 224 578 574h-677l25 122h670c24 324 -138 537 -408 537c-216 0 -388 -123 -474 -339h-139c88 293 321 467 626 467c376 0 586 -302 518 -746c-59 -448 -346 -741 -735 -741z" />
    <glyph glyph-name="uni04EC" unicode="&#x4ec;" horiz-adv-x="1378" 
d="M686 1623c-49 0 -89 40 -89 88c0 50 40 89 89 89s89 -39 89 -89c0 -48 -40 -88 -89 -88zM1028 1623c-49 0 -89 40 -89 88c0 50 40 89 89 89s88 -39 88 -89c0 -48 -39 -88 -88 -88zM589 -22c-279 0 -498 187 -514 437h141c28 -189 181 -311 389 -311
c286 0 510 224 578 574h-677l25 122h670c24 324 -138 537 -408 537c-216 0 -388 -123 -474 -339h-139c88 293 321 467 626 467c376 0 586 -302 518 -746c-59 -448 -346 -741 -735 -741z" />
    <glyph glyph-name="uniF522" horiz-adv-x="1378" 
d="M1137 1753l-21 -95h-540l21 95h540zM589 -22c-279 0 -498 187 -514 437h141c28 -189 181 -311 389 -311c286 0 510 224 578 574h-677l25 122h670c24 324 -138 537 -408 537c-216 0 -388 -123 -474 -339h-139c88 293 321 467 626 467c376 0 586 -302 518 -746
c-59 -448 -346 -741 -735 -741z" />
    <glyph glyph-name="uniF466" horiz-adv-x="1378" 
d="M878 1558h-110l214 288h148zM589 -22c-279 0 -498 187 -514 437h141c28 -189 181 -311 389 -311c286 0 510 224 578 574h-677l25 122h670c24 324 -138 537 -408 537c-216 0 -388 -123 -474 -339h-139c88 293 321 467 626 467c376 0 586 -302 518 -746
c-59 -448 -346 -741 -735 -741z" />
    <glyph glyph-name="uniF524" horiz-adv-x="1378" 
d="M831 1551c-199 0 -289 133 -273 283h98c-11 -107 42 -198 180 -198c122 0 207 69 230 198h102c-25 -174 -155 -283 -337 -283zM589 -22c-279 0 -498 187 -514 437h141c28 -189 181 -311 389 -311c286 0 510 224 578 574h-677l25 122h670c24 324 -138 537 -408 537
c-216 0 -388 -123 -474 -339h-139c88 293 321 467 626 467c376 0 586 -302 518 -746c-59 -448 -346 -741 -735 -741z" />
    <glyph glyph-name="uniF4D6" horiz-adv-x="1378" 
d="M857 1623c-49 0 -89 40 -89 88c0 50 40 89 89 89s88 -39 88 -89c0 -48 -39 -88 -88 -88zM589 -22c-279 0 -498 187 -514 437h141c28 -189 181 -311 389 -311c286 0 510 224 578 574h-677l25 122h670c24 324 -138 537 -408 537c-216 0 -388 -123 -474 -339h-139
c88 293 321 467 626 467c376 0 586 -302 518 -746c-59 -448 -346 -741 -735 -741z" />
    <glyph glyph-name="IUcyrillic" unicode="&#x42e;" horiz-adv-x="1939" 
d="M1154 -22c-350 0 -577 247 -577 616c0 28 1 56 3 83h-266l-144 -677h-139l307 1443h139l-136 -642h256c76 379 357 664 723 664c351 0 578 -247 578 -617c0 -485 -319 -870 -744 -870zM1758 844c0 301 -171 495 -438 495c-353 0 -603 -333 -603 -740
c0 -301 171 -495 438 -495c348 0 603 325 603 740z" />
    <glyph glyph-name="uniF52C" horiz-adv-x="1939" 
d="M1246 1753l-20 -95h-540l20 95h540zM1154 -22c-350 0 -577 247 -577 616c0 28 1 56 3 83h-266l-144 -677h-139l307 1443h139l-136 -642h256c76 379 357 664 723 664c351 0 578 -247 578 -617c0 -485 -319 -870 -744 -870zM1758 844c0 301 -171 495 -438 495
c-353 0 -603 -333 -603 -740c0 -301 171 -495 438 -495c348 0 603 325 603 740z" />
    <glyph glyph-name="uniF467" horiz-adv-x="1939" 
d="M988 1558h-110l213 288h148zM1154 -22c-350 0 -577 247 -577 616c0 28 1 56 3 83h-266l-144 -677h-139l307 1443h139l-136 -642h256c76 379 357 664 723 664c351 0 578 -247 578 -617c0 -485 -319 -870 -744 -870zM1758 844c0 301 -171 495 -438 495
c-353 0 -603 -333 -603 -740c0 -301 171 -495 438 -495c348 0 603 325 603 740z" />
    <glyph glyph-name="uniF52E" horiz-adv-x="1939" 
d="M941 1551c-199 0 -290 133 -274 283h99c-11 -107 41 -198 180 -198c121 0 207 69 230 198h101c-24 -174 -155 -283 -336 -283zM1154 -22c-350 0 -577 247 -577 616c0 28 1 56 3 83h-266l-144 -677h-139l307 1443h139l-136 -642h256c76 379 357 664 723 664
c351 0 578 -247 578 -617c0 -485 -319 -870 -744 -870zM1758 844c0 301 -171 495 -438 495c-353 0 -603 -333 -603 -740c0 -301 171 -495 438 -495c348 0 603 325 603 740z" />
    <glyph glyph-name="uniF498" horiz-adv-x="1939" 
d="M796 1623c-49 0 -89 40 -89 88c0 50 40 89 89 89s88 -39 88 -89c0 -48 -39 -88 -88 -88zM1137 1623c-48 0 -88 40 -88 88c0 50 40 89 88 89c50 0 89 -39 89 -89c0 -48 -39 -88 -89 -88zM1154 -22c-350 0 -577 247 -577 616c0 28 1 56 3 83h-266l-144 -677h-139l307 1443
h139l-136 -642h256c76 379 357 664 723 664c351 0 578 -247 578 -617c0 -485 -319 -870 -744 -870zM1758 844c0 301 -171 495 -438 495c-353 0 -603 -333 -603 -740c0 -301 171 -495 438 -495c348 0 603 325 603 740z" />
    <glyph glyph-name="IAcyrillic" unicode="&#x42f;" horiz-adv-x="1248" 
d="M664 566l-517 -566h-178l536 587c-178 49 -287 182 -287 361c0 261 219 495 546 495h538l-307 -1443h-139l120 565h-298c-5 0 -10 0 -14 1zM691 687h311l135 634h-360c-239 0 -417 -153 -417 -353c0 -183 130 -281 331 -281z" />
    <glyph glyph-name="uniF528" horiz-adv-x="1248" 
d="M1200 1753l-20 -95h-540l20 95h540zM664 566l-517 -566h-178l536 587c-178 49 -287 182 -287 361c0 261 219 495 546 495h538l-307 -1443h-139l120 565h-298c-5 0 -10 0 -14 1zM691 687h311l135 634h-360c-239 0 -417 -153 -417 -353c0 -183 130 -281 331 -281z" />
    <glyph glyph-name="uniF468" horiz-adv-x="1248" 
d="M941 1558h-109l213 288h148zM664 566l-517 -566h-178l536 587c-178 49 -287 182 -287 361c0 261 219 495 546 495h538l-307 -1443h-139l120 565h-298c-5 0 -10 0 -14 1zM691 687h311l135 634h-360c-239 0 -417 -153 -417 -353c0 -183 130 -281 331 -281z" />
    <glyph glyph-name="uniF4D9" horiz-adv-x="1248" 
d="M749 1623c-48 0 -88 40 -88 88c0 50 40 89 88 89c50 0 89 -39 89 -89c0 -48 -39 -88 -89 -88zM1091 1623c-48 0 -88 40 -88 88c0 50 40 89 88 89c49 0 89 -39 89 -89c0 -48 -40 -88 -89 -88zM664 566l-517 -566h-178l536 587c-178 49 -287 182 -287 361
c0 261 219 495 546 495h538l-307 -1443h-139l120 565h-298c-5 0 -10 0 -14 1zM691 687h311l135 634h-360c-239 0 -417 -153 -417 -353c0 -183 130 -281 331 -281z" />
    <glyph glyph-name="uniF52A" horiz-adv-x="1248" 
d="M895 1551c-200 0 -290 133 -274 283h99c-12 -107 41 -198 180 -198c121 0 207 69 230 198h101c-25 -174 -155 -283 -336 -283zM664 566l-517 -566h-178l536 587c-178 49 -287 182 -287 361c0 261 219 495 546 495h538l-307 -1443h-139l120 565h-298c-5 0 -10 0 -14 1z
M691 687h311l135 634h-360c-239 0 -417 -153 -417 -353c0 -183 130 -281 331 -281z" />
    <glyph glyph-name="uni0494" unicode="&#x494;" horiz-adv-x="1244" 
d="M1112 1443l-26 -124h-638l-123 -578h14c80 73 214 149 396 149c246 0 385 -142 385 -367c0 -289 -212 -537 -509 -537c-75 0 -122 8 -137 15l27 123c16 -6 61 -13 115 -13c218 0 365 193 365 401c0 160 -101 254 -277 254c-180 0 -346 -102 -416 -198l-120 -568h-137
l307 1443h774z" />
    <glyph glyph-name="uni04A6" unicode="&#x4a6;" horiz-adv-x="2130" 
d="M338 1443h1033l-149 -702h14c80 73 214 149 396 149c246 0 385 -142 385 -367c0 -289 -212 -537 -509 -537c-75 0 -122 8 -137 15l27 123c16 -6 61 -13 115 -13c218 0 365 193 365 401c0 160 -102 254 -277 254c-180 0 -346 -102 -416 -198l-121 -568h-135l281 1318h-761
l-281 -1318h-137z" />
    <glyph glyph-name="Ecyrillic" unicode="&#x404;" horiz-adv-x="1396" 
d="M1292 411c-89 -274 -323 -441 -622 -441c-374 0 -603 279 -524 755c58 431 345 748 752 748c270 0 503 -184 514 -448c1 -6 1 -19 1 -23h-139c-7 205 -174 344 -392 344c-283 0 -511 -221 -587 -545h693l-26 -124h-689c-45 -352 115 -580 411 -580c227 0 396 131 468 314
h140z" />
    <glyph glyph-name="uniF526" horiz-adv-x="1396" 
d="M780 1623c-49 0 -89 40 -89 88c0 50 40 89 89 89s88 -39 88 -89c0 -48 -39 -88 -88 -88zM1121 1623c-48 0 -88 40 -88 88c0 50 40 89 88 89c50 0 89 -39 89 -89c0 -48 -39 -88 -89 -88zM1292 411c-89 -274 -323 -441 -622 -441c-374 0 -603 279 -524 755
c58 431 345 748 752 748c270 0 503 -184 514 -448c1 -6 1 -19 1 -23h-139c-7 205 -174 344 -392 344c-283 0 -511 -221 -587 -545h693l-26 -124h-689c-45 -352 115 -580 411 -580c227 0 396 131 468 314h140z" />
    <glyph glyph-name="uni04C0" unicode="&#x4c0;" horiz-adv-x="426" 
d="M172 0h-140l307 1443h140z" />
    <glyph glyph-name="Icyrillic" unicode="&#x406;" horiz-adv-x="426" 
d="M172 0h-140l307 1443h140z" />
    <glyph glyph-name="Yicyrillic" unicode="&#x407;" horiz-adv-x="426" 
d="M296 1623c-49 0 -89 40 -89 88c0 50 40 89 89 89s88 -39 88 -89c0 -48 -39 -88 -88 -88zM637 1623c-48 0 -88 40 -88 88c0 50 40 89 88 89c50 0 89 -39 89 -89c0 -48 -39 -88 -89 -88zM172 0h-140l307 1443h140z" />
    <glyph glyph-name="uni04C0.1" horiz-adv-x="888" 
d="M-25 0l26 118h287l257 1207h-288l25 118h716l-26 -118h-287l-257 -1207h288l-25 -118h-716z" />
    <glyph glyph-name="Icyrillic.1" horiz-adv-x="888" 
d="M-25 0l26 118h287l257 1207h-288l25 118h716l-26 -118h-287l-257 -1207h288l-25 -118h-716z" />
    <glyph glyph-name="Yicyrillic.1" horiz-adv-x="888" 
d="M525 1623c-48 0 -88 40 -88 88c0 50 40 89 88 89c49 0 89 -39 89 -89c0 -48 -40 -88 -89 -88zM867 1623c-49 0 -89 40 -89 88c0 50 40 89 89 89s88 -39 88 -89c0 -48 -39 -88 -88 -88zM-25 0l26 118h287l257 1207h-288l25 118h716l-26 -118h-287l-257 -1207h288l-25 -118
h-716z" />
    <glyph glyph-name="uni04A8" unicode="&#x4a8;" horiz-adv-x="1916" 
d="M788 -22c-408 0 -668 262 -668 660c0 445 333 802 802 842l-29 -135c-382 -59 -627 -336 -627 -712c0 -312 215 -529 538 -529c87 0 172 12 255 38c-131 122 -219 310 -219 502c0 361 235 658 555 658c263 0 413 -160 413 -435c0 -308 -211 -610 -508 -743
c48 -20 106 -29 186 -29c110 0 206 24 278 68l32 -112c-92 -49 -191 -73 -316 -73c-129 0 -228 25 -316 81c-109 -53 -241 -81 -376 -81zM981 650c0 -183 81 -354 212 -458c281 124 472 388 472 662c0 203 -100 322 -271 322c-239 0 -413 -241 -413 -526z" />
    <glyph glyph-name="uni04AE" unicode="&#x4ae;" horiz-adv-x="1232" 
d="M576 0h-140l133 631l-342 812h144l288 -691h4l575 691h159l-692 -831z" />
    <glyph glyph-name="uniF43A" horiz-adv-x="1232" 
d="M1147 1753l-20 -95h-540l20 95h540zM576 0h-140l133 631l-342 812h144l288 -691h4l575 691h159l-692 -831z" />
    <glyph glyph-name="uni04B0" unicode="&#x4b0;" horiz-adv-x="1232" 
d="M576 0h-140l128 609h-368l23 109h313l-305 725h144l288 -691h4l575 691h159l-604 -725h304l-24 -109h-369z" />
    <glyph glyph-name="uni04BC" unicode="&#x4bc;" horiz-adv-x="1697" 
d="M943 -22c-377 0 -579 248 -558 654c2 31 4 61 8 90h-17c-162 0 -256 78 -256 224c0 77 33 164 83 227h118c-48 -73 -78 -144 -78 -205c0 -89 47 -128 147 -128h24c90 371 368 625 709 625c358 0 564 -233 538 -615c0 -43 -6 -85 -14 -128h-1116c-3 -15 -6 -54 -6 -84
c-20 -326 129 -531 421 -531c197 0 360 87 455 241h149c-106 -227 -340 -370 -607 -370zM554 840h962c5 25 7 44 7 82c0 258 -152 415 -408 415c-259 0 -486 -195 -561 -497z" />
    <glyph glyph-name="uni04BE" unicode="&#x4be;" horiz-adv-x="1697" 
d="M1550 348c-100 -213 -311 -352 -558 -368l-56 -265h-127l57 267c-327 32 -500 273 -481 650c2 31 4 61 8 90h-17c-162 0 -256 78 -256 224c0 77 33 164 83 227h118c-48 -73 -78 -144 -78 -205c0 -89 47 -128 147 -128h24c90 371 368 625 709 625c358 0 564 -233 538 -615
c0 -43 -6 -85 -14 -128h-1116c-3 -15 -6 -54 -6 -84c-20 -326 129 -531 421 -531c197 0 360 87 455 241h149zM554 840h962c5 25 7 44 7 82c0 258 -152 415 -408 415c-259 0 -486 -195 -561 -497z" />
    <glyph glyph-name="uni04D4" unicode="&#x4d4;" horiz-adv-x="1867" 
d="M840 0l95 443h-578l-301 -443h-149l984 1443h1068l-27 -124h-672l-111 -526h635l-26 -122h-636l-116 -547h672l-26 -124h-812zM1123 1327h-161l-528 -766h525z" />
    <glyph glyph-name="uni04D8" unicode="&#x4d8;" horiz-adv-x="1436" 
d="M646 -22c-361 0 -563 233 -534 624c0 43 5 85 13 128h1115c5 29 7 57 7 75c18 326 -130 531 -425 531c-194 0 -358 -87 -453 -244h-149c106 228 340 373 605 373c381 0 581 -252 561 -654c-22 -494 -331 -833 -740 -833zM652 106c268 0 496 197 565 506h-961
c-5 -26 -7 -47 -7 -88c0 -262 146 -418 403 -418z" />
    <glyph glyph-name="uni04D8" unicode="&#x18f;" horiz-adv-x="1436" 
d="M646 -22c-361 0 -563 233 -534 624c0 43 5 85 13 128h1115c5 29 7 57 7 75c18 326 -130 531 -425 531c-194 0 -358 -87 -453 -244h-149c106 228 340 373 605 373c381 0 581 -252 561 -654c-22 -494 -331 -833 -740 -833zM652 106c268 0 496 197 565 506h-961
c-5 -26 -7 -47 -7 -88c0 -262 146 -418 403 -418z" />
    <glyph glyph-name="uni04DA" unicode="&#x4da;" horiz-adv-x="1436" 
d="M706 1623c-49 0 -89 40 -89 88c0 50 40 89 89 89s88 -39 88 -89c0 -48 -39 -88 -88 -88zM1048 1623c-49 0 -89 40 -89 88c0 50 40 89 89 89s88 -39 88 -89c0 -48 -39 -88 -88 -88zM646 -22c-361 0 -563 233 -534 624c0 43 5 85 13 128h1115c5 29 7 57 7 75
c18 326 -130 531 -425 531c-194 0 -358 -87 -453 -244h-149c106 228 340 373 605 373c381 0 581 -252 561 -654c-22 -494 -331 -833 -740 -833zM652 106c268 0 496 197 565 506h-961c-5 -26 -7 -47 -7 -88c0 -262 146 -418 403 -418z" />
    <glyph glyph-name="uniF49C" horiz-adv-x="1436" 
d="M1156 1753l-20 -95h-540l20 95h540zM646 -22c-361 0 -563 233 -534 624c0 43 5 85 13 128h1115c5 29 7 57 7 75c18 326 -130 531 -425 531c-194 0 -358 -87 -453 -244h-149c106 228 340 373 605 373c381 0 581 -252 561 -654c-22 -494 -331 -833 -740 -833zM652 106
c268 0 496 197 565 506h-961c-5 -26 -7 -47 -7 -88c0 -262 146 -418 403 -418z" />
    <glyph glyph-name="uni04E0" unicode="&#x4e0;" horiz-adv-x="1147" 
d="M501 -23c-288 0 -479 163 -467 390c0 6 1 12 2 18h133c-12 -169 125 -288 342 -288c229 0 396 158 396 360c0 183 -133 285 -375 285h-103l22 106l530 459l3 12h-686l27 124h896l-21 -100l-584 -498v-1c284 -8 432 -155 432 -370c0 -289 -231 -497 -547 -497z" />
    <glyph glyph-name="uni0510" unicode="&#x510;" horiz-adv-x="1169" 
d="M812 684h-181c-286 0 -436 -130 -436 -320c0 -157 131 -267 336 -267c207 0 365 110 399 275h138c-43 -240 -256 -395 -544 -395c-283 0 -470 151 -470 378c0 217 157 383 410 404l1 5c-131 33 -217 137 -217 283c0 237 206 419 501 419c280 0 459 -161 425 -386h-126
c14 161 -108 267 -307 267c-207 0 -358 -128 -358 -291c0 -154 124 -248 313 -248h140z" />
    <glyph glyph-name="uniF538" horiz-adv-x="1169" 
d="M630 1625c-48 0 -88 39 -88 88s40 88 88 88c50 0 89 -39 89 -88s-39 -88 -89 -88zM972 1625c-48 0 -88 39 -88 88s40 88 88 88c49 0 89 -39 89 -88s-40 -88 -89 -88zM812 684h-181c-286 0 -436 -130 -436 -320c0 -157 131 -267 336 -267c207 0 365 110 399 275h138
c-43 -240 -256 -395 -544 -395c-283 0 -470 151 -470 378c0 217 157 383 410 404l1 5c-131 33 -217 137 -217 283c0 237 206 419 501 419c280 0 459 -161 425 -386h-126c14 161 -108 267 -307 267c-207 0 -358 -128 -358 -291c0 -154 124 -248 313 -248h140z" />
    <glyph glyph-name="uni0474" unicode="&#x474;" horiz-adv-x="1431" 
d="M595 0h-139l-231 1443h132l200 -1261h4l605 1053c52 91 97 145 146 179c45 32 95 46 155 46c63 0 121 -14 158 -38l-63 -113c-35 15 -61 21 -90 21c-38 0 -67 -10 -97 -35c-31 -25 -60 -66 -103 -139z" />
    <glyph glyph-name="uni051C" unicode="&#x51c;" horiz-adv-x="1858" 
d="M1070 1212l-604 -1212h-134l-91 1443h129l69 -1225h4l608 1225h128l102 -1224h4l579 1224h145l-697 -1443h-134l-104 1212h-4z" />
    <glyph glyph-name="Djecyrillic" unicode="&#x402;" horiz-adv-x="1646" 
d="M436 0l281 1320h-482l26 123h1104l-27 -123h-482l-123 -579h11c90 91 227 149 364 149c264 0 418 -153 418 -406c0 -294 -204 -498 -498 -498c-59 0 -125 7 -147 15l26 123c21 -8 76 -13 123 -13c204 0 357 153 357 359c0 188 -105 296 -293 296
c-145 0 -309 -84 -398 -198l-120 -568h-140z" />
    <glyph glyph-name="Dzecyrillic" unicode="&#x405;" horiz-adv-x="1227" 
d="M57 416h137c18 -186 176 -314 413 -314c210 0 364 105 364 281c0 134 -80 207 -265 271l-107 37c-242 83 -353 193 -353 378c0 235 200 396 486 396c285 0 493 -160 498 -410h-136c-10 168 -149 286 -363 286c-219 0 -344 -121 -344 -262c0 -122 81 -197 273 -263
l109 -38c232 -78 345 -193 345 -370c0 -229 -183 -430 -508 -430c-302 0 -539 168 -549 438z" />
    <glyph glyph-name="Jecyrillic" unicode="&#x408;" horiz-adv-x="1009" 
d="M17 318v22h139s-1 -2 -1 -6c0 -139 99 -229 250 -229c155 0 255 100 295 290l223 1048h139l-230 -1083c-51 -242 -206 -383 -441 -383c-218 0 -374 145 -374 341z" />
    <glyph glyph-name="a" unicode="a" horiz-adv-x="1001" 
d="M348 -17c-183 0 -325 116 -325 281c0 200 157 315 427 330l331 18l16 74c5 22 6 43 6 63c0 118 -85 191 -234 191c-158 0 -260 -79 -286 -199h-138c33 187 200 316 434 316c216 0 357 -118 357 -290c0 -31 -3 -62 -8 -89l-144 -678h-128l33 153h-3
c-73 -104 -198 -170 -338 -170zM381 97c167 0 312 110 346 267l32 141l-310 -17c-186 -10 -292 -86 -292 -210c0 -110 91 -181 224 -181z" />
    <glyph glyph-name="agrave" unicode="&#xe0;" horiz-adv-x="1001" 
d="M574 1199l-121 301h136l87 -301h-102zM348 -17c-183 0 -325 116 -325 281c0 200 157 315 427 330l331 18l16 74c5 22 6 43 6 63c0 118 -85 191 -234 191c-158 0 -260 -79 -286 -199h-138c33 187 200 316 434 316c216 0 357 -118 357 -290c0 -31 -3 -62 -8 -89l-144 -678
h-128l33 153h-3c-73 -104 -198 -170 -338 -170zM381 97c167 0 312 110 346 267l32 141l-310 -17c-186 -10 -292 -86 -292 -210c0 -110 91 -181 224 -181z" />
    <glyph glyph-name="aacute" unicode="&#xe1;" horiz-adv-x="1001" 
d="M679 1199h-110l214 301h149zM348 -17c-183 0 -325 116 -325 281c0 200 157 315 427 330l331 18l16 74c5 22 6 43 6 63c0 118 -85 191 -234 191c-158 0 -260 -79 -286 -199h-138c33 187 200 316 434 316c216 0 357 -118 357 -290c0 -31 -3 -62 -8 -89l-144 -678h-128
l33 153h-3c-73 -104 -198 -170 -338 -170zM381 97c167 0 312 110 346 267l32 141l-310 -17c-186 -10 -292 -86 -292 -210c0 -110 91 -181 224 -181z" />
    <glyph glyph-name="adieresis" unicode="&#xe4;" horiz-adv-x="1001" 
d="M484 1256c-48 0 -88 39 -88 88s40 88 88 88c50 0 89 -39 89 -88s-39 -88 -89 -88zM826 1256c-48 0 -88 39 -88 88s40 88 88 88c49 0 89 -39 89 -88s-40 -88 -89 -88zM348 -17c-183 0 -325 116 -325 281c0 200 157 315 427 330l331 18l16 74c5 22 6 43 6 63
c0 118 -85 191 -234 191c-158 0 -260 -79 -286 -199h-138c33 187 200 316 434 316c216 0 357 -118 357 -290c0 -31 -3 -62 -8 -89l-144 -678h-128l33 153h-3c-73 -104 -198 -170 -338 -170zM381 97c167 0 312 110 346 267l32 141l-310 -17c-186 -10 -292 -86 -292 -210
c0 -110 91 -181 224 -181z" />
    <glyph glyph-name="adieresismacron" unicode="&#x1df;" horiz-adv-x="1001" 
d="M995 1672l-20 -95h-540l20 95h540zM475 1209c-50 0 -91 41 -91 91c0 51 41 91 91 91s92 -40 92 -91c0 -50 -42 -91 -92 -91zM815 1209c-49 0 -91 41 -91 91c0 51 42 91 91 91c50 0 92 -40 92 -91c0 -50 -42 -91 -92 -91zM348 -17c-183 0 -325 116 -325 281
c0 200 157 315 427 330l331 18l16 74c5 22 6 43 6 63c0 118 -85 191 -234 191c-158 0 -260 -79 -286 -199h-138c33 187 200 316 434 316c216 0 357 -118 357 -290c0 -31 -3 -62 -8 -89l-144 -678h-128l33 153h-3c-73 -104 -198 -170 -338 -170zM381 97
c167 0 312 110 346 267l32 141l-310 -17c-186 -10 -292 -86 -292 -210c0 -110 91 -181 224 -181z" />
    <glyph glyph-name="aring" unicode="&#xe5;" horiz-adv-x="1001" 
d="M652 1149c-100 0 -182 83 -182 183s82 182 182 182s182 -82 182 -182s-82 -183 -182 -183zM652 1221c62 0 111 49 111 111c0 61 -49 110 -111 110c-61 0 -110 -49 -110 -110c0 -62 49 -111 110 -111zM348 -17c-183 0 -325 116 -325 281c0 200 157 315 427 330l331 18
l16 74c5 22 6 43 6 63c0 118 -85 191 -234 191c-158 0 -260 -79 -286 -199h-138c33 187 200 316 434 316c216 0 357 -118 357 -290c0 -31 -3 -62 -8 -89l-144 -678h-128l33 153h-3c-73 -104 -198 -170 -338 -170zM381 97c167 0 312 110 346 267l32 141l-310 -17
c-186 -10 -292 -86 -292 -210c0 -110 91 -181 224 -181z" />
    <glyph glyph-name="aringacute" unicode="&#x1fb;" horiz-adv-x="1001" 
d="M649 1621l174 186h132l-188 -186h-118zM654 1180c-98 0 -179 70 -179 176c0 109 81 189 185 189c99 0 180 -70 180 -176c-1 -109 -81 -189 -186 -189zM548 1358c0 -64 45 -108 106 -108c67 0 113 47 113 117c-1 64 -45 108 -107 108c-65 0 -112 -47 -112 -117zM348 -17
c-183 0 -325 116 -325 281c0 200 157 315 427 330l331 18l16 74c5 22 6 43 6 63c0 118 -85 191 -234 191c-158 0 -260 -79 -286 -199h-138c33 187 200 316 434 316c216 0 357 -118 357 -290c0 -31 -3 -62 -8 -89l-144 -678h-128l33 153h-3c-73 -104 -198 -170 -338 -170z
M381 97c167 0 312 110 346 267l32 141l-310 -17c-186 -10 -292 -86 -292 -210c0 -110 91 -181 224 -181z" />
    <glyph glyph-name="atilde" unicode="&#xe3;" horiz-adv-x="1001" 
d="M344 1249c24 121 89 208 195 208c134 0 161 -145 240 -145c45 0 73 44 92 114h101c-24 -121 -89 -209 -197 -209c-133 0 -158 145 -238 145c-46 0 -74 -43 -92 -113h-101zM348 -17c-183 0 -325 116 -325 281c0 200 157 315 427 330l331 18l16 74c5 22 6 43 6 63
c0 118 -85 191 -234 191c-158 0 -260 -79 -286 -199h-138c33 187 200 316 434 316c216 0 357 -118 357 -290c0 -31 -3 -62 -8 -89l-144 -678h-128l33 153h-3c-73 -104 -198 -170 -338 -170zM381 97c167 0 312 110 346 267l32 141l-310 -17c-186 -10 -292 -86 -292 -210
c0 -110 91 -181 224 -181z" />
    <glyph glyph-name="abrevegrave" unicode="&#x1eb1;" horiz-adv-x="1001" 
d="M751 1511h-103l-176 299h119zM648 1204c-214 0 -284 164 -261 284h98c-13 -102 40 -195 169 -195c107 0 188 71 201 195h102c-14 -169 -133 -284 -309 -284zM348 -17c-183 0 -325 116 -325 281c0 200 157 315 427 330l331 18l16 74c5 22 6 43 6 63
c0 118 -85 191 -234 191c-158 0 -260 -79 -286 -199h-138c33 187 200 316 434 316c216 0 357 -118 357 -290c0 -31 -3 -62 -8 -89l-144 -678h-128l33 153h-3c-73 -104 -198 -170 -338 -170zM381 97c167 0 312 110 346 267l32 141l-310 -17c-186 -10 -292 -86 -292 -210
c0 -110 91 -181 224 -181z" />
    <glyph glyph-name="adotmacron" unicode="&#x1e1;" horiz-adv-x="1001" 
d="M995 1672l-20 -95h-540l20 95h540zM646 1202c-56 0 -100 44 -100 101c0 56 44 100 100 100s101 -44 101 -100c0 -57 -45 -101 -101 -101zM348 -17c-183 0 -325 116 -325 281c0 200 157 315 427 330l331 18l16 74c5 22 6 43 6 63c0 118 -85 191 -234 191
c-158 0 -260 -79 -286 -199h-138c33 187 200 316 434 316c216 0 357 -118 357 -290c0 -31 -3 -62 -8 -89l-144 -678h-128l33 153h-3c-73 -104 -198 -170 -338 -170zM381 97c167 0 312 110 346 267l32 141l-310 -17c-186 -10 -292 -86 -292 -210c0 -110 91 -181 224 -181z
" />
    <glyph glyph-name="aringbelow" unicode="&#x1e01;" horiz-adv-x="1001" 
d="M348 -17c-183 0 -325 116 -325 281c0 200 157 315 427 330l331 18l16 74c5 22 6 43 6 63c0 118 -85 191 -234 191c-158 0 -260 -79 -286 -199h-138c33 187 200 316 434 316c216 0 357 -118 357 -290c0 -31 -3 -62 -8 -89l-144 -678h-128l33 153h-3
c-73 -104 -198 -170 -338 -170zM381 97c167 0 312 110 346 267l32 141l-310 -17c-186 -10 -292 -86 -292 -210c0 -110 91 -181 224 -181zM370 -429c-100 0 -182 82 -182 182s82 182 182 182s182 -82 182 -182s-82 -182 -182 -182zM370 -358c61 0 110 50 110 111
s-49 111 -110 111c-62 0 -111 -50 -111 -111s49 -111 111 -111z" />
    <glyph glyph-name="acircumflex" unicode="&#xe2;" horiz-adv-x="1001" 
d="M735 1500l196 -301h-124l-132 213h-4l-220 -213h-129l306 301h107zM348 -17c-183 0 -325 116 -325 281c0 200 157 315 427 330l331 18l16 74c5 22 6 43 6 63c0 118 -85 191 -234 191c-158 0 -260 -79 -286 -199h-138c33 187 200 316 434 316c216 0 357 -118 357 -290
c0 -31 -3 -62 -8 -89l-144 -678h-128l33 153h-3c-73 -104 -198 -170 -338 -170zM381 97c167 0 312 110 346 267l32 141l-310 -17c-186 -10 -292 -86 -292 -210c0 -110 91 -181 224 -181z" />
    <glyph glyph-name="acircumflexdotbelow" unicode="&#x1ead;" horiz-adv-x="1001" 
d="M735 1500l196 -301h-124l-132 213h-4l-220 -213h-129l306 301h107zM348 -17c-183 0 -325 116 -325 281c0 200 157 315 427 330l331 18l16 74c5 22 6 43 6 63c0 118 -85 191 -234 191c-158 0 -260 -79 -286 -199h-138c33 187 200 316 434 316c216 0 357 -118 357 -290
c0 -31 -3 -62 -8 -89l-144 -678h-128l33 153h-3c-73 -104 -198 -170 -338 -170zM381 97c167 0 312 110 346 267l32 141l-310 -17c-186 -10 -292 -86 -292 -210c0 -110 91 -181 224 -181zM370 -335c-48 0 -88 39 -88 88c0 50 40 88 88 88c50 0 89 -38 89 -88
c0 -49 -39 -88 -89 -88z" />
    <glyph glyph-name="acircumflexacute" unicode="&#x1ea5;" horiz-adv-x="1001" 
d="M866 1510l287 300h136l-303 -300h-120zM731 1495l214 -284h-120l-153 203h-5l-239 -203h-139l334 284h108zM348 -17c-183 0 -325 116 -325 281c0 200 157 315 427 330l331 18l16 74c5 22 6 43 6 63c0 118 -85 191 -234 191c-158 0 -260 -79 -286 -199h-138
c33 187 200 316 434 316c216 0 357 -118 357 -290c0 -31 -3 -62 -8 -89l-144 -678h-128l33 153h-3c-73 -104 -198 -170 -338 -170zM381 97c167 0 312 110 346 267l32 141l-310 -17c-186 -10 -292 -86 -292 -210c0 -110 91 -181 224 -181z" />
    <glyph glyph-name="acircumflextilde" unicode="&#x1eab;" horiz-adv-x="1001" 
d="M838 1578c-130 0 -157 149 -241 149c-50 0 -92 -51 -103 -130h-92c21 136 101 218 205 218c129 0 155 -149 240 -149c47 0 87 49 101 131h93c-23 -135 -103 -219 -203 -219zM731 1495l214 -284h-120l-153 203h-5l-239 -203h-139l334 284h108zM348 -17
c-183 0 -325 116 -325 281c0 200 157 315 427 330l331 18l16 74c5 22 6 43 6 63c0 118 -85 191 -234 191c-158 0 -260 -79 -286 -199h-138c33 187 200 316 434 316c216 0 357 -118 357 -290c0 -31 -3 -62 -8 -89l-144 -678h-128l33 153h-3c-73 -104 -198 -170 -338 -170z
M381 97c167 0 312 110 346 267l32 141l-310 -17c-186 -10 -292 -86 -292 -210c0 -110 91 -181 224 -181z" />
    <glyph glyph-name="acircumflexgrave" unicode="&#x1ea7;" horiz-adv-x="1001" 
d="M1010 1511h-103l-175 299h119zM731 1495l214 -284h-120l-153 203h-5l-239 -203h-139l334 284h108zM348 -17c-183 0 -325 116 -325 281c0 200 157 315 427 330l331 18l16 74c5 22 6 43 6 63c0 118 -85 191 -234 191c-158 0 -260 -79 -286 -199h-138
c33 187 200 316 434 316c216 0 357 -118 357 -290c0 -31 -3 -62 -8 -89l-144 -678h-128l33 153h-3c-73 -104 -198 -170 -338 -170zM381 97c167 0 312 110 346 267l32 141l-310 -17c-186 -10 -292 -86 -292 -210c0 -110 91 -181 224 -181z" />
    <glyph glyph-name="acircumflexhookabove" unicode="&#x1ea9;" horiz-adv-x="1001" 
d="M763 1696l17 78c24 13 71 24 109 24c94 0 154 -47 154 -123c0 -84 -71 -168 -163 -196l-43 57c61 21 109 71 109 116c0 39 -32 65 -81 65c-36 0 -70 -7 -102 -21zM731 1495l214 -284h-120l-153 203h-5l-239 -203h-139l334 284h108zM348 -17c-183 0 -325 116 -325 281
c0 200 157 315 427 330l331 18l16 74c5 22 6 43 6 63c0 118 -85 191 -234 191c-158 0 -260 -79 -286 -199h-138c33 187 200 316 434 316c216 0 357 -118 357 -290c0 -31 -3 -62 -8 -89l-144 -678h-128l33 153h-3c-73 -104 -198 -170 -338 -170zM381 97
c167 0 312 110 346 267l32 141l-310 -17c-186 -10 -292 -86 -292 -210c0 -110 91 -181 224 -181z" />
    <glyph glyph-name="abreve" unicode="&#x103;" horiz-adv-x="1001" 
d="M640 1200c-214 0 -283 163 -260 284h97c-12 -102 40 -195 169 -195c108 0 188 71 202 195h101c-14 -169 -132 -284 -309 -284zM348 -17c-183 0 -325 116 -325 281c0 200 157 315 427 330l331 18l16 74c5 22 6 43 6 63c0 118 -85 191 -234 191c-158 0 -260 -79 -286 -199
h-138c33 187 200 316 434 316c216 0 357 -118 357 -290c0 -31 -3 -62 -8 -89l-144 -678h-128l33 153h-3c-73 -104 -198 -170 -338 -170zM381 97c167 0 312 110 346 267l32 141l-310 -17c-186 -10 -292 -86 -292 -210c0 -110 91 -181 224 -181z" />
    <glyph glyph-name="abreveacute" unicode="&#x1eaf;" horiz-adv-x="1001" 
d="M603 1510l286 300h136l-302 -300h-120zM648 1204c-214 0 -284 164 -261 284h98c-13 -102 40 -195 169 -195c107 0 188 71 201 195h102c-14 -169 -133 -284 -309 -284zM348 -17c-183 0 -325 116 -325 281c0 200 157 315 427 330l331 18l16 74c5 22 6 43 6 63
c0 118 -85 191 -234 191c-158 0 -260 -79 -286 -199h-138c33 187 200 316 434 316c216 0 357 -118 357 -290c0 -31 -3 -62 -8 -89l-144 -678h-128l33 153h-3c-73 -104 -198 -170 -338 -170zM381 97c167 0 312 110 346 267l32 141l-310 -17c-186 -10 -292 -86 -292 -210
c0 -110 91 -181 224 -181z" />
    <glyph glyph-name="abrevetilde" unicode="&#x1eb5;" horiz-adv-x="1001" 
d="M844 1578c-130 0 -157 149 -241 149c-50 0 -93 -51 -103 -130h-92c21 136 101 218 205 218c129 0 155 -149 240 -149c47 0 87 49 101 131h93c-23 -135 -104 -219 -203 -219zM974 1490c-31 -176 -160 -286 -347 -286c-148 0 -259 90 -259 225c0 22 3 43 8 61h99
c-3 -13 -6 -29 -6 -45c0 -96 66 -154 173 -154c116 0 211 76 232 199h100zM348 -17c-183 0 -325 116 -325 281c0 200 157 315 427 330l331 18l16 74c5 22 6 43 6 63c0 118 -85 191 -234 191c-158 0 -260 -79 -286 -199h-138c33 187 200 316 434 316c216 0 357 -118 357 -290
c0 -31 -3 -62 -8 -89l-144 -678h-128l33 153h-3c-73 -104 -198 -170 -338 -170zM381 97c167 0 312 110 346 267l32 141l-310 -17c-186 -10 -292 -86 -292 -210c0 -110 91 -181 224 -181z" />
    <glyph glyph-name="abrevehookabove" unicode="&#x1eb3;" horiz-adv-x="1001" 
d="M554 1687l17 76c24 13 72 23 109 23c95 0 154 -47 154 -123c0 -84 -71 -168 -162 -196l-45 60c62 20 110 71 110 115c0 39 -33 65 -81 65c-36 0 -70 -7 -102 -20zM974 1490c-31 -176 -160 -286 -347 -286c-148 0 -259 90 -259 225c0 22 3 43 8 61h99
c-3 -13 -6 -29 -6 -45c0 -96 66 -154 173 -154c116 0 211 76 232 199h100zM348 -17c-183 0 -325 116 -325 281c0 200 157 315 427 330l331 18l16 74c5 22 6 43 6 63c0 118 -85 191 -234 191c-158 0 -260 -79 -286 -199h-138c33 187 200 316 434 316c216 0 357 -118 357 -290
c0 -31 -3 -62 -8 -89l-144 -678h-128l33 153h-3c-73 -104 -198 -170 -338 -170zM381 97c167 0 312 110 346 267l32 141l-310 -17c-186 -10 -292 -86 -292 -210c0 -110 91 -181 224 -181z" />
    <glyph glyph-name="abrevedotbelow" unicode="&#x1eb7;" horiz-adv-x="1001" 
d="M640 1200c-214 0 -283 163 -260 284h97c-12 -102 40 -195 169 -195c108 0 188 71 202 195h101c-14 -169 -132 -284 -309 -284zM348 -17c-183 0 -325 116 -325 281c0 200 157 315 427 330l331 18l16 74c5 22 6 43 6 63c0 118 -85 191 -234 191c-158 0 -260 -79 -286 -199
h-138c33 187 200 316 434 316c216 0 357 -118 357 -290c0 -31 -3 -62 -8 -89l-144 -678h-128l33 153h-3c-73 -104 -198 -170 -338 -170zM381 97c167 0 312 110 346 267l32 141l-310 -17c-186 -10 -292 -86 -292 -210c0 -110 91 -181 224 -181zM370 -335c-48 0 -88 39 -88 88
c0 50 40 88 88 88c50 0 89 -38 89 -88c0 -49 -39 -88 -89 -88z" />
    <glyph glyph-name="ainvertedbreve" unicode="&#x203;" horiz-adv-x="1001" 
d="M632 1484c214 0 283 -163 260 -284h-97c12 102 -40 195 -169 195c-108 0 -189 -71 -202 -195h-102c15 169 133 284 310 284zM348 -17c-183 0 -325 116 -325 281c0 200 157 315 427 330l331 18l16 74c5 22 6 43 6 63c0 118 -85 191 -234 191c-158 0 -260 -79 -286 -199
h-138c33 187 200 316 434 316c216 0 357 -118 357 -290c0 -31 -3 -62 -8 -89l-144 -678h-128l33 153h-3c-73 -104 -198 -170 -338 -170zM381 97c167 0 312 110 346 267l32 141l-310 -17c-186 -10 -292 -86 -292 -210c0 -110 91 -181 224 -181z" />
    <glyph glyph-name="acaron" unicode="&#x1ce;" horiz-adv-x="1001" 
d="M582 1199l-196 301h123l132 -214h5l220 214h129l-306 -301h-107zM348 -17c-183 0 -325 116 -325 281c0 200 157 315 427 330l331 18l16 74c5 22 6 43 6 63c0 118 -85 191 -234 191c-158 0 -260 -79 -286 -199h-138c33 187 200 316 434 316c216 0 357 -118 357 -290
c0 -31 -3 -62 -8 -89l-144 -678h-128l33 153h-3c-73 -104 -198 -170 -338 -170zM381 97c167 0 312 110 346 267l32 141l-310 -17c-186 -10 -292 -86 -292 -210c0 -110 91 -181 224 -181z" />
    <glyph glyph-name="adotaccent" unicode="&#x227;" horiz-adv-x="1001" 
d="M655 1256c-48 0 -88 39 -88 88s40 88 88 88c49 0 89 -39 89 -88s-40 -88 -89 -88zM348 -17c-183 0 -325 116 -325 281c0 200 157 315 427 330l331 18l16 74c5 22 6 43 6 63c0 118 -85 191 -234 191c-158 0 -260 -79 -286 -199h-138c33 187 200 316 434 316
c216 0 357 -118 357 -290c0 -31 -3 -62 -8 -89l-144 -678h-128l33 153h-3c-73 -104 -198 -170 -338 -170zM381 97c167 0 312 110 346 267l32 141l-310 -17c-186 -10 -292 -86 -292 -210c0 -110 91 -181 224 -181z" />
    <glyph glyph-name="adotbelow" unicode="&#x1ea1;" horiz-adv-x="1001" 
d="M348 -17c-183 0 -325 116 -325 281c0 200 157 315 427 330l331 18l16 74c5 22 6 43 6 63c0 118 -85 191 -234 191c-158 0 -260 -79 -286 -199h-138c33 187 200 316 434 316c216 0 357 -118 357 -290c0 -31 -3 -62 -8 -89l-144 -678h-128l33 153h-3
c-73 -104 -198 -170 -338 -170zM381 97c167 0 312 110 346 267l32 141l-310 -17c-186 -10 -292 -86 -292 -210c0 -110 91 -181 224 -181zM370 -335c-48 0 -88 39 -88 88c0 50 40 88 88 88c50 0 89 -38 89 -88c0 -49 -39 -88 -89 -88z" />
    <glyph glyph-name="ahookabove" unicode="&#x1ea3;" horiz-adv-x="1001" 
d="M516 1423l18 85c25 14 69 24 115 24c92 0 160 -57 160 -134c0 -94 -72 -174 -183 -206l-35 68c75 24 113 69 113 118c0 40 -34 69 -84 69c-36 0 -76 -8 -104 -24zM348 -17c-183 0 -325 116 -325 281c0 200 157 315 427 330l331 18l16 74c5 22 6 43 6 63
c0 118 -85 191 -234 191c-158 0 -260 -79 -286 -199h-138c33 187 200 316 434 316c216 0 357 -118 357 -290c0 -31 -3 -62 -8 -89l-144 -678h-128l33 153h-3c-73 -104 -198 -170 -338 -170zM381 97c167 0 312 110 346 267l32 141l-310 -17c-186 -10 -292 -86 -292 -210
c0 -110 91 -181 224 -181z" />
    <glyph glyph-name="adblgrave" unicode="&#x201;" horiz-adv-x="1001" 
d="M824 1199h-98l-87 301h130zM556 1199h-103l-121 301h138zM348 -17c-183 0 -325 116 -325 281c0 200 157 315 427 330l331 18l16 74c5 22 6 43 6 63c0 118 -85 191 -234 191c-158 0 -260 -79 -286 -199h-138c33 187 200 316 434 316c216 0 357 -118 357 -290
c0 -31 -3 -62 -8 -89l-144 -678h-128l33 153h-3c-73 -104 -198 -170 -338 -170zM381 97c167 0 312 110 346 267l32 141l-310 -17c-186 -10 -292 -86 -292 -210c0 -110 91 -181 224 -181z" />
    <glyph glyph-name="amacron" unicode="&#x101;" horiz-adv-x="1001" 
d="M935 1385l-20 -95h-540l20 95h540zM348 -17c-183 0 -325 116 -325 281c0 200 157 315 427 330l331 18l16 74c5 22 6 43 6 63c0 118 -85 191 -234 191c-158 0 -260 -79 -286 -199h-138c33 187 200 316 434 316c216 0 357 -118 357 -290c0 -31 -3 -62 -8 -89l-144 -678
h-128l33 153h-3c-73 -104 -198 -170 -338 -170zM381 97c167 0 312 110 346 267l32 141l-310 -17c-186 -10 -292 -86 -292 -210c0 -110 91 -181 224 -181z" />
    <glyph glyph-name="aogonek" unicode="&#x105;" horiz-adv-x="1001" 
d="M348 -17c-183 0 -325 116 -325 281c0 200 157 315 427 330l331 18l16 74c5 22 6 43 6 63c0 118 -85 191 -234 191c-158 0 -260 -79 -286 -199h-138c33 187 200 316 434 316c216 0 357 -118 357 -290c0 -31 -3 -62 -8 -89l-144 -678h-7c-119 -50 -234 -137 -234 -221
c0 -52 45 -76 102 -76c25 0 52 5 75 11l-22 -101c-21 -6 -51 -11 -81 -11c-105 0 -187 60 -187 157c0 108 102 205 226 260l4 -1l29 135h-3c-73 -104 -198 -170 -338 -170zM381 97c167 0 312 110 346 267l32 141l-310 -17c-186 -10 -292 -86 -292 -210
c0 -110 91 -181 224 -181z" />
    <glyph glyph-name="aringbelow.mini" horiz-adv-x="1001" 
d="M348 -17c-183 0 -325 116 -325 281c0 200 157 315 427 330l331 18l16 74c5 22 6 43 6 63c0 118 -85 191 -234 191c-158 0 -260 -79 -286 -199h-138c33 187 200 316 434 316c216 0 357 -118 357 -290c0 -31 -3 -62 -8 -89l-144 -678h-128l33 153h-3
c-73 -104 -198 -170 -338 -170zM381 97c167 0 312 110 346 267l32 141l-310 -17c-186 -10 -292 -86 -292 -210c0 -110 91 -181 224 -181zM356 -494c-100 0 -182 82 -182 182s82 183 182 183s182 -83 182 -183s-82 -182 -182 -182zM356 -422c62 0 111 49 111 110
c0 62 -49 111 -111 111c-61 0 -110 -49 -110 -111c0 -61 49 -110 110 -110z" />
    <glyph glyph-name="aogonek.mini" horiz-adv-x="1001" 
d="M689 -384c-17 -11 -58 -19 -99 -19c-105 0 -176 60 -176 146c0 101 79 189 246 272l29 138h-3c-72 -103 -195 -164 -340 -164c-186 0 -323 117 -323 275c0 198 154 315 430 330l328 18l16 74c4 19 6 37 6 63c0 115 -90 185 -239 185c-151 0 -255 -73 -281 -193h-138
c33 187 203 310 429 310c217 0 362 -114 362 -284c0 -36 -2 -65 -8 -89l-146 -685l-5 -2c-153 -60 -243 -139 -243 -212c0 -51 40 -83 103 -83c28 0 53 4 72 12zM379 103c174 0 316 108 348 261l32 141l-313 -17c-183 -10 -289 -87 -289 -210c0 -105 89 -175 222 -175z" />
    <glyph glyph-name="a.1" horiz-adv-x="1123" 
d="M898 0h-128l43 200h-4c-73 -128 -218 -217 -364 -217c-234 0 -386 176 -386 440c0 349 229 634 526 634c180 0 316 -111 347 -273h6l53 256h128zM473 100c240 0 408 231 408 519c0 190 -117 320 -294 320c-225 0 -395 -230 -395 -511c0 -200 109 -328 281 -328z" />
    <glyph glyph-name="agrave.1" horiz-adv-x="1123" 
d="M642 1199l-121 301h136l87 -301h-102zM898 0h-128l43 200h-4c-73 -128 -218 -217 -364 -217c-234 0 -386 176 -386 440c0 349 229 634 526 634c180 0 316 -111 347 -273h6l53 256h128zM473 100c240 0 408 231 408 519c0 190 -117 320 -294 320
c-225 0 -395 -230 -395 -511c0 -200 109 -328 281 -328z" />
    <glyph glyph-name="aacute.1" horiz-adv-x="1123" 
d="M747 1199h-110l214 301h149zM898 0h-128l43 200h-4c-73 -128 -218 -217 -364 -217c-234 0 -386 176 -386 440c0 349 229 634 526 634c180 0 316 -111 347 -273h6l53 256h128zM473 100c240 0 408 231 408 519c0 190 -117 320 -294 320c-225 0 -395 -230 -395 -511
c0 -200 109 -328 281 -328z" />
    <glyph glyph-name="adieresis.1" horiz-adv-x="1123" 
d="M552 1256c-48 0 -88 39 -88 88s40 88 88 88c50 0 89 -39 89 -88s-39 -88 -89 -88zM894 1256c-48 0 -88 39 -88 88s40 88 88 88c49 0 89 -39 89 -88s-40 -88 -89 -88zM898 0h-128l43 200h-4c-73 -128 -218 -217 -364 -217c-234 0 -386 176 -386 440c0 349 229 634 526 634
c180 0 316 -111 347 -273h6l53 256h128zM473 100c240 0 408 231 408 519c0 190 -117 320 -294 320c-225 0 -395 -230 -395 -511c0 -200 109 -328 281 -328z" />
    <glyph glyph-name="adieresismacron.1" horiz-adv-x="1123" 
d="M1063 1672l-20 -95h-540l20 95h540zM543 1209c-50 0 -91 41 -91 91c0 51 41 91 91 91s91 -40 91 -91c0 -50 -41 -91 -91 -91zM883 1209c-49 0 -91 41 -91 91c0 51 42 91 91 91c50 0 92 -40 92 -91c0 -50 -42 -91 -92 -91zM898 0h-128l43 200h-4
c-73 -128 -218 -217 -364 -217c-234 0 -386 176 -386 440c0 349 229 634 526 634c180 0 316 -111 347 -273h6l53 256h128zM473 100c240 0 408 231 408 519c0 190 -117 320 -294 320c-225 0 -395 -230 -395 -511c0 -200 109 -328 281 -328z" />
    <glyph glyph-name="aring.1" horiz-adv-x="1123" 
d="M720 1149c-100 0 -182 83 -182 183s82 182 182 182s182 -82 182 -182s-82 -183 -182 -183zM720 1221c62 0 111 49 111 111c0 61 -49 110 -111 110c-61 0 -110 -49 -110 -110c0 -62 49 -111 110 -111zM898 0h-128l43 200h-4c-73 -128 -218 -217 -364 -217
c-234 0 -386 176 -386 440c0 349 229 634 526 634c180 0 316 -111 347 -273h6l53 256h128zM473 100c240 0 408 231 408 519c0 190 -117 320 -294 320c-225 0 -395 -230 -395 -511c0 -200 109 -328 281 -328z" />
    <glyph glyph-name="aringacute.1" horiz-adv-x="1123" 
d="M717 1621l174 186h132l-188 -186h-118zM722 1180c-98 0 -179 70 -179 176c0 109 81 189 185 189c99 0 180 -70 180 -176c-1 -109 -81 -189 -186 -189zM616 1358c0 -64 45 -108 106 -108c67 0 113 47 113 117c-1 64 -45 108 -107 108c-65 0 -112 -47 -112 -117zM898 0
h-128l43 200h-4c-73 -128 -218 -217 -364 -217c-234 0 -386 176 -386 440c0 349 229 634 526 634c180 0 316 -111 347 -273h6l53 256h128zM473 100c240 0 408 231 408 519c0 190 -117 320 -294 320c-225 0 -395 -230 -395 -511c0 -200 109 -328 281 -328z" />
    <glyph glyph-name="atilde.1" horiz-adv-x="1123" 
d="M412 1249c24 121 89 208 195 208c134 0 161 -145 240 -145c45 0 73 44 92 114h100c-24 -121 -88 -209 -196 -209c-133 0 -158 145 -238 145c-46 0 -74 -43 -92 -113h-101zM898 0h-128l43 200h-4c-73 -128 -218 -217 -364 -217c-234 0 -386 176 -386 440
c0 349 229 634 526 634c180 0 316 -111 347 -273h6l53 256h128zM473 100c240 0 408 231 408 519c0 190 -117 320 -294 320c-225 0 -395 -230 -395 -511c0 -200 109 -328 281 -328z" />
    <glyph glyph-name="abrevegrave.1" horiz-adv-x="1123" 
d="M819 1511h-103l-176 299h119zM715 1204c-213 0 -283 164 -260 284h98c-13 -102 39 -195 169 -195c107 0 188 71 201 195h102c-14 -169 -133 -284 -310 -284zM898 0h-128l43 200h-4c-73 -128 -218 -217 -364 -217c-234 0 -386 176 -386 440c0 349 229 634 526 634
c180 0 316 -111 347 -273h6l53 256h128zM473 100c240 0 408 231 408 519c0 190 -117 320 -294 320c-225 0 -395 -230 -395 -511c0 -200 109 -328 281 -328z" />
    <glyph glyph-name="adotmacron.1" horiz-adv-x="1123" 
d="M1063 1672l-20 -95h-540l20 95h540zM714 1202c-56 0 -101 44 -101 101c0 56 45 100 101 100s101 -44 101 -100c0 -57 -45 -101 -101 -101zM898 0h-128l43 200h-4c-73 -128 -218 -217 -364 -217c-234 0 -386 176 -386 440c0 349 229 634 526 634c180 0 316 -111 347 -273
h6l53 256h128zM473 100c240 0 408 231 408 519c0 190 -117 320 -294 320c-225 0 -395 -230 -395 -511c0 -200 109 -328 281 -328z" />
    </font>
</defs>
</svg>
