<?xml version="1.0" standalone="no"?>
<!DOCTYPE svg PUBLIC "-//W3C//DTD SVG 1.1//EN" "http://www.w3.org/Graphics/SVG/1.1/DTD/svg11.dtd" >
<svg xmlns="http://www.w3.org/2000/svg" xmlns:xlink="http://www.w3.org/1999/xlink" version="1.1">
<metadata>
Created by FontForge 20190801 at Sat Sep  7 00:28:07 2019
 By Jimmy Wärting

</metadata>
<defs>
<font id="SFProDisplay-SemiboldItalic" horiz-adv-x="0" >
  <font-face 
    font-family="SFProDisplay"
    font-weight="600"
    font-style="italic"
    font-stretch="normal"
    units-per-em="2048"
    panose-1="0 0 0 0 0 0 0 0 0 0"
    ascent="1638"
    descent="-410"
    x-height="1062"
    cap-height="1443"
    bbox="-538 -494 2791 2183"
    underline-thickness="169"
    underline-position="-373"
    slope="-12"
    stemh="207"
    stemv="258"
    unicode-range="U+0020-1F16B"
  />
<missing-glyph horiz-adv-x="2048" 
d="M352 1721l49 229h1848l-50 -229h-1847zM258 1278l50 229h1847l-50 -229h-1847zM163 835l51 229h1847l-50 -229h-1848zM70 392l50 229h1847l-50 -229h-1847zM-24 -51l50 229h1847l-50 -229h-1847zM-118 -494l50 229h1847l-50 -229h-1847z" />
    <glyph glyph-name=".notdef" horiz-adv-x="2048" 
d="M352 1721l49 229h1848l-50 -229h-1847zM258 1278l50 229h1847l-50 -229h-1847zM163 835l51 229h1847l-50 -229h-1848zM70 392l50 229h1847l-50 -229h-1847zM-24 -51l50 229h1847l-50 -229h-1847zM-118 -494l50 229h1847l-50 -229h-1847z" />
    <glyph glyph-name=".null" 
 />
    <glyph glyph-name="nonmarkingreturn" unicode="&#x2029;" 
 />
    <glyph glyph-name="nonmarkingreturn" unicode="&#x2028;" 
 />
    <glyph glyph-name="space" unicode=" " horiz-adv-x="467" 
 />
    <glyph glyph-name="A" unicode="A" horiz-adv-x="1356" 
d="M967 0l-44 369h-534l-204 -369h-278l823 1443h293l199 -1443h-255zM823 1177l-329 -604h409l-74 604h-6z" />
    <glyph glyph-name="Agrave" unicode="&#xc0;" horiz-adv-x="1356" 
d="M806 1558l-132 300h234l77 -300h-179zM967 0l-44 369h-534l-204 -369h-278l823 1443h293l199 -1443h-255zM823 1177l-329 -604h409l-74 604h-6z" />
    <glyph glyph-name="Aacute" unicode="&#xc1;" horiz-adv-x="1356" 
d="M989 1558h-179l204 300h235zM967 0l-44 369h-534l-204 -369h-278l823 1443h293l199 -1443h-255zM823 1177l-329 -604h409l-74 604h-6z" />
    <glyph glyph-name="Adieresis" unicode="&#xc4;" horiz-adv-x="1356" 
d="M730 1584c-73 0 -132 60 -132 132c0 74 59 133 132 133s132 -59 132 -133c0 -72 -59 -132 -132 -132zM1133 1584c-74 0 -132 60 -132 132c0 74 58 133 132 133c73 0 131 -59 131 -133c0 -72 -58 -132 -131 -132zM967 0l-44 369h-534l-204 -369h-278l823 1443h293
l199 -1443h-255zM823 1177l-329 -604h409l-74 604h-6z" />
    <glyph glyph-name="Adieresismacron" unicode="&#x1de;" horiz-adv-x="1356" 
d="M1339 2058l-29 -138h-670l29 138h670zM730 1791c69 0 122 -54 122 -122c0 -67 -53 -121 -122 -121c-68 0 -121 54 -121 121c0 68 53 122 121 122zM1113 1791c69 0 122 -54 122 -122c0 -67 -53 -121 -122 -121c-68 0 -121 54 -121 121c0 68 53 122 121 122zM967 0l-44 369
h-534l-204 -369h-278l823 1443h293l199 -1443h-255zM823 1177l-329 -604h409l-74 604h-6z" />
    <glyph glyph-name="Aring" unicode="&#x212b;" horiz-adv-x="1356" 
d="M934 1529c-113 0 -208 93 -208 207c0 113 95 206 208 206c114 0 208 -93 208 -206c0 -114 -94 -207 -208 -207zM934 1639c54 0 98 44 98 97s-44 97 -98 97s-98 -44 -98 -97s44 -97 98 -97zM967 0l-44 369h-534l-204 -369h-278l823 1443h293l199 -1443h-255zM823 1177
l-329 -604h409l-74 604h-6z" />
    <glyph glyph-name="Aring" unicode="&#xc5;" horiz-adv-x="1356" 
d="M934 1529c-113 0 -208 93 -208 207c0 113 95 206 208 206c114 0 208 -93 208 -206c0 -114 -94 -207 -208 -207zM934 1639c54 0 98 44 98 97s-44 97 -98 97s-98 -44 -98 -97s44 -97 98 -97zM967 0l-44 369h-534l-204 -369h-278l823 1443h293l199 -1443h-255zM823 1177
l-329 -604h409l-74 604h-6z" />
    <glyph glyph-name="Aringacute" unicode="&#x1fa;" horiz-adv-x="1356" 
d="M1042 2136h214l-178 -182h-188zM924 1511c-107 0 -193 72 -193 183c0 115 86 196 198 196c108 0 194 -72 193 -184c-1 -114 -85 -195 -198 -195zM924 1614c54 0 91 35 91 90c-1 50 -36 83 -86 83c-53 0 -90 -36 -90 -91c0 -49 36 -82 85 -82zM967 0l-44 369h-534
l-204 -369h-278l823 1443h293l199 -1443h-255zM823 1177l-329 -604h409l-74 604h-6z" />
    <glyph glyph-name="Atilde" unicode="&#xc3;" horiz-adv-x="1356" 
d="M579 1598c25 141 104 245 230 245c140 0 176 -134 246 -134c37 0 63 33 79 102h152c-25 -141 -103 -247 -230 -247c-140 0 -175 135 -246 135c-38 0 -63 -32 -79 -101h-152zM967 0l-44 369h-534l-204 -369h-278l823 1443h293l199 -1443h-255zM823 1177l-329 -604h409
l-74 604h-6z" />
    <glyph glyph-name="Abrevegrave" unicode="&#x1eb0;" horiz-adv-x="1356" 
d="M1061 1863h-177l-157 239h205zM920 1540c-246 0 -331 165 -321 290h159c4 -81 53 -152 169 -152c100 0 172 55 198 152h161c-29 -174 -162 -290 -366 -290zM967 0l-44 369h-534l-204 -369h-278l823 1443h293l199 -1443h-255zM823 1177l-329 -604h409l-74 604h-6z" />
    <glyph glyph-name="Adotmacron" unicode="&#x1e0;" horiz-adv-x="1356" 
d="M1339 2058l-30 -138h-670l30 138h670zM926 1563c-74 0 -132 58 -132 130c0 71 58 129 132 129s131 -58 131 -129c0 -72 -57 -130 -131 -130zM967 0l-44 369h-534l-204 -369h-278l823 1443h293l199 -1443h-255zM823 1177l-329 -604h409l-74 604h-6z" />
    <glyph glyph-name="Aringbelow" unicode="&#x1e00;" horiz-adv-x="1356" 
d="M967 0l-44 369h-534l-204 -369h-278l823 1443h293l199 -1443h-255zM823 1177l-329 -604h409l-74 604h-6zM511 -471c-113 0 -208 93 -208 207c0 113 95 206 208 206c114 0 208 -93 208 -206c0 -114 -94 -207 -208 -207zM511 -361c54 0 98 43 98 97c0 53 -44 97 -98 97
s-98 -44 -98 -97c0 -54 44 -97 98 -97z" />
    <glyph glyph-name="Acircumflex" unicode="&#xc2;" horiz-adv-x="1356" 
d="M1050 1863l209 -311h-196l-123 190h-6l-197 -190h-199l321 311h191zM967 0l-44 369h-534l-204 -369h-278l823 1443h293l199 -1443h-255zM823 1177l-329 -604h409l-74 604h-6z" />
    <glyph glyph-name="Acircumflexdotbelow" unicode="&#x1eac;" horiz-adv-x="1356" 
d="M1050 1863l209 -311h-196l-123 190h-6l-197 -190h-199l321 311h191zM967 0l-44 369h-534l-204 -369h-278l823 1443h293l199 -1443h-255zM823 1177l-329 -604h409l-74 604h-6zM512 -402c-76 0 -137 62 -137 138s61 138 137 138s136 -62 136 -138s-60 -138 -136 -138z" />
    <glyph glyph-name="Acircumflexacute" unicode="&#x1ea4;" horiz-adv-x="1356" 
d="M1089 1863l230 239h229l-258 -239h-201zM843 1813h203l215 -274h-196l-128 167h-6l-200 -167h-220zM967 0l-44 369h-534l-204 -369h-278l823 1443h293l199 -1443h-255zM823 1177l-329 -604h409l-74 604h-6z" />
    <glyph glyph-name="Acircumflextilde" unicode="&#x1eaa;" horiz-adv-x="1356" 
d="M1105 1861c-134 0 -170 124 -248 124c-44 0 -81 -37 -92 -106h-144c28 156 124 244 247 244c133 0 168 -123 247 -123c44 0 78 35 93 108h143c-27 -154 -127 -247 -246 -247zM842 1807h202l217 -268h-196l-129 162h-7l-198 -162h-220zM967 0l-44 369h-534l-204 -369h-278
l823 1443h293l199 -1443h-255zM823 1177l-329 -604h409l-74 604h-6z" />
    <glyph glyph-name="Acircumflexgrave" unicode="&#x1ea6;" horiz-adv-x="1356" 
d="M1312 1863h-177l-156 239h205zM843 1813h203l215 -274h-196l-128 167h-6l-200 -167h-220zM967 0l-44 369h-534l-204 -369h-278l823 1443h293l199 -1443h-255zM823 1177l-329 -604h409l-74 604h-6z" />
    <glyph glyph-name="Acircumflexhookabove" unicode="&#x1ea8;" horiz-adv-x="1356" 
d="M1070 1975l27 116c25 11 72 18 110 18c121 0 198 -60 198 -153c0 -101 -75 -182 -190 -221l-67 93c58 16 101 52 101 97c0 38 -36 63 -91 63c-31 0 -60 -4 -88 -13zM843 1813h203l215 -274h-196l-128 167h-6l-200 -167h-220zM967 0l-44 369h-534l-204 -369h-278l823 1443
h293l199 -1443h-255zM823 1177l-329 -604h409l-74 604h-6z" />
    <glyph glyph-name="Abreve" unicode="&#x102;" horiz-adv-x="1356" 
d="M920 1540c-263 0 -342 188 -318 314h157c-10 -91 40 -176 168 -176c108 0 185 64 203 176h159c-19 -187 -156 -314 -369 -314zM967 0l-44 369h-534l-204 -369h-278l823 1443h293l199 -1443h-255zM823 1177l-329 -604h409l-74 604h-6z" />
    <glyph glyph-name="Abreveacute" unicode="&#x1eae;" horiz-adv-x="1356" 
d="M841 1863l229 239h229l-257 -239h-201zM920 1540c-246 0 -331 165 -321 290h159c4 -81 53 -152 169 -152c100 0 172 55 198 152h161c-29 -174 -162 -290 -366 -290zM967 0l-44 369h-534l-204 -369h-278l823 1443h293l199 -1443h-255zM823 1177l-329 -604h409l-74 604h-6z
" />
    <glyph glyph-name="Abrevetilde" unicode="&#x1eb4;" horiz-adv-x="1356" 
d="M1111 1861c-135 0 -170 124 -248 124c-44 0 -82 -37 -93 -106h-143c28 156 124 244 247 244c133 0 167 -123 247 -123c43 0 78 35 93 108h143c-28 -154 -127 -247 -246 -247zM897 1541c-182 0 -287 105 -287 243c0 15 1 31 4 47h153c-1 -7 -1 -14 -1 -20
c0 -79 56 -134 151 -134c103 0 188 65 216 154h170c-45 -163 -200 -290 -406 -290zM967 0l-44 369h-534l-204 -369h-278l823 1443h293l199 -1443h-255zM823 1177l-329 -604h409l-74 604h-6z" />
    <glyph glyph-name="Abrevehookabove" unicode="&#x1eb2;" horiz-adv-x="1356" 
d="M783 2031l29 117c27 9 71 14 103 14c123 0 205 -63 205 -158c0 -94 -75 -175 -188 -207l-72 90c62 14 106 49 106 92c0 39 -35 63 -94 63c-34 0 -63 -4 -89 -11zM897 1541c-182 0 -287 105 -287 243c0 15 1 31 4 47h153c-1 -7 -1 -14 -1 -20c0 -79 56 -134 151 -134
c103 0 188 65 216 154h170c-45 -163 -200 -290 -406 -290zM967 0l-44 369h-534l-204 -369h-278l823 1443h293l199 -1443h-255zM823 1177l-329 -604h409l-74 604h-6z" />
    <glyph glyph-name="Abrevedotbelow" unicode="&#x1eb6;" horiz-adv-x="1356" 
d="M920 1540c-263 0 -342 188 -318 314h157c-10 -91 40 -176 168 -176c108 0 185 64 203 176h159c-19 -187 -156 -314 -369 -314zM967 0l-44 369h-534l-204 -369h-278l823 1443h293l199 -1443h-255zM823 1177l-329 -604h409l-74 604h-6zM512 -402c-76 0 -137 62 -137 138
s61 138 137 138s136 -62 136 -138s-60 -138 -136 -138z" />
    <glyph glyph-name="Ainvertedbreve" unicode="&#x202;" horiz-adv-x="1356" 
d="M907 1854c263 0 342 -188 318 -314h-157c10 91 -39 177 -168 177c-108 0 -185 -64 -202 -177h-160c19 187 156 315 369 314zM967 0l-44 369h-534l-204 -369h-278l823 1443h293l199 -1443h-255zM823 1177l-329 -604h409l-74 604h-6z" />
    <glyph glyph-name="Acaron" unicode="&#x1cd;" horiz-adv-x="1356" 
d="M813 1552l-209 311h195l123 -191h7l197 191h198l-320 -311h-191zM967 0l-44 369h-534l-204 -369h-278l823 1443h293l199 -1443h-255zM823 1177l-329 -604h409l-74 604h-6z" />
    <glyph glyph-name="Adotaccent" unicode="&#x226;" horiz-adv-x="1356" 
d="M931 1579c-75 0 -136 62 -136 138s61 137 136 137c76 0 137 -61 137 -137s-61 -138 -137 -138zM967 0l-44 369h-534l-204 -369h-278l823 1443h293l199 -1443h-255zM823 1177l-329 -604h409l-74 604h-6z" />
    <glyph glyph-name="Adotbelow" unicode="&#x1ea0;" horiz-adv-x="1356" 
d="M967 0l-44 369h-534l-204 -369h-278l823 1443h293l199 -1443h-255zM823 1177l-329 -604h409l-74 604h-6zM512 -402c-76 0 -137 62 -137 138s61 138 137 138s136 -62 136 -138s-60 -138 -136 -138z" />
    <glyph glyph-name="Ahookabove" unicode="&#x1ea2;" horiz-adv-x="1356" 
d="M748 1761l12 130c31 13 81 26 139 26c113 0 199 -70 199 -172c0 -110 -79 -197 -205 -238l-64 97c71 26 111 66 111 112c0 38 -36 67 -88 67c-37 0 -79 -8 -104 -22zM967 0l-44 369h-534l-204 -369h-278l823 1443h293l199 -1443h-255zM823 1177l-329 -604h409l-74 604h-6
z" />
    <glyph glyph-name="Adblgrave" unicode="&#x200;" horiz-adv-x="1356" 
d="M988 1558l-57 300h212l7 -300h-162zM652 1558l-121 300h227l64 -300h-170zM967 0l-44 369h-534l-204 -369h-278l823 1443h293l199 -1443h-255zM823 1177l-329 -604h409l-74 604h-6z" />
    <glyph glyph-name="Amacron" unicode="&#x100;" horiz-adv-x="1356" 
d="M1255 1787l-30 -148h-621l31 148h620zM967 0l-44 369h-534l-204 -369h-278l823 1443h293l199 -1443h-255zM823 1177l-329 -604h409l-74 604h-6z" />
    <glyph glyph-name="Aogonek" unicode="&#x104;" horiz-adv-x="1356" 
d="M1106 -283l-30 -145c-26 -13 -77 -22 -132 -22c-125 0 -211 66 -211 169c0 100 89 204 234 283l-46 367h-534l-202 -369h-278l821 1443h293l199 -1426l-24 -10c-175 -76 -263 -158 -263 -229c0 -46 36 -73 99 -73c29 0 56 4 74 12zM821 1177l-329 -604h409l-74 604h-6z
" />
    <glyph glyph-name="Aogonek.mini" horiz-adv-x="1356" 
d="M1106 -283l-30 -145c-26 -13 -77 -22 -132 -22c-125 0 -211 66 -211 169c0 100 89 204 234 283l-46 367h-534l-202 -369h-278l821 1443h293l199 -1426l-24 -10c-175 -76 -263 -158 -263 -229c0 -46 36 -73 99 -73c29 0 56 4 74 12zM821 1177l-329 -604h409l-74 604h-6z
" />
    <glyph glyph-name="Aringbelow.mini" horiz-adv-x="1356" 
d="M967 0l-44 369h-534l-204 -369h-278l823 1443h293l199 -1443h-255zM823 1177l-329 -604h409l-74 604h-6zM506 -494c-114 0 -208 93 -208 206c0 114 94 207 208 207c113 0 207 -93 207 -207c0 -113 -94 -206 -207 -206zM506 -384c53 0 98 43 98 96c0 54 -45 97 -98 97
c-54 0 -99 -43 -99 -97c0 -53 45 -96 99 -96z" />
    <glyph glyph-name="A.mini" horiz-adv-x="1278" 
d="M908 0l-47 329h-506l-190 -329h-259l764 1296h273l203 -1296h-238zM758 1055l-305 -540h388l-78 540h-5z" />
    <glyph glyph-name="Adieresismacron.mini" horiz-adv-x="1278" 
d="M546 1778l34 160h719l-34 -160h-719zM644 1415c-77 0 -135 55 -135 129c0 73 58 128 135 128s135 -55 135 -128c0 -74 -58 -129 -135 -129zM1069 1415c-77 0 -135 55 -135 129c0 73 58 128 135 128s135 -55 135 -128c0 -74 -58 -129 -135 -129zM908 0l-47 329h-506
l-190 -329h-259l764 1296h273l203 -1296h-238zM758 1055l-305 -540h388l-78 540h-5z" />
    <glyph glyph-name="Aringacute.mini" horiz-adv-x="1278" 
d="M892 1950h226l-145 -131h-192zM838 1364c-113 0 -201 84 -201 196s88 195 201 195s201 -83 201 -195s-88 -196 -201 -196zM750 1559c0 -50 37 -88 88 -88s88 38 88 88s-37 89 -88 89c-51 -1 -88 -39 -88 -89zM908 0l-47 329h-506l-190 -329h-259l764 1296h273l203 -1296
h-238zM758 1055l-305 -540h388l-78 540h-5z" />
    <glyph glyph-name="Abrevegrave.mini" horiz-adv-x="1278" 
d="M995 1725h-225l-179 225h260zM480 1713h188c7 -91 80 -151 184 -151c106 0 179 57 206 151h188c-35 -182 -183 -302 -399 -302c-221 0 -364 126 -367 302zM908 0l-47 329h-506l-190 -329h-259l764 1296h273l203 -1296h-238zM758 1055l-305 -540h388l-78 540h-5z" />
    <glyph glyph-name="Adotmacron.mini" horiz-adv-x="1278" 
d="M1266 1781h-719l33 157h719zM860 1414c-80 0 -139 57 -139 133s59 132 139 132c79 0 138 -56 138 -132s-59 -133 -138 -133zM908 0l-47 329h-506l-190 -329h-259l764 1296h273l203 -1296h-238zM758 1055l-305 -540h388l-78 540h-5z" />
    <glyph glyph-name="Acircumflexacute.mini" horiz-adv-x="1278" 
d="M1024 1712l259 238h259l-288 -238h-230zM1014 1664l223 -249h-249l-120 142h-17l-186 -142h-268l337 249h280zM908 0l-47 329h-506l-190 -329h-259l764 1296h273l203 -1296h-238zM758 1055l-305 -540h388l-78 540h-5z" />
    <glyph glyph-name="Acircumflextilde.mini" horiz-adv-x="1278" 
d="M1054 1707c-124 0 -183 99 -265 99c-46 0 -75 -25 -91 -82h-166c24 155 128 233 250 233c124 0 183 -99 264 -99c47 0 75 25 92 85h166c-25 -158 -128 -236 -250 -236zM1017 1657l220 -242h-249l-120 142h-17l-186 -142h-268l334 242h286zM908 0l-47 329h-506l-190 -329
h-259l764 1296h273l203 -1296h-238zM758 1055l-305 -540h388l-78 540h-5z" />
    <glyph glyph-name="Acircumflexgrave.mini" horiz-adv-x="1278" 
d="M1322 1712h-231l-176 238h259zM1014 1664l223 -249h-249l-120 142h-17l-186 -142h-268l337 249h280zM908 0l-47 329h-506l-190 -329h-259l764 1296h273l203 -1296h-238zM758 1055l-305 -540h388l-78 540h-5z" />
    <glyph glyph-name="Acircumflexhookabove.mini" horiz-adv-x="1278" 
d="M1062 1803l30 131c31 9 72 16 106 16c134 0 227 -69 227 -174c0 -109 -79 -206 -204 -249l-82 104c67 21 117 65 117 117c0 43 -33 68 -98 68c-33 0 -69 -5 -96 -13zM1014 1664l223 -249h-249l-120 142h-17l-186 -142h-268l337 249h280zM908 0l-47 329h-506l-190 -329
h-259l764 1296h273l203 -1296h-238zM758 1055l-305 -540h388l-78 540h-5z" />
    <glyph glyph-name="Abreveacute.mini" horiz-adv-x="1278" 
d="M729 1725l254 225h260l-289 -225h-225zM480 1713h188c7 -91 80 -151 184 -151c106 0 179 57 206 151h188c-35 -182 -183 -302 -399 -302c-221 0 -364 126 -367 302zM908 0l-47 329h-506l-190 -329h-259l764 1296h273l203 -1296h-238zM758 1055l-305 -540h388l-78 540h-5z
" />
    <glyph glyph-name="Abrevehookabove.mini" horiz-adv-x="1278" 
d="M714 1884l26 116c28 9 67 15 100 15c127 0 211 -64 211 -157c0 -96 -84 -185 -217 -217l-50 98c73 14 114 50 114 97c0 37 -34 59 -96 59c-30 0 -62 -5 -88 -11zM480 1713h187c6 -94 82 -154 187 -154c104 0 181 57 205 154h187c-35 -182 -183 -302 -399 -302
c-221 0 -364 126 -367 302zM908 0l-47 329h-506l-190 -329h-259l764 1296h273l203 -1296h-238zM758 1055l-305 -540h388l-78 540h-5z" />
    <glyph glyph-name="Abrevetilde.mini" horiz-adv-x="1278" 
d="M997 1707c-125 0 -184 99 -265 99c-48 0 -75 -26 -91 -78h-167c25 150 127 229 250 229c125 0 184 -99 265 -99c49 0 75 27 91 85h167c-25 -155 -126 -236 -250 -236zM454 1664h188c7 -54 80 -108 184 -108c108 0 184 43 205 108h189c-32 -143 -189 -253 -400 -253
c-215 0 -363 135 -366 253zM908 0l-47 329h-506l-190 -329h-259l764 1296h273l203 -1296h-238zM758 1055l-305 -540h388l-78 540h-5z" />
    <glyph glyph-name="B" unicode="B" horiz-adv-x="1328" 
d="M677 0h-660l307 1443h561c249 0 407 -128 407 -314s-136 -330 -322 -374l-1 -6c157 -28 254 -145 254 -290c0 -268 -223 -459 -546 -459zM540 1248l-87 -404h260c189 0 317 97 317 234c0 111 -83 170 -239 170h-251zM317 205h322c191 0 319 106 319 253
c0 126 -87 193 -258 193h-287z" />
    <glyph glyph-name="Blinebelow" unicode="&#x1e06;" horiz-adv-x="1328" 
d="M677 0h-660l307 1443h561c249 0 407 -128 407 -314s-136 -330 -322 -374l-1 -6c157 -28 254 -145 254 -290c0 -268 -223 -459 -546 -459zM540 1248l-87 -404h260c189 0 317 97 317 234c0 111 -83 170 -239 170h-251zM317 205h322c191 0 319 106 319 253
c0 126 -87 193 -258 193h-287zM790 -190l-31 -148h-620l31 148h620z" />
    <glyph glyph-name="Bdotbelow" unicode="&#x1e04;" horiz-adv-x="1328" 
d="M677 0h-660l307 1443h561c249 0 407 -128 407 -314s-136 -330 -322 -374l-1 -6c157 -28 254 -145 254 -290c0 -268 -223 -459 -546 -459zM540 1248l-87 -404h260c189 0 317 97 317 234c0 111 -83 170 -239 170h-251zM317 205h322c191 0 319 106 319 253
c0 126 -87 193 -258 193h-287zM465 -402c-76 0 -137 62 -137 138s61 138 137 138s136 -62 136 -138s-60 -138 -136 -138z" />
    <glyph glyph-name="Bdotaccent" unicode="&#x1e02;" horiz-adv-x="1328" 
d="M827 1579c-75 0 -136 62 -136 138s61 137 136 137c76 0 136 -61 136 -137s-60 -138 -136 -138zM677 0h-660l307 1443h561c249 0 407 -128 407 -314s-136 -330 -322 -374l-1 -6c157 -28 254 -145 254 -290c0 -268 -223 -459 -546 -459zM540 1248l-87 -404h260
c189 0 317 97 317 234c0 111 -83 170 -239 170h-251zM317 205h322c191 0 319 106 319 253c0 126 -87 193 -258 193h-287z" />
    <glyph glyph-name="C" unicode="C" horiz-adv-x="1446" 
d="M1204 937c1 6 0 14 -1 30c-13 167 -149 273 -328 273c-291 0 -492 -265 -492 -631c0 -251 134 -405 353 -405c176 0 319 99 379 262h255c-70 -296 -325 -490 -645 -490c-370 0 -607 242 -607 620c0 507 316 871 773 871c323 0 556 -195 569 -490c1 -18 0 -29 -1 -40h-255
z" />
    <glyph glyph-name="Cacute" unicode="&#x106;" horiz-adv-x="1446" 
d="M1004 1560h-179l204 300h234zM1204 937c1 6 0 14 -1 30c-13 167 -149 273 -328 273c-291 0 -492 -265 -492 -631c0 -251 134 -405 353 -405c176 0 319 99 379 262h255c-70 -296 -325 -490 -645 -490c-370 0 -607 242 -607 620c0 507 316 871 773 871
c323 0 556 -195 569 -490c1 -18 0 -29 -1 -40h-255z" />
    <glyph glyph-name="Ccaron" unicode="&#x10c;" horiz-adv-x="1446" 
d="M827 1553l-209 311h196l123 -190h7l197 190h198l-320 -311h-192zM1204 937c1 6 0 14 -1 30c-13 167 -149 273 -328 273c-291 0 -492 -265 -492 -631c0 -251 134 -405 353 -405c176 0 319 99 379 262h255c-70 -296 -325 -490 -645 -490c-370 0 -607 242 -607 620
c0 507 316 871 773 871c323 0 556 -195 569 -490c1 -18 0 -29 -1 -40h-255z" />
    <glyph glyph-name="Ccircumflex" unicode="&#x108;" horiz-adv-x="1446" 
d="M1065 1864l209 -311h-196l-123 191h-7l-197 -191h-198l320 311h192zM1204 937c1 6 0 14 -1 30c-13 167 -149 273 -328 273c-291 0 -492 -265 -492 -631c0 -251 134 -405 353 -405c176 0 319 99 379 262h255c-70 -296 -325 -490 -645 -490c-370 0 -607 242 -607 620
c0 507 316 871 773 871c323 0 556 -195 569 -490c1 -18 0 -29 -1 -40h-255z" />
    <glyph glyph-name="Cdotaccent" unicode="&#x10a;" horiz-adv-x="1446" 
d="M946 1580c-76 0 -136 63 -136 138c0 76 60 138 136 138s136 -62 136 -138c0 -75 -60 -138 -136 -138zM1204 937c1 6 0 14 -1 30c-13 167 -149 273 -328 273c-291 0 -492 -265 -492 -631c0 -251 134 -405 353 -405c176 0 319 99 379 262h255c-70 -296 -325 -490 -645 -490
c-370 0 -607 242 -607 620c0 507 316 871 773 871c323 0 556 -195 569 -490c1 -18 0 -29 -1 -40h-255z" />
    <glyph glyph-name="Ccedilla" unicode="&#xc7;" horiz-adv-x="1446" 
d="M470 -435l26 118c26 -8 60 -15 102 -15c51 0 110 12 110 52s-46 57 -115 57h-51l20 99l73 105c-318 37 -517 269 -517 615c0 507 316 871 773 871c323 0 556 -195 569 -490c1 -18 0 -29 -1 -40h-255c1 6 0 14 -1 30c-13 167 -149 273 -328 273
c-291 0 -492 -265 -492 -631c0 -251 134 -405 353 -405c176 0 319 99 379 262h255c-65 -275 -290 -462 -579 -487l-67 -98c75 -4 154 -52 154 -156c0 -121 -111 -181 -260 -181c-55 0 -106 8 -148 21z" />
    <glyph glyph-name="Ccedillaacute" unicode="&#x1e08;" horiz-adv-x="1446" 
d="M1004 1560h-179l204 300h234zM470 -435l26 118c26 -8 60 -15 102 -15c51 0 110 12 110 52s-46 57 -115 57h-51l20 99l73 105c-318 37 -517 269 -517 615c0 507 316 871 773 871c323 0 556 -195 569 -490c1 -18 0 -29 -1 -40h-255c1 6 0 14 -1 30
c-13 167 -149 273 -328 273c-291 0 -492 -265 -492 -631c0 -251 134 -405 353 -405c176 0 319 99 379 262h255c-65 -275 -290 -462 -579 -487l-67 -98c75 -4 154 -52 154 -156c0 -121 -111 -181 -260 -181c-55 0 -106 8 -148 21z" />
    <glyph glyph-name="Ccedilla.mini" horiz-adv-x="1446" 
d="M467 -409l27 117c26 -8 60 -15 102 -15c51 0 109 12 109 53c0 39 -45 57 -115 57h-51l21 99l60 81c-310 42 -502 273 -502 613c0 507 316 871 773 871c323 0 556 -195 569 -490c1 -18 0 -29 -1 -40h-255c1 6 0 14 -1 30c-13 167 -149 273 -328 273
c-291 0 -492 -265 -492 -631c0 -251 134 -405 353 -405c176 0 319 99 379 262h255c-66 -281 -299 -469 -595 -488l-54 -74c79 -6 153 -54 153 -154c0 -121 -110 -181 -258 -181c-56 0 -107 8 -149 22z" />
    <glyph glyph-name="Ccedillaacute.mini" horiz-adv-x="1446" 
d="M1004 1560h-179l204 300h234zM467 -409l27 117c26 -8 60 -15 102 -15c51 0 109 12 109 53c0 39 -45 57 -115 57h-51l21 99l60 81c-310 42 -502 273 -502 613c0 507 316 871 773 871c323 0 556 -195 569 -490c1 -18 0 -29 -1 -40h-255c1 6 0 14 -1 30
c-13 167 -149 273 -328 273c-291 0 -492 -265 -492 -631c0 -251 134 -405 353 -405c176 0 319 99 379 262h255c-66 -281 -299 -469 -595 -488l-54 -74c79 -6 153 -54 153 -154c0 -121 -110 -181 -258 -181c-56 0 -107 8 -149 22z" />
    <glyph glyph-name="D" unicode="D" horiz-adv-x="1438" 
d="M324 1443h477c368 0 600 -213 600 -575c0 -511 -313 -868 -772 -868h-611zM539 1222l-214 -1000h275c312 0 535 248 535 613c0 249 -134 387 -387 387h-209z" />
    <glyph glyph-name="Ddotaccent" unicode="&#x1e0a;" horiz-adv-x="1438" 
d="M821 1579c-75 0 -136 62 -136 138s61 137 136 137c76 0 137 -61 137 -137s-61 -138 -137 -138zM324 1443h477c368 0 600 -213 600 -575c0 -511 -313 -868 -772 -868h-611zM539 1222l-214 -1000h275c312 0 535 248 535 613c0 249 -134 387 -387 387h-209z" />
    <glyph glyph-name="Dcircumflexbelow" unicode="&#x1e12;" horiz-adv-x="1438" 
d="M324 1443h477c368 0 600 -213 600 -575c0 -511 -313 -868 -772 -868h-611zM539 1222l-214 -1000h275c312 0 535 248 535 613c0 249 -134 387 -387 387h-209zM594 -131l209 -311h-195l-123 191h-7l-197 -191h-198l320 311h191z" />
    <glyph glyph-name="Dcommaaccent" unicode="&#x1e10;" horiz-adv-x="1438" 
d="M324 1443h477c368 0 600 -213 600 -575c0 -511 -313 -868 -772 -868h-611zM539 1222l-214 -1000h275c312 0 535 248 535 613c0 249 -134 387 -387 387h-209zM441 -478h-179l157 347h216z" />
    <glyph glyph-name="Dlinebelow" unicode="&#x1e0e;" horiz-adv-x="1438" 
d="M324 1443h477c368 0 600 -213 600 -575c0 -511 -313 -868 -772 -868h-611zM539 1222l-214 -1000h275c312 0 535 248 535 613c0 249 -134 387 -387 387h-209zM804 -190l-31 -148h-620l31 148h620z" />
    <glyph glyph-name="Dcaron" unicode="&#x10e;" horiz-adv-x="1438" 
d="M703 1552l-209 311h195l123 -191h7l197 191h198l-320 -311h-191zM324 1443h477c368 0 600 -213 600 -575c0 -511 -313 -868 -772 -868h-611zM539 1222l-214 -1000h275c312 0 535 248 535 613c0 249 -134 387 -387 387h-209z" />
    <glyph glyph-name="Ddotbelow" unicode="&#x1e0c;" horiz-adv-x="1438" 
d="M324 1443h477c368 0 600 -213 600 -575c0 -511 -313 -868 -772 -868h-611zM539 1222l-214 -1000h275c312 0 535 248 535 613c0 249 -134 387 -387 387h-209zM479 -402c-75 0 -136 62 -136 138s61 138 136 138c76 0 136 -62 136 -138s-60 -138 -136 -138z" />
    <glyph glyph-name="Dcroat" unicode="&#x110;" horiz-adv-x="1438" 
d="M26 634l43 204h127l128 605h477c368 0 600 -213 600 -575c0 -511 -313 -868 -772 -868h-611l135 634h-127zM539 1222l-82 -384h286l-43 -204h-287l-88 -412h275c312 0 535 248 535 613c0 249 -134 387 -387 387h-209z" />
    <glyph glyph-name="Dcommaaccent.mini" horiz-adv-x="1438" 
d="M324 1443h477c368 0 600 -213 600 -575c0 -511 -313 -868 -772 -868h-611zM539 1222l-214 -1000h275c312 0 535 248 535 613c0 249 -134 387 -387 387h-209zM466 -432h-183l132 291h215z" />
    <glyph glyph-name="E" unicode="E" horiz-adv-x="1158" 
d="M997 223l-45 -223h-935l307 1443h934l-46 -223h-674l-83 -383h637l-44 -210h-637l-87 -404h673z" />
    <glyph glyph-name="Egrave" unicode="&#xc8;" horiz-adv-x="1158" 
d="M715 1558l-132 300h235l76 -300h-179zM997 223l-45 -223h-935l307 1443h934l-46 -223h-674l-83 -383h637l-44 -210h-637l-87 -404h673z" />
    <glyph glyph-name="Edblgrave" unicode="&#x204;" horiz-adv-x="1158" 
d="M898 1558l-57 300h211l8 -300h-162zM562 1558l-122 300h227l64 -300h-169zM997 223l-45 -223h-935l307 1443h934l-46 -223h-674l-83 -383h637l-44 -210h-637l-87 -404h673z" />
    <glyph glyph-name="Eacute" unicode="&#xc9;" horiz-adv-x="1158" 
d="M898 1558h-178l203 300h235zM997 223l-45 -223h-935l307 1443h934l-46 -223h-674l-83 -383h637l-44 -210h-637l-87 -404h673z" />
    <glyph glyph-name="Ecircumflex" unicode="&#xca;" horiz-adv-x="1158" 
d="M959 1863l209 -311h-195l-123 190h-7l-197 -190h-198l320 311h191zM997 223l-45 -223h-935l307 1443h934l-46 -223h-674l-83 -383h637l-44 -210h-637l-87 -404h673z" />
    <glyph glyph-name="Ecircumflexhookabove" unicode="&#x1ec2;" horiz-adv-x="1158" 
d="M979 1975l27 116c25 11 73 18 110 18c122 0 199 -60 199 -153c0 -101 -75 -182 -190 -221l-67 93c58 16 100 52 100 97c0 38 -36 63 -91 63c-30 0 -60 -4 -88 -13zM753 1813h202l215 -274h-196l-127 167h-7l-199 -167h-220zM997 223l-45 -223h-935l307 1443h934l-46 -223
h-674l-83 -383h637l-44 -210h-637l-87 -404h673z" />
    <glyph glyph-name="Ecircumflexgrave" unicode="&#x1ec0;" horiz-adv-x="1158" 
d="M1221 1863h-177l-156 239h205zM753 1813h202l215 -274h-196l-127 167h-7l-199 -167h-220zM997 223l-45 -223h-935l307 1443h934l-46 -223h-674l-83 -383h637l-44 -210h-637l-87 -404h673z" />
    <glyph glyph-name="Ecircumflextilde" unicode="&#x1ec4;" horiz-adv-x="1158" 
d="M1015 1861c-135 0 -170 124 -248 124c-44 0 -82 -37 -93 -106h-143c28 156 124 244 247 244c133 0 167 -123 247 -123c43 0 78 35 93 108h143c-27 -154 -127 -247 -246 -247zM752 1807h202l216 -268h-196l-129 162h-6l-198 -162h-220zM997 223l-45 -223h-935l307 1443
h934l-46 -223h-674l-83 -383h637l-44 -210h-637l-87 -404h673z" />
    <glyph glyph-name="Ecircumflexdotbelow" unicode="&#x1ec6;" horiz-adv-x="1158" 
d="M959 1863l209 -311h-195l-123 190h-7l-197 -190h-198l320 311h191zM997 223l-45 -223h-935l307 1443h934l-46 -223h-674l-83 -383h637l-44 -210h-637l-87 -404h673zM450 -402c-75 0 -136 62 -136 138s61 138 136 138c76 0 137 -62 137 -138s-61 -138 -137 -138z" />
    <glyph glyph-name="Ecircumflexacute" unicode="&#x1ebe;" horiz-adv-x="1158" 
d="M999 1863l229 239h229l-257 -239h-201zM753 1813h202l215 -274h-196l-127 167h-7l-199 -167h-220zM997 223l-45 -223h-935l307 1443h934l-46 -223h-674l-83 -383h637l-44 -210h-637l-87 -404h673z" />
    <glyph glyph-name="Edieresis" unicode="&#xcb;" horiz-adv-x="1158" 
d="M639 1584c-73 0 -131 60 -131 132c0 74 58 133 131 133c74 0 132 -59 132 -133c0 -72 -58 -132 -132 -132zM1042 1584c-73 0 -132 60 -132 132c0 74 59 133 132 133c74 0 132 -59 132 -133c0 -72 -58 -132 -132 -132zM997 223l-45 -223h-935l307 1443h934l-46 -223h-674
l-83 -383h637l-44 -210h-637l-87 -404h673z" />
    <glyph glyph-name="Edotbelow" unicode="&#x1eb8;" horiz-adv-x="1158" 
d="M997 223l-45 -223h-935l307 1443h934l-46 -223h-674l-83 -383h637l-44 -210h-637l-87 -404h673zM450 -402c-75 0 -136 62 -136 138s61 138 136 138c76 0 137 -62 137 -138s-61 -138 -137 -138z" />
    <glyph glyph-name="Einvertedbreve" unicode="&#x206;" horiz-adv-x="1158" 
d="M817 1854c263 0 342 -188 317 -314h-156c10 91 -40 177 -168 177c-108 0 -185 -64 -203 -177h-160c20 187 157 315 370 314zM997 223l-45 -223h-935l307 1443h934l-46 -223h-674l-83 -383h637l-44 -210h-637l-87 -404h673z" />
    <glyph glyph-name="Ehookabove" unicode="&#x1eba;" horiz-adv-x="1158" 
d="M657 1761l13 130c31 13 80 26 139 26c112 0 198 -70 198 -172c0 -110 -78 -197 -205 -238l-63 97c71 26 110 66 110 112c0 38 -36 67 -87 67c-37 0 -79 -8 -105 -22zM997 223l-45 -223h-935l307 1443h934l-46 -223h-674l-83 -383h637l-44 -210h-637l-87 -404h673z" />
    <glyph glyph-name="Ecaron" unicode="&#x11a;" horiz-adv-x="1158" 
d="M722 1552l-209 311h196l123 -191h6l197 191h199l-321 -311h-191zM997 223l-45 -223h-935l307 1443h934l-46 -223h-674l-83 -383h637l-44 -210h-637l-87 -404h673z" />
    <glyph glyph-name="Emacron" unicode="&#x112;" horiz-adv-x="1158" 
d="M1165 1787l-31 -148h-620l31 148h620zM997 223l-45 -223h-935l307 1443h934l-46 -223h-674l-83 -383h637l-44 -210h-637l-87 -404h673z" />
    <glyph glyph-name="Emacrongrave" unicode="&#x1e14;" horiz-adv-x="1158" 
d="M963 1863h-177l-157 239h205zM1151 1597h-670l29 138h670zM997 223l-45 -223h-935l307 1443h934l-46 -223h-674l-83 -383h637l-44 -210h-637l-87 -404h673z" />
    <glyph glyph-name="Emacronacute" unicode="&#x1e16;" horiz-adv-x="1158" 
d="M773 1863l229 239h229l-257 -239h-201zM1151 1597h-670l29 138h670zM997 223l-45 -223h-935l307 1443h934l-46 -223h-674l-83 -383h637l-44 -210h-637l-87 -404h673z" />
    <glyph glyph-name="Etilde" unicode="&#x1ebc;" horiz-adv-x="1158" 
d="M489 1598c24 141 104 245 229 245c140 0 176 -134 247 -134c37 0 63 33 79 102h151c-24 -141 -103 -247 -230 -247c-139 0 -174 135 -245 135c-39 0 -64 -32 -79 -101h-152zM997 223l-45 -223h-935l307 1443h934l-46 -223h-674l-83 -383h637l-44 -210h-637l-87 -404h673z
" />
    <glyph glyph-name="Ecircumflexbelow" unicode="&#x1e18;" horiz-adv-x="1158" 
d="M997 223l-45 -223h-935l307 1443h934l-46 -223h-674l-83 -383h637l-44 -210h-637l-87 -404h673zM575 -131l197 -309h-193l-110 182h-6l-181 -182h-201l302 309h192z" />
    <glyph glyph-name="Ebreve" unicode="&#x114;" horiz-adv-x="1158" 
d="M830 1540c-263 0 -342 188 -318 314h157c-10 -91 39 -176 168 -176c107 0 185 64 202 176h160c-20 -187 -156 -314 -369 -314zM997 223l-45 -223h-935l307 1443h934l-46 -223h-674l-83 -383h637l-44 -210h-637l-87 -404h673z" />
    <glyph glyph-name="Etildebelow" unicode="&#x1e1a;" horiz-adv-x="1158" 
d="M997 223l-45 -223h-935l307 1443h934l-46 -223h-674l-83 -383h637l-44 -210h-637l-87 -404h673zM101 -370c24 141 104 245 229 245c140 0 176 -135 247 -135c37 0 63 34 79 103h151c-24 -141 -103 -247 -230 -247c-139 0 -174 135 -245 135c-39 0 -64 -32 -79 -101h-152z
" />
    <glyph glyph-name="Edotaccent" unicode="&#x116;" horiz-adv-x="1158" 
d="M841 1579c-76 0 -137 62 -137 138s61 137 137 137s136 -61 136 -137s-60 -138 -136 -138zM997 223l-45 -223h-935l307 1443h934l-46 -223h-674l-83 -383h637l-44 -210h-637l-87 -404h673z" />
    <glyph glyph-name="Ecedilla" unicode="&#x228;" horiz-adv-x="1158" 
d="M262 -435l27 118c26 -8 60 -15 102 -15c51 0 109 12 109 52s-45 57 -115 57h-51l21 99l85 124h-423l307 1443h934l-46 -223h-674l-83 -383h637l-44 -210h-637l-87 -404h673l-45 -223h-354l-82 -119c75 -4 155 -52 155 -156c0 -121 -111 -181 -260 -181
c-56 0 -107 8 -149 21z" />
    <glyph glyph-name="Ecedillabreve" unicode="&#x1e1c;" horiz-adv-x="1158" 
d="M830 1540c-263 0 -342 188 -318 314h157c-10 -91 39 -176 168 -176c107 0 185 64 202 176h160c-20 -187 -156 -314 -369 -314zM262 -435l27 118c26 -8 60 -15 102 -15c51 0 109 12 109 52s-45 57 -115 57h-51l21 99l85 124h-423l307 1443h934l-46 -223h-674l-83 -383h637
l-44 -210h-637l-87 -404h673l-45 -223h-354l-82 -119c75 -4 155 -52 155 -156c0 -121 -111 -181 -260 -181c-56 0 -107 8 -149 21z" />
    <glyph glyph-name="Eogonek" unicode="&#x118;" horiz-adv-x="1158" 
d="M17 0l307 1443h934l-46 -223h-674l-84 -383h638l-44 -210h-637l-88 -404h674l-43 -214l-29 -12c-144 -70 -227 -151 -227 -219c0 -46 36 -73 98 -73c28 0 56 4 74 12l-30 -145c-26 -13 -77 -22 -132 -22c-127 0 -211 67 -211 169c0 99 84 204 223 277v4h-703z" />
    <glyph glyph-name="Eogonek.mini" horiz-adv-x="1158" 
d="M17 0l307 1443h934l-46 -223h-674l-84 -383h638l-44 -210h-637l-88 -404h674l-43 -214l-29 -12c-144 -70 -227 -151 -227 -219c0 -46 36 -73 98 -73c28 0 56 4 74 12l-30 -145c-26 -13 -77 -22 -132 -22c-127 0 -211 67 -211 169c0 99 84 204 223 277v4h-703z" />
    <glyph glyph-name="Ecedillabreve.mini" horiz-adv-x="1158" 
d="M830 1540c-263 0 -342 188 -318 314h157c-10 -91 39 -176 168 -176c107 0 185 64 202 176h160c-20 -187 -156 -314 -369 -314zM260 -409l27 117c26 -8 59 -15 102 -15c51 0 109 12 109 53c0 39 -45 57 -115 57h-51l21 99l71 98h-407l307 1443h934l-46 -223h-674l-83 -383
h637l-44 -210h-637l-87 -404h673l-45 -223h-369l-69 -96c78 -6 152 -54 152 -154c0 -121 -109 -181 -258 -181c-55 0 -106 8 -148 22z" />
    <glyph glyph-name="Ecedilla.mini" horiz-adv-x="1158" 
d="M260 -409l27 117c26 -8 59 -15 102 -15c51 0 109 12 109 53c0 39 -45 57 -115 57h-51l21 99l71 98h-407l307 1443h934l-46 -223h-674l-83 -383h637l-44 -210h-637l-87 -404h673l-45 -223h-369l-69 -96c78 -6 152 -54 152 -154c0 -121 -109 -181 -258 -181
c-55 0 -106 8 -148 22z" />
    <glyph glyph-name="E.mini" horiz-adv-x="1092" 
d="M933 203l-41 -203h-882l276 1296h881l-42 -203h-638l-74 -340h603l-40 -192h-603l-77 -358h637z" />
    <glyph glyph-name="Emacronacute.mini" horiz-adv-x="1092" 
d="M688 1725l256 225h260l-284 -225h-232zM1112 1451h-720l34 157h719zM933 203l-41 -203h-882l276 1296h881l-42 -203h-638l-74 -340h603l-40 -192h-603l-77 -358h637z" />
    <glyph glyph-name="Ecircumflexhookabove.mini" horiz-adv-x="1092" 
d="M978 1803l29 131c31 9 72 16 106 16c134 0 227 -69 227 -174c0 -109 -78 -206 -204 -249l-82 104c67 21 117 65 117 117c0 43 -33 68 -98 68c-33 0 -69 -5 -95 -13zM929 1664l223 -249h-248l-121 142h-17l-185 -142h-268l337 249h279zM933 203l-41 -203h-882l276 1296
h881l-42 -203h-638l-74 -340h603l-40 -192h-603l-77 -358h637z" />
    <glyph glyph-name="Emacrongrave.mini" horiz-adv-x="1092" 
d="M936 1725h-232l-179 225h260zM1112 1451h-720l34 157h719zM933 203l-41 -203h-882l276 1296h881l-42 -203h-638l-74 -340h603l-40 -192h-603l-77 -358h637z" />
    <glyph glyph-name="Ecircumflexacute.mini" horiz-adv-x="1092" 
d="M939 1712l259 238h259l-287 -238h-231zM929 1664l223 -249h-248l-121 142h-17l-185 -142h-268l337 249h279zM933 203l-41 -203h-882l276 1296h881l-42 -203h-638l-74 -340h603l-40 -192h-603l-77 -358h637z" />
    <glyph glyph-name="Ecircumflexgrave.mini" horiz-adv-x="1092" 
d="M1237 1712h-230l-177 238h259zM929 1664l223 -249h-248l-121 142h-17l-185 -142h-268l337 249h279zM933 203l-41 -203h-882l276 1296h881l-42 -203h-638l-74 -340h603l-40 -192h-603l-77 -358h637z" />
    <glyph glyph-name="Ecircumflextilde.mini" horiz-adv-x="1092" 
d="M969 1707c-124 0 -183 99 -264 99c-47 0 -75 -25 -91 -82h-167c25 155 128 233 250 233c125 0 184 -99 265 -99c47 0 75 25 91 85h166c-24 -158 -127 -236 -250 -236zM932 1657l220 -242h-248l-121 142h-17l-185 -142h-268l333 242h286zM933 203l-41 -203h-882l276 1296
h881l-42 -203h-638l-74 -340h603l-40 -192h-603l-77 -358h637z" />
    <glyph glyph-name="F" unicode="F" horiz-adv-x="1111" 
d="M283 0h-266l307 1443h921l-47 -223h-654l-91 -420h598l-45 -215h-598z" />
    <glyph glyph-name="Fdotaccent" unicode="&#x1e1e;" horiz-adv-x="1111" 
d="M843 1579c-76 0 -137 62 -137 138s61 137 137 137s136 -61 136 -137s-60 -138 -136 -138zM283 0h-266l307 1443h921l-47 -223h-654l-91 -420h598l-45 -215h-598z" />
    <glyph glyph-name="G" unicode="G" horiz-adv-x="1481" 
d="M1445 755l-41 -198c-73 -372 -325 -581 -676 -581c-379 0 -611 254 -611 625c0 431 263 866 767 866c348 0 574 -213 579 -487v-20h-254c-11 169 -136 282 -329 282c-343 0 -499 -323 -499 -631c0 -246 128 -411 363 -411c200 0 358 128 399 318l7 36h-347l42 201h600z
" />
    <glyph glyph-name="Gacute" unicode="&#x1f4;" horiz-adv-x="1481" 
d="M998 1558h-179l204 300h235zM1445 755l-41 -198c-73 -372 -325 -581 -676 -581c-379 0 -611 254 -611 625c0 431 263 866 767 866c348 0 574 -213 579 -487v-20h-254c-11 169 -136 282 -329 282c-343 0 -499 -323 -499 -631c0 -246 128 -411 363 -411
c200 0 358 128 399 318l7 36h-347l42 201h600z" />
    <glyph glyph-name="Gcaron" unicode="&#x1e6;" horiz-adv-x="1481" 
d="M822 1552l-209 311h196l123 -191h6l197 191h198l-320 -311h-191zM1445 755l-41 -198c-73 -372 -325 -581 -676 -581c-379 0 -611 254 -611 625c0 431 263 866 767 866c348 0 574 -213 579 -487v-20h-254c-11 169 -136 282 -329 282c-343 0 -499 -323 -499 -631
c0 -246 128 -411 363 -411c200 0 358 128 399 318l7 36h-347l42 201h600z" />
    <glyph glyph-name="Gcircumflex" unicode="&#x11c;" horiz-adv-x="1481" 
d="M1059 1863l209 -311h-195l-123 190h-7l-197 -190h-198l320 311h191zM1445 755l-41 -198c-73 -372 -325 -581 -676 -581c-379 0 -611 254 -611 625c0 431 263 866 767 866c348 0 574 -213 579 -487v-20h-254c-11 169 -136 282 -329 282c-343 0 -499 -323 -499 -631
c0 -246 128 -411 363 -411c200 0 358 128 399 318l7 36h-347l42 201h600z" />
    <glyph glyph-name="Gbreve" unicode="&#x11e;" horiz-adv-x="1481" 
d="M929 1540c-263 0 -342 188 -317 314h157c-11 -91 39 -176 167 -176c108 0 185 64 203 176h160c-20 -187 -157 -314 -370 -314zM1445 755l-41 -198c-73 -372 -325 -581 -676 -581c-379 0 -611 254 -611 625c0 431 263 866 767 866c348 0 574 -213 579 -487v-20h-254
c-11 169 -136 282 -329 282c-343 0 -499 -323 -499 -631c0 -246 128 -411 363 -411c200 0 358 128 399 318l7 36h-347l42 201h600z" />
    <glyph glyph-name="Gmacron" unicode="&#x1e20;" horiz-adv-x="1481" 
d="M1265 1787l-31 -148h-620l31 148h620zM1445 755l-41 -198c-73 -372 -325 -581 -676 -581c-379 0 -611 254 -611 625c0 431 263 866 767 866c348 0 574 -213 579 -487v-20h-254c-11 169 -136 282 -329 282c-343 0 -499 -323 -499 -631c0 -246 128 -411 363 -411
c200 0 358 128 399 318l7 36h-347l42 201h600z" />
    <glyph glyph-name="Gdotaccent" unicode="&#x120;" horiz-adv-x="1481" 
d="M940 1579c-75 0 -136 62 -136 138s61 137 136 137c77 0 137 -61 137 -137s-60 -138 -137 -138zM1445 755l-41 -198c-73 -372 -325 -581 -676 -581c-379 0 -611 254 -611 625c0 431 263 866 767 866c348 0 574 -213 579 -487v-20h-254c-11 169 -136 282 -329 282
c-343 0 -499 -323 -499 -631c0 -246 128 -411 363 -411c200 0 358 128 399 318l7 36h-347l42 201h600z" />
    <glyph glyph-name="Gcommaaccent" unicode="&#x122;" horiz-adv-x="1481" 
d="M1445 755l-41 -198c-73 -372 -325 -581 -676 -581c-379 0 -611 254 -611 625c0 431 263 866 767 866c348 0 574 -213 579 -487v-20h-254c-11 169 -136 282 -329 282c-343 0 -499 -323 -499 -631c0 -246 128 -411 363 -411c200 0 358 128 399 318l7 36h-347l42 201h600z
M639 -478h-179l157 347h216z" />
    <glyph glyph-name="Gcommaaccent.mini" horiz-adv-x="1481" 
d="M1445 755l-41 -198c-73 -372 -325 -581 -676 -581c-379 0 -611 254 -611 625c0 431 263 866 767 866c348 0 574 -213 579 -487v-20h-254c-11 169 -136 282 -329 282c-343 0 -499 -323 -499 -631c0 -246 128 -411 363 -411c200 0 358 128 399 318l7 36h-347l42 201h600z
M664 -432h-183l132 291h215z" />
    <glyph glyph-name="H" unicode="H" horiz-adv-x="1479" 
d="M1237 0h-264l134 624h-693l-134 -624h-263l307 1443h263l-128 -598h693l128 598h264z" />
    <glyph glyph-name="Hdieresis" unicode="&#x1e26;" horiz-adv-x="1479" 
d="M785 1584c-73 0 -132 60 -132 132c0 74 59 133 132 133s132 -59 132 -133c0 -72 -59 -132 -132 -132zM1188 1584c-73 0 -132 60 -132 132c0 74 59 133 132 133s131 -59 131 -133c0 -72 -58 -132 -131 -132zM1237 0h-264l134 624h-693l-134 -624h-263l307 1443h263
l-128 -598h693l128 598h264z" />
    <glyph glyph-name="Hcaron" unicode="&#x21e;" horiz-adv-x="1479" 
d="M868 1552l-209 311h195l123 -191h7l197 191h198l-320 -311h-191zM1237 0h-264l134 624h-693l-134 -624h-263l307 1443h263l-128 -598h693l128 598h264z" />
    <glyph glyph-name="Hcircumflex" unicode="&#x124;" horiz-adv-x="1479" 
d="M1105 1863l209 -311h-196l-123 190h-6l-197 -190h-198l320 311h191zM1237 0h-264l134 624h-693l-134 -624h-263l307 1443h263l-128 -598h693l128 598h264z" />
    <glyph glyph-name="Hdotbelow" unicode="&#x1e24;" horiz-adv-x="1479" 
d="M1237 0h-264l134 624h-693l-134 -624h-263l307 1443h263l-128 -598h693l128 598h264zM590 -402c-76 0 -136 62 -136 138s60 138 136 138s136 -62 136 -138s-60 -138 -136 -138z" />
    <glyph glyph-name="Hdotaccent" unicode="&#x1e22;" horiz-adv-x="1479" 
d="M986 1579c-75 0 -136 62 -136 138s61 137 136 137c77 0 137 -61 137 -137s-60 -138 -137 -138zM1237 0h-264l134 624h-693l-134 -624h-263l307 1443h263l-128 -598h693l128 598h264z" />
    <glyph glyph-name="Hbrevebelow" unicode="&#x1e2a;" horiz-adv-x="1479" 
d="M1237 0h-264l134 624h-693l-134 -624h-263l307 1443h263l-128 -598h693l128 598h264zM582 -423c-258 0 -336 190 -311 318h159c-10 -95 37 -178 159 -178c104 0 177 62 194 178h162c-19 -190 -153 -319 -363 -318z" />
    <glyph glyph-name="Hcedilla" unicode="&#x1e28;" horiz-adv-x="1479" 
d="M-55 -435l26 118c26 -8 60 -15 102 -15c51 0 109 12 109 52s-45 57 -114 57h-51l20 99l86 124h-106l307 1443h263l-128 -598h693l128 598h264l-307 -1443h-264l134 624h-693l-134 -624l-81 -119c74 -4 154 -52 154 -156c0 -121 -111 -181 -260 -181c-56 0 -107 8 -148 21
z" />
    <glyph glyph-name="Hbar" unicode="&#x126;" horiz-adv-x="1479" 
d="M88 1056l39 191h155l42 196h263l-42 -196h693l42 196h264l-42 -196h150l-39 -191h-152l-224 -1056h-264l134 624h-693l-134 -624h-263l225 1056h-154zM459 845h693l45 211h-693z" />
    <glyph glyph-name="Hcedilla.mini" horiz-adv-x="1479" 
d="M-43 -409l27 117c26 -8 60 -15 102 -15c51 0 109 12 109 53c0 39 -45 57 -115 57h-51l21 99l72 98h-105l307 1443h263l-128 -598h693l128 598h264l-307 -1443h-264l134 624h-693l-134 -624l-69 -96c79 -6 153 -54 153 -154c0 -121 -110 -181 -259 -181
c-55 0 -106 8 -148 22z" />
    <glyph glyph-name="I" unicode="I" horiz-adv-x="520" 
d="M277 0h-260l307 1443h260z" />
    <glyph glyph-name="Idotaccent" unicode="&#x130;" horiz-adv-x="520" 
d="M513 1579c-76 0 -137 62 -137 138s61 137 137 137s136 -61 136 -137s-60 -138 -136 -138zM277 0h-260l307 1443h260z" />
    <glyph glyph-name="Igrave" unicode="&#xcc;" horiz-adv-x="520" 
d="M387 1558l-132 300h235l76 -300h-179zM277 0h-260l307 1443h260z" />
    <glyph glyph-name="Idblgrave" unicode="&#x208;" horiz-adv-x="520" 
d="M570 1558l-57 300h211l8 -300h-162zM234 1558l-122 300h227l64 -300h-169zM277 0h-260l307 1443h260z" />
    <glyph glyph-name="Iacute" unicode="&#xcd;" horiz-adv-x="520" 
d="M570 1558h-178l203 300h235zM277 0h-260l307 1443h260z" />
    <glyph glyph-name="Icircumflex" unicode="&#xce;" horiz-adv-x="520" 
d="M631 1863l209 -311h-195l-123 190h-7l-197 -190h-198l320 311h191zM277 0h-260l307 1443h260z" />
    <glyph glyph-name="Icaron" unicode="&#x1cf;" horiz-adv-x="520" 
d="M394 1552l-209 311h196l123 -191h6l197 191h199l-321 -311h-191zM277 0h-260l307 1443h260z" />
    <glyph glyph-name="Idieresis" unicode="&#xcf;" horiz-adv-x="520" 
d="M311 1584c-73 0 -131 60 -131 132c0 74 58 133 131 133c74 0 132 -59 132 -133c0 -72 -58 -132 -132 -132zM714 1584c-73 0 -132 60 -132 132c0 74 59 133 132 133c74 0 132 -59 132 -133c0 -72 -58 -132 -132 -132zM277 0h-260l307 1443h260z" />
    <glyph glyph-name="Idieresisacute" unicode="&#x1e2e;" horiz-adv-x="520" 
d="M427 1863l229 239h229l-257 -239h-201zM317 1556c-67 0 -119 52 -119 118s52 118 119 118c66 0 118 -52 118 -118s-52 -118 -118 -118zM691 1556c-66 0 -118 52 -118 118s52 118 118 118c67 0 119 -52 119 -118s-52 -118 -119 -118zM277 0h-260l307 1443h260z" />
    <glyph glyph-name="Ibreve" unicode="&#x12c;" horiz-adv-x="520" 
d="M502 1540c-263 0 -342 188 -318 314h157c-10 -91 39 -176 168 -176c107 0 185 64 202 176h160c-20 -187 -156 -314 -369 -314zM277 0h-260l307 1443h260z" />
    <glyph glyph-name="Idotbelow" unicode="&#x1eca;" horiz-adv-x="520" 
d="M277 0h-260l307 1443h260zM91 -402c-76 0 -136 62 -136 138s60 138 136 138s136 -62 136 -138s-60 -138 -136 -138z" />
    <glyph glyph-name="Iinvertedbreve" unicode="&#x20a;" horiz-adv-x="520" 
d="M489 1854c263 0 342 -188 317 -314h-156c10 91 -40 177 -168 177c-108 0 -185 -64 -203 -177h-160c20 187 157 315 370 314zM277 0h-260l307 1443h260z" />
    <glyph glyph-name="Imacron" unicode="&#x12a;" horiz-adv-x="520" 
d="M837 1787l-31 -148h-620l31 148h620zM277 0h-260l307 1443h260z" />
    <glyph glyph-name="Itildebelow" unicode="&#x1e2c;" horiz-adv-x="520" 
d="M277 0h-260l307 1443h260zM-259 -370c25 141 104 245 230 245c140 0 176 -135 246 -135c38 0 63 34 79 103h152c-25 -141 -103 -247 -230 -247c-140 0 -175 135 -245 135c-39 0 -64 -32 -79 -101h-153z" />
    <glyph glyph-name="Ihookabove" unicode="&#x1ec8;" horiz-adv-x="520" 
d="M329 1761l13 130c31 13 80 26 139 26c112 0 198 -70 198 -172c0 -110 -78 -197 -204 -238l-64 97c71 26 110 66 110 112c0 38 -36 67 -87 67c-37 0 -79 -8 -105 -22zM277 0h-260l307 1443h260z" />
    <glyph glyph-name="Itilde" unicode="&#x128;" horiz-adv-x="520" 
d="M161 1598c24 141 104 245 229 245c140 0 176 -134 247 -134c37 0 63 33 79 102h151c-24 -141 -103 -247 -230 -247c-139 0 -174 135 -245 135c-39 0 -64 -32 -79 -101h-152zM277 0h-260l307 1443h260z" />
    <glyph glyph-name="Iogonek" unicode="&#x12e;" horiz-adv-x="520" 
d="M76 -450c-126 0 -211 68 -211 170c0 85 57 173 170 267l-21 1l310 1455h260l-304 -1431l-25 -13c-130 -75 -189 -150 -189 -217c0 -50 38 -77 99 -77c31 0 58 4 73 12l-30 -145c-25 -13 -76 -22 -132 -22z" />
    <glyph glyph-name="Iogonek.mini" horiz-adv-x="520" 
d="M76 -450c-126 0 -211 68 -211 170c0 85 57 173 170 267l-21 1l310 1455h260l-304 -1431l-25 -13c-130 -75 -189 -150 -189 -217c0 -50 38 -77 99 -77c31 0 58 4 73 12l-30 -145c-25 -13 -76 -22 -132 -22z" />
    <glyph glyph-name="I.mini" horiz-adv-x="489" 
d="M254 0h-244l276 1296h244z" />
    <glyph glyph-name="Idieresisacute.mini" horiz-adv-x="489" 
d="M352 1732l258 228h266l-304 -228h-220zM249 1415c-77 0 -135 55 -135 129c0 73 58 128 135 128s135 -55 135 -128c0 -74 -58 -129 -135 -129zM674 1415c-77 0 -135 55 -135 129c0 73 58 128 135 128s135 -55 135 -128c0 -74 -58 -129 -135 -129zM254 0h-244l276 1296h244
z" />
    <glyph glyph-name="I.1" horiz-adv-x="961" 
d="M-34 0l44 212h272l217 1019h-270l44 212h803l-44 -212h-273l-216 -1019h270l-44 -212h-803z" />
    <glyph glyph-name="Idotaccent.1" horiz-adv-x="961" 
d="M732 1579c-76 0 -137 62 -137 138s61 137 137 137s136 -61 136 -137s-60 -138 -136 -138zM-34 0l44 212h272l217 1019h-270l44 212h803l-44 -212h-273l-216 -1019h270l-44 -212h-803z" />
    <glyph glyph-name="Igrave.1" horiz-adv-x="961" 
d="M606 1558l-132 300h235l76 -300h-179zM-34 0l44 212h272l217 1019h-270l44 212h803l-44 -212h-273l-216 -1019h270l-44 -212h-803z" />
    <glyph glyph-name="Idblgrave.1" horiz-adv-x="961" 
d="M789 1558l-57 300h211l8 -300h-162zM453 1558l-122 300h227l64 -300h-169zM-34 0l44 212h272l217 1019h-270l44 212h803l-44 -212h-273l-216 -1019h270l-44 -212h-803z" />
    <glyph glyph-name="Iacute.1" horiz-adv-x="961" 
d="M789 1558h-178l203 300h235zM-34 0l44 212h272l217 1019h-270l44 212h803l-44 -212h-273l-216 -1019h270l-44 -212h-803z" />
    <glyph glyph-name="Icircumflex.1" horiz-adv-x="961" 
d="M850 1863l209 -311h-195l-123 190h-7l-197 -190h-198l320 311h191zM-34 0l44 212h272l217 1019h-270l44 212h803l-44 -212h-273l-216 -1019h270l-44 -212h-803z" />
    <glyph glyph-name="Icaron.1" horiz-adv-x="961" 
d="M613 1552l-209 311h196l123 -191h6l197 191h199l-321 -311h-191zM-34 0l44 212h272l217 1019h-270l44 212h803l-44 -212h-273l-216 -1019h270l-44 -212h-803z" />
    <glyph glyph-name="Idieresis.1" horiz-adv-x="961" 
d="M530 1584c-73 0 -131 60 -131 132c0 74 58 133 131 133c74 0 132 -59 132 -133c0 -72 -58 -132 -132 -132zM933 1584c-73 0 -132 60 -132 132c0 74 59 133 132 133c74 0 132 -59 132 -133c0 -72 -58 -132 -132 -132zM-34 0l44 212h272l217 1019h-270l44 212h803l-44 -212
h-273l-216 -1019h270l-44 -212h-803z" />
    <glyph glyph-name="Idieresisacute.1" horiz-adv-x="961" 
d="M646 1863l229 239h229l-257 -239h-201zM536 1556c-67 0 -119 52 -119 118s52 118 119 118c66 0 118 -52 118 -118s-52 -118 -118 -118zM910 1556c-66 0 -118 52 -118 118s52 118 118 118c67 0 119 -52 119 -118s-52 -118 -119 -118zM-34 0l44 212h272l217 1019h-270
l44 212h803l-44 -212h-273l-216 -1019h270l-44 -212h-803z" />
    <glyph glyph-name="Ibreve.1" horiz-adv-x="961" 
d="M721 1540c-263 0 -343 188 -318 314h157c-10 -91 39 -176 168 -176c107 0 185 64 202 176h160c-20 -187 -156 -314 -369 -314zM-34 0l44 212h272l217 1019h-270l44 212h803l-44 -212h-273l-216 -1019h270l-44 -212h-803z" />
    <glyph glyph-name="Idotbelow.1" horiz-adv-x="961" 
d="M-34 0l44 212h272l217 1019h-270l44 212h803l-44 -212h-273l-216 -1019h270l-44 -212h-803zM312 -402c-75 0 -136 62 -136 138s61 138 136 138c76 0 137 -62 137 -138s-61 -138 -137 -138z" />
    <glyph glyph-name="Iinvertedbreve.1" horiz-adv-x="961" 
d="M708 1854c263 0 342 -188 317 -314h-157c11 91 -39 177 -167 177c-108 0 -185 -64 -203 -177h-160c20 187 157 315 370 314zM-34 0l44 212h272l217 1019h-270l44 212h803l-44 -212h-273l-216 -1019h270l-44 -212h-803z" />
    <glyph glyph-name="Imacron.1" horiz-adv-x="961" 
d="M1056 1787l-31 -148h-620l31 148h620zM-34 0l44 212h272l217 1019h-270l44 212h803l-44 -212h-273l-216 -1019h270l-44 -212h-803z" />
    <glyph glyph-name="Itildebelow.1" horiz-adv-x="961" 
d="M-34 0l44 212h272l217 1019h-270l44 212h803l-44 -212h-273l-216 -1019h270l-44 -212h-803zM-37 -370c24 141 104 245 229 245c140 0 176 -135 247 -135c37 0 63 34 79 103h151c-24 -141 -103 -247 -230 -247c-139 0 -174 135 -245 135c-39 0 -64 -32 -79 -101h-152z" />
    <glyph glyph-name="Ihookabove.1" horiz-adv-x="961" 
d="M548 1761l12 130c32 13 81 26 140 26c112 0 198 -70 198 -172c0 -110 -78 -197 -205 -238l-63 97c71 26 110 66 110 112c0 38 -36 67 -87 67c-38 0 -79 -8 -105 -22zM-34 0l44 212h272l217 1019h-270l44 212h803l-44 -212h-273l-216 -1019h270l-44 -212h-803z" />
    <glyph glyph-name="Itilde.1" horiz-adv-x="961" 
d="M380 1598c24 141 103 245 229 245c140 0 176 -134 247 -134c37 0 63 33 79 102h151c-24 -141 -103 -247 -230 -247c-139 0 -174 135 -245 135c-39 0 -64 -32 -79 -101h-152zM-34 0l44 212h272l217 1019h-270l44 212h803l-44 -212h-273l-216 -1019h270l-44 -212h-803z" />
    <glyph glyph-name="Iogonek.1" horiz-adv-x="961" 
d="M229 1231l44 212h803l-44 -212h-272l-218 -1019h271l-42 -203l-28 -12c-139 -68 -228 -148 -228 -219c0 -46 36 -73 99 -73c29 0 56 4 73 12l-30 -145c-25 -13 -76 -22 -132 -22c-125 0 -211 66 -211 169c0 100 85 205 223 277v4h-571l44 212h271l219 1019h-271z" />
    <glyph glyph-name="Iogonek.mini.1" horiz-adv-x="961" 
d="M229 1231l44 212h803l-44 -212h-272l-218 -1019h271l-42 -203l-28 -12c-139 -68 -228 -148 -228 -219c0 -46 36 -73 99 -73c29 0 56 4 73 12l-30 -145c-25 -13 -76 -22 -132 -22c-125 0 -211 66 -211 169c0 100 85 205 223 277v4h-571l44 212h271l219 1019h-271z" />
    <glyph glyph-name="I.mini.1" horiz-adv-x="906" 
d="M-38 0l39 189h257l196 918h-256l40 189h757l-40 -189h-257l-196 -918h256l-39 -189h-757z" />
    <glyph glyph-name="Idieresisacute.mini.1" horiz-adv-x="906" 
d="M559 1732l258 228h266l-305 -228h-219zM456 1415c-77 0 -135 55 -135 129c0 73 58 128 135 128s134 -55 134 -128c0 -74 -57 -129 -134 -129zM881 1415c-77 0 -135 55 -135 129c0 73 58 128 135 128s135 -55 135 -128c0 -74 -58 -129 -135 -129zM-38 0l39 189h257
l196 918h-256l40 189h757l-40 -189h-257l-196 -918h256l-39 -189h-757z" />
    <glyph glyph-name="J" unicode="J" horiz-adv-x="1100" 
d="M13 366c0 12 0 29 1 40h253v-8c0 -115 75 -186 195 -186c122 0 196 76 229 230l213 1001h260l-222 -1044c-57 -271 -227 -423 -494 -423c-256 0 -435 162 -435 390z" />
    <glyph glyph-name="Jacute" horiz-adv-x="1100" 
d="M1151 1558h-179l204 300h234zM13 366c0 12 0 29 1 40h253v-8c0 -115 75 -186 195 -186c122 0 196 76 229 230l213 1001h260l-222 -1044c-57 -271 -227 -423 -494 -423c-256 0 -435 162 -435 390z" />
    <glyph glyph-name="Jcircumflex" unicode="&#x134;" horiz-adv-x="1100" 
d="M1212 1863l209 -311h-196l-123 190h-7l-197 -190h-198l320 311h192zM13 366c0 12 0 29 1 40h253v-8c0 -115 75 -186 195 -186c122 0 196 76 229 230l213 1001h260l-222 -1044c-57 -271 -227 -423 -494 -423c-256 0 -435 162 -435 390z" />
    <glyph glyph-name="K" unicode="&#x212a;" horiz-adv-x="1322" 
d="M277 0h-260l307 1443h260l-141 -662h5l707 662h315l-691 -657l416 -786h-291l-335 629l-195 -179z" />
    <glyph glyph-name="K" unicode="K" horiz-adv-x="1322" 
d="M277 0h-260l307 1443h260l-141 -662h5l707 662h315l-691 -657l416 -786h-291l-335 629l-195 -179z" />
    <glyph glyph-name="Kacute" unicode="&#x1e30;" horiz-adv-x="1322" 
d="M951 1558h-178l203 300h235zM277 0h-260l307 1443h260l-141 -662h5l707 662h315l-691 -657l416 -786h-291l-335 629l-195 -179z" />
    <glyph glyph-name="Kcaron" unicode="&#x1e8;" horiz-adv-x="1322" 
d="M775 1552l-209 311h196l123 -191h6l197 191h199l-321 -311h-191zM277 0h-260l307 1443h260l-141 -662h5l707 662h315l-691 -657l416 -786h-291l-335 629l-195 -179z" />
    <glyph glyph-name="Kdotbelow" unicode="&#x1e32;" horiz-adv-x="1322" 
d="M277 0h-260l307 1443h260l-141 -662h5l707 662h315l-691 -657l416 -786h-291l-335 629l-195 -179zM519 -402c-76 0 -137 62 -137 138s61 138 137 138s136 -62 136 -138s-60 -138 -136 -138z" />
    <glyph glyph-name="Klinebelow" unicode="&#x1e34;" horiz-adv-x="1322" 
d="M277 0h-260l307 1443h260l-141 -662h5l707 662h315l-691 -657l416 -786h-291l-335 629l-195 -179zM844 -190l-31 -148h-620l31 148h620z" />
    <glyph glyph-name="Kcommaaccent" unicode="&#x136;" horiz-adv-x="1322" 
d="M277 0h-260l307 1443h260l-141 -662h5l707 662h315l-691 -657l416 -786h-291l-335 629l-195 -179zM481 -478h-179l156 347h217z" />
    <glyph glyph-name="Kcommaaccent.mini" horiz-adv-x="1322" 
d="M277 0h-260l307 1443h260l-141 -662h5l707 662h315l-691 -657l416 -786h-291l-335 629l-195 -179zM506 -432h-184l132 291h216z" />
    <glyph glyph-name="L" unicode="L" horiz-adv-x="1102" 
d="M984 226l-47 -226h-920l307 1443h260l-259 -1217h659z" />
    <glyph glyph-name="Lacute" unicode="&#x139;" horiz-adv-x="1102" 
d="M570 1558h-179l204 300h234zM984 226l-47 -226h-920l307 1443h260l-259 -1217h659z" />
    <glyph glyph-name="Lcircumflexbelow" unicode="&#x1e3c;" horiz-adv-x="1102" 
d="M984 226l-47 -226h-920l307 1443h260l-259 -1217h659zM551 -131l197 -309h-193l-109 182h-7l-180 -182h-201l301 309h192z" />
    <glyph glyph-name="Ldot" unicode="&#x13f;" horiz-adv-x="1102" 
d="M984 226l-47 -226h-920l307 1443h260l-259 -1217h659zM778 575c-80 0 -144 65 -144 147s64 147 144 147s144 -65 144 -147s-64 -147 -144 -147z" />
    <glyph glyph-name="Ldotbelow" unicode="&#x1e36;" horiz-adv-x="1102" 
d="M984 226l-47 -226h-920l307 1443h260l-259 -1217h659zM427 -402c-76 0 -137 62 -137 138s61 138 137 138s136 -62 136 -138s-60 -138 -136 -138z" />
    <glyph glyph-name="Ldotbelowmacron" unicode="&#x1e38;" horiz-adv-x="1102" 
d="M836 1787l-31 -148h-620l31 148h620zM984 226l-47 -226h-920l307 1443h260l-259 -1217h659zM427 -402c-76 0 -137 62 -137 138s61 138 137 138s136 -62 136 -138s-60 -138 -136 -138z" />
    <glyph glyph-name="Llinebelow" unicode="&#x1e3a;" horiz-adv-x="1102" 
d="M984 226l-47 -226h-920l307 1443h260l-259 -1217h659zM752 -190l-31 -148h-620l31 148h620z" />
    <glyph glyph-name="Lcommaaccent" unicode="&#x13b;" horiz-adv-x="1102" 
d="M984 226l-47 -226h-920l307 1443h260l-259 -1217h659zM389 -478h-179l157 347h216z" />
    <glyph glyph-name="Lcaron" unicode="&#x13d;" horiz-adv-x="1102" 
d="M861 1519h218l-167 -505h-158zM984 226l-47 -226h-920l307 1443h260l-259 -1217h659z" />
    <glyph glyph-name="Lslash" unicode="&#x141;" horiz-adv-x="1102" 
d="M-40 434l47 220l166 78l151 711h260l-122 -575l314 148l-46 -221l-316 -148l-89 -421h659l-47 -226h-920l109 511z" />
    <glyph glyph-name="Lcommaaccent.mini" horiz-adv-x="1102" 
d="M984 226l-47 -226h-920l307 1443h260l-259 -1217h659zM414 -432h-183l132 291h215z" />
    <glyph glyph-name="M" unicode="M" horiz-adv-x="1752" 
d="M252 0h-235l307 1443h292l204 -1107h5l669 1107h322l-307 -1443h-235l225 1048h-9l-636 -1042h-182l-190 1042h-7z" />
    <glyph glyph-name="Macute" unicode="&#x1e3e;" horiz-adv-x="1752" 
d="M1139 1558h-179l204 300h235zM252 0h-235l307 1443h292l204 -1107h5l669 1107h322l-307 -1443h-235l225 1048h-9l-636 -1042h-182l-190 1042h-7z" />
    <glyph glyph-name="Mdotaccent" unicode="&#x1e40;" horiz-adv-x="1752" 
d="M1081 1579c-75 0 -136 62 -136 138s61 137 136 137c77 0 137 -61 137 -137s-60 -138 -137 -138zM252 0h-235l307 1443h292l204 -1107h5l669 1107h322l-307 -1443h-235l225 1048h-9l-636 -1042h-182l-190 1042h-7z" />
    <glyph glyph-name="Mdotbelow" unicode="&#x1e42;" horiz-adv-x="1752" 
d="M252 0h-235l307 1443h292l204 -1107h5l669 1107h322l-307 -1443h-235l225 1048h-9l-636 -1042h-182l-190 1042h-7zM708 -402c-75 0 -136 62 -136 138s61 138 136 138c77 0 137 -62 137 -138s-60 -138 -137 -138z" />
    <glyph glyph-name="N" unicode="N" horiz-adv-x="1458" 
d="M271 0h-254l307 1443h227l489 -1040h5l223 1040h254l-307 -1443h-227l-489 1040h-5z" />
    <glyph glyph-name="Ngrave" unicode="&#x1f8;" horiz-adv-x="1458" 
d="M848 1558l-132 300h234l77 -300h-179zM271 0h-254l307 1443h227l489 -1040h5l223 1040h254l-307 -1443h-227l-489 1040h-5z" />
    <glyph glyph-name="Nacute" unicode="&#x143;" horiz-adv-x="1458" 
d="M1031 1558h-179l204 300h235zM271 0h-254l307 1443h227l489 -1040h5l223 1040h254l-307 -1443h-227l-489 1040h-5z" />
    <glyph glyph-name="Ntilde" unicode="&#xd1;" horiz-adv-x="1458" 
d="M621 1598c25 141 104 245 230 245c140 0 176 -134 246 -134c37 0 63 33 79 102h152c-25 -141 -103 -247 -230 -247c-140 0 -175 135 -246 135c-38 0 -63 -32 -79 -101h-152zM271 0h-254l307 1443h227l489 -1040h5l223 1040h254l-307 -1443h-227l-489 1040h-5z" />
    <glyph glyph-name="Ndotbelow" unicode="&#x1e46;" horiz-adv-x="1458" 
d="M271 0h-254l307 1443h227l489 -1040h5l223 1040h254l-307 -1443h-227l-489 1040h-5zM572 -402c-76 0 -137 62 -137 138s61 138 137 138s136 -62 136 -138s-60 -138 -136 -138z" />
    <glyph glyph-name="Ndotaccent" unicode="&#x1e44;" horiz-adv-x="1458" 
d="M973 1579c-75 0 -136 62 -136 138s61 137 136 137c77 0 137 -61 137 -137s-60 -138 -137 -138zM271 0h-254l307 1443h227l489 -1040h5l223 1040h254l-307 -1443h-227l-489 1040h-5z" />
    <glyph glyph-name="Ncaron" unicode="&#x147;" horiz-adv-x="1458" 
d="M855 1552l-209 311h195l123 -191h7l197 191h198l-320 -311h-191zM271 0h-254l307 1443h227l489 -1040h5l223 1040h254l-307 -1443h-227l-489 1040h-5z" />
    <glyph glyph-name="Ncircumflexbelow" unicode="&#x1e4a;" horiz-adv-x="1458" 
d="M271 0h-254l307 1443h227l489 -1040h5l223 1040h254l-307 -1443h-227l-489 1040h-5zM696 -131l197 -309h-193l-109 182h-7l-180 -182h-201l301 309h192z" />
    <glyph glyph-name="Nlinebelow" unicode="&#x1e48;" horiz-adv-x="1458" 
d="M271 0h-254l307 1443h227l489 -1040h5l223 1040h254l-307 -1443h-227l-489 1040h-5zM897 -190l-31 -148h-620l31 148h620z" />
    <glyph glyph-name="Ncommaaccent" unicode="&#x145;" horiz-adv-x="1458" 
d="M271 0h-254l307 1443h227l489 -1040h5l223 1040h254l-307 -1443h-227l-489 1040h-5zM534 -478h-179l157 347h216z" />
    <glyph glyph-name="Ncommaaccent.mini" horiz-adv-x="1458" 
d="M271 0h-254l307 1443h227l489 -1040h5l223 1040h254l-307 -1443h-227l-489 1040h-5zM559 -432h-183l132 291h215z" />
    <glyph glyph-name="O" unicode="O" horiz-adv-x="1540" 
d="M736 -24c-378 0 -619 255 -619 624c0 492 328 867 767 867c381 0 619 -255 619 -624c0 -493 -329 -867 -767 -867zM880 1241c-290 0 -500 -282 -500 -628c0 -251 141 -411 360 -411c291 0 500 281 500 628c0 251 -141 411 -360 411z" />
    <glyph glyph-name="Odieresis" unicode="&#xd6;" horiz-adv-x="1540" 
d="M757 1584c-73 0 -131 60 -131 132c0 74 58 133 131 133c74 0 132 -59 132 -133c0 -72 -58 -132 -132 -132zM1160 1584c-73 0 -132 60 -132 132c0 74 59 133 132 133s131 -59 131 -133c0 -72 -58 -132 -131 -132zM736 -24c-378 0 -619 255 -619 624c0 492 328 867 767 867
c381 0 619 -255 619 -624c0 -493 -329 -867 -767 -867zM880 1241c-290 0 -500 -282 -500 -628c0 -251 141 -411 360 -411c291 0 500 281 500 628c0 251 -141 411 -360 411z" />
    <glyph glyph-name="Oslash" unicode="&#xd8;" horiz-adv-x="1540" 
d="M94 147l112 105c-57 97 -89 215 -89 348c0 492 328 867 767 867c182 0 331 -58 438 -159l100 95l106 -121l-107 -101c53 -95 82 -209 82 -338c0 -493 -329 -867 -767 -867c-176 0 -323 56 -429 152l-108 -102zM880 1241c-290 0 -500 -282 -500 -628c0 -63 9 -121 26 -171
l733 692c-63 69 -151 107 -259 107zM1240 830c0 59 -7 112 -22 160l-728 -689c62 -64 147 -99 250 -99c291 0 500 281 500 628z" />
    <glyph glyph-name="Otilde" unicode="&#xd5;" horiz-adv-x="1540" 
d="M606 1598c25 141 104 245 230 245c140 0 176 -134 246 -134c37 0 63 33 79 102h152c-25 -141 -103 -247 -230 -247c-140 0 -175 135 -245 135c-39 0 -64 -32 -79 -101h-153zM736 -24c-378 0 -619 255 -619 624c0 492 328 867 767 867c381 0 619 -255 619 -624
c0 -493 -329 -867 -767 -867zM880 1241c-290 0 -500 -282 -500 -628c0 -251 141 -411 360 -411c291 0 500 281 500 628c0 251 -141 411 -360 411z" />
    <glyph glyph-name="Oacute" unicode="&#xd3;" horiz-adv-x="1540" 
d="M1016 1558h-179l204 300h235zM736 -24c-378 0 -619 255 -619 624c0 492 328 867 767 867c381 0 619 -255 619 -624c0 -493 -329 -867 -767 -867zM880 1241c-290 0 -500 -282 -500 -628c0 -251 141 -411 360 -411c291 0 500 281 500 628c0 251 -141 411 -360 411z" />
    <glyph glyph-name="Ocircumflex" unicode="&#xd4;" horiz-adv-x="1540" 
d="M1077 1863l209 -311h-195l-124 190h-6l-197 -190h-198l320 311h191zM736 -24c-378 0 -619 255 -619 624c0 492 328 867 767 867c381 0 619 -255 619 -624c0 -493 -329 -867 -767 -867zM880 1241c-290 0 -500 -282 -500 -628c0 -251 141 -411 360 -411
c291 0 500 281 500 628c0 251 -141 411 -360 411z" />
    <glyph glyph-name="Ograve" unicode="&#xd2;" horiz-adv-x="1540" 
d="M833 1558l-132 300h235l76 -300h-179zM736 -24c-378 0 -619 255 -619 624c0 492 328 867 767 867c381 0 619 -255 619 -624c0 -493 -329 -867 -767 -867zM880 1241c-290 0 -500 -282 -500 -628c0 -251 141 -411 360 -411c291 0 500 281 500 628c0 251 -141 411 -360 411z
" />
    <glyph glyph-name="Ocircumflexhookabove" unicode="&#x1ed4;" horiz-adv-x="1540" 
d="M1097 1975l27 116c25 11 72 18 110 18c122 0 199 -60 199 -153c0 -101 -76 -182 -191 -221l-67 93c59 16 101 52 101 97c0 38 -36 63 -91 63c-30 0 -60 -4 -88 -13zM871 1813h202l215 -274h-196l-127 167h-7l-200 -167h-219zM736 -24c-378 0 -619 255 -619 624
c0 492 328 867 767 867c381 0 619 -255 619 -624c0 -493 -329 -867 -767 -867zM880 1241c-290 0 -500 -282 -500 -628c0 -251 141 -411 360 -411c291 0 500 281 500 628c0 251 -141 411 -360 411z" />
    <glyph glyph-name="Ocircumflexgrave" unicode="&#x1ed2;" horiz-adv-x="1540" 
d="M1339 1863h-177l-156 239h205zM871 1813h202l215 -274h-196l-127 167h-7l-200 -167h-219zM736 -24c-378 0 -619 255 -619 624c0 492 328 867 767 867c381 0 619 -255 619 -624c0 -493 -329 -867 -767 -867zM880 1241c-290 0 -500 -282 -500 -628
c0 -251 141 -411 360 -411c291 0 500 281 500 628c0 251 -141 411 -360 411z" />
    <glyph glyph-name="Odotbelow" unicode="&#x1ecc;" horiz-adv-x="1540" 
d="M736 -24c-378 0 -619 255 -619 624c0 492 328 867 767 867c381 0 619 -255 619 -624c0 -493 -329 -867 -767 -867zM880 1241c-290 0 -500 -282 -500 -628c0 -251 141 -411 360 -411c291 0 500 281 500 628c0 251 -141 411 -360 411zM676 -402c-75 0 -136 62 -136 138
s61 138 136 138c76 0 136 -62 136 -138s-60 -138 -136 -138z" />
    <glyph glyph-name="Odblgrave" unicode="&#x20c;" horiz-adv-x="1540" 
d="M1015 1558l-56 300h211l8 -300h-163zM679 1558l-121 300h227l64 -300h-170zM736 -24c-378 0 -619 255 -619 624c0 492 328 867 767 867c381 0 619 -255 619 -624c0 -493 -329 -867 -767 -867zM880 1241c-290 0 -500 -282 -500 -628c0 -251 141 -411 360 -411
c291 0 500 281 500 628c0 251 -141 411 -360 411z" />
    <glyph glyph-name="Otildeacute" unicode="&#x1e4c;" horiz-adv-x="1540" 
d="M892 1876l227 226h229l-255 -226h-201zM1068 1539c-136 0 -171 139 -245 139c-44 0 -83 -44 -97 -119h-143c31 162 128 258 251 258c135 0 168 -139 244 -139c44 0 79 44 97 122h143c-30 -160 -131 -261 -250 -261zM736 -24c-378 0 -619 255 -619 624
c0 492 328 867 767 867c381 0 619 -255 619 -624c0 -493 -329 -867 -767 -867zM880 1241c-290 0 -500 -282 -500 -628c0 -251 141 -411 360 -411c291 0 500 281 500 628c0 251 -141 411 -360 411z" />
    <glyph glyph-name="Omacronacute" unicode="&#x1e52;" horiz-adv-x="1540" 
d="M890 1863l230 239h228l-257 -239h-201zM1269 1597h-671l29 138h671zM736 -24c-378 0 -619 255 -619 624c0 492 328 867 767 867c381 0 619 -255 619 -624c0 -493 -329 -867 -767 -867zM880 1241c-290 0 -500 -282 -500 -628c0 -251 141 -411 360 -411
c291 0 500 281 500 628c0 251 -141 411 -360 411z" />
    <glyph glyph-name="Ocircumflextilde" unicode="&#x1ed6;" horiz-adv-x="1540" 
d="M1133 1861c-135 0 -170 124 -248 124c-44 0 -82 -37 -93 -106h-143c27 156 124 244 246 244c134 0 168 -123 247 -123c44 0 78 35 93 108h144c-28 -154 -127 -247 -246 -247zM869 1807h202l217 -268h-196l-129 162h-6l-199 -162h-219zM736 -24c-378 0 -619 255 -619 624
c0 492 328 867 767 867c381 0 619 -255 619 -624c0 -493 -329 -867 -767 -867zM880 1241c-290 0 -500 -282 -500 -628c0 -251 141 -411 360 -411c291 0 500 281 500 628c0 251 -141 411 -360 411z" />
    <glyph glyph-name="Odotaccentmacron" unicode="&#x230;" horiz-adv-x="1540" 
d="M1366 2058l-30 -138h-670l30 138h670zM953 1563c-74 0 -131 58 -131 130c0 71 57 129 131 129s132 -58 132 -129c0 -72 -58 -130 -132 -130zM736 -24c-378 0 -619 255 -619 624c0 492 328 867 767 867c381 0 619 -255 619 -624c0 -493 -329 -867 -767 -867zM880 1241
c-290 0 -500 -282 -500 -628c0 -251 141 -411 360 -411c291 0 500 281 500 628c0 251 -141 411 -360 411z" />
    <glyph glyph-name="Omacrongrave" unicode="&#x1e50;" horiz-adv-x="1540" 
d="M1081 1863h-178l-156 239h205zM1269 1597h-671l29 138h671zM736 -24c-378 0 -619 255 -619 624c0 492 328 867 767 867c381 0 619 -255 619 -624c0 -493 -329 -867 -767 -867zM880 1241c-290 0 -500 -282 -500 -628c0 -251 141 -411 360 -411c291 0 500 281 500 628
c0 251 -141 411 -360 411z" />
    <glyph glyph-name="Ocaron" unicode="&#x1d1;" horiz-adv-x="1540" 
d="M840 1552l-209 311h195l124 -191h6l197 191h198l-320 -311h-191zM736 -24c-378 0 -619 255 -619 624c0 492 328 867 767 867c381 0 619 -255 619 -624c0 -493 -329 -867 -767 -867zM880 1241c-290 0 -500 -282 -500 -628c0 -251 141 -411 360 -411c291 0 500 281 500 628
c0 251 -141 411 -360 411z" />
    <glyph glyph-name="Oslashacute" unicode="&#x1fe;" horiz-adv-x="1540" 
d="M1016 1558h-179l204 300h235zM94 147l112 105c-57 97 -89 215 -89 348c0 492 328 867 767 867c182 0 331 -58 438 -159l100 95l106 -121l-107 -101c53 -95 82 -209 82 -338c0 -493 -329 -867 -767 -867c-176 0 -323 56 -429 152l-108 -102zM880 1241
c-290 0 -500 -282 -500 -628c0 -63 9 -121 26 -171l733 692c-63 69 -151 107 -259 107zM1240 830c0 59 -7 112 -22 160l-728 -689c62 -64 147 -99 250 -99c291 0 500 281 500 628z" />
    <glyph glyph-name="Ohungarumlaut" unicode="&#x150;" horiz-adv-x="1540" 
d="M834 1558h-162l135 300h211zM1170 1558h-170l192 300h227zM736 -24c-378 0 -619 255 -619 624c0 492 328 867 767 867c381 0 619 -255 619 -624c0 -493 -329 -867 -767 -867zM880 1241c-290 0 -500 -282 -500 -628c0 -251 141 -411 360 -411c291 0 500 281 500 628
c0 251 -141 411 -360 411z" />
    <glyph glyph-name="Obreve" unicode="&#x14e;" horiz-adv-x="1540" 
d="M947 1540c-263 0 -342 188 -317 314h157c-11 -91 39 -176 167 -176c108 0 185 64 203 176h160c-20 -187 -157 -314 -370 -314zM736 -24c-378 0 -619 255 -619 624c0 492 328 867 767 867c381 0 619 -255 619 -624c0 -493 -329 -867 -767 -867zM880 1241
c-290 0 -500 -282 -500 -628c0 -251 141 -411 360 -411c291 0 500 281 500 628c0 251 -141 411 -360 411z" />
    <glyph glyph-name="Oinvertedbreve" unicode="&#x20e;" horiz-adv-x="1540" 
d="M935 1854c262 0 342 -188 317 -314h-157c10 91 -39 177 -167 177c-108 0 -186 -64 -203 -177h-160c20 187 156 315 370 314zM736 -24c-378 0 -619 255 -619 624c0 492 328 867 767 867c381 0 619 -255 619 -624c0 -493 -329 -867 -767 -867zM880 1241
c-290 0 -500 -282 -500 -628c0 -251 141 -411 360 -411c291 0 500 281 500 628c0 251 -141 411 -360 411z" />
    <glyph glyph-name="Ohookabove" unicode="&#x1ece;" horiz-adv-x="1540" 
d="M775 1761l12 130c31 13 81 26 140 26c112 0 198 -70 198 -172c0 -110 -78 -197 -205 -238l-63 97c70 26 110 66 110 112c0 38 -36 67 -88 67c-37 0 -78 -8 -104 -22zM736 -24c-378 0 -619 255 -619 624c0 492 328 867 767 867c381 0 619 -255 619 -624
c0 -493 -329 -867 -767 -867zM880 1241c-290 0 -500 -282 -500 -628c0 -251 141 -411 360 -411c291 0 500 281 500 628c0 251 -141 411 -360 411z" />
    <glyph glyph-name="Odieresismacron" unicode="&#x22a;" horiz-adv-x="1540" 
d="M1366 2058l-29 -138h-670l29 138h670zM758 1791c68 0 121 -54 121 -122c0 -67 -53 -121 -121 -121c-69 0 -122 54 -122 121c0 68 53 122 122 122zM1140 1791c69 0 122 -54 122 -122c0 -67 -53 -121 -122 -121c-68 0 -121 54 -121 121c0 68 53 122 121 122zM736 -24
c-378 0 -619 255 -619 624c0 492 328 867 767 867c381 0 619 -255 619 -624c0 -493 -329 -867 -767 -867zM880 1241c-290 0 -500 -282 -500 -628c0 -251 141 -411 360 -411c291 0 500 281 500 628c0 251 -141 411 -360 411z" />
    <glyph glyph-name="Otildemacron" unicode="&#x22c;" horiz-adv-x="1540" 
d="M1366 2058l-30 -138h-670l30 138h670zM1068 1539c-136 0 -171 139 -245 139c-44 0 -83 -44 -97 -119h-143c31 162 128 258 251 258c135 0 168 -139 244 -139c44 0 79 44 97 122h143c-30 -160 -131 -261 -250 -261zM736 -24c-378 0 -619 255 -619 624
c0 492 328 867 767 867c381 0 619 -255 619 -624c0 -493 -329 -867 -767 -867zM880 1241c-290 0 -500 -282 -500 -628c0 -251 141 -411 360 -411c291 0 500 281 500 628c0 251 -141 411 -360 411z" />
    <glyph glyph-name="Odotaccent" unicode="&#x22e;" horiz-adv-x="1540" 
d="M958 1579c-75 0 -136 62 -136 138s61 137 136 137c77 0 137 -61 137 -137s-60 -138 -137 -138zM736 -24c-378 0 -619 255 -619 624c0 492 328 867 767 867c381 0 619 -255 619 -624c0 -493 -329 -867 -767 -867zM880 1241c-290 0 -500 -282 -500 -628
c0 -251 141 -411 360 -411c291 0 500 281 500 628c0 251 -141 411 -360 411z" />
    <glyph glyph-name="Ocircumflexdotbelow" unicode="&#x1ed8;" horiz-adv-x="1540" 
d="M1077 1863l209 -311h-195l-124 190h-6l-197 -190h-198l320 311h191zM736 -24c-378 0 -619 255 -619 624c0 492 328 867 767 867c381 0 619 -255 619 -624c0 -493 -329 -867 -767 -867zM880 1241c-290 0 -500 -282 -500 -628c0 -251 141 -411 360 -411
c291 0 500 281 500 628c0 251 -141 411 -360 411zM676 -402c-75 0 -136 62 -136 138s61 138 136 138c76 0 136 -62 136 -138s-60 -138 -136 -138z" />
    <glyph glyph-name="Ocircumflexacute" unicode="&#x1ed0;" horiz-adv-x="1540" 
d="M1117 1863l229 239h229l-257 -239h-201zM871 1813h202l215 -274h-196l-127 167h-7l-200 -167h-219zM736 -24c-378 0 -619 255 -619 624c0 492 328 867 767 867c381 0 619 -255 619 -624c0 -493 -329 -867 -767 -867zM880 1241c-290 0 -500 -282 -500 -628
c0 -251 141 -411 360 -411c291 0 500 281 500 628c0 251 -141 411 -360 411z" />
    <glyph glyph-name="Otildedieresis" unicode="&#x1e4e;" horiz-adv-x="1540" 
d="M828 2129c69 0 122 -54 122 -122c0 -67 -53 -121 -122 -121c-68 0 -121 54 -121 121c0 68 53 122 121 122zM1211 2129c69 0 122 -54 122 -122c0 -67 -53 -121 -122 -121c-68 0 -121 54 -121 121c0 68 53 122 121 122zM1068 1539c-136 0 -171 139 -245 139
c-44 0 -83 -44 -97 -119h-143c31 162 128 258 251 258c135 0 168 -139 244 -139c44 0 79 44 97 122h143c-30 -160 -131 -261 -250 -261zM736 -24c-378 0 -619 255 -619 624c0 492 328 867 767 867c381 0 619 -255 619 -624c0 -493 -329 -867 -767 -867zM880 1241
c-290 0 -500 -282 -500 -628c0 -251 141 -411 360 -411c291 0 500 281 500 628c0 251 -141 411 -360 411z" />
    <glyph glyph-name="Omacron" unicode="&#x14c;" horiz-adv-x="1540" 
d="M1283 1787l-31 -148h-620l31 148h620zM736 -24c-378 0 -619 255 -619 624c0 492 328 867 767 867c381 0 619 -255 619 -624c0 -493 -329 -867 -767 -867zM880 1241c-290 0 -500 -282 -500 -628c0 -251 141 -411 360 -411c291 0 500 281 500 628c0 251 -141 411 -360 411z
" />
    <glyph glyph-name="Oogonek" unicode="&#x1ea;" horiz-adv-x="1540" 
d="M932 -428c-26 -13 -77 -22 -132 -22c-125 0 -211 67 -211 170c0 92 63 179 188 253v5c-13 -1 -28 -2 -41 -2c-378 0 -619 255 -619 624c0 492 328 867 767 867c381 0 619 -255 619 -624c0 -364 -195 -641 -453 -795c-113 -71 -260 -174 -260 -269c0 -47 35 -74 98 -74
c29 0 57 4 74 12zM1240 830c0 251 -141 411 -360 411c-290 0 -500 -282 -500 -628c0 -251 141 -411 360 -411c291 0 500 281 500 628z" />
    <glyph glyph-name="Oogonekmacron" unicode="&#x1ec;" horiz-adv-x="1540" 
d="M1283 1787l-31 -148h-620l31 148h620zM932 -428c-26 -13 -77 -22 -132 -22c-125 0 -211 67 -211 170c0 92 63 179 188 253v5c-13 -1 -28 -2 -41 -2c-378 0 -619 255 -619 624c0 492 328 867 767 867c381 0 619 -255 619 -624c0 -364 -195 -641 -453 -795
c-113 -71 -260 -174 -260 -269c0 -47 35 -74 98 -74c29 0 57 4 74 12zM1240 830c0 251 -141 411 -360 411c-290 0 -500 -282 -500 -628c0 -251 141 -411 360 -411c291 0 500 281 500 628z" />
    <glyph glyph-name="Ohorn" unicode="&#x1a0;" horiz-adv-x="1540" 
d="M1503 843c0 -493 -329 -867 -767 -867c-378 0 -619 255 -619 624c0 492 328 867 767 867c272 0 336 -114 458 -114c66 0 97 25 110 89l39 185h206l-54 -260c-24 -114 -107 -174 -200 -174c-11 0 -30 4 -34 7l-3 -6c64 -96 97 -218 97 -351zM1240 830
c0 251 -141 411 -360 411c-290 0 -500 -282 -500 -628c0 -251 141 -411 360 -411c291 0 500 281 500 628z" />
    <glyph glyph-name="Ohorndotbelow" unicode="&#x1ee2;" horiz-adv-x="1540" 
d="M1503 843c0 -493 -329 -867 -767 -867c-378 0 -619 255 -619 624c0 492 328 867 767 867c272 0 336 -114 458 -114c66 0 97 25 110 89l39 185h206l-54 -260c-24 -114 -107 -174 -200 -174c-11 0 -30 4 -34 7l-3 -6c64 -96 97 -218 97 -351zM1240 830
c0 251 -141 411 -360 411c-290 0 -500 -282 -500 -628c0 -251 141 -411 360 -411c291 0 500 281 500 628zM676 -402c-75 0 -136 62 -136 138s61 138 136 138c76 0 136 -62 136 -138s-60 -138 -136 -138z" />
    <glyph glyph-name="Ohornhookabove" unicode="&#x1ede;" horiz-adv-x="1540" 
d="M775 1761l12 130c31 13 81 26 140 26c112 0 198 -70 198 -172c0 -110 -78 -197 -205 -238l-63 97c70 26 110 66 110 112c0 38 -36 67 -88 67c-37 0 -78 -8 -104 -22zM1503 843c0 -493 -329 -867 -767 -867c-378 0 -619 255 -619 624c0 492 328 867 767 867
c272 0 336 -114 458 -114c66 0 97 25 110 89l39 185h206l-54 -260c-24 -114 -107 -174 -200 -174c-11 0 -30 4 -34 7l-3 -6c64 -96 97 -218 97 -351zM1240 830c0 251 -141 411 -360 411c-290 0 -500 -282 -500 -628c0 -251 141 -411 360 -411c291 0 500 281 500 628z" />
    <glyph glyph-name="Ohorntilde" unicode="&#x1ee0;" horiz-adv-x="1540" 
d="M606 1598c25 141 104 245 230 245c140 0 176 -134 246 -134c37 0 63 33 79 102h152c-25 -141 -103 -247 -230 -247c-140 0 -175 135 -245 135c-39 0 -64 -32 -79 -101h-153zM1503 843c0 -493 -329 -867 -767 -867c-378 0 -619 255 -619 624c0 492 328 867 767 867
c272 0 336 -114 458 -114c66 0 97 25 110 89l39 185h206l-54 -260c-24 -114 -107 -174 -200 -174c-11 0 -30 4 -34 7l-3 -6c64 -96 97 -218 97 -351zM1240 830c0 251 -141 411 -360 411c-290 0 -500 -282 -500 -628c0 -251 141 -411 360 -411c291 0 500 281 500 628z" />
    <glyph glyph-name="Ohorngrave" unicode="&#x1edc;" horiz-adv-x="1540" 
d="M833 1558l-132 300h235l76 -300h-179zM1503 843c0 -493 -329 -867 -767 -867c-378 0 -619 255 -619 624c0 492 328 867 767 867c272 0 336 -114 458 -114c66 0 97 25 110 89l39 185h206l-54 -260c-24 -114 -107 -174 -200 -174c-11 0 -30 4 -34 7l-3 -6
c64 -96 97 -218 97 -351zM1240 830c0 251 -141 411 -360 411c-290 0 -500 -282 -500 -628c0 -251 141 -411 360 -411c291 0 500 281 500 628z" />
    <glyph glyph-name="Ohornacute" unicode="&#x1eda;" horiz-adv-x="1540" 
d="M1016 1558h-179l204 300h235zM1503 843c0 -493 -329 -867 -767 -867c-378 0 -619 255 -619 624c0 492 328 867 767 867c272 0 336 -114 458 -114c66 0 97 25 110 89l39 185h206l-54 -260c-24 -114 -107 -174 -200 -174c-11 0 -30 4 -34 7l-3 -6c64 -96 97 -218 97 -351z
M1240 830c0 251 -141 411 -360 411c-290 0 -500 -282 -500 -628c0 -251 141 -411 360 -411c291 0 500 281 500 628z" />
    <glyph glyph-name="Oogonek.mini" horiz-adv-x="1540" 
d="M932 -428c-26 -13 -77 -22 -132 -22c-125 0 -211 67 -211 170c0 92 63 179 188 253v5c-13 -1 -28 -2 -41 -2c-378 0 -619 255 -619 624c0 492 328 867 767 867c381 0 619 -255 619 -624c0 -364 -195 -641 -453 -795c-113 -71 -260 -174 -260 -269c0 -47 35 -74 98 -74
c29 0 57 4 74 12zM1240 830c0 251 -141 411 -360 411c-290 0 -500 -282 -500 -628c0 -251 141 -411 360 -411c291 0 500 281 500 628z" />
    <glyph glyph-name="Ocircumflexacute.mini" horiz-adv-x="1453" 
d="M1050 1712l259 238h259l-287 -238h-231zM1040 1664l223 -249h-249l-120 142h-17l-186 -142h-268l337 249h280zM688 -21c-356 0 -585 228 -589 560c-5 442 301 778 715 778c360 0 586 -229 590 -560c4 -443 -302 -778 -716 -778zM812 1112c-277 0 -471 -252 -468 -561
c4 -224 140 -367 347 -367c276 0 472 252 467 562c-2 223 -138 366 -346 366z" />
    <glyph glyph-name="O.mini" horiz-adv-x="1453" 
d="M688 -21c-356 0 -585 228 -589 560c-5 442 301 778 715 778c360 0 586 -229 590 -560c4 -443 -302 -778 -716 -778zM812 1112c-277 0 -471 -252 -468 -561c4 -224 140 -367 347 -367c276 0 472 252 467 562c-2 223 -138 366 -346 366z" />
    <glyph glyph-name="Ocircumflexgrave.mini" horiz-adv-x="1453" 
d="M1348 1712h-230l-177 238h259zM1040 1664l223 -249h-249l-120 142h-17l-186 -142h-268l337 249h280zM688 -21c-356 0 -585 228 -589 560c-5 442 301 778 715 778c360 0 586 -229 590 -560c4 -443 -302 -778 -716 -778zM812 1112c-277 0 -471 -252 -468 -561
c4 -224 140 -367 347 -367c276 0 472 252 467 562c-2 223 -138 366 -346 366z" />
    <glyph glyph-name="Otildemacron.mini" horiz-adv-x="1453" 
d="M1292 1781h-719l33 157h719zM1023 1415c-138 0 -186 118 -267 118c-53 0 -87 -29 -103 -92h-167c25 161 138 246 262 246c139 0 186 -118 267 -118c54 0 87 28 103 95h167c-25 -165 -138 -249 -262 -249zM688 -21c-356 0 -585 228 -589 560c-5 442 301 778 715 778
c360 0 586 -229 590 -560c4 -443 -302 -778 -716 -778zM812 1112c-277 0 -471 -252 -468 -561c4 -224 140 -367 347 -367c276 0 472 252 467 562c-2 223 -138 366 -346 366z" />
    <glyph glyph-name="Omacronacute.mini" horiz-adv-x="1453" 
d="M798 1725l256 225h261l-284 -225h-233zM1222 1451h-719l33 157h720zM688 -21c-356 0 -585 228 -589 560c-5 442 301 778 715 778c360 0 586 -229 590 -560c4 -443 -302 -778 -716 -778zM812 1112c-277 0 -471 -252 -468 -561c4 -224 140 -367 347 -367
c276 0 472 252 467 562c-2 223 -138 366 -346 366z" />
    <glyph glyph-name="Omacrongrave.mini" horiz-adv-x="1453" 
d="M1047 1725h-232l-180 225h261zM1222 1451h-719l33 157h720zM688 -21c-356 0 -585 228 -589 560c-5 442 301 778 715 778c360 0 586 -229 590 -560c4 -443 -302 -778 -716 -778zM812 1112c-277 0 -471 -252 -468 -561c4 -224 140 -367 347 -367c276 0 472 252 467 562
c-2 223 -138 366 -346 366z" />
    <glyph glyph-name="Otildedieresis.mini" horiz-adv-x="1453" 
d="M739 1725c-76 0 -128 46 -128 112c0 67 52 113 128 113s128 -46 128 -113c0 -66 -52 -112 -128 -112zM1152 1725c-76 0 -128 46 -128 112c0 67 52 113 128 113s128 -46 128 -113c0 -66 -52 -112 -128 -112zM1023 1415c-138 0 -186 118 -267 118c-53 0 -87 -29 -103 -92
h-167c25 161 138 246 262 246c139 0 186 -118 267 -118c54 0 87 28 103 95h167c-25 -165 -138 -249 -262 -249zM688 -21c-356 0 -585 228 -589 560c-5 442 301 778 715 778c360 0 586 -229 590 -560c4 -443 -302 -778 -716 -778zM812 1112c-277 0 -471 -252 -468 -561
c4 -224 140 -367 347 -367c276 0 472 252 467 562c-2 223 -138 366 -346 366z" />
    <glyph glyph-name="Otildeacute.mini" horiz-adv-x="1453" 
d="M800 1737l241 213h260l-271 -213h-230zM1023 1415c-138 0 -186 118 -267 118c-53 0 -87 -29 -103 -92h-167c25 161 138 246 262 246c139 0 186 -118 267 -118c54 0 87 28 103 95h167c-25 -165 -138 -249 -262 -249zM688 -21c-356 0 -585 228 -589 560
c-5 442 301 778 715 778c360 0 586 -229 590 -560c4 -443 -302 -778 -716 -778zM812 1112c-277 0 -471 -252 -468 -561c4 -224 140 -367 347 -367c276 0 472 252 467 562c-2 223 -138 366 -346 366z" />
    <glyph glyph-name="Odieresismacron.mini" horiz-adv-x="1453" 
d="M572 1778l34 160h719l-33 -160h-720zM670 1415c-77 0 -135 55 -135 129c0 73 58 128 135 128s135 -55 135 -128c0 -74 -58 -129 -135 -129zM1095 1415c-77 0 -134 55 -134 129c0 73 57 128 134 128s135 -55 135 -128c0 -74 -58 -129 -135 -129zM688 -21
c-356 0 -585 228 -589 560c-5 442 301 778 715 778c360 0 586 -229 590 -560c4 -443 -302 -778 -716 -778zM812 1112c-277 0 -471 -252 -468 -561c4 -224 140 -367 347 -367c276 0 472 252 467 562c-2 223 -138 366 -346 366z" />
    <glyph glyph-name="Odotaccentmacron.mini" horiz-adv-x="1453" 
d="M1292 1781h-719l33 157h719zM886 1414c-80 0 -139 57 -139 133s59 132 139 132s139 -56 139 -132s-59 -133 -139 -133zM688 -21c-356 0 -585 228 -589 560c-5 442 301 778 715 778c360 0 586 -229 590 -560c4 -443 -302 -778 -716 -778zM812 1112
c-277 0 -471 -252 -468 -561c4 -224 140 -367 347 -367c276 0 472 252 467 562c-2 223 -138 366 -346 366z" />
    <glyph glyph-name="Ocircumflexhookabove.mini" horiz-adv-x="1453" 
d="M1089 1803l29 131c31 9 72 16 106 16c134 0 227 -69 227 -174c0 -109 -78 -206 -204 -249l-82 104c67 21 117 65 117 117c0 43 -33 68 -98 68c-33 0 -69 -5 -95 -13zM1040 1664l223 -249h-249l-120 142h-17l-186 -142h-268l337 249h280zM688 -21
c-356 0 -585 228 -589 560c-5 442 301 778 715 778c360 0 586 -229 590 -560c4 -443 -302 -778 -716 -778zM812 1112c-277 0 -471 -252 -468 -561c4 -224 140 -367 347 -367c276 0 472 252 467 562c-2 223 -138 366 -346 366z" />
    <glyph glyph-name="Ocircumflextilde.mini" horiz-adv-x="1453" 
d="M1080 1707c-124 0 -183 99 -264 99c-47 0 -75 -25 -92 -82h-166c25 155 128 233 250 233c124 0 183 -99 265 -99c46 0 75 25 91 85h166c-24 -158 -128 -236 -250 -236zM1043 1657l220 -242h-249l-120 142h-17l-186 -142h-268l334 242h286zM688 -21
c-356 0 -585 228 -589 560c-5 442 301 778 715 778c360 0 586 -229 590 -560c4 -443 -302 -778 -716 -778zM812 1112c-277 0 -471 -252 -468 -561c4 -224 140 -367 347 -367c276 0 472 252 467 562c-2 223 -138 366 -346 366z" />
    <glyph glyph-name="P" unicode="P" horiz-adv-x="1266" 
d="M324 1443h520c265 0 451 -161 451 -411c0 -347 -255 -559 -613 -559h-303l-101 -473h-260zM539 1227l-116 -540h253c216 0 356 122 356 322c0 141 -98 218 -256 218h-237z" />
    <glyph glyph-name="Pdotaccent" unicode="&#x1e56;" horiz-adv-x="1266" 
d="M807 1579c-76 0 -136 62 -136 138s60 137 136 137s136 -61 136 -137s-60 -138 -136 -138zM324 1443h520c265 0 451 -161 451 -411c0 -347 -255 -559 -613 -559h-303l-101 -473h-260zM539 1227l-116 -540h253c216 0 356 122 356 322c0 141 -98 218 -256 218h-237z" />
    <glyph glyph-name="Pacute" unicode="&#x1e54;" horiz-adv-x="1266" 
d="M865 1558h-179l204 300h234zM324 1443h520c265 0 451 -161 451 -411c0 -347 -255 -559 -613 -559h-303l-101 -473h-260zM539 1227l-116 -540h253c216 0 356 122 356 322c0 141 -98 218 -256 218h-237z" />
    <glyph glyph-name="Q" unicode="Q" horiz-adv-x="1540" 
d="M1262 -149h-241l-77 156c-65 -20 -136 -31 -208 -31c-378 0 -619 255 -619 624c0 492 328 867 767 867c381 0 619 -255 619 -624c0 -315 -138 -585 -362 -740zM740 202c38 0 74 5 112 14l-116 239h229l65 -119c131 105 210 288 210 494c0 251 -141 411 -360 411
c-290 0 -500 -282 -500 -628c0 -251 141 -411 360 -411z" />
    <glyph glyph-name="R" unicode="R" horiz-adv-x="1309" 
d="M17 0l307 1443h551c282 0 441 -163 441 -398c0 -217 -136 -412 -373 -474l189 -571h-270l-173 541h-296l-115 -541h-261zM540 1229l-104 -483h297c189 0 319 114 319 275c0 130 -85 208 -225 208h-287z" />
    <glyph glyph-name="Rcaron" unicode="&#x158;" horiz-adv-x="1309" 
d="M695 1552l-209 311h196l123 -191h7l196 191h199l-320 -311h-192zM17 0l307 1443h551c282 0 441 -163 441 -398c0 -217 -136 -412 -373 -474l189 -571h-270l-173 541h-296l-115 -541h-261zM540 1229l-104 -483h297c189 0 319 114 319 275c0 130 -85 208 -225 208h-287z
" />
    <glyph glyph-name="Rlinebelow" unicode="&#x1e5e;" horiz-adv-x="1309" 
d="M17 0l307 1443h551c282 0 441 -163 441 -398c0 -217 -136 -412 -373 -474l189 -571h-270l-173 541h-296l-115 -541h-261zM540 1229l-104 -483h297c189 0 319 114 319 275c0 130 -85 208 -225 208h-287zM838 -190l-31 -148h-620l31 148h620z" />
    <glyph glyph-name="Rdotbelowmacron" unicode="&#x1e5c;" horiz-adv-x="1309" 
d="M1138 1787l-31 -148h-620l31 148h620zM17 0l307 1443h551c282 0 441 -163 441 -398c0 -217 -136 -412 -373 -474l189 -571h-270l-173 541h-296l-115 -541h-261zM540 1229l-104 -483h297c189 0 319 114 319 275c0 130 -85 208 -225 208h-287zM513 -402
c-76 0 -137 62 -137 138s61 138 137 138s136 -62 136 -138s-60 -138 -136 -138z" />
    <glyph glyph-name="Rdblgrave" unicode="&#x210;" horiz-adv-x="1309" 
d="M871 1558l-57 300h211l8 -300h-162zM535 1558l-121 300h227l64 -300h-170zM17 0l307 1443h551c282 0 441 -163 441 -398c0 -217 -136 -412 -373 -474l189 -571h-270l-173 541h-296l-115 -541h-261zM540 1229l-104 -483h297c189 0 319 114 319 275c0 130 -85 208 -225 208
h-287z" />
    <glyph glyph-name="Rinvertedbreve" unicode="&#x212;" horiz-adv-x="1309" 
d="M790 1854c263 0 342 -188 318 -314h-157c10 91 -40 177 -168 177c-108 0 -185 -64 -203 -177h-159c19 187 156 315 369 314zM17 0l307 1443h551c282 0 441 -163 441 -398c0 -217 -136 -412 -373 -474l189 -571h-270l-173 541h-296l-115 -541h-261zM540 1229l-104 -483
h297c189 0 319 114 319 275c0 130 -85 208 -225 208h-287z" />
    <glyph glyph-name="Racute" unicode="&#x154;" horiz-adv-x="1309" 
d="M872 1558h-179l204 300h234zM17 0l307 1443h551c282 0 441 -163 441 -398c0 -217 -136 -412 -373 -474l189 -571h-270l-173 541h-296l-115 -541h-261zM540 1229l-104 -483h297c189 0 319 114 319 275c0 130 -85 208 -225 208h-287z" />
    <glyph glyph-name="Rdotbelow" unicode="&#x1e5a;" horiz-adv-x="1309" 
d="M17 0l307 1443h551c282 0 441 -163 441 -398c0 -217 -136 -412 -373 -474l189 -571h-270l-173 541h-296l-115 -541h-261zM540 1229l-104 -483h297c189 0 319 114 319 275c0 130 -85 208 -225 208h-287zM513 -402c-76 0 -137 62 -137 138s61 138 137 138s136 -62 136 -138
s-60 -138 -136 -138z" />
    <glyph glyph-name="Rdotaccent" unicode="&#x1e58;" horiz-adv-x="1309" 
d="M814 1579c-76 0 -136 62 -136 138s60 137 136 137s136 -61 136 -137s-60 -138 -136 -138zM17 0l307 1443h551c282 0 441 -163 441 -398c0 -217 -136 -412 -373 -474l189 -571h-270l-173 541h-296l-115 -541h-261zM540 1229l-104 -483h297c189 0 319 114 319 275
c0 130 -85 208 -225 208h-287z" />
    <glyph glyph-name="Rcommaaccent" unicode="&#x156;" horiz-adv-x="1309" 
d="M17 0l307 1443h551c282 0 441 -163 441 -398c0 -217 -136 -412 -373 -474l189 -571h-270l-173 541h-296l-115 -541h-261zM540 1229l-104 -483h297c189 0 319 114 319 275c0 130 -85 208 -225 208h-287zM475 -478h-179l157 347h216z" />
    <glyph glyph-name="Rcommaaccent.mini" horiz-adv-x="1309" 
d="M17 0l307 1443h551c282 0 441 -163 441 -398c0 -217 -136 -412 -373 -474l189 -571h-270l-173 541h-296l-115 -541h-261zM540 1229l-104 -483h297c189 0 319 114 319 275c0 130 -85 208 -225 208h-287zM500 -432h-183l131 291h216z" />
    <glyph glyph-name="S" unicode="S" horiz-adv-x="1277" 
d="M45 424h251c17 -136 144 -232 331 -232c166 0 288 74 288 202c0 103 -62 157 -226 208l-114 35c-239 75 -360 195 -360 391c0 263 221 439 533 439c318 0 536 -163 536 -432h-245c-6 128 -114 216 -290 216s-270 -93 -270 -195c0 -93 65 -151 222 -199l115 -36
c246 -75 365 -190 365 -382c0 -254 -203 -463 -558 -463c-328 0 -571 167 -578 448z" />
    <glyph glyph-name="Scaron" unicode="&#x160;" horiz-adv-x="1277" 
d="M727 1552l-209 311h195l123 -191h7l197 191h198l-320 -311h-191zM45 424h251c17 -136 144 -232 331 -232c166 0 288 74 288 202c0 103 -62 157 -226 208l-114 35c-239 75 -360 195 -360 391c0 263 221 439 533 439c318 0 536 -163 536 -432h-245
c-6 128 -114 216 -290 216s-270 -93 -270 -195c0 -93 65 -151 222 -199l115 -36c246 -75 365 -190 365 -382c0 -254 -203 -463 -558 -463c-328 0 -571 167 -578 448z" />
    <glyph glyph-name="Scedilla" unicode="&#x15e;" horiz-adv-x="1277" 
d="M45 424h251c17 -136 144 -232 331 -232c166 0 288 74 288 202c0 103 -62 157 -226 208l-114 35c-239 75 -360 195 -360 391c0 263 221 439 533 439c318 0 536 -163 536 -432h-245c-6 128 -114 216 -290 216s-270 -93 -270 -195c0 -93 65 -151 222 -199l115 -36
c246 -75 365 -190 365 -382c0 -238 -179 -437 -495 -460l-67 -98c75 -4 155 -52 155 -156c0 -121 -111 -181 -260 -181c-56 0 -107 8 -149 21l27 118c26 -8 60 -15 102 -15c51 0 109 12 109 52s-45 57 -115 57h-51l21 99l72 105c-280 29 -479 189 -485 443z" />
    <glyph glyph-name="Sdotaccent" unicode="&#x1e60;" horiz-adv-x="1277" 
d="M845 1579c-75 0 -136 62 -136 138s61 137 136 137c77 0 137 -61 137 -137s-60 -138 -137 -138zM45 424h251c17 -136 144 -232 331 -232c166 0 288 74 288 202c0 103 -62 157 -226 208l-114 35c-239 75 -360 195 -360 391c0 263 221 439 533 439c318 0 536 -163 536 -432
h-245c-6 128 -114 216 -290 216s-270 -93 -270 -195c0 -93 65 -151 222 -199l115 -36c246 -75 365 -190 365 -382c0 -254 -203 -463 -558 -463c-328 0 -571 167 -578 448z" />
    <glyph glyph-name="Sdotbelow" unicode="&#x1e62;" horiz-adv-x="1277" 
d="M45 424h251c17 -136 144 -232 331 -232c166 0 288 74 288 202c0 103 -62 157 -226 208l-114 35c-239 75 -360 195 -360 391c0 263 221 439 533 439c318 0 536 -163 536 -432h-245c-6 128 -114 216 -290 216s-270 -93 -270 -195c0 -93 65 -151 222 -199l115 -36
c246 -75 365 -190 365 -382c0 -254 -203 -463 -558 -463c-328 0 -571 167 -578 448zM553 -402c-75 0 -136 62 -136 138s61 138 136 138c76 0 137 -62 137 -138s-61 -138 -137 -138z" />
    <glyph glyph-name="Scommaaccent" unicode="&#x218;" horiz-adv-x="1277" 
d="M45 424h251c17 -136 144 -232 331 -232c166 0 288 74 288 202c0 103 -62 157 -226 208l-114 35c-239 75 -360 195 -360 391c0 263 221 439 533 439c318 0 536 -163 536 -432h-245c-6 128 -114 216 -290 216s-270 -93 -270 -195c0 -93 65 -151 222 -199l115 -36
c246 -75 365 -190 365 -382c0 -254 -203 -463 -558 -463c-328 0 -571 167 -578 448zM515 -478h-178l156 347h216z" />
    <glyph glyph-name="Sdotbelowdotaccent" unicode="&#x1e68;" horiz-adv-x="1277" 
d="M845 1579c-75 0 -136 62 -136 138s61 137 136 137c77 0 137 -61 137 -137s-60 -138 -137 -138zM45 424h251c17 -136 144 -232 331 -232c166 0 288 74 288 202c0 103 -62 157 -226 208l-114 35c-239 75 -360 195 -360 391c0 263 221 439 533 439c318 0 536 -163 536 -432
h-245c-6 128 -114 216 -290 216s-270 -93 -270 -195c0 -93 65 -151 222 -199l115 -36c246 -75 365 -190 365 -382c0 -254 -203 -463 -558 -463c-328 0 -571 167 -578 448zM553 -402c-75 0 -136 62 -136 138s61 138 136 138c76 0 137 -62 137 -138s-61 -138 -137 -138z" />
    <glyph glyph-name="Scarondotaccent" unicode="&#x1e66;" horiz-adv-x="1277" 
d="M877 1847c-71 0 -124 55 -124 124c0 68 53 123 124 123s125 -55 125 -123c0 -69 -54 -124 -125 -124zM706 1539l-215 274h195l128 -167h6l200 167h220l-332 -274h-202zM45 424h251c17 -136 144 -232 331 -232c166 0 288 74 288 202c0 103 -62 157 -226 208l-114 35
c-239 75 -360 195 -360 391c0 263 221 439 533 439c318 0 536 -163 536 -432h-245c-6 128 -114 216 -290 216s-270 -93 -270 -195c0 -93 65 -151 222 -199l115 -36c246 -75 365 -190 365 -382c0 -254 -203 -463 -558 -463c-328 0 -571 167 -578 448z" />
    <glyph glyph-name="Scircumflex" unicode="&#x15c;" horiz-adv-x="1277" 
d="M964 1863l209 -311h-196l-123 190h-6l-197 -190h-198l320 311h191zM45 424h251c17 -136 144 -232 331 -232c166 0 288 74 288 202c0 103 -62 157 -226 208l-114 35c-239 75 -360 195 -360 391c0 263 221 439 533 439c318 0 536 -163 536 -432h-245
c-6 128 -114 216 -290 216s-270 -93 -270 -195c0 -93 65 -151 222 -199l115 -36c246 -75 365 -190 365 -382c0 -254 -203 -463 -558 -463c-328 0 -571 167 -578 448z" />
    <glyph glyph-name="Sacutedotaccent" unicode="&#x1e64;" horiz-adv-x="1277" 
d="M1049 1560h-179l204 300h235zM657 1536c-76 0 -137 62 -137 137c0 76 61 138 137 138s136 -62 136 -138c0 -75 -60 -137 -136 -137zM45 424h251c17 -136 144 -232 331 -232c166 0 288 74 288 202c0 103 -62 157 -226 208l-114 35c-239 75 -360 195 -360 391
c0 263 221 439 533 439c318 0 536 -163 536 -432h-245c-6 128 -114 216 -290 216s-270 -93 -270 -195c0 -93 65 -151 222 -199l115 -36c246 -75 365 -190 365 -382c0 -254 -203 -463 -558 -463c-328 0 -571 167 -578 448z" />
    <glyph glyph-name="Sacute" unicode="&#x15a;" horiz-adv-x="1277" 
d="M903 1558h-179l204 300h235zM45 424h251c17 -136 144 -232 331 -232c166 0 288 74 288 202c0 103 -62 157 -226 208l-114 35c-239 75 -360 195 -360 391c0 263 221 439 533 439c318 0 536 -163 536 -432h-245c-6 128 -114 216 -290 216s-270 -93 -270 -195
c0 -93 65 -151 222 -199l115 -36c246 -75 365 -190 365 -382c0 -254 -203 -463 -558 -463c-328 0 -571 167 -578 448z" />
    <glyph glyph-name="Germandbls" unicode="&#x1e9e;" horiz-adv-x="1453" 
d="M276 0h-258l193 910c79 374 331 557 693 557c224 0 444 -69 567 -157l-37 -179l-370 -320c201 -52 296 -180 296 -358c0 -272 -214 -478 -531 -478c-128 0 -249 25 -335 62l51 243c76 -49 176 -76 282 -76c154 0 268 94 268 222c0 109 -65 190 -245 217l-91 14l37 181
l388 338c-87 41 -183 62 -285 63c-235 1 -388 -132 -436 -359z" />
    <glyph glyph-name="Scommaaccent.mini" horiz-adv-x="1277" 
d="M45 424h251c17 -136 144 -232 331 -232c166 0 288 74 288 202c0 103 -62 157 -226 208l-114 35c-239 75 -360 195 -360 391c0 263 221 439 533 439c318 0 536 -163 536 -432h-245c-6 128 -114 216 -290 216s-270 -93 -270 -195c0 -93 65 -151 222 -199l115 -36
c246 -75 365 -190 365 -382c0 -254 -203 -463 -558 -463c-328 0 -571 167 -578 448zM540 -432h-183l132 291h216z" />
    <glyph glyph-name="Scedilla.mini" horiz-adv-x="1277" 
d="M45 424h251c17 -136 144 -232 331 -232c166 0 288 74 288 202c0 103 -62 157 -226 208l-114 35c-239 75 -360 195 -360 391c0 263 221 439 533 439c318 0 536 -163 536 -432h-245c-6 128 -114 216 -290 216s-270 -93 -270 -195c0 -93 65 -151 222 -199l115 -36
c246 -75 365 -190 365 -382c0 -242 -185 -444 -511 -461l-53 -74c78 -6 152 -54 152 -154c0 -121 -109 -181 -258 -181c-55 0 -106 8 -148 22l27 117c26 -8 59 -15 102 -15c51 0 109 12 109 53c0 39 -45 57 -115 57h-51l21 99l59 81c-272 33 -464 192 -470 441z" />
    <glyph glyph-name="S.mini" horiz-adv-x="1204" 
d="M32 381h235c17 -122 140 -206 318 -206c156 0 271 66 270 179c-2 92 -61 139 -217 185l-107 32c-227 67 -342 175 -344 350c-2 238 204 396 498 396c299 0 507 -146 510 -388h-230c-7 114 -111 192 -277 192c-168 0 -256 -82 -254 -173c1 -82 63 -135 213 -177l108 -33
c233 -67 346 -171 348 -343c3 -229 -187 -416 -521 -416c-309 0 -541 149 -550 402z" />
    <glyph glyph-name="Scarondotaccent.mini" horiz-adv-x="1204" 
d="M837 1696c-74 0 -133 56 -133 127s59 127 133 127s134 -56 134 -127s-60 -127 -134 -127zM619 1415l-223 249h246l120 -143h17l186 143h271l-337 -249h-280zM32 381h235c17 -122 140 -206 318 -206c156 0 271 66 270 179c-2 92 -61 139 -217 185l-107 32
c-227 67 -342 175 -344 350c-2 238 204 396 498 396c299 0 507 -146 510 -388h-230c-7 114 -111 192 -277 192c-168 0 -256 -82 -254 -173c1 -82 63 -135 213 -177l108 -33c233 -67 346 -171 348 -343c3 -229 -187 -416 -521 -416c-309 0 -541 149 -550 402z" />
    <glyph glyph-name="T" unicode="T" horiz-adv-x="1241" 
d="M638 0h-260l260 1220h-443l46 223h1147l-46 -223h-444z" />
    <glyph glyph-name="Tcircumflexbelow" unicode="&#x1e70;" horiz-adv-x="1241" 
d="M638 0h-260l260 1220h-443l46 223h1147l-46 -223h-444zM580 -131l197 -309h-193l-110 182h-6l-180 -182h-202l302 309h192z" />
    <glyph glyph-name="Tdotbelow" unicode="&#x1e6c;" horiz-adv-x="1241" 
d="M638 0h-260l260 1220h-443l46 223h1147l-46 -223h-444zM455 -402c-75 0 -136 62 -136 138s61 138 136 138c77 0 137 -62 137 -138s-60 -138 -137 -138z" />
    <glyph glyph-name="Tcommaaccent" unicode="&#x21a;" horiz-adv-x="1241" 
d="M638 0h-260l260 1220h-443l46 223h1147l-46 -223h-444zM417 -478h-178l156 347h216z" />
    <glyph glyph-name="Tdotaccent" unicode="&#x1e6a;" horiz-adv-x="1241" 
d="M875 1579c-76 0 -137 62 -137 138s61 137 137 137s136 -61 136 -137s-60 -138 -136 -138zM638 0h-260l260 1220h-443l46 223h1147l-46 -223h-444z" />
    <glyph glyph-name="Tcedilla" unicode="&#x162;" horiz-adv-x="1241" 
d="M302 -435l27 118c26 -8 60 -15 102 -15c51 0 109 12 109 52s-45 57 -115 57h-51l21 99l85 124h-102l260 1220h-443l46 223h1147l-46 -223h-444l-260 -1220l-82 -119c75 -4 155 -52 155 -156c0 -121 -111 -181 -260 -181c-56 0 -107 8 -149 21z" />
    <glyph glyph-name="Tlinebelow" unicode="&#x1e6e;" horiz-adv-x="1241" 
d="M638 0h-260l260 1220h-443l46 223h1147l-46 -223h-444zM780 -190l-30 -148h-621l32 148h619z" />
    <glyph glyph-name="Tcaron" unicode="&#x164;" horiz-adv-x="1241" 
d="M756 1552l-209 311h196l123 -191h6l197 191h199l-321 -311h-191zM638 0h-260l260 1220h-443l46 223h1147l-46 -223h-444z" />
    <glyph glyph-name="Tbar" unicode="&#x166;" horiz-adv-x="1241" 
d="M638 0h-260l134 628h-302l40 191h302l86 401h-443l46 223h1147l-46 -223h-444l-85 -401h297l-39 -191h-299z" />
    <glyph glyph-name="Tcommaaccent.mini" horiz-adv-x="1241" 
d="M638 0h-260l260 1220h-443l46 223h1147l-46 -223h-444zM442 -432h-183l132 291h216z" />
    <glyph glyph-name="Tcedilla.mini" horiz-adv-x="1241" 
d="M315 -409l27 117c26 -8 59 -15 102 -15c51 0 109 12 109 53c0 39 -45 57 -115 57h-51l21 99l71 98h-101l260 1220h-443l46 223h1147l-46 -223h-444l-260 -1220l-69 -96c78 -6 152 -54 152 -154c0 -121 -109 -181 -258 -181c-55 0 -106 8 -148 22z" />
    <glyph glyph-name="U" unicode="U" horiz-adv-x="1453" 
d="M665 -24c-344 0 -537 199 -539 462c0 41 4 85 13 128l185 877h260l-183 -868c-9 -40 -12 -79 -12 -113c5 -156 111 -253 303 -253c185 0 324 113 367 308l197 926h260l-208 -981c-65 -305 -292 -486 -643 -486z" />
    <glyph glyph-name="Ugrave" unicode="&#xd9;" horiz-adv-x="1453" 
d="M840 1558l-133 300h235l76 -300h-178zM665 -24c-344 0 -537 199 -539 462c0 41 4 85 13 128l185 877h260l-183 -868c-9 -40 -12 -79 -12 -113c5 -156 111 -253 303 -253c185 0 324 113 367 308l197 926h260l-208 -981c-65 -305 -292 -486 -643 -486z" />
    <glyph glyph-name="Udblgrave" unicode="&#x214;" horiz-adv-x="1453" 
d="M1022 1558l-57 300h211l8 -300h-162zM686 1558l-121 300h227l63 -300h-169zM665 -24c-344 0 -537 199 -539 462c0 41 4 85 13 128l185 877h260l-183 -868c-9 -40 -12 -79 -12 -113c5 -156 111 -253 303 -253c185 0 324 113 367 308l197 926h260l-208 -981
c-65 -305 -292 -486 -643 -486z" />
    <glyph glyph-name="Uacute" unicode="&#xda;" horiz-adv-x="1453" 
d="M1022 1558h-178l204 300h234zM665 -24c-344 0 -537 199 -539 462c0 41 4 85 13 128l185 877h260l-183 -868c-9 -40 -12 -79 -12 -113c5 -156 111 -253 303 -253c185 0 324 113 367 308l197 926h260l-208 -981c-65 -305 -292 -486 -643 -486z" />
    <glyph glyph-name="Uhungarumlaut" unicode="&#x170;" horiz-adv-x="1453" 
d="M840 1558h-162l135 300h211zM1176 1558h-170l192 300h227zM665 -24c-344 0 -537 199 -539 462c0 41 4 85 13 128l185 877h260l-183 -868c-9 -40 -12 -79 -12 -113c5 -156 111 -253 303 -253c185 0 324 113 367 308l197 926h260l-208 -981c-65 -305 -292 -486 -643 -486z
" />
    <glyph glyph-name="Ucircumflex" unicode="&#xdb;" horiz-adv-x="1453" 
d="M1084 1863l208 -311h-195l-123 190h-7l-197 -190h-198l320 311h192zM665 -24c-344 0 -537 199 -539 462c0 41 4 85 13 128l185 877h260l-183 -868c-9 -40 -12 -79 -12 -113c5 -156 111 -253 303 -253c185 0 324 113 367 308l197 926h260l-208 -981
c-65 -305 -292 -486 -643 -486z" />
    <glyph glyph-name="Ucaron" unicode="&#x1d3;" horiz-adv-x="1453" 
d="M846 1552l-209 311h196l123 -191h7l196 191h199l-321 -311h-191zM665 -24c-344 0 -537 199 -539 462c0 41 4 85 13 128l185 877h260l-183 -868c-9 -40 -12 -79 -12 -113c5 -156 111 -253 303 -253c185 0 324 113 367 308l197 926h260l-208 -981
c-65 -305 -292 -486 -643 -486z" />
    <glyph glyph-name="Ucircumflexbelow" unicode="&#x1e76;" horiz-adv-x="1453" 
d="M665 -24c-344 0 -537 199 -539 462c0 41 4 85 13 128l185 877h260l-183 -868c-9 -40 -12 -79 -12 -113c5 -156 111 -253 303 -253c185 0 324 113 367 308l197 926h260l-208 -981c-65 -305 -292 -486 -643 -486zM705 -131l196 -309h-193l-109 182h-7l-180 -182h-201
l302 309h192z" />
    <glyph glyph-name="Udieresis" unicode="&#xdc;" horiz-adv-x="1453" 
d="M763 1584c-73 0 -131 60 -131 132c0 74 58 133 131 133c74 0 132 -59 132 -133c0 -72 -58 -132 -132 -132zM1166 1584c-73 0 -132 60 -132 132c0 74 59 133 132 133c74 0 132 -59 132 -133c0 -72 -58 -132 -132 -132zM665 -24c-344 0 -537 199 -539 462c0 41 4 85 13 128
l185 877h260l-183 -868c-9 -40 -12 -79 -12 -113c5 -156 111 -253 303 -253c185 0 324 113 367 308l197 926h260l-208 -981c-65 -305 -292 -486 -643 -486z" />
    <glyph glyph-name="Udieresisgrave" unicode="&#x1db;" horiz-adv-x="1453" 
d="M1102 1863h-177l-157 239h206zM769 1556c-67 0 -119 52 -119 118s52 118 119 118c66 0 118 -52 118 -118s-52 -118 -118 -118zM1144 1556c-67 0 -119 52 -119 118s52 118 119 118c66 0 119 -52 119 -118s-53 -118 -119 -118zM665 -24c-344 0 -537 199 -539 462
c0 41 4 85 13 128l185 877h260l-183 -868c-9 -40 -12 -79 -12 -113c5 -156 111 -253 303 -253c185 0 324 113 367 308l197 926h260l-208 -981c-65 -305 -292 -486 -643 -486z" />
    <glyph glyph-name="Udieresisacute" unicode="&#x1d7;" horiz-adv-x="1453" 
d="M879 1863l229 239h229l-257 -239h-201zM769 1556c-67 0 -119 52 -119 118s52 118 119 118c66 0 118 -52 118 -118s-52 -118 -118 -118zM1144 1556c-67 0 -119 52 -119 118s52 118 119 118c66 0 119 -52 119 -118s-53 -118 -119 -118zM665 -24c-344 0 -537 199 -539 462
c0 41 4 85 13 128l185 877h260l-183 -868c-9 -40 -12 -79 -12 -113c5 -156 111 -253 303 -253c185 0 324 113 367 308l197 926h260l-208 -981c-65 -305 -292 -486 -643 -486z" />
    <glyph glyph-name="Udieresismacron" unicode="&#x1d5;" horiz-adv-x="1453" 
d="M1373 2058l-30 -138h-670l29 138h671zM764 1791c68 0 121 -54 121 -122c0 -67 -53 -121 -121 -121c-69 0 -122 54 -122 121c0 68 53 122 122 122zM1147 1791c69 0 122 -54 122 -122c0 -67 -53 -121 -122 -121c-68 0 -121 54 -121 121c0 68 53 122 121 122zM665 -24
c-344 0 -537 199 -539 462c0 41 4 85 13 128l185 877h260l-183 -868c-9 -40 -12 -79 -12 -113c5 -156 111 -253 303 -253c185 0 324 113 367 308l197 926h260l-208 -981c-65 -305 -292 -486 -643 -486z" />
    <glyph glyph-name="Udieresiscaron" unicode="&#x1d9;" horiz-adv-x="1453" 
d="M898 1855l-205 257h192l116 -147h11l177 147h216l-313 -257h-194zM764 1791c68 0 121 -54 121 -122c0 -67 -53 -121 -121 -121c-69 0 -122 54 -122 121c0 68 53 122 122 122zM1147 1791c69 0 122 -54 122 -122c0 -67 -53 -121 -122 -121c-68 0 -121 54 -121 121
c0 68 53 122 121 122zM665 -24c-344 0 -537 199 -539 462c0 41 4 85 13 128l185 877h260l-183 -868c-9 -40 -12 -79 -12 -113c5 -156 111 -253 303 -253c185 0 324 113 367 308l197 926h260l-208 -981c-65 -305 -292 -486 -643 -486z" />
    <glyph glyph-name="Udieresisbelow" unicode="&#x1e72;" horiz-adv-x="1453" 
d="M665 -24c-344 0 -537 199 -539 462c0 41 4 85 13 128l185 877h260l-183 -868c-9 -40 -12 -79 -12 -113c5 -156 111 -253 303 -253c185 0 324 113 367 308l197 926h260l-208 -981c-65 -305 -292 -486 -643 -486zM378 -397c-73 0 -131 60 -131 133s58 132 131 132
c74 0 133 -59 133 -132s-59 -133 -133 -133zM781 -397c-73 0 -132 60 -132 133s59 132 132 132c74 0 132 -59 132 -132s-58 -133 -132 -133z" />
    <glyph glyph-name="Utildebelow" unicode="&#x1e74;" horiz-adv-x="1453" 
d="M665 -24c-344 0 -537 199 -539 462c0 41 4 85 13 128l185 877h260l-183 -868c-9 -40 -12 -79 -12 -113c5 -156 111 -253 303 -253c185 0 324 113 367 308l197 926h260l-208 -981c-65 -305 -292 -486 -643 -486zM230 -370c25 141 104 245 230 245c140 0 176 -135 247 -135
c37 0 62 34 78 103h152c-24 -141 -103 -247 -230 -247c-139 0 -175 135 -245 135c-39 0 -64 -32 -79 -101h-153z" />
    <glyph glyph-name="Uhookabove" unicode="&#x1ee6;" horiz-adv-x="1453" 
d="M781 1761l13 130c31 13 81 26 139 26c112 0 198 -70 198 -172c0 -110 -78 -197 -204 -238l-64 97c71 26 110 66 110 112c0 38 -36 67 -87 67c-37 0 -79 -8 -105 -22zM665 -24c-344 0 -537 199 -539 462c0 41 4 85 13 128l185 877h260l-183 -868c-9 -40 -12 -79 -12 -113
c5 -156 111 -253 303 -253c185 0 324 113 367 308l197 926h260l-208 -981c-65 -305 -292 -486 -643 -486z" />
    <glyph glyph-name="Ubreve" unicode="&#x16c;" horiz-adv-x="1453" 
d="M954 1540c-263 0 -342 188 -318 314h157c-10 -91 39 -176 168 -176c108 0 185 64 202 176h160c-20 -187 -156 -314 -369 -314zM665 -24c-344 0 -537 199 -539 462c0 41 4 85 13 128l185 877h260l-183 -868c-9 -40 -12 -79 -12 -113c5 -156 111 -253 303 -253
c185 0 324 113 367 308l197 926h260l-208 -981c-65 -305 -292 -486 -643 -486z" />
    <glyph glyph-name="Uinvertedbreve" unicode="&#x216;" horiz-adv-x="1453" 
d="M941 1854c263 0 342 -188 317 -314h-156c10 91 -40 177 -168 177c-108 0 -185 -64 -203 -177h-159c19 187 156 315 369 314zM665 -24c-344 0 -537 199 -539 462c0 41 4 85 13 128l185 877h260l-183 -868c-9 -40 -12 -79 -12 -113c5 -156 111 -253 303 -253
c185 0 324 113 367 308l197 926h260l-208 -981c-65 -305 -292 -486 -643 -486z" />
    <glyph glyph-name="Utildeacute" unicode="&#x1e78;" horiz-adv-x="1453" 
d="M899 1876l226 226h229l-254 -226h-201zM1075 1539c-137 0 -171 139 -246 139c-44 0 -82 -44 -96 -119h-144c31 162 128 258 251 258c135 0 169 -139 244 -139c44 0 80 44 97 122h144c-31 -160 -131 -261 -250 -261zM665 -24c-344 0 -537 199 -539 462c0 41 4 85 13 128
l185 877h260l-183 -868c-9 -40 -12 -79 -12 -113c5 -156 111 -253 303 -253c185 0 324 113 367 308l197 926h260l-208 -981c-65 -305 -292 -486 -643 -486z" />
    <glyph glyph-name="Udotbelow" unicode="&#x1ee4;" horiz-adv-x="1453" 
d="M665 -24c-344 0 -537 199 -539 462c0 41 4 85 13 128l185 877h260l-183 -868c-9 -40 -12 -79 -12 -113c5 -156 111 -253 303 -253c185 0 324 113 367 308l197 926h260l-208 -981c-65 -305 -292 -486 -643 -486zM580 -402c-76 0 -136 62 -136 138s60 138 136 138
s136 -62 136 -138s-60 -138 -136 -138z" />
    <glyph glyph-name="Utilde" unicode="&#x168;" horiz-adv-x="1453" 
d="M613 1598c24 141 104 245 229 245c140 0 176 -134 247 -134c37 0 63 33 79 102h151c-24 -141 -103 -247 -230 -247c-139 0 -174 135 -245 135c-39 0 -64 -32 -79 -101h-152zM665 -24c-344 0 -537 199 -539 462c0 41 4 85 13 128l185 877h260l-183 -868
c-9 -40 -12 -79 -12 -113c5 -156 111 -253 303 -253c185 0 324 113 367 308l197 926h260l-208 -981c-65 -305 -292 -486 -643 -486z" />
    <glyph glyph-name="Umacron" unicode="&#x16a;" horiz-adv-x="1453" 
d="M1289 1787l-31 -148h-620l31 148h620zM665 -24c-344 0 -537 199 -539 462c0 41 4 85 13 128l185 877h260l-183 -868c-9 -40 -12 -79 -12 -113c5 -156 111 -253 303 -253c185 0 324 113 367 308l197 926h260l-208 -981c-65 -305 -292 -486 -643 -486z" />
    <glyph glyph-name="Umacrondieresis" unicode="&#x1e7a;" horiz-adv-x="1453" 
d="M827 1868c-69 0 -122 54 -122 121c0 68 53 122 122 122c68 0 121 -54 121 -122c0 -67 -53 -121 -121 -121zM1210 1868c-69 0 -122 54 -122 121c0 68 53 122 122 122c68 0 121 -54 121 -122c0 -67 -53 -121 -121 -121zM1275 1597h-670l29 138h670zM665 -24
c-344 0 -537 199 -539 462c0 41 4 85 13 128l185 877h260l-183 -868c-9 -40 -12 -79 -12 -113c5 -156 111 -253 303 -253c185 0 324 113 367 308l197 926h260l-208 -981c-65 -305 -292 -486 -643 -486z" />
    <glyph glyph-name="Uring" unicode="&#x16e;" horiz-adv-x="1453" 
d="M968 1529c-114 0 -208 93 -208 207c0 113 94 206 208 206c113 0 207 -93 207 -206c0 -114 -94 -207 -207 -207zM968 1639c54 0 98 44 98 97s-44 97 -98 97s-98 -44 -98 -97s44 -97 98 -97zM665 -24c-344 0 -537 199 -539 462c0 41 4 85 13 128l185 877h260l-183 -868
c-9 -40 -12 -79 -12 -113c5 -156 111 -253 303 -253c185 0 324 113 367 308l197 926h260l-208 -981c-65 -305 -292 -486 -643 -486z" />
    <glyph glyph-name="Uogonek" unicode="&#x172;" horiz-adv-x="1453" 
d="M880 -428c-25 -13 -76 -22 -132 -22c-125 0 -211 67 -211 170c0 92 63 180 190 254v5c-10 -2 -36 -3 -58 -3c-344 0 -541 198 -543 462c0 40 4 84 13 127l185 878h261l-183 -869c-9 -40 -13 -78 -12 -113c5 -155 110 -252 302 -252c185 0 324 112 366 308l198 926h260
l-208 -982c-42 -194 -152 -330 -312 -416c-164 -90 -258 -185 -258 -266c0 -47 36 -74 99 -74c29 0 56 4 73 12z" />
    <glyph glyph-name="Uhorn" unicode="&#x1af;" horiz-adv-x="1645" 
d="M666 -24c-343 0 -541 197 -543 462c0 41 5 85 13 127l185 878h261l-183 -869c-9 -40 -13 -78 -12 -113c5 -152 107 -252 302 -252c186 0 324 112 367 308l197 926h268c56 0 90 26 102 80l36 175h205l-47 -224c-27 -129 -125 -205 -261 -205l-78 1l-173 -809
c-65 -303 -287 -485 -639 -485z" />
    <glyph glyph-name="Uhorngrave" unicode="&#x1eea;" horiz-adv-x="1645" 
d="M848 1558l-132 300h235l76 -300h-179zM666 -24c-343 0 -541 197 -543 462c0 41 5 85 13 127l185 878h261l-183 -869c-9 -40 -13 -78 -12 -113c5 -152 107 -252 302 -252c186 0 324 112 367 308l197 926h268c56 0 90 26 102 80l36 175h205l-47 -224
c-27 -129 -125 -205 -261 -205l-78 1l-173 -809c-65 -303 -287 -485 -639 -485z" />
    <glyph glyph-name="Uhornacute" unicode="&#x1ee8;" horiz-adv-x="1645" 
d="M1031 1558h-179l204 300h235zM666 -24c-343 0 -541 197 -543 462c0 41 5 85 13 127l185 878h261l-183 -869c-9 -40 -13 -78 -12 -113c5 -152 107 -252 302 -252c186 0 324 112 367 308l197 926h268c56 0 90 26 102 80l36 175h205l-47 -224c-27 -129 -125 -205 -261 -205
l-78 1l-173 -809c-65 -303 -287 -485 -639 -485z" />
    <glyph glyph-name="Uhorndotbelow" unicode="&#x1ef0;" horiz-adv-x="1645" 
d="M666 -24c-343 0 -541 197 -543 462c0 41 5 85 13 127l185 878h261l-183 -869c-9 -40 -13 -78 -12 -113c5 -152 107 -252 302 -252c186 0 324 112 367 308l197 926h268c56 0 90 26 102 80l36 175h205l-47 -224c-27 -129 -125 -205 -261 -205l-78 1l-173 -809
c-65 -303 -287 -485 -639 -485zM567 -402c-76 0 -137 62 -137 138s61 138 137 138s136 -62 136 -138s-60 -138 -136 -138z" />
    <glyph glyph-name="Uhornhookabove" unicode="&#x1eec;" horiz-adv-x="1645" 
d="M790 1761l12 130c31 13 81 26 140 26c112 0 198 -70 198 -172c0 -110 -78 -197 -205 -238l-63 97c70 26 110 66 110 112c0 38 -36 67 -88 67c-37 0 -78 -8 -104 -22zM666 -24c-343 0 -541 197 -543 462c0 41 5 85 13 127l185 878h261l-183 -869c-9 -40 -13 -78 -12 -113
c5 -152 107 -252 302 -252c186 0 324 112 367 308l197 926h268c56 0 90 26 102 80l36 175h205l-47 -224c-27 -129 -125 -205 -261 -205l-78 1l-173 -809c-65 -303 -287 -485 -639 -485z" />
    <glyph glyph-name="Uhorntilde" unicode="&#x1eee;" horiz-adv-x="1645" 
d="M621 1598c25 141 104 245 230 245c140 0 176 -134 246 -134c37 0 63 33 79 102h152c-25 -141 -103 -247 -230 -247c-140 0 -175 135 -245 135c-39 0 -64 -32 -79 -101h-153zM666 -24c-343 0 -541 197 -543 462c0 41 5 85 13 127l185 878h261l-183 -869
c-9 -40 -13 -78 -12 -113c5 -152 107 -252 302 -252c186 0 324 112 367 308l197 926h268c56 0 90 26 102 80l36 175h205l-47 -224c-27 -129 -125 -205 -261 -205l-78 1l-173 -809c-65 -303 -287 -485 -639 -485z" />
    <glyph glyph-name="Uogonek.mini" horiz-adv-x="1453" 
d="M880 -428c-25 -13 -76 -22 -132 -22c-125 0 -211 67 -211 170c0 92 63 180 190 254v5c-10 -2 -36 -3 -58 -3c-344 0 -541 198 -543 462c0 40 4 84 13 127l185 878h261l-183 -869c-9 -40 -13 -78 -12 -113c5 -155 110 -252 302 -252c185 0 324 112 366 308l198 926h260
l-208 -982c-42 -194 -152 -330 -312 -416c-164 -90 -258 -185 -258 -266c0 -47 36 -74 99 -74c29 0 56 4 73 12z" />
    <glyph glyph-name="U.mini" horiz-adv-x="1371" 
d="M620 -21c-324 0 -507 178 -511 415c-1 37 3 76 11 114l166 788h243l-165 -779c-7 -36 -10 -70 -9 -101c6 -138 108 -225 291 -225c176 0 306 100 344 274l177 831h243l-187 -882c-59 -273 -271 -435 -603 -435z" />
    <glyph glyph-name="Udieresismacron.mini" horiz-adv-x="1371" 
d="M579 1778l33 160h719l-33 -160h-719zM676 1415c-77 0 -135 55 -135 129c0 73 58 128 135 128s135 -55 135 -128c0 -74 -58 -129 -135 -129zM1101 1415c-77 0 -134 55 -134 129c0 73 57 128 134 128s135 -55 135 -128c0 -74 -58 -129 -135 -129zM620 -21
c-324 0 -507 178 -511 415c-1 37 3 76 11 114l166 788h243l-165 -779c-7 -36 -10 -70 -9 -101c6 -138 108 -225 291 -225c176 0 306 100 344 274l177 831h243l-187 -882c-59 -273 -271 -435 -603 -435z" />
    <glyph glyph-name="Udieresiscaron.mini" horiz-adv-x="1371" 
d="M796 1722l-218 238h245l119 -139h17l182 139h270l-329 -238h-286zM676 1415c-77 0 -135 55 -135 129c0 73 58 128 135 128s135 -55 135 -128c0 -74 -58 -129 -135 -129zM1101 1415c-77 0 -134 55 -134 129c0 73 57 128 134 128s135 -55 135 -128
c0 -74 -58 -129 -135 -129zM620 -21c-324 0 -507 178 -511 415c-1 37 3 76 11 114l166 788h243l-165 -779c-7 -36 -10 -70 -9 -101c6 -138 108 -225 291 -225c176 0 306 100 344 274l177 831h243l-187 -882c-59 -273 -271 -435 -603 -435z" />
    <glyph glyph-name="Udieresisacute.mini" horiz-adv-x="1371" 
d="M779 1732l258 228h266l-304 -228h-220zM676 1415c-77 0 -135 55 -135 129c0 73 58 128 135 128s135 -55 135 -128c0 -74 -58 -129 -135 -129zM1101 1415c-77 0 -134 55 -134 129c0 73 57 128 134 128s135 -55 135 -128c0 -74 -58 -129 -135 -129zM620 -21
c-324 0 -507 178 -511 415c-1 37 3 76 11 114l166 788h243l-165 -779c-7 -36 -10 -70 -9 -101c6 -138 108 -225 291 -225c176 0 306 100 344 274l177 831h243l-187 -882c-59 -273 -271 -435 -603 -435z" />
    <glyph glyph-name="Udieresisgrave.mini" horiz-adv-x="1371" 
d="M1010 1732h-220l-199 228h266zM676 1415c-77 0 -135 55 -135 129c0 73 58 128 135 128s135 -55 135 -128c0 -74 -58 -129 -135 -129zM1101 1415c-77 0 -134 55 -134 129c0 73 57 128 134 128s135 -55 135 -128c0 -74 -58 -129 -135 -129zM620 -21
c-324 0 -507 178 -511 415c-1 37 3 76 11 114l166 788h243l-165 -779c-7 -36 -10 -70 -9 -101c6 -138 108 -225 291 -225c176 0 306 100 344 274l177 831h243l-187 -882c-59 -273 -271 -435 -603 -435z" />
    <glyph glyph-name="Utildeacute.mini" horiz-adv-x="1371" 
d="M806 1737l241 213h260l-271 -213h-230zM1029 1415c-138 0 -186 118 -267 118c-53 0 -87 -29 -103 -92h-167c25 161 138 246 262 246c139 0 186 -118 267 -118c54 0 87 28 104 95h166c-25 -165 -138 -249 -262 -249zM620 -21c-324 0 -507 178 -511 415c-1 37 3 76 11 114
l166 788h243l-165 -779c-7 -36 -10 -70 -9 -101c6 -138 108 -225 291 -225c176 0 306 100 344 274l177 831h243l-187 -882c-59 -273 -271 -435 -603 -435z" />
    <glyph glyph-name="Umacrondieresis.mini" horiz-adv-x="1371" 
d="M735 1698c-76 0 -132 54 -132 126s56 126 132 126s132 -54 132 -126s-56 -126 -132 -126zM1160 1698c-76 0 -132 54 -132 126s56 126 132 126s132 -54 132 -126s-56 -126 -132 -126zM509 1451l33 157h720l-34 -157h-719zM620 -21c-324 0 -507 178 -511 415
c-1 37 3 76 11 114l166 788h243l-165 -779c-7 -36 -10 -70 -9 -101c6 -138 108 -225 291 -225c176 0 306 100 344 274l177 831h243l-187 -882c-59 -273 -271 -435 -603 -435z" />
    <glyph glyph-name="V" unicode="V" horiz-adv-x="1342" 
d="M707 0h-293l-199 1443h269l130 -1139h6l604 1139h291z" />
    <glyph glyph-name="Vtilde" unicode="&#x1e7c;" horiz-adv-x="1341" 
d="M567 1598c25 141 104 245 230 245c140 0 176 -134 246 -134c37 0 63 33 79 102h152c-25 -141 -103 -247 -230 -247c-140 0 -175 135 -246 135c-38 0 -63 -32 -79 -101h-152zM707 0h-293l-199 1443h269l130 -1139h6l604 1139h291z" />
    <glyph glyph-name="Vdotbelow" unicode="&#x1e7e;" horiz-adv-x="1341" 
d="M707 0h-293l-199 1443h269l130 -1139h6l604 1139h291zM509 -402c-76 0 -137 62 -137 138s61 138 137 138s136 -62 136 -138s-60 -138 -136 -138z" />
    <glyph glyph-name="W" unicode="W" horiz-adv-x="1934" 
d="M1070 1033l-510 -1033h-248l-81 1443h254l32 -1073h5l520 1073h220l76 -1072h5l479 1072h268l-686 -1443h-246l-83 1033h-5z" />
    <glyph glyph-name="Wgrave" unicode="&#x1e80;" horiz-adv-x="1934" 
d="M1084 1558l-132 300h235l76 -300h-179zM1070 1033l-510 -1033h-248l-81 1443h254l32 -1073h5l520 1073h220l76 -1072h5l479 1072h268l-686 -1443h-246l-83 1033h-5z" />
    <glyph glyph-name="Wacute" unicode="&#x1e82;" horiz-adv-x="1934" 
d="M1267 1558h-178l203 300h235zM1070 1033l-510 -1033h-248l-81 1443h254l32 -1073h5l520 1073h220l76 -1072h5l479 1072h268l-686 -1443h-246l-83 1033h-5z" />
    <glyph glyph-name="Wdotaccent" unicode="&#x1e86;" horiz-adv-x="1934" 
d="M1210 1579c-76 0 -137 62 -137 138s61 137 137 137s136 -61 136 -137s-60 -138 -136 -138zM1070 1033l-510 -1033h-248l-81 1443h254l32 -1073h5l520 1073h220l76 -1072h5l479 1072h268l-686 -1443h-246l-83 1033h-5z" />
    <glyph glyph-name="Wdotbelow" unicode="&#x1e88;" horiz-adv-x="1934" 
d="M1070 1033l-510 -1033h-248l-81 1443h254l32 -1073h5l520 1073h220l76 -1072h5l479 1072h268l-686 -1443h-246l-83 1033h-5zM800 -402c-76 0 -137 62 -137 138s61 138 137 138s136 -62 136 -138s-60 -138 -136 -138z" />
    <glyph glyph-name="Wdieresis" unicode="&#x1e84;" horiz-adv-x="1934" 
d="M1008 1584c-73 0 -131 60 -131 132c0 74 58 133 131 133c74 0 132 -59 132 -133c0 -72 -58 -132 -132 -132zM1411 1584c-73 0 -132 60 -132 132c0 74 59 133 132 133c74 0 132 -59 132 -133c0 -72 -58 -132 -132 -132zM1070 1033l-510 -1033h-248l-81 1443h254l32 -1073
h5l520 1073h220l76 -1072h5l479 1072h268l-686 -1443h-246l-83 1033h-5z" />
    <glyph glyph-name="Wcircumflex" unicode="&#x174;" horiz-adv-x="1934" 
d="M1328 1863l209 -311h-195l-123 190h-7l-197 -190h-198l320 311h191zM1070 1033l-510 -1033h-248l-81 1443h254l32 -1073h5l520 1073h220l76 -1072h5l479 1072h268l-686 -1443h-246l-83 1033h-5z" />
    <glyph glyph-name="X" unicode="X" horiz-adv-x="1359" 
d="M-77 0l638 732l-324 711h285l232 -522h8l442 522h314l-639 -730l323 -713h-284l-234 525h-8l-443 -525h-310z" />
    <glyph glyph-name="Xdotaccent" unicode="&#x1e8a;" horiz-adv-x="1359" 
d="M924 1579c-76 0 -136 62 -136 138s60 137 136 137s136 -61 136 -137s-60 -138 -136 -138zM-77 0l638 732l-324 711h285l232 -522h8l442 522h314l-639 -730l323 -713h-284l-234 525h-8l-443 -525h-310z" />
    <glyph glyph-name="Xdieresis" unicode="&#x1e8c;" horiz-adv-x="1359" 
d="M722 1584c-73 0 -131 60 -131 132c0 74 58 133 131 133c74 0 132 -59 132 -133c0 -72 -58 -132 -132 -132zM1125 1584c-73 0 -132 60 -132 132c0 74 59 133 132 133c74 0 132 -59 132 -133c0 -72 -58 -132 -132 -132zM-77 0l638 732l-324 711h285l232 -522h8l442 522h314
l-639 -730l323 -713h-284l-234 525h-8l-443 -525h-310z" />
    <glyph glyph-name="Y" unicode="Y" horiz-adv-x="1312" 
d="M675 0h-261l120 569l-319 874h269l224 -632h5l484 632h288l-694 -890z" />
    <glyph glyph-name="Ygrave" unicode="&#x1ef2;" horiz-adv-x="1311" 
d="M780 1558l-132 300h235l76 -300h-179zM675 0h-261l120 569l-319 874h269l224 -632h5l484 632h288l-694 -890z" />
    <glyph glyph-name="Yacute" unicode="&#xdd;" horiz-adv-x="1311" 
d="M963 1558h-179l204 300h235zM675 0h-261l120 569l-319 874h269l224 -632h5l484 632h288l-694 -890z" />
    <glyph glyph-name="Ydotaccent" unicode="&#x1e8e;" horiz-adv-x="1311" 
d="M905 1579c-75 0 -136 62 -136 138s61 137 136 137c77 0 137 -61 137 -137s-60 -138 -137 -138zM675 0h-261l120 569l-319 874h269l224 -632h5l484 632h288l-694 -890z" />
    <glyph glyph-name="Ydotbelow" unicode="&#x1ef4;" horiz-adv-x="1311" 
d="M675 0h-261l120 569l-319 874h269l224 -632h5l484 632h288l-694 -890zM487 -402c-76 0 -136 62 -136 138s60 138 136 138s136 -62 136 -138s-60 -138 -136 -138z" />
    <glyph glyph-name="Ydieresis" unicode="&#x178;" horiz-adv-x="1311" 
d="M704 1584c-73 0 -131 60 -131 132c0 74 58 133 131 133c74 0 132 -59 132 -133c0 -72 -58 -132 -132 -132zM1107 1584c-73 0 -132 60 -132 132c0 74 59 133 132 133c74 0 131 -59 131 -133c0 -72 -57 -132 -131 -132zM675 0h-261l120 569l-319 874h269l224 -632h5
l484 632h288l-694 -890z" />
    <glyph glyph-name="Ytilde" unicode="&#x1ef8;" horiz-adv-x="1311" 
d="M553 1598c25 141 104 245 230 245c140 0 176 -134 246 -134c38 0 63 33 79 102h152c-25 -141 -103 -247 -230 -247c-140 0 -175 135 -245 135c-39 0 -64 -32 -79 -101h-153zM675 0h-261l120 569l-319 874h269l224 -632h5l484 632h288l-694 -890z" />
    <glyph glyph-name="Ycircumflex" unicode="&#x176;" horiz-adv-x="1311" 
d="M1024 1863l209 -311h-195l-123 190h-7l-197 -190h-198l320 311h191zM675 0h-261l120 569l-319 874h269l224 -632h5l484 632h288l-694 -890z" />
    <glyph glyph-name="Ymacron" unicode="&#x232;" horiz-adv-x="1311" 
d="M1230 1787l-31 -148h-620l31 148h620zM675 0h-261l120 569l-319 874h269l224 -632h5l484 632h288l-694 -890z" />
    <glyph glyph-name="Yhookabove" unicode="&#x1ef6;" horiz-adv-x="1311" 
d="M722 1761l12 130c31 13 81 26 140 26c112 0 198 -70 198 -172c0 -110 -78 -197 -205 -238l-63 97c71 26 110 66 110 112c0 38 -36 67 -88 67c-37 0 -78 -8 -104 -22zM675 0h-261l120 569l-319 874h269l224 -632h5l484 632h288l-694 -890z" />
    <glyph glyph-name="Z" unicode="Z" horiz-adv-x="1269" 
d="M-23 0l36 176l963 1039v5h-718l47 223h1048l-36 -176l-962 -1039v-5h757l-46 -223h-1089z" />
    <glyph glyph-name="Zacute" unicode="&#x179;" horiz-adv-x="1269" 
d="M937 1558h-179l204 300h234zM-23 0l36 176l963 1039v5h-718l47 223h1048l-36 -176l-962 -1039v-5h757l-46 -223h-1089z" />
    <glyph glyph-name="Zcaron" unicode="&#x17d;" horiz-adv-x="1269" 
d="M760 1552l-208 311h195l123 -191h7l197 191h198l-320 -311h-192zM-23 0l36 176l963 1039v5h-718l47 223h1048l-36 -176l-962 -1039v-5h757l-46 -223h-1089z" />
    <glyph glyph-name="Zcircumflex" unicode="&#x1e90;" horiz-adv-x="1269" 
d="M998 1863l209 -311h-196l-123 190h-7l-196 -190h-199l320 311h192zM-23 0l36 176l963 1039v5h-718l47 223h1048l-36 -176l-962 -1039v-5h757l-46 -223h-1089z" />
    <glyph glyph-name="Zlinebelow" unicode="&#x1e94;" horiz-adv-x="1269" 
d="M-23 0l36 176l963 1039v5h-718l47 223h1048l-36 -176l-962 -1039v-5h757l-46 -223h-1089zM824 -190l-30 -148h-621l31 148h620z" />
    <glyph glyph-name="Zdotbelow" unicode="&#x1e92;" horiz-adv-x="1269" 
d="M-23 0l36 176l963 1039v5h-718l47 223h1048l-36 -176l-962 -1039v-5h757l-46 -223h-1089zM499 -402c-75 0 -136 62 -136 138s61 138 136 138c76 0 137 -62 137 -138s-61 -138 -137 -138z" />
    <glyph glyph-name="Zdotaccent" unicode="&#x17b;" horiz-adv-x="1269" 
d="M879 1579c-76 0 -136 62 -136 138s60 137 136 137s136 -61 136 -137s-60 -138 -136 -138zM-23 0l36 176l963 1039v5h-718l47 223h1048l-36 -176l-962 -1039v-5h757l-46 -223h-1089z" />
    <glyph glyph-name="AE" unicode="&#xc6;" horiz-adv-x="1938" 
d="M832 0l86 398h-485l-258 -398h-268l923 1443h1204l-47 -223h-650l-84 -389h614l-44 -211h-614l-87 -397h651l-46 -223h-895zM1095 1235h-135l-406 -632h406z" />
    <glyph glyph-name="AEmacron" unicode="&#x1e2;" horiz-adv-x="1938" 
d="M1721 1787l-30 -148h-621l32 148h619zM832 0l86 398h-485l-258 -398h-268l923 1443h1204l-47 -223h-650l-84 -389h614l-44 -211h-614l-87 -397h651l-46 -223h-895zM1095 1235h-135l-406 -632h406z" />
    <glyph glyph-name="AEacute" unicode="&#x1fc;" horiz-adv-x="1938" 
d="M1455 1558h-179l204 300h235zM832 0l86 398h-485l-258 -398h-268l923 1443h1204l-47 -223h-650l-84 -389h614l-44 -211h-614l-87 -397h651l-46 -223h-895zM1095 1235h-135l-406 -632h406z" />
    <glyph glyph-name="OE" unicode="&#x152;" horiz-adv-x="2242" 
d="M1128 0l34 162h-5c-111 -120 -272 -186 -447 -186c-354 0 -589 250 -589 625c0 484 322 866 767 866c222 0 392 -99 488 -277h4l55 253h899l-47 -223h-674l-84 -383h638l-44 -210h-637l-88 -404h675l-46 -223h-899zM1244 830c0 251 -141 411 -360 411
c-292 0 -500 -283 -500 -628c0 -251 140 -411 359 -411c292 0 501 283 501 628z" />
    <glyph glyph-name="Eth" unicode="&#xd0;" horiz-adv-x="1438" 
d="M26 634l43 204h127l128 605h477c368 0 600 -213 600 -575c0 -511 -313 -868 -772 -868h-611l135 634h-127zM539 1222l-82 -384h286l-43 -204h-287l-88 -412h275c312 0 535 248 535 613c0 249 -134 387 -387 387h-209z" />
    <glyph glyph-name="Thorn" unicode="&#xde;" horiz-adv-x="1265" 
d="M25 0l307 1443h258l-53 -244h293c241 0 413 -159 413 -383c0 -291 -231 -505 -570 -505h-324l-67 -311h-257zM491 982l-98 -456h258c206 0 331 100 331 264c0 120 -80 192 -235 192h-256z" />
    <glyph glyph-name="Ereversed" unicode="&#x18e;" horiz-adv-x="1158" 
d="M27 223h673l88 404h-637l44 210h636l83 383h-673l45 223h935l-306 -1443h-935z" />
    <glyph glyph-name="Alphagreek" unicode="&#x391;" horiz-adv-x="1356" 
d="M967 0l-44 369h-534l-204 -369h-278l823 1443h293l199 -1443h-255zM823 1177l-329 -604h409l-74 604h-6z" />
    <glyph glyph-name="Betagreek" unicode="&#x392;" horiz-adv-x="1328" 
d="M677 0h-660l307 1443h561c249 0 407 -128 407 -314s-136 -330 -322 -374l-1 -6c157 -28 254 -145 254 -290c0 -268 -223 -459 -546 -459zM540 1248l-87 -404h260c189 0 317 97 317 234c0 111 -83 170 -239 170h-251zM317 205h322c191 0 319 106 319 253
c0 126 -87 193 -258 193h-287z" />
    <glyph glyph-name="Gammagreek" unicode="&#x393;" horiz-adv-x="1091" 
d="M284 0h-267l307 1443h901l-47 -223h-634z" />
    <glyph glyph-name="Deltagreek" unicode="&#x2206;" horiz-adv-x="1377" 
d="M1199 0h-1245l33 158l754 1285h292l199 -1286zM832 1188l-544 -960l-1 -5h687l1 4l-137 961h-6z" />
    <glyph glyph-name="Deltagreek" unicode="&#x394;" horiz-adv-x="1377" 
d="M1199 0h-1245l33 158l754 1285h292l199 -1286zM832 1188l-544 -960l-1 -5h687l1 4l-137 961h-6z" />
    <glyph glyph-name="Epsilongreek" unicode="&#x395;" horiz-adv-x="1158" 
d="M997 223l-45 -223h-935l307 1443h934l-46 -223h-674l-83 -383h637l-44 -210h-637l-87 -404h673z" />
    <glyph glyph-name="Zetagreek" unicode="&#x396;" horiz-adv-x="1269" 
d="M-23 0l36 176l963 1039v5h-718l47 223h1048l-36 -176l-962 -1039v-5h757l-46 -223h-1089z" />
    <glyph glyph-name="Etagreek" unicode="&#x397;" horiz-adv-x="1479" 
d="M1237 0h-264l134 624h-693l-134 -624h-263l307 1443h263l-128 -598h693l128 598h264z" />
    <glyph glyph-name="Thetagreek" unicode="&#x398;" horiz-adv-x="1573" 
d="M746 -24c-380 0 -628 247 -628 630c0 486 329 860 790 860c380 0 628 -246 628 -629c0 -486 -329 -861 -790 -861zM1277 830c0 254 -147 415 -379 415c-304 0 -521 -282 -521 -633c0 -253 147 -413 379 -413c304 0 521 281 521 631zM1077 609h-547l44 216h547z" />
    <glyph glyph-name="Iotagreek" unicode="&#x399;" horiz-adv-x="520" 
d="M277 0h-260l307 1443h260z" />
    <glyph glyph-name="Iotagreek.1" horiz-adv-x="961" 
d="M-34 0l44 212h272l217 1019h-270l44 212h803l-44 -212h-273l-216 -1019h270l-44 -212h-803z" />
    <glyph glyph-name="Kappagreek" unicode="&#x39a;" horiz-adv-x="1322" 
d="M277 0h-260l307 1443h260l-141 -662h5l707 662h315l-691 -657l416 -786h-291l-335 629l-195 -179z" />
    <glyph glyph-name="Lambdagreek" unicode="&#x39b;" horiz-adv-x="1335" 
d="M813 1177l-618 -1177h-278l803 1443h293l179 -1443h-254l-119 1177h-6z" />
    <glyph glyph-name="Mugreek" unicode="&#x39c;" horiz-adv-x="1752" 
d="M252 0h-235l307 1443h292l204 -1107h5l669 1107h322l-307 -1443h-235l225 1048h-9l-636 -1042h-182l-190 1042h-7z" />
    <glyph glyph-name="Nugreek" unicode="&#x39d;" horiz-adv-x="1458" 
d="M271 0h-254l307 1443h227l489 -1040h5l223 1040h254l-307 -1443h-227l-489 1040h-5z" />
    <glyph glyph-name="Xigreek" unicode="&#x39e;" horiz-adv-x="1265" 
d="M288 1443h1077l-48 -230h-1077zM1104 622h-903l46 217h903zM29 230h1077l-48 -230h-1077z" />
    <glyph glyph-name="Omicrongreek" unicode="&#x39f;" horiz-adv-x="1540" 
d="M736 -24c-378 0 -619 255 -619 624c0 492 328 867 767 867c381 0 619 -255 619 -624c0 -493 -329 -867 -767 -867zM880 1241c-290 0 -500 -282 -500 -628c0 -251 141 -411 360 -411c291 0 500 281 500 628c0 251 -141 411 -360 411z" />
    <glyph glyph-name="Pigreek" unicode="&#x3a0;" horiz-adv-x="1459" 
d="M1217 0h-264l261 1220h-673l-262 -1220h-262l307 1443h1200z" />
    <glyph glyph-name="Rhogreek" unicode="&#x3a1;" horiz-adv-x="1266" 
d="M324 1443h520c265 0 451 -161 451 -411c0 -347 -255 -559 -613 -559h-303l-101 -473h-260zM539 1227l-116 -540h253c216 0 356 122 356 322c0 141 -98 218 -256 218h-237z" />
    <glyph glyph-name="Sigmagreek" unicode="&#x3a3;" horiz-adv-x="1275" 
d="M350 228l-1 -5h769l-46 -223h-1096l35 167l502 573l-242 517l39 186h1049l-46 -223h-727l-2 -5l209 -465l-5 -18z" />
    <glyph glyph-name="Taugreek" unicode="&#x3a4;" horiz-adv-x="1241" 
d="M638 0h-260l260 1220h-443l46 223h1147l-46 -223h-444z" />
    <glyph glyph-name="Upsilongreek" unicode="&#x3a5;" horiz-adv-x="1311" 
d="M675 0h-261l120 569l-319 874h269l224 -632h5l484 632h288l-694 -890z" />
    <glyph glyph-name="Phigreek" unicode="&#x3a6;" horiz-adv-x="1747" 
d="M619 -91l31 147c-350 39 -545 251 -545 560c0 423 323 740 824 759l31 149h246l-32 -152c345 -39 544 -245 544 -563c0 -421 -324 -737 -823 -756l-31 -144h-245zM695 272l189 887c-310 -15 -522 -219 -522 -531c0 -208 122 -335 333 -356zM940 269
c316 16 522 222 522 532c0 208 -123 334 -333 354z" />
    <glyph glyph-name="Chigreek" unicode="&#x3a7;" horiz-adv-x="1359" 
d="M-77 0l638 732l-324 711h285l232 -522h8l442 522h314l-639 -730l323 -713h-284l-234 525h-8l-443 -525h-310z" />
    <glyph glyph-name="Psigreek" unicode="&#x3a8;" horiz-adv-x="1667" 
d="M846 0h-251l68 318c-321 29 -485 175 -485 433c0 40 5 82 14 127l118 565h251l-115 -545c-11 -54 -16 -94 -16 -130c0 -150 94 -218 279 -229l193 904h251l-194 -909c251 8 368 130 414 343l120 566h251l-124 -587c-74 -346 -267 -522 -707 -543z" />
    <glyph glyph-name="Omegagreek" unicode="&#x2126;" horiz-adv-x="1554" 
d="M814 0l54 262c255 131 397 340 397 602c0 226 -149 378 -383 378c-299 0 -498 -224 -498 -557c0 -186 83 -327 240 -423l-54 -262h-561l44 216h298l1 7c-145 106 -228 268 -228 463c0 474 329 782 787 782c373 0 610 -232 610 -573c0 -274 -152 -535 -395 -671v-8h303
l-44 -216h-571z" />
    <glyph glyph-name="Omegagreek" unicode="&#x3a9;" horiz-adv-x="1554" 
d="M814 0l54 262c255 131 397 340 397 602c0 226 -149 378 -383 378c-299 0 -498 -224 -498 -557c0 -186 83 -327 240 -423l-54 -262h-561l44 216h298l1 7c-145 106 -228 268 -228 463c0 474 329 782 787 782c373 0 610 -232 610 -573c0 -274 -152 -535 -395 -671v-8h303
l-44 -216h-571z" />
    <glyph glyph-name="Alphatonosgreek" unicode="&#x386;" horiz-adv-x="1366" 
d="M978 0l-45 369h-534l-204 -369h-278l823 1443h293l200 -1443h-255zM217 1134l111 309h241l-167 -309h-185zM833 1177l-329 -604h409l-74 604h-6z" />
    <glyph glyph-name="Epsilontonosgreek" unicode="&#x388;" horiz-adv-x="1437" 
d="M138 1134l111 309h241l-167 -309h-185zM1277 223l-45 -223h-935l307 1443h934l-47 -223h-673l-83 -383h636l-44 -210h-636l-88 -404h674z" />
    <glyph glyph-name="Etatonosgreek" unicode="&#x389;" horiz-adv-x="1759" 
d="M138 1134l111 309h241l-167 -309h-185zM1516 0h-263l133 624h-692l-134 -624h-263l307 1443h263l-128 -598h693l128 598h263z" />
    <glyph glyph-name="Iotatonosgreek" unicode="&#x38a;" horiz-adv-x="800" 
d="M138 1134l111 309h241l-167 -309h-185zM557 0h-260l307 1443h260z" />
    <glyph glyph-name="Iotadieresisgreek" unicode="&#x3aa;" horiz-adv-x="520" 
d="M311 1584c-73 0 -131 60 -131 132c0 74 58 133 131 133c74 0 132 -59 132 -133c0 -72 -58 -132 -132 -132zM714 1584c-73 0 -132 60 -132 132c0 74 59 133 132 133c74 0 132 -59 132 -133c0 -72 -58 -132 -132 -132zM277 0h-260l307 1443h260z" />
    <glyph glyph-name="Iotatonosgreek.1" horiz-adv-x="1266" 
d="M138 1134l111 309h241l-167 -309h-185zM271 0l44 212h272l217 1019h-271l45 212h803l-45 -212h-272l-217 -1019h271l-44 -212h-803z" />
    <glyph glyph-name="Iotadieresisgreek.1" horiz-adv-x="961" 
d="M530 1584c-73 0 -131 60 -131 132c0 74 58 133 131 133c74 0 132 -59 132 -133c0 -72 -58 -132 -132 -132zM933 1584c-73 0 -132 60 -132 132c0 74 59 133 132 133c74 0 132 -59 132 -133c0 -72 -58 -132 -132 -132zM-34 0l44 212h272l217 1019h-270l44 212h803l-44 -212
h-273l-216 -1019h270l-44 -212h-803z" />
    <glyph glyph-name="Omicrontonosgreek" unicode="&#x38c;" horiz-adv-x="1741" 
d="M938 -24c-378 0 -619 255 -619 624c0 492 328 867 766 867c382 0 620 -255 620 -624c0 -493 -330 -867 -767 -867zM138 1134l111 309h241l-167 -309h-185zM1082 1241c-291 0 -500 -282 -500 -628c0 -251 141 -411 360 -411c291 0 500 281 500 628
c0 251 -141 411 -360 411z" />
    <glyph glyph-name="Upsilontonosgreek" unicode="&#x38e;" horiz-adv-x="1648" 
d="M138 1134l111 309h241l-167 -309h-185zM1011 0h-261l121 569l-319 874h269l223 -632h6l483 632h288l-693 -890z" />
    <glyph glyph-name="Upsilondieresisgreek" unicode="&#x3ab;" horiz-adv-x="1311" 
d="M704 1584c-73 0 -131 60 -131 132c0 74 58 133 131 133c74 0 132 -59 132 -133c0 -72 -58 -132 -132 -132zM1107 1584c-73 0 -132 60 -132 132c0 74 59 133 132 133c74 0 131 -59 131 -133c0 -72 -57 -132 -131 -132zM675 0h-261l120 569l-319 874h269l224 -632h5
l484 632h288l-694 -890z" />
    <glyph glyph-name="Omegatonosgreek" unicode="&#x38f;" horiz-adv-x="1786" 
d="M1046 0l54 262c255 131 397 340 397 602c0 226 -149 378 -384 378c-298 0 -497 -224 -497 -557c0 -186 83 -327 240 -423l-54 -262h-561l44 216h298l1 7c-145 106 -228 268 -228 463c0 474 329 782 787 782c373 0 610 -232 610 -573c0 -274 -152 -535 -395 -671v-8h303
l-44 -216h-571zM138 1134l111 309h241l-167 -309h-185z" />
    <glyph glyph-name="Acyrillic" unicode="&#x410;" horiz-adv-x="1366" 
d="M972 0l-44 369h-534l-204 -369h-278l823 1443h293l199 -1443h-255zM828 1177l-329 -604h409l-74 604h-6z" />
    <glyph glyph-name="uni04D0" unicode="&#x4d0;" horiz-adv-x="1366" 
d="M922 1548c-246 0 -339 171 -327 318h161c-5 -93 39 -184 173 -184c113 0 183 65 204 184h162c-22 -192 -162 -319 -373 -318zM972 0l-44 369h-534l-204 -369h-278l823 1443h293l199 -1443h-255zM828 1177l-329 -604h409l-74 604h-6z" />
    <glyph glyph-name="uni04D2" unicode="&#x4d2;" horiz-adv-x="1366" 
d="M735 1584c-73 0 -132 60 -132 132c0 74 59 133 132 133s132 -59 132 -133c0 -72 -59 -132 -132 -132zM1138 1584c-74 0 -132 60 -132 132c0 74 58 133 132 133c73 0 131 -59 131 -133c0 -72 -58 -132 -131 -132zM972 0l-44 369h-534l-204 -369h-278l823 1443h293
l199 -1443h-255zM828 1177l-329 -604h409l-74 604h-6z" />
    <glyph glyph-name="uniF50E" horiz-adv-x="1366" 
d="M1260 1787l-30 -148h-621l31 148h620zM972 0l-44 369h-534l-204 -369h-278l823 1443h293l199 -1443h-255zM828 1177l-329 -604h409l-74 604h-6z" />
    <glyph glyph-name="uniF460" horiz-adv-x="1366" 
d="M994 1558h-179l204 300h235zM972 0l-44 369h-534l-204 -369h-278l823 1443h293l199 -1443h-255zM828 1177l-329 -604h409l-74 604h-6z" />
    <glyph glyph-name="Becyrillic" unicode="&#x411;" horiz-adv-x="1284" 
d="M611 0h-589l307 1443h924l-47 -223h-663l-71 -329h247c290 0 481 -146 481 -386c0 -275 -235 -505 -589 -505zM327 214h272c194 0 339 115 339 262c0 139 -106 206 -267 206h-243z" />
    <glyph glyph-name="Vecyrillic" unicode="&#x412;" horiz-adv-x="1338" 
d="M682 0h-660l307 1443h561c249 0 407 -128 407 -314s-136 -330 -322 -374l-1 -6c157 -28 254 -145 254 -290c0 -268 -223 -459 -546 -459zM545 1248l-87 -404h260c189 0 317 97 317 234c0 111 -83 170 -239 170h-251zM322 205h322c191 0 319 106 319 253
c0 126 -87 193 -258 193h-287z" />
    <glyph glyph-name="Gecyrillic" unicode="&#x413;" horiz-adv-x="1107" 
d="M282 0h-260l307 1443h911l-47 -223h-651z" />
    <glyph glyph-name="Gjecyrillic" unicode="&#x403;" horiz-adv-x="1107" 
d="M880 1558h-178l203 300h235zM282 0h-260l307 1443h911l-47 -223h-651z" />
    <glyph glyph-name="Geupturncyrillic" unicode="&#x490;" horiz-adv-x="1108" 
d="M543 1220l-260 -1220h-261l307 1443h670l60 285h241l-107 -508h-650z" />
    <glyph glyph-name="uni04F6" unicode="&#x4f6;" horiz-adv-x="1107" 
d="M160 -285l66 285h-204l47 223l260 1220h911l-47 -223h-651l-212 -997h180l-116 -508h-234z" />
    <glyph glyph-name="uni0492" unicode="&#x492;" horiz-adv-x="1107" 
d="M282 0h-260l129 607h-95l40 191h96l137 645h911l-47 -223h-651l-90 -422h510l-40 -191h-510z" />
    <glyph glyph-name="uniF53C" horiz-adv-x="1121" 
d="M288 0h-266l307 1443h921l-47 -223h-654l-91 -420h598l-45 -215h-598z" />
    <glyph glyph-name="uni04FA" unicode="&#x4fa;" horiz-adv-x="1107" 
d="M282 0l-3 -13c-51 -256 -196 -365 -426 -365c-36 0 -78 2 -98 5l43 199c10 -3 27 -4 46 -4c96 0 148 44 174 165l3 13h1l129 607h-95l40 191h96l137 645h911l-47 -223h-651l-90 -422h528l-40 -191h-528z" />
    <glyph glyph-name="Decyrillic" unicode="&#x414;" horiz-adv-x="1491" 
d="M122 0l-61 -285h-235l107 508h104c115 66 174 183 226 377l233 843h983l-261 -1220h180l-107 -508h-235l61 285h-995zM500 583c-44 -159 -88 -268 -168 -344l-3 -16h628l215 997h-493z" />
    <glyph glyph-name="uni0414.BUL" horiz-adv-x="1550" 
d="M161 0l-61 -285h-235l108 508h148l696 1220h297l178 -1220h152l-107 -508h-235l61 285h-1002zM897 1157l-509 -927h643l-120 927h-14z" />
    <glyph glyph-name="Iecyrillic" unicode="&#x415;" horiz-adv-x="1168" 
d="M1002 223l-45 -223h-935l307 1443h934l-46 -223h-674l-83 -383h637l-44 -210h-637l-87 -404h673z" />
    <glyph glyph-name="Iocyrillic" unicode="&#x401;" horiz-adv-x="1168" 
d="M644 1584c-73 0 -131 60 -131 132c0 74 58 133 131 133c74 0 132 -59 132 -133c0 -72 -58 -132 -132 -132zM1047 1584c-73 0 -132 60 -132 132c0 74 59 133 132 133c74 0 132 -59 132 -133c0 -72 -58 -132 -132 -132zM1002 223l-45 -223h-935l307 1443h934l-46 -223h-674
l-83 -383h637l-44 -210h-637l-87 -404h673z" />
    <glyph glyph-name="uni04D6" unicode="&#x4d6;" horiz-adv-x="1168" 
d="M832 1548c-247 0 -339 171 -327 318h161c-6 -93 38 -184 172 -184c114 0 183 65 204 184h163c-23 -192 -163 -319 -373 -318zM1002 223l-45 -223h-935l307 1443h934l-46 -223h-674l-83 -383h637l-44 -210h-637l-87 -404h673z" />
    <glyph glyph-name="uniF510" horiz-adv-x="1168" 
d="M1170 1787l-31 -148h-620l31 148h620zM1002 223l-45 -223h-935l307 1443h934l-46 -223h-674l-83 -383h637l-44 -210h-637l-87 -404h673z" />
    <glyph glyph-name="uniF512" horiz-adv-x="1168" 
d="M1254 2058l-30 -138h-670l29 138h671zM645 1791c68 0 121 -54 121 -122c0 -67 -53 -121 -121 -121c-69 0 -122 54 -122 121c0 68 53 122 122 122zM1028 1791c68 0 121 -54 121 -122c0 -67 -53 -121 -121 -121c-69 0 -122 54 -122 121c0 68 53 122 122 122zM1002 223
l-45 -223h-935l307 1443h934l-46 -223h-674l-83 -383h637l-44 -210h-637l-87 -404h673z" />
    <glyph glyph-name="uni0400" unicode="&#x400;" horiz-adv-x="1168" 
d="M720 1558l-132 300h235l76 -300h-179zM1002 223l-45 -223h-935l307 1443h934l-46 -223h-674l-83 -383h637l-44 -210h-637l-87 -404h673z" />
    <glyph glyph-name="uniF461" horiz-adv-x="1168" 
d="M903 1558h-178l203 300h235zM1002 223l-45 -223h-935l307 1443h934l-46 -223h-674l-83 -383h637l-44 -210h-637l-87 -404h673z" />
    <glyph glyph-name="uniF469" horiz-adv-x="1158" 
d="M718 1583l75 309h238l-128 -309h-185zM544 1597c-70 0 -125 57 -125 126c0 70 55 126 125 126c71 0 127 -56 127 -126c0 -69 -56 -126 -127 -126zM1181 1597c-70 0 -126 57 -126 126c0 70 56 126 126 126s126 -56 126 -126c0 -69 -56 -126 -126 -126zM997 223l-45 -223
h-935l307 1443h934l-46 -223h-674l-83 -383h637l-44 -210h-637l-87 -404h673z" />
    <glyph glyph-name="uniF514" horiz-adv-x="1168" 
d="M897 1886c-251 1 -333 173 -318 297h159c-4 -83 46 -159 166 -159c102 0 177 57 198 159h162c-26 -177 -161 -297 -367 -297zM861 1855c251 0 333 -173 318 -296h-159c4 83 -46 158 -166 158c-102 0 -177 -56 -198 -158h-162c26 177 161 296 367 296zM1002 223l-45 -223
h-935l307 1443h934l-46 -223h-674l-83 -383h637l-44 -210h-637l-87 -404h673z" />
    <glyph glyph-name="Zhecyrillic" unicode="&#x416;" horiz-adv-x="2037" 
d="M923 647l-694 -647h-322l806 761l-425 682h275l394 -635h11l136 635h255l-137 -636h12l666 636h298l-756 -729l455 -714h-277l-418 645h-12l-138 -645h-255l138 647h-12z" />
    <glyph glyph-name="uni04C1" unicode="&#x4c1;" horiz-adv-x="2037" 
d="M1275 1548c-246 0 -339 171 -327 318h161c-5 -93 39 -184 172 -184c114 0 183 65 204 184h163c-23 -192 -163 -319 -373 -318zM923 647l-694 -647h-322l806 761l-425 682h275l394 -635h11l136 635h255l-137 -636h12l666 636h298l-756 -729l455 -714h-277l-418 645h-12
l-138 -645h-255l138 647h-12z" />
    <glyph glyph-name="uni04DC" unicode="&#x4dc;" horiz-adv-x="2037" 
d="M1087 1584c-73 0 -131 60 -131 132c0 74 58 133 131 133c74 0 132 -59 132 -133c0 -72 -58 -132 -132 -132zM1490 1584c-73 0 -132 60 -132 132c0 74 59 133 132 133c74 0 132 -59 132 -133c0 -72 -58 -132 -132 -132zM923 647l-694 -647h-322l806 761l-425 682h275
l394 -635h11l136 635h255l-137 -636h12l666 636h298l-756 -729l455 -714h-277l-418 645h-12l-138 -645h-255l138 647h-12z" />
    <glyph glyph-name="uni0496" unicode="&#x496;" horiz-adv-x="2113" 
d="M923 647l-694 -647h-322l806 761l-425 682h275l394 -635h11l136 635h255l-137 -636h12l666 636h298l-756 -729l313 -491h251l-116 -508h-234l66 285h-102l-418 645h-12l-138 -645h-255l138 647h-12z" />
    <glyph glyph-name="uni0416.BUL" horiz-adv-x="2076" 
d="M-93 0l751 835l-369 608h284l388 -664h19l142 664h255l-142 -664h18l663 664h298l-651 -648l376 -795h-281l-293 634l-199 -183l-96 -451h-255l96 451l-116 177l-568 -628h-320z" />
    <glyph glyph-name="Zecyrillic" unicode="&#x417;" horiz-adv-x="1240" 
d="M428 637l42 208h194c184 0 306 86 306 215c0 116 -100 195 -247 195c-142 0 -257 -82 -278 -196h-240c33 242 252 408 539 408c278 0 477 -157 477 -375c0 -180 -141 -331 -337 -357l-1 -5c158 -38 252 -152 252 -306c0 -260 -240 -448 -570 -448
c-335 0 -558 189 -530 448h243c-3 -140 116 -234 297 -234c176 0 304 100 304 237c0 132 -101 210 -272 210h-179z" />
    <glyph glyph-name="uni04DE" unicode="&#x4de;" horiz-adv-x="1240" 
d="M607 1584c-73 0 -131 60 -131 132c0 74 58 133 131 133c74 0 132 -59 132 -133c0 -72 -58 -132 -132 -132zM1010 1584c-73 0 -132 60 -132 132c0 74 59 133 132 133c74 0 132 -59 132 -133c0 -72 -58 -132 -132 -132zM428 637l42 208h194c184 0 306 86 306 215
c0 116 -100 195 -247 195c-142 0 -257 -82 -278 -196h-240c33 242 252 408 539 408c278 0 477 -157 477 -375c0 -180 -141 -331 -337 -357l-1 -5c158 -38 252 -152 252 -306c0 -260 -240 -448 -570 -448c-335 0 -558 189 -530 448h243c-3 -140 116 -234 297 -234
c176 0 304 100 304 237c0 132 -101 210 -272 210h-179z" />
    <glyph glyph-name="uni0498" unicode="&#x498;" horiz-adv-x="1240" 
d="M428 637l42 208h194c184 0 306 86 306 215c0 116 -100 195 -247 195c-142 0 -257 -82 -278 -196h-240c33 242 252 408 539 408c278 0 477 -157 477 -375c0 -180 -141 -331 -337 -357l-1 -5c158 -38 252 -152 252 -306c0 -229 -186 -403 -457 -441l-58 -268h-234l58 269
c-266 40 -433 214 -409 440h243c-3 -140 116 -234 297 -234c176 0 304 100 304 237c0 132 -101 210 -272 210h-179z" />
    <glyph glyph-name="uniF50A" horiz-adv-x="1240" 
d="M320 -435l26 118c26 -8 60 -15 102 -15c52 0 110 12 110 52s-46 57 -115 57h-51l20 99l72 104c-289 28 -475 207 -449 444h243c-3 -140 116 -234 297 -234c176 0 304 100 304 237c0 132 -101 210 -272 210h-179l42 208h194c184 0 306 86 306 215c0 116 -100 195 -247 195
c-142 0 -257 -82 -278 -196h-240c33 242 252 408 539 408c278 0 477 -157 477 -375c0 -180 -141 -331 -337 -357l-1 -5c158 -38 252 -152 252 -306c0 -240 -203 -418 -494 -445l-67 -98c75 -4 155 -52 155 -156c0 -121 -111 -181 -261 -181c-55 0 -106 8 -148 21z" />
    <glyph glyph-name="uniF516" horiz-adv-x="1240" 
d="M690 1552l-209 311h196l123 -191h6l197 191h199l-321 -311h-191zM428 637l42 208h194c184 0 306 86 306 215c0 116 -100 195 -247 195c-142 0 -257 -82 -278 -196h-240c33 242 252 408 539 408c278 0 477 -157 477 -375c0 -180 -141 -331 -337 -357l-1 -5
c158 -38 252 -152 252 -306c0 -260 -240 -448 -570 -448c-335 0 -558 189 -530 448h243c-3 -140 116 -234 297 -234c176 0 304 100 304 237c0 132 -101 210 -272 210h-179z" />
    <glyph glyph-name="Iicyrillic" unicode="&#x418;" horiz-adv-x="1490" 
d="M986 0l220 1022h-17l-914 -1022h-253l307 1443h256l-221 -1025h17l915 1025h253l-307 -1443h-256z" />
    <glyph glyph-name="Iishortcyrillic" unicode="&#x419;" horiz-adv-x="1490" 
d="M982 1548c-246 0 -339 171 -327 318h161c-5 -93 39 -184 172 -184c114 0 183 65 204 184h163c-22 -192 -163 -319 -373 -318zM986 0l220 1022h-17l-914 -1022h-253l307 1443h256l-221 -1025h17l915 1025h253l-307 -1443h-256z" />
    <glyph glyph-name="uni040D" unicode="&#x40d;" horiz-adv-x="1490" 
d="M871 1558l-133 300h235l76 -300h-178zM986 0l220 1022h-17l-914 -1022h-253l307 1443h256l-221 -1025h17l915 1025h253l-307 -1443h-256z" />
    <glyph glyph-name="uni04E2" unicode="&#x4e2;" horiz-adv-x="1490" 
d="M1320 1787l-31 -148h-620l31 148h620zM986 0l220 1022h-17l-914 -1022h-253l307 1443h256l-221 -1025h17l915 1025h253l-307 -1443h-256z" />
    <glyph glyph-name="uni04E4" unicode="&#x4e4;" horiz-adv-x="1490" 
d="M794 1584c-73 0 -131 60 -131 132c0 74 58 133 131 133c74 0 133 -59 133 -133c0 -72 -59 -132 -133 -132zM1197 1584c-73 0 -132 60 -132 132c0 74 59 133 132 133c74 0 132 -59 132 -133c0 -72 -58 -132 -132 -132zM986 0l220 1022h-17l-914 -1022h-253l307 1443h256
l-221 -1025h17l915 1025h253l-307 -1443h-256z" />
    <glyph glyph-name="uni048A" unicode="&#x48a;" horiz-adv-x="1576" 
d="M982 1548c-246 0 -339 171 -327 318h161c-5 -93 39 -184 172 -184c114 0 183 65 204 184h163c-22 -192 -163 -319 -373 -318zM986 0l48 223l172 799h-17l-914 -1022h-253l307 1443h256l-221 -1025h17l915 1025h253l-260 -1220h165v-59l-212 -449h-228l139 285h-167z" />
    <glyph glyph-name="uniF462" horiz-adv-x="1490" 
d="M1054 1558h-179l204 300h234zM986 0l220 1022h-17l-914 -1022h-253l307 1443h256l-221 -1025h17l915 1025h253l-307 -1443h-256z" />
    <glyph glyph-name="uniF532" horiz-adv-x="1490" 
d="M982 1548c-246 0 -339 171 -327 318h161c-5 -93 39 -184 172 -184c114 0 183 65 204 184h163c-22 -192 -163 -319 -373 -318zM715 -373l43 199c10 -3 27 -4 46 -4c96 0 148 44 174 165l3 13h5l220 1022h-17l-914 -1022h-253l307 1443h256l-221 -1025h17l915 1025h253
l-307 -1443l-3 -13c-51 -256 -196 -365 -425 -365c-37 0 -79 2 -99 5z" />
    <glyph glyph-name="Kacyrillic" unicode="&#x41a;" horiz-adv-x="1333" 
d="M454 808h10l698 635h320l-796 -723l512 -720h-299l-467 645h-11l-139 -645h-260l307 1443h260z" />
    <glyph glyph-name="Kjecyrillic" unicode="&#x40c;" horiz-adv-x="1333" 
d="M946 1558h-179l204 300h235zM454 808h10l698 635h320l-796 -723l512 -720h-299l-467 645h-11l-139 -645h-260l307 1443h260z" />
    <glyph glyph-name="uni049A" unicode="&#x49a;" horiz-adv-x="1392" 
d="M454 808h10l698 635h320l-796 -723l354 -497h245l-116 -508h-234l66 285h-102l-467 645h-11l-139 -645h-260l307 1443h260z" />
    <glyph glyph-name="uni049C" unicode="&#x49c;" horiz-adv-x="1441" 
d="M412 621l-132 -621h-258l307 1443h258l-134 -624h108l64 301h170l-63 -301h32l538 624h299l-628 -730l333 -713h-287l-296 621h-33l-65 -307h-171l65 307h-107z" />
    <glyph glyph-name="uni049E" unicode="&#x49e;" horiz-adv-x="1333" 
d="M454 808h10l698 635h320l-796 -723l512 -720h-299l-467 645h-11l-139 -645h-260l241 1135h-119l39 191h121l25 117h260l-25 -117h149l-40 -191h-149z" />
    <glyph glyph-name="uni04A0" unicode="&#x4a0;" horiz-adv-x="1867" 
d="M201 1252l40 191h882l-40 -191h-1l-94 -444h10l698 635h320l-797 -723l513 -720h-300l-467 645h-11l-138 -645h-261l267 1252h-621z" />
    <glyph glyph-name="uni04C3" unicode="&#x4c3;" horiz-adv-x="1314" 
d="M442 -417c-40 0 -79 4 -101 9l44 215c22 -3 45 -4 78 -4c269 0 431 228 431 452c0 216 -168 345 -457 345h-29l-128 -600h-258l307 1443h258l-133 -620h12l697 620h320l-741 -657c261 -65 418 -254 418 -517c0 -344 -274 -686 -718 -686z" />
    <glyph glyph-name="uni041A.BUL" horiz-adv-x="1345" 
d="M282 0h-260l307 1443h260l-141 -662h5l707 662h315l-691 -657l416 -786h-291l-335 629l-195 -179z" />
    <glyph glyph-name="Elcyrillic" unicode="&#x41b;" horiz-adv-x="1404" 
d="M1157 0h-261l261 1220h-462l-180 -659c-96 -359 -223 -572 -529 -572c-41 0 -75 6 -92 12l48 231c12 -3 38 -7 61 -7c146 0 219 146 274 352l232 866h955z" />
    <glyph glyph-name="uni04C5" unicode="&#x4c5;" horiz-adv-x="1486" 
d="M924 -285l139 285h-167l261 1220h-462l-180 -659c-96 -359 -223 -572 -529 -572c-41 0 -75 6 -92 12l48 231c12 -3 38 -7 61 -7c146 0 219 146 274 352l232 866h955l-260 -1220h160v-59l-212 -449h-228z" />
    <glyph glyph-name="uniF530" horiz-adv-x="1511" 
d="M1034 -285l67 285h-205l47 223h1l213 997h-462l-180 -659c-96 -359 -223 -572 -529 -572c-41 0 -75 6 -92 12l48 231c12 -3 38 -7 61 -7c146 0 219 146 274 352l232 866h955l-260 -1220h180l-115 -508h-235z" />
    <glyph glyph-name="uni052E" unicode="&#x52e;" horiz-adv-x="1511" 
d="M1034 -285l67 285h-205l47 223h1l213 997h-462l-180 -659c-96 -359 -223 -572 -529 -572c-41 0 -75 6 -92 12l48 231c12 -3 38 -7 61 -7c146 0 219 146 274 352l232 866h955l-260 -1220h180l-115 -508h-235z" />
    <glyph glyph-name="uni0512" unicode="&#x512;" horiz-adv-x="1404" 
d="M630 -373l43 199c10 -3 27 -4 46 -4c95 0 147 44 174 165l3 13l261 1220h-462l-180 -659c-96 -359 -223 -572 -529 -572c-41 0 -75 6 -92 12l48 231c12 -3 38 -7 61 -7c146 0 219 146 274 352l232 866h955l-307 -1443l-3 -13c-51 -256 -196 -365 -426 -365
c-36 0 -78 2 -98 5z" />
    <glyph glyph-name="uni041B.BUL" horiz-adv-x="1331" 
d="M-84 0l790 1443h300l182 -1443h-275l-116 1140h-9l-588 -1140h-284z" />
    <glyph glyph-name="Emcyrillic" unicode="&#x41c;" horiz-adv-x="1762" 
d="M257 0h-235l307 1443h292l204 -1107h5l669 1107h322l-307 -1443h-235l225 1048h-9l-636 -1042h-182l-190 1042h-7z" />
    <glyph glyph-name="uni04CD" unicode="&#x4cd;" horiz-adv-x="1869" 
d="M257 0h-235l307 1443h292l204 -1107h5l669 1107h322l-260 -1220h185v-59l-211 -449h-229l140 285h-167l48 223l177 825h-9l-636 -1041h-182l-190 1041h-7z" />
    <glyph glyph-name="Encyrillic" unicode="&#x41d;" horiz-adv-x="1489" 
d="M1242 0h-264l134 624h-693l-134 -624h-263l307 1443h263l-128 -598h693l128 598h264z" />
    <glyph glyph-name="uni04C7" unicode="&#x4c7;" horiz-adv-x="1489" 
d="M712 -373l43 199c10 -3 27 -4 46 -4c95 0 148 44 174 165l3 13l134 624h-693l-134 -624h-263l307 1443h263l-128 -598h693l128 598h264l-307 -1443h-3l-3 -13c-51 -256 -196 -365 -426 -365c-36 0 -78 2 -98 5z" />
    <glyph glyph-name="uni04A2" unicode="&#x4a2;" horiz-adv-x="1593" 
d="M1116 -285l66 285h-204l47 223h1l86 401h-693l-134 -624h-263l307 1443h263l-128 -598h693l128 598h264l-260 -1220h177l-115 -508h-235z" />
    <glyph glyph-name="uni04C9" unicode="&#x4c9;" horiz-adv-x="1568" 
d="M1006 -285l139 285h-167l134 624h-693l-134 -624h-263l307 1443h263l-128 -598h693l128 598h264l-260 -1220h156v-59l-211 -449h-228z" />
    <glyph glyph-name="uni04A4" unicode="&#x4a4;" horiz-adv-x="2056" 
d="M1242 0h-264l134 624h-693l-134 -624h-263l307 1443h263l-128 -598h693l128 598h903l-46 -223h-641z" />
    <glyph glyph-name="Ocyrillic" unicode="&#x41e;" horiz-adv-x="1550" 
d="M741 -24c-378 0 -619 255 -619 624c0 492 328 867 767 867c381 0 619 -255 619 -624c0 -493 -329 -867 -767 -867zM885 1241c-290 0 -500 -282 -500 -628c0 -251 141 -411 360 -411c291 0 500 281 500 628c0 251 -141 411 -360 411z" />
    <glyph glyph-name="uni04E6" unicode="&#x4e6;" horiz-adv-x="1550" 
d="M762 1584c-73 0 -131 60 -131 132c0 74 58 133 131 133c74 0 132 -59 132 -133c0 -72 -58 -132 -132 -132zM1165 1584c-73 0 -132 60 -132 132c0 74 59 133 132 133s131 -59 131 -133c0 -72 -58 -132 -131 -132zM741 -24c-378 0 -619 255 -619 624c0 492 328 867 767 867
c381 0 619 -255 619 -624c0 -493 -329 -867 -767 -867zM885 1241c-290 0 -500 -282 -500 -628c0 -251 141 -411 360 -411c291 0 500 281 500 628c0 251 -141 411 -360 411z" />
    <glyph glyph-name="uniF518" horiz-adv-x="1550" 
d="M1288 1787l-31 -148h-620l31 148h620zM741 -24c-378 0 -619 255 -619 624c0 492 328 867 767 867c381 0 619 -255 619 -624c0 -493 -329 -867 -767 -867zM885 1241c-290 0 -500 -282 -500 -628c0 -251 141 -411 360 -411c291 0 500 281 500 628c0 251 -141 411 -360 411z
" />
    <glyph glyph-name="uniF463" horiz-adv-x="1550" 
d="M1021 1558h-179l204 300h235zM741 -24c-378 0 -619 255 -619 624c0 492 328 867 767 867c381 0 619 -255 619 -624c0 -493 -329 -867 -767 -867zM885 1241c-290 0 -500 -282 -500 -628c0 -251 141 -411 360 -411c291 0 500 281 500 628c0 251 -141 411 -360 411z" />
    <glyph glyph-name="uniF4D2" horiz-adv-x="1550" 
d="M838 1558l-132 300h235l76 -300h-179zM741 -24c-378 0 -619 255 -619 624c0 492 328 867 767 867c381 0 619 -255 619 -624c0 -493 -329 -867 -767 -867zM885 1241c-290 0 -500 -282 -500 -628c0 -251 141 -411 360 -411c291 0 500 281 500 628c0 251 -141 411 -360 411z
" />
    <glyph glyph-name="uniF51A" horiz-adv-x="1550" 
d="M950 1548c-247 0 -340 171 -327 318h160c-5 -93 39 -184 173 -184c113 0 183 65 204 184h162c-22 -192 -162 -319 -372 -318zM741 -24c-378 0 -619 255 -619 624c0 492 328 867 767 867c381 0 619 -255 619 -624c0 -493 -329 -867 -767 -867zM885 1241
c-290 0 -500 -282 -500 -628c0 -251 141 -411 360 -411c291 0 500 281 500 628c0 251 -141 411 -360 411z" />
    <glyph glyph-name="uni04E8" unicode="&#x4e8;" horiz-adv-x="1550" 
d="M889 1467c381 0 619 -255 619 -624c0 -493 -329 -867 -767 -867c-378 0 -619 255 -619 624c0 492 328 867 767 867zM885 1241c-225 0 -402 -168 -470 -405h832c-2 248 -144 405 -362 405zM384 613c0 -251 141 -411 361 -411c234 0 415 180 478 431h-839v-20z" />
    <glyph glyph-name="uniF49A" horiz-adv-x="1550" 
d="M1349 1787l-30 -148h-620l31 148h619zM889 1467c381 0 619 -255 619 -624c0 -493 -329 -867 -767 -867c-378 0 -619 255 -619 624c0 492 328 867 767 867zM885 1241c-225 0 -402 -168 -470 -405h832c-2 248 -144 405 -362 405zM384 613c0 -251 141 -411 361 -411
c234 0 415 180 478 431h-839v-20z" />
    <glyph glyph-name="uniF51C" horiz-adv-x="1550" 
d="M1012 1548c-247 0 -340 171 -328 318h161c-5 -93 39 -184 173 -184c113 0 183 65 204 184h162c-22 -192 -162 -319 -372 -318zM889 1467c381 0 619 -255 619 -624c0 -493 -329 -867 -767 -867c-378 0 -619 255 -619 624c0 492 328 867 767 867zM885 1241
c-225 0 -402 -168 -470 -405h832c-2 248 -144 405 -362 405zM384 613c0 -251 141 -411 361 -411c234 0 415 180 478 431h-839v-20z" />
    <glyph glyph-name="uniF51E" horiz-adv-x="1550" 
d="M1077 1886c-251 1 -333 173 -318 297h158c-3 -83 47 -159 167 -159c101 0 177 57 198 159h161c-25 -177 -160 -297 -366 -297zM1040 1855c252 0 334 -173 319 -296h-159c4 83 -47 158 -167 158c-101 0 -177 -56 -197 -158h-162c25 177 160 296 366 296zM889 1467
c381 0 619 -255 619 -624c0 -493 -329 -867 -767 -867c-378 0 -619 255 -619 624c0 492 328 867 767 867zM885 1241c-225 0 -402 -168 -470 -405h832c-2 248 -144 405 -362 405zM384 613c0 -251 141 -411 361 -411c234 0 415 180 478 431h-839v-20z" />
    <glyph glyph-name="uni04EA" unicode="&#x4ea;" horiz-adv-x="1550" 
d="M824 1584c-73 0 -131 60 -131 132c0 74 58 133 131 133s132 -59 132 -133c0 -72 -59 -132 -132 -132zM1227 1584c-73 0 -132 60 -132 132c0 74 59 133 132 133s131 -59 131 -133c0 -72 -58 -132 -131 -132zM889 1467c381 0 619 -255 619 -624c0 -493 -329 -867 -767 -867
c-378 0 -619 255 -619 624c0 492 328 867 767 867zM885 1241c-225 0 -402 -168 -470 -405h832c-2 248 -144 405 -362 405zM384 613c0 -251 141 -411 361 -411c234 0 415 180 478 431h-839v-20z" />
    <glyph glyph-name="uni0472" unicode="&#x472;" horiz-adv-x="1550" 
d="M889 1467c381 0 619 -255 619 -624c0 -493 -329 -867 -767 -867c-378 0 -619 255 -619 624c0 492 328 867 767 867zM885 1241c-233 0 -414 -180 -477 -430c57 41 126 65 203 65c200 0 280 -100 445 -100c92 0 152 28 191 63c-3 246 -144 402 -362 402zM384 613
c0 -251 141 -411 361 -411c240 0 424 189 483 449c-62 -49 -138 -76 -223 -75c-204 0 -284 100 -442 100c-84 0 -141 -24 -179 -54v-9z" />
    <glyph glyph-name="Pecyrillic" unicode="&#x41f;" horiz-adv-x="1469" 
d="M1221 0h-257l260 1219h-682l-260 -1219h-260l307 1443h1199z" />
    <glyph glyph-name="uni0524" unicode="&#x524;" horiz-adv-x="1578" 
d="M1102 -285l66 285h-204l47 223l213 996h-682l-260 -1219h-260l307 1443h1199l-259 -1220h183l-116 -508h-234z" />
    <glyph glyph-name="Dzhecyrillic" unicode="&#x40f;" horiz-adv-x="1469" 
d="M1221 0h-459l-61 -285h-224l61 285h-516l307 1443h258l-261 -1219h682l261 1219h259z" />
    <glyph glyph-name="Ercyrillic" unicode="&#x420;" horiz-adv-x="1276" 
d="M329 1443h520c265 0 451 -161 451 -411c0 -347 -255 -559 -613 -559h-303l-101 -473h-260zM544 1227l-116 -540h253c216 0 356 122 356 322c0 141 -98 218 -256 218h-237z" />
    <glyph glyph-name="uni048E" unicode="&#x48e;" horiz-adv-x="1276" 
d="M328 1443h520c265 0 452 -161 452 -411c0 -236 -118 -409 -305 -496l84 -186l-204 -96l-94 224c-31 -4 -62 -5 -94 -5h-303l-101 -473h-261zM626 884l164 70l97 -219c94 54 149 148 149 274c0 141 -97 218 -256 218h-236l-116 -540h252h30z" />
    <glyph glyph-name="uniF4D4" horiz-adv-x="1276" 
d="M694 1552l-209 311h195l123 -191h7l197 191h198l-320 -311h-191zM329 1443h520c265 0 451 -161 451 -411c0 -347 -255 -559 -613 -559h-303l-101 -473h-260zM544 1227l-116 -540h253c216 0 356 122 356 322c0 141 -98 218 -256 218h-237z" />
    <glyph glyph-name="Escyrillic" unicode="&#x421;" horiz-adv-x="1456" 
d="M1209 937c1 6 0 14 -1 30c-13 167 -149 273 -328 273c-291 0 -492 -265 -492 -631c0 -251 134 -405 353 -405c176 0 319 99 379 262h255c-70 -296 -325 -490 -645 -490c-370 0 -607 242 -607 620c0 507 316 871 773 871c323 0 556 -195 569 -490c1 -18 0 -29 -1 -40h-255
z" />
    <glyph glyph-name="uni04AA" unicode="&#x4aa;" horiz-adv-x="1456" 
d="M475 -435l26 118c26 -8 60 -15 102 -15c51 0 110 12 110 52s-46 57 -115 57h-51l20 99l73 105c-318 37 -517 269 -517 615c0 507 316 871 773 871c323 0 556 -195 569 -490c1 -18 0 -29 -1 -40h-255c1 6 0 14 -1 30c-13 167 -149 273 -328 273
c-291 0 -492 -265 -492 -631c0 -251 134 -405 353 -405c176 0 319 99 379 262h255c-65 -275 -290 -462 -579 -487l-67 -98c75 -4 154 -52 154 -156c0 -121 -111 -181 -260 -181c-55 0 -106 8 -148 21z" />
    <glyph glyph-name="uniF53E" horiz-adv-x="1456" 
d="M1209 937c1 6 0 14 -1 30c-13 167 -149 273 -328 273c-291 0 -492 -265 -492 -631c0 -251 134 -405 353 -405c176 0 319 99 379 262h255c-62 -264 -271 -446 -542 -483l-58 -268h-234l58 272c-294 51 -476 278 -476 609c0 507 316 871 773 871c323 0 556 -195 569 -490
c1 -18 0 -29 -1 -40h-255z" />
    <glyph glyph-name="Tecyrillic" unicode="&#x422;" horiz-adv-x="1251" 
d="M643 0h-260l260 1220h-443l46 223h1147l-46 -223h-444z" />
    <glyph glyph-name="uni04AC" unicode="&#x4ac;" horiz-adv-x="1251" 
d="M521 -285l66 285h-204l47 223l213 997h-443l46 223h1147l-46 -223h-444l-212 -997h180l-116 -508h-234z" />
    <glyph glyph-name="Ucyrillic" unicode="&#x423;" horiz-adv-x="1313" 
d="M215 -12c-56 0 -95 10 -102 14l45 221c8 -2 33 -9 82 -9c95 0 171 35 240 119l-246 1110h270l159 -838h17l506 838h284l-678 -1057c-164 -255 -309 -398 -577 -398z" />
    <glyph glyph-name="Ushortcyrillic" unicode="&#x40e;" horiz-adv-x="1313" 
d="M885 1548c-247 0 -339 171 -327 318h161c-6 -93 38 -184 172 -184c114 0 183 65 204 184h163c-23 -192 -163 -319 -373 -318zM215 -12c-56 0 -95 10 -102 14l45 221c8 -2 33 -9 82 -9c95 0 171 35 240 119l-246 1110h270l159 -838h17l506 838h284l-678 -1057
c-164 -255 -309 -398 -577 -398z" />
    <glyph glyph-name="uni04EE" unicode="&#x4ee;" horiz-adv-x="1313" 
d="M1223 1787l-31 -148h-620l31 148h620zM215 -12c-56 0 -95 10 -102 14l45 221c8 -2 33 -9 82 -9c95 0 171 35 240 119l-246 1110h270l159 -838h17l506 838h284l-678 -1057c-164 -255 -309 -398 -577 -398z" />
    <glyph glyph-name="uni04F0" unicode="&#x4f0;" horiz-adv-x="1313" 
d="M697 1584c-73 0 -131 60 -131 132c0 74 58 133 131 133c74 0 132 -59 132 -133c0 -72 -58 -132 -132 -132zM1100 1584c-73 0 -132 60 -132 132c0 74 59 133 132 133c74 0 132 -59 132 -133c0 -72 -58 -132 -132 -132zM215 -12c-56 0 -95 10 -102 14l45 221
c8 -2 33 -9 82 -9c95 0 171 35 240 119l-246 1110h270l159 -838h17l506 838h284l-678 -1057c-164 -255 -309 -398 -577 -398z" />
    <glyph glyph-name="uni04F2" unicode="&#x4f2;" horiz-adv-x="1313" 
d="M774 1558h-162l135 300h211zM1110 1558h-170l192 300h227zM215 -12c-56 0 -95 10 -102 14l45 221c8 -2 33 -9 82 -9c95 0 171 35 240 119l-246 1110h270l159 -838h17l506 838h284l-678 -1057c-164 -255 -309 -398 -577 -398z" />
    <glyph glyph-name="uniF4CC" horiz-adv-x="1313" 
d="M956 1558h-178l203 300h235zM215 -12c-56 0 -95 10 -102 14l45 221c8 -2 33 -9 82 -9c95 0 171 35 240 119l-246 1110h270l159 -838h17l506 838h284l-678 -1057c-164 -255 -309 -398 -577 -398z" />
    <glyph glyph-name="uniF464" horiz-adv-x="1313" 
d="M956 1558h-178l203 300h235zM215 -12c-56 0 -95 10 -102 14l45 221c8 -2 33 -9 82 -9c95 0 171 35 240 119l-246 1110h270l159 -838h17l506 838h284l-678 -1057c-164 -255 -309 -398 -577 -398z" />
    <glyph glyph-name="Efcyrillic" unicode="&#x424;" horiz-adv-x="1725" 
d="M871 -27h-255l32 153c-334 14 -539 208 -539 505c0 395 325 678 794 692l31 147h255l-31 -147c334 -13 540 -207 540 -506c0 -393 -325 -676 -795 -691zM372 640c0 -177 120 -287 323 -296l164 761c-282 -13 -487 -207 -487 -465zM1435 806c0 180 -120 291 -323 299
l-165 -761c283 13 488 207 488 462z" />
    <glyph glyph-name="Xacyrillic" unicode="&#x425;" horiz-adv-x="1369" 
d="M-72 0l638 732l-324 711h285l232 -522h8l442 522h314l-639 -730l323 -713h-284l-234 525h-8l-443 -525h-310z" />
    <glyph glyph-name="uni04B2" unicode="&#x4b2;" horiz-adv-x="1421" 
d="M-72 0l638 732l-324 711h285l232 -522h8l442 522h314l-639 -730l222 -490h208l-116 -508h-235l67 285h-107l-234 525h-8l-443 -525h-310z" />
    <glyph glyph-name="uni04FE" unicode="&#x4fe;" horiz-adv-x="1369" 
d="M-72 0l546 627h-317l40 191h330l-285 625h285l232 -522h8l442 522h314l-547 -625h317l-40 -191h-330l284 -627h-284l-234 525h-8l-443 -525h-310z" />
    <glyph glyph-name="uni04FC" unicode="&#x4fc;" horiz-adv-x="1374" 
d="M240 1443h285l232 -522h8l441 522h314l-639 -730l168 -367c37 -82 63 -146 83 -210c18 -59 24 -104 24 -161c0 -223 -168 -377 -413 -377c-52 0 -96 3 -121 9l43 205c16 -3 36 -5 63 -5c100 0 172 67 172 158c0 29 -3 56 -13 88c-14 47 -33 98 -60 157l-140 315h-8
l-443 -525h-310l638 731z" />
    <glyph glyph-name="Tsecyrillic" unicode="&#x426;" horiz-adv-x="1569" 
d="M1345 -285h-235l61 285h-1146l309 1443h260l-261 -1219h677l261 1219h262l-261 -1220h180z" />
    <glyph glyph-name="uni04B4" unicode="&#x4b4;" horiz-adv-x="1865" 
d="M201 1252l40 191h1035l-40 -191h-387l-220 -1028h677l261 1219h262l-261 -1220h180l-107 -508h-235l61 285h-1146l268 1252h-388z" />
    <glyph glyph-name="Checyrillic" unicode="&#x427;" horiz-adv-x="1389" 
d="M1142 0h-261l128 598h-14c-87 -54 -212 -89 -352 -89c-339 0 -502 240 -433 564l79 370h260l-80 -373c-41 -193 34 -329 244 -329c156 0 278 46 346 98l129 604h261z" />
    <glyph glyph-name="uni04F4" unicode="&#x4f4;" horiz-adv-x="1389" 
d="M743 1584c-73 0 -131 60 -131 132c0 74 58 133 131 133c74 0 133 -59 133 -133c0 -72 -59 -132 -133 -132zM1146 1584c-73 0 -132 60 -132 132c0 74 59 133 132 133c74 0 132 -59 132 -133c0 -72 -58 -132 -132 -132zM1142 0h-261l128 598h-14c-87 -54 -212 -89 -352 -89
c-339 0 -502 240 -433 564l79 370h260l-80 -373c-41 -193 34 -329 244 -329c156 0 278 46 346 98l129 604h261z" />
    <glyph glyph-name="uni04B6" unicode="&#x4b6;" horiz-adv-x="1496" 
d="M1019 -285l66 285h-204l47 223h1l80 375h-14c-87 -54 -212 -89 -352 -89c-339 0 -502 240 -433 564l79 370h260l-80 -373c-41 -193 34 -329 244 -329c156 0 278 46 346 98l129 604h261l-260 -1220h180l-115 -508h-235z" />
    <glyph glyph-name="uni04CB" unicode="&#x4cb;" horiz-adv-x="1389" 
d="M871 -285h-235l117 508h176l80 375h-14c-87 -54 -212 -89 -352 -89c-339 0 -502 240 -433 564l79 370h260l-80 -373c-41 -193 34 -329 244 -329c156 0 278 46 346 98l129 604h261l-260 -1220h1l-48 -223h-205z" />
    <glyph glyph-name="uniF4C6" horiz-adv-x="1389" 
d="M614 -373l44 199c10 -3 27 -4 46 -4c95 0 147 44 174 165l3 13l128 598h-14c-87 -54 -212 -89 -352 -89c-339 0 -502 240 -433 564l79 370h260l-80 -373c-41 -193 34 -329 244 -329c156 0 278 46 346 98l129 604h261l-307 -1443l-3 -13c-51 -256 -196 -365 -426 -365
c-36 0 -78 2 -99 5z" />
    <glyph glyph-name="uni04B8" unicode="&#x4b8;" horiz-adv-x="1398" 
d="M1150 0h-260l128 598h-14c-60 -37 -139 -64 -227 -78l-54 -251h-180l51 242c-309 20 -454 253 -389 562l79 370h261l-80 -373c-37 -172 19 -299 179 -325l66 306h180l-65 -302c107 15 191 50 243 90l129 604h260z" />
    <glyph glyph-name="uni04BA" unicode="&#x4ba;" horiz-adv-x="1399" 
d="M329 1443h260l-125 -585h17c92 59 223 95 358 95c335 0 497 -227 430 -541l-87 -412h-260l84 396c41 191 -35 326 -242 326c-160 0 -283 -52 -352 -116l-130 -606h-260z" />
    <glyph glyph-name="uniF49E" horiz-adv-x="1399" 
d="M100 1115l40 191h160l29 137h260l-29 -137h392l-40 -191h-393l-55 -257h17c92 59 223 95 358 95c335 0 497 -227 430 -541l-87 -412h-260l84 396c41 191 -35 326 -242 326c-160 0 -283 -52 -352 -116l-130 -606h-260l237 1115h-159z" />
    <glyph glyph-name="uni0526" unicode="&#x526;" horiz-adv-x="1536" 
d="M1059 -285l67 285h-204l47 223l37 173c41 191 -35 326 -242 326c-160 0 -283 -52 -352 -116l-130 -606h-260l307 1443h260l-125 -585h17c92 59 223 95 358 95c335 0 497 -227 430 -541l-40 -189h181l-116 -508h-235z" />
    <glyph glyph-name="Tshecyrillic" unicode="&#x40b;" horiz-adv-x="1714" 
d="M1093 678c-140 0 -270 -79 -342 -177l-108 -501h-260l260 1220h-437l47 223h1134l-47 -223h-437l-95 -441h14c84 69 204 128 349 128c311 0 466 -205 396 -530l-80 -377h-261l82 381c40 185 -36 297 -215 297z" />
    <glyph glyph-name="Shacyrillic" unicode="&#x428;" horiz-adv-x="1947" 
d="M22 0l307 1443h260l-261 -1220h448l261 1220h261l-262 -1220h448l262 1220h260l-307 -1443h-1677z" />
    <glyph glyph-name="Shchacyrillic" unicode="&#x429;" horiz-adv-x="2054" 
d="M22 0l307 1443h260l-261 -1220h448l261 1220h261l-262 -1220h448l262 1220h260l-260 -1220h181l-115 -508h-235l66 285h-1621z" />
    <glyph glyph-name="Hardsigncyrillic" unicode="&#x42a;" horiz-adv-x="1492" 
d="M835 0h-589l262 1220h-334l47 223h593l-106 -493h233c290 0 481 -158 481 -423c0 -317 -249 -527 -587 -527zM888 734h-224l-113 -520h273c192 0 335 121 335 294c0 152 -108 226 -271 226z" />
    <glyph glyph-name="Yericyrillic" unicode="&#x42b;" horiz-adv-x="1768" 
d="M22 0l307 1443h260l-105 -493h232c291 0 481 -158 481 -423c0 -317 -248 -527 -586 -527h-589zM1525 0h-260l307 1443h260zM663 734h-224l-112 -520h272c192 0 336 121 336 294c0 152 -109 226 -272 226z" />
    <glyph glyph-name="uni04F8" unicode="&#x4f8;" horiz-adv-x="1768" 
d="M934 1584c-73 0 -131 60 -131 132c0 74 58 133 131 133c74 0 132 -59 132 -133c0 -72 -58 -132 -132 -132zM1337 1584c-73 0 -132 60 -132 132c0 74 59 133 132 133c74 0 131 -59 131 -133c0 -72 -57 -132 -131 -132zM22 0l307 1443h260l-105 -493h232
c291 0 481 -158 481 -423c0 -317 -248 -527 -586 -527h-589zM1525 0h-260l307 1443h260zM663 734h-224l-112 -520h272c192 0 336 121 336 294c0 152 -109 226 -272 226z" />
    <glyph glyph-name="uniF520" horiz-adv-x="1768" 
d="M1460 1787l-31 -148h-620l31 148h620zM22 0l307 1443h260l-105 -493h232c291 0 481 -158 481 -423c0 -317 -248 -527 -586 -527h-589zM1525 0h-260l307 1443h260zM663 734h-224l-112 -520h272c192 0 336 121 336 294c0 152 -109 226 -272 226z" />
    <glyph glyph-name="uniF536" horiz-adv-x="1768" 
d="M1122 1548c-247 0 -340 171 -327 318h161c-6 -93 38 -184 172 -184c113 0 183 65 204 184h163c-23 -192 -163 -319 -373 -318zM22 0l307 1443h260l-105 -493h232c291 0 481 -158 481 -423c0 -317 -248 -527 -586 -527h-589zM1525 0h-260l307 1443h260zM663 734h-224
l-112 -520h272c192 0 336 121 336 294c0 152 -109 226 -272 226z" />
    <glyph glyph-name="uniF465" horiz-adv-x="1768" 
d="M1193 1558h-178l203 300h235zM22 0l307 1443h260l-105 -493h232c291 0 481 -158 481 -423c0 -317 -248 -527 -586 -527h-589zM1525 0h-260l307 1443h260zM663 734h-224l-112 -520h272c192 0 336 121 336 294c0 152 -109 226 -272 226z" />
    <glyph glyph-name="uni048C" unicode="&#x48c;" horiz-adv-x="1473" 
d="M227 0l243 1144h-326l41 197h327l37 176h260l-37 -176h400l-41 -197h-401l-45 -215h233c292 0 484 -153 484 -409c0 -313 -248 -520 -586 -520h-589zM532 214h273c192 0 334 118 334 286c0 145 -109 216 -274 216h-224z" />
    <glyph glyph-name="uni0462" unicode="&#x462;" horiz-adv-x="1473" 
d="M227 0l243 1144h-326l41 197h327l37 176h260l-37 -176h400l-41 -197h-401l-45 -215h233c292 0 484 -153 484 -409c0 -313 -248 -520 -586 -520h-589zM532 214h273c192 0 334 118 334 286c0 145 -109 216 -274 216h-224z" />
    <glyph glyph-name="Softsigncyrillic" unicode="&#x42c;" horiz-adv-x="1268" 
d="M22 0l307 1443h260l-105 -493h232c291 0 481 -158 481 -423c0 -317 -248 -527 -586 -527h-589zM663 734h-224l-112 -520h272c192 0 336 121 336 294c0 152 -109 226 -272 226z" />
    <glyph glyph-name="Ljecyrillic" unicode="&#x409;" horiz-adv-x="2138" 
d="M515 561c-97 -363 -223 -572 -529 -572c-41 0 -75 6 -92 12l48 231c12 -3 38 -7 61 -7c148 0 220 148 274 352l232 866h948l-103 -480h233c290 0 481 -161 481 -426c0 -292 -235 -537 -590 -537h-588l261 1220h-456zM1533 747h-223l-116 -533h273c194 0 338 128 338 294
c0 162 -108 239 -272 239z" />
    <glyph glyph-name="Njecyrillic" unicode="&#x40a;" horiz-adv-x="2141" 
d="M914 0l135 633h-629l-135 -633h-260l307 1443h261l-127 -590h629l126 590h260l-126 -591h256c277 0 459 -144 459 -372c0 -261 -218 -480 -567 -480h-589zM1219 214h275c193 0 313 102 313 239c0 127 -99 187 -246 187h-250z" />
    <glyph glyph-name="Ereversedcyrillic" unicode="&#x42d;" horiz-adv-x="1431" 
d="M636 -24c-311 0 -542 200 -554 480h257c27 -156 146 -249 318 -249c223 0 390 157 451 422h-589l45 208h572c7 246 -118 399 -327 399c-165 0 -305 -101 -376 -270h-255c83 313 328 501 655 501c395 0 612 -305 544 -761c-58 -449 -340 -730 -741 -730z" />
    <glyph glyph-name="uni04EC" unicode="&#x4ec;" horiz-adv-x="1431" 
d="M683 1584c-73 0 -131 60 -131 132c0 74 58 133 131 133c74 0 133 -59 133 -133c0 -72 -59 -132 -133 -132zM1086 1584c-73 0 -132 60 -132 132c0 74 59 133 132 133c74 0 132 -59 132 -133c0 -72 -58 -132 -132 -132zM636 -24c-311 0 -542 200 -554 480h257
c27 -156 146 -249 318 -249c223 0 390 157 451 422h-589l45 208h572c7 246 -118 399 -327 399c-165 0 -305 -101 -376 -270h-255c83 313 328 501 655 501c395 0 612 -305 544 -761c-58 -449 -340 -730 -741 -730z" />
    <glyph glyph-name="uniF522" horiz-adv-x="1431" 
d="M1209 1787l-31 -148h-620l31 148h620zM636 -24c-311 0 -542 200 -554 480h257c27 -156 146 -249 318 -249c223 0 390 157 451 422h-589l45 208h572c7 246 -118 399 -327 399c-165 0 -305 -101 -376 -270h-255c83 313 328 501 655 501c395 0 612 -305 544 -761
c-58 -449 -340 -730 -741 -730z" />
    <glyph glyph-name="uniF466" horiz-adv-x="1431" 
d="M943 1558h-179l204 300h234zM636 -24c-311 0 -542 200 -554 480h257c27 -156 146 -249 318 -249c223 0 390 157 451 422h-589l45 208h572c7 246 -118 399 -327 399c-165 0 -305 -101 -376 -270h-255c83 313 328 501 655 501c395 0 612 -305 544 -761
c-58 -449 -340 -730 -741 -730z" />
    <glyph glyph-name="uniF524" horiz-adv-x="1431" 
d="M871 1548c-246 0 -339 171 -327 318h161c-5 -93 39 -184 172 -184c114 0 183 65 205 184h162c-22 -192 -163 -319 -373 -318zM636 -24c-311 0 -542 200 -554 480h257c27 -156 146 -249 318 -249c223 0 390 157 451 422h-589l45 208h572c7 246 -118 399 -327 399
c-165 0 -305 -101 -376 -270h-255c83 313 328 501 655 501c395 0 612 -305 544 -761c-58 -449 -340 -730 -741 -730z" />
    <glyph glyph-name="uniF4D6" horiz-adv-x="1431" 
d="M885 1579c-76 0 -136 62 -136 138s60 137 136 137s136 -61 136 -137s-60 -138 -136 -138zM636 -24c-311 0 -542 200 -554 480h257c27 -156 146 -249 318 -249c223 0 390 157 451 422h-589l45 208h572c7 246 -118 399 -327 399c-165 0 -305 -101 -376 -270h-255
c83 313 328 501 655 501c395 0 612 -305 544 -761c-58 -449 -340 -730 -741 -730z" />
    <glyph glyph-name="IUcyrillic" unicode="&#x42e;" horiz-adv-x="2046" 
d="M1243 -24c-374 0 -608 255 -608 624v23h-220l-134 -623h-259l307 1443h260l-128 -597h202c88 365 370 621 728 621c378 0 614 -255 614 -624c0 -493 -327 -867 -762 -867zM1742 830c0 251 -139 411 -354 411c-287 0 -494 -282 -494 -628c0 -251 138 -411 354 -411
c287 0 494 281 494 628z" />
    <glyph glyph-name="uniF52C" horiz-adv-x="2046" 
d="M1353 1787l-30 -148h-621l32 148h619zM1243 -24c-374 0 -608 255 -608 624v23h-220l-134 -623h-259l307 1443h260l-128 -597h202c88 365 370 621 728 621c378 0 614 -255 614 -624c0 -493 -327 -867 -762 -867zM1742 830c0 251 -139 411 -354 411
c-287 0 -494 -282 -494 -628c0 -251 138 -411 354 -411c287 0 494 281 494 628z" />
    <glyph glyph-name="uniF467" horiz-adv-x="2046" 
d="M1087 1558h-179l204 300h235zM1243 -24c-374 0 -608 255 -608 624v23h-220l-134 -623h-259l307 1443h260l-128 -597h202c88 365 370 621 728 621c378 0 614 -255 614 -624c0 -493 -327 -867 -762 -867zM1742 830c0 251 -139 411 -354 411c-287 0 -494 -282 -494 -628
c0 -251 138 -411 354 -411c287 0 494 281 494 628z" />
    <glyph glyph-name="uniF52E" horiz-adv-x="2046" 
d="M1016 1548c-247 0 -340 171 -328 318h161c-5 -93 39 -184 173 -184c113 0 183 65 204 184h162c-22 -192 -162 -319 -372 -318zM1243 -24c-374 0 -608 255 -608 624v23h-220l-134 -623h-259l307 1443h260l-128 -597h202c88 365 370 621 728 621c378 0 614 -255 614 -624
c0 -493 -327 -867 -762 -867zM1742 830c0 251 -139 411 -354 411c-287 0 -494 -282 -494 -628c0 -251 138 -411 354 -411c287 0 494 281 494 628z" />
    <glyph glyph-name="uniF498" horiz-adv-x="2046" 
d="M828 1584c-73 0 -132 60 -132 132c0 74 59 133 132 133s132 -59 132 -133c0 -72 -59 -132 -132 -132zM1231 1584c-73 0 -132 60 -132 132c0 74 59 133 132 133s131 -59 131 -133c0 -72 -58 -132 -131 -132zM1243 -24c-374 0 -608 255 -608 624v23h-220l-134 -623h-259
l307 1443h260l-128 -597h202c88 365 370 621 728 621c378 0 614 -255 614 -624c0 -493 -327 -867 -762 -867zM1742 830c0 251 -139 411 -354 411c-287 0 -494 -282 -494 -628c0 -251 138 -411 354 -411c287 0 494 281 494 628z" />
    <glyph glyph-name="IAcyrillic" unicode="&#x42f;" horiz-adv-x="1326" 
d="M723 517l-468 -517h-316l508 563c-152 60 -246 195 -246 372c0 276 234 508 589 508h595l-307 -1443h-260l110 517h-205zM738 723h236l109 503h-279c-196 0 -338 -118 -338 -273s110 -230 272 -230z" />
    <glyph glyph-name="uniF528" horiz-adv-x="1326" 
d="M1294 1787l-31 -148h-620l31 148h620zM723 517l-468 -517h-316l508 563c-152 60 -246 195 -246 372c0 276 234 508 589 508h595l-307 -1443h-260l110 517h-205zM738 723h236l109 503h-279c-196 0 -338 -118 -338 -273s110 -230 272 -230z" />
    <glyph glyph-name="uniF468" horiz-adv-x="1326" 
d="M1027 1558h-178l203 300h235zM723 517l-468 -517h-316l508 563c-152 60 -246 195 -246 372c0 276 234 508 589 508h595l-307 -1443h-260l110 517h-205zM738 723h236l109 503h-279c-196 0 -338 -118 -338 -273s110 -230 272 -230z" />
    <glyph glyph-name="uniF4D9" horiz-adv-x="1326" 
d="M768 1584c-73 0 -131 60 -131 132c0 74 58 133 131 133c74 0 132 -59 132 -133c0 -72 -58 -132 -132 -132zM1171 1584c-73 0 -132 60 -132 132c0 74 59 133 132 133c74 0 132 -59 132 -133c0 -72 -58 -132 -132 -132zM723 517l-468 -517h-316l508 563
c-152 60 -246 195 -246 372c0 276 234 508 589 508h595l-307 -1443h-260l110 517h-205zM738 723h236l109 503h-279c-196 0 -338 -118 -338 -273s110 -230 272 -230z" />
    <glyph glyph-name="uniF52A" horiz-adv-x="1326" 
d="M956 1548c-247 0 -339 171 -327 318h161c-6 -93 38 -184 172 -184c114 0 183 65 204 184h163c-23 -192 -163 -319 -373 -318zM723 517l-468 -517h-316l508 563c-152 60 -246 195 -246 372c0 276 234 508 589 508h595l-307 -1443h-260l110 517h-205zM738 723h236l109 503
h-279c-196 0 -338 -118 -338 -273s110 -230 272 -230z" />
    <glyph glyph-name="uni0494" unicode="&#x494;" horiz-adv-x="1348" 
d="M1197 1443l-47 -223h-610l-95 -442h16c89 73 211 129 374 129c248 0 404 -150 404 -378c0 -307 -217 -581 -582 -581c-86 0 -140 11 -155 18l45 214c15 -6 61 -14 118 -14c195 0 308 158 308 315c0 122 -84 197 -228 197c-143 0 -286 -74 -358 -177l-107 -501h-258
l307 1443h868z" />
    <glyph glyph-name="uni04A6" unicode="&#x4a6;" horiz-adv-x="2232" 
d="M328 1443h1143l-142 -665h16c91 75 213 129 371 129c257 0 407 -152 407 -382c0 -295 -209 -577 -582 -577c-72 0 -130 8 -155 18l45 214c22 -8 71 -14 118 -14c195 0 308 158 308 315c0 124 -83 197 -228 197c-141 0 -285 -73 -358 -177l-107 -501h-257l261 1219h-629
l-260 -1219h-258z" />
    <glyph glyph-name="Ecyrillic" unicode="&#x404;" horiz-adv-x="1447" 
d="M1348 451c-85 -299 -336 -487 -658 -487c-392 0 -625 283 -547 774c57 436 341 741 761 741c300 0 548 -199 552 -487v-21h-256c-8 171 -139 277 -317 277c-220 0 -398 -164 -464 -408h601l-44 -213h-588c-24 -270 103 -433 329 -433c181 0 316 110 375 257h256z" />
    <glyph glyph-name="uniF526" horiz-adv-x="1447" 
d="M758 1584c-73 0 -131 60 -131 132c0 74 58 133 131 133c74 0 133 -59 133 -133c0 -72 -59 -132 -133 -132zM1161 1584c-73 0 -131 60 -131 132c0 74 58 133 131 133c74 0 132 -59 132 -133c0 -72 -58 -132 -132 -132zM1348 451c-85 -299 -336 -487 -658 -487
c-392 0 -625 283 -547 774c57 436 341 741 761 741c300 0 548 -199 552 -487v-21h-256c-8 171 -139 277 -317 277c-220 0 -398 -164 -464 -408h601l-44 -213h-588c-24 -270 103 -433 329 -433c181 0 316 110 375 257h256z" />
    <glyph glyph-name="uni04C0" unicode="&#x4c0;" horiz-adv-x="530" 
d="M282 0h-260l307 1443h260z" />
    <glyph glyph-name="Icyrillic" unicode="&#x406;" horiz-adv-x="530" 
d="M282 0h-260l307 1443h260z" />
    <glyph glyph-name="Yicyrillic" unicode="&#x407;" horiz-adv-x="530" 
d="M316 1584c-73 0 -131 60 -131 132c0 74 58 133 131 133c74 0 132 -59 132 -133c0 -72 -58 -132 -132 -132zM719 1584c-73 0 -132 60 -132 132c0 74 59 133 132 133c74 0 132 -59 132 -133c0 -72 -58 -132 -132 -132zM282 0h-260l307 1443h260z" />
    <glyph glyph-name="uni04C0.1" horiz-adv-x="971" 
d="M-29 0l44 212h272l217 1019h-270l44 212h803l-44 -212h-273l-216 -1019h270l-44 -212h-803z" />
    <glyph glyph-name="Icyrillic.1" horiz-adv-x="971" 
d="M-29 0l44 212h272l217 1019h-270l44 212h803l-44 -212h-273l-216 -1019h270l-44 -212h-803z" />
    <glyph glyph-name="Yicyrillic.1" horiz-adv-x="971" 
d="M535 1584c-73 0 -131 60 -131 132c0 74 58 133 131 133c74 0 132 -59 132 -133c0 -72 -58 -132 -132 -132zM938 1584c-73 0 -132 60 -132 132c0 74 59 133 132 133c74 0 132 -59 132 -133c0 -72 -58 -132 -132 -132zM-29 0l44 212h272l217 1019h-270l44 212h803l-44 -212
h-273l-216 -1019h270l-44 -212h-803z" />
    <glyph glyph-name="uni04A8" unicode="&#x4a8;" horiz-adv-x="1962" 
d="M799 -28c-411 0 -682 262 -682 681c0 431 328 798 832 834l-51 -244c-322 -56 -513 -286 -513 -592c0 -261 185 -454 450 -454c57 0 110 5 161 15c-107 117 -172 276 -172 440c0 359 245 650 581 650c283 0 441 -161 441 -441c0 -274 -164 -527 -400 -668
c25 -3 52 -5 84 -5c96 0 188 26 253 66l50 -198c-98 -57 -206 -84 -332 -84c-130 0 -232 27 -322 85c-112 -57 -241 -85 -380 -85zM1080 666c0 -144 58 -280 158 -369c211 110 349 321 349 537c0 155 -73 245 -201 245c-173 0 -306 -186 -306 -413z" />
    <glyph glyph-name="uni04AE" unicode="&#x4ae;" horiz-adv-x="1321" 
d="M680 0h-261l120 569l-319 874h269l224 -632h5l484 632h288l-694 -890z" />
    <glyph glyph-name="uniF43A" horiz-adv-x="1321" 
d="M1235 1787l-31 -148h-620l31 148h620zM680 0h-261l120 569l-319 874h269l224 -632h5l484 632h288l-694 -890z" />
    <glyph glyph-name="uni04B0" unicode="&#x4b0;" horiz-adv-x="1321" 
d="M188 540l39 191h253l-260 712h269l224 -632h5l484 632h288l-555 -712h244l-39 -191h-346l-114 -540h-261l114 540h-345z" />
    <glyph glyph-name="uni04BC" unicode="&#x4bc;" horiz-adv-x="1778" 
d="M999 -24c-362 0 -583 228 -583 603c0 33 2 66 4 98h-19c-186 0 -300 98 -300 257c0 80 28 162 79 232h206c-43 -69 -65 -129 -65 -178c0 -71 38 -106 115 -106h22c101 349 375 585 718 585c364 0 576 -212 576 -574c0 -75 -12 -159 -29 -215h-1049c-2 -14 -4 -41 -4 -69
c-13 -246 123 -407 346 -407c166 0 297 70 371 197h266c-101 -260 -353 -423 -654 -423zM719 878h774c1 10 1 15 1 40c0 203 -127 327 -336 327c-201 0 -378 -148 -439 -367z" />
    <glyph glyph-name="uni04BE" unicode="&#x4be;" horiz-adv-x="1778" 
d="M1653 399c-88 -227 -292 -380 -543 -415l-58 -269h-234l58 271c-289 46 -460 262 -460 593c0 33 2 66 4 98h-19c-186 0 -300 98 -300 257c0 80 28 162 79 232h206c-43 -69 -65 -129 -65 -178c0 -71 38 -106 115 -106h22c101 349 375 585 718 585c364 0 576 -212 576 -574
c0 -75 -12 -159 -29 -215h-1049c-2 -14 -4 -41 -4 -69c-13 -246 123 -407 346 -407c166 0 297 70 371 197h266zM719 878h774c1 10 1 15 1 40c0 203 -127 327 -336 327c-201 0 -378 -148 -439 -367z" />
    <glyph glyph-name="uni04D4" unicode="&#x4d4;" horiz-adv-x="1948" 
d="M837 0l86 398h-485l-258 -398h-268l923 1443h1204l-47 -223h-650l-84 -389h614l-44 -211h-614l-87 -397h651l-46 -223h-895zM1100 1235h-135l-406 -632h406z" />
    <glyph glyph-name="uni04D8" unicode="&#x4d8;" horiz-adv-x="1505" 
d="M701 -24c-363 0 -586 224 -586 587c0 71 10 145 27 206h1049c4 27 6 51 6 68c10 249 -122 404 -346 404c-165 0 -292 -68 -368 -197h-270c102 261 351 423 653 423c366 0 589 -228 589 -602c0 -528 -306 -889 -754 -889zM714 202c210 0 380 143 440 370h-773
c-1 -10 -1 -15 -1 -41c0 -205 126 -329 334 -329z" />
    <glyph glyph-name="uni04D8" unicode="&#x18f;" horiz-adv-x="1505" 
d="M701 -24c-363 0 -586 224 -586 587c0 71 10 145 27 206h1049c4 27 6 51 6 68c10 249 -122 404 -346 404c-165 0 -292 -68 -368 -197h-270c102 261 351 423 653 423c366 0 589 -228 589 -602c0 -528 -306 -889 -754 -889zM714 202c210 0 380 143 440 370h-773
c-1 -10 -1 -15 -1 -41c0 -205 126 -329 334 -329z" />
    <glyph glyph-name="uni04DA" unicode="&#x4da;" horiz-adv-x="1505" 
d="M717 1584c-73 0 -131 60 -131 132c0 74 58 133 131 133c74 0 132 -59 132 -133c0 -72 -58 -132 -132 -132zM1120 1584c-73 0 -132 60 -132 132c0 74 59 133 132 133c74 0 131 -59 131 -133c0 -72 -57 -132 -131 -132zM701 -24c-363 0 -586 224 -586 587
c0 71 10 145 27 206h1049c4 27 6 51 6 68c10 249 -122 404 -346 404c-165 0 -292 -68 -368 -197h-270c102 261 351 423 653 423c366 0 589 -228 589 -602c0 -528 -306 -889 -754 -889zM714 202c210 0 380 143 440 370h-773c-1 -10 -1 -15 -1 -41c0 -205 126 -329 334 -329z
" />
    <glyph glyph-name="uniF49C" horiz-adv-x="1505" 
d="M1243 1787l-31 -148h-620l31 148h620zM701 -24c-363 0 -586 224 -586 587c0 71 10 145 27 206h1049c4 27 6 51 6 68c10 249 -122 404 -346 404c-165 0 -292 -68 -368 -197h-270c102 261 351 423 653 423c366 0 589 -228 589 -602c0 -528 -306 -889 -754 -889zM714 202
c210 0 380 143 440 370h-773c-1 -10 -1 -15 -1 -41c0 -205 126 -329 334 -329z" />
    <glyph glyph-name="uni04E0" unicode="&#x4e0;" horiz-adv-x="1236" 
d="M566 -24c-324 0 -533 172 -522 427c0 16 1 23 3 29h240c-8 -146 106 -242 291 -242c172 0 299 112 299 263c0 143 -111 227 -300 227h-134l34 181l434 346l2 13h-641l47 223h983l-39 -190l-509 -401l-2 -7c243 -19 378 -168 378 -367c0 -297 -230 -502 -564 -502z" />
    <glyph glyph-name="uni0510" unicode="&#x510;" horiz-adv-x="1250" 
d="M839 637h-189c-206 0 -332 -85 -334 -229c-3 -127 109 -218 274 -218c178 0 291 81 316 222h253c-43 -277 -252 -436 -578 -436c-319 0 -528 165 -522 408c4 204 158 355 381 375l1 5c-126 36 -207 153 -203 295c7 244 224 408 536 408c319 0 521 -171 486 -416h-233
c5 128 -99 209 -265 209c-158 0 -276 -85 -280 -206c-3 -125 98 -209 254 -209h146z" />
    <glyph glyph-name="uniF538" horiz-adv-x="1250" 
d="M625 1586c-73 0 -131 60 -131 132c0 74 58 133 131 133c74 0 133 -59 133 -133c0 -72 -59 -132 -133 -132zM1028 1586c-73 0 -132 60 -132 132c0 74 59 133 132 133c74 0 132 -59 132 -133c0 -72 -58 -132 -132 -132zM839 637h-189c-206 0 -332 -85 -334 -229
c-3 -127 109 -218 274 -218c178 0 291 81 316 222h253c-43 -277 -252 -436 -578 -436c-319 0 -528 165 -522 408c4 204 158 355 381 375l1 5c-126 36 -207 153 -203 295c7 244 224 408 536 408c319 0 521 -171 486 -416h-233c5 128 -99 209 -265 209
c-158 0 -276 -85 -280 -206c-3 -125 98 -209 254 -209h146z" />
    <glyph glyph-name="uni0474" unicode="&#x474;" horiz-adv-x="1522" 
d="M724 0h-300l-196 1443h275l130 -1139h9l461 847c59 124 117 205 185 253c59 41 124 60 204 60s161 -20 210 -53l-116 -212c-30 12 -58 19 -83 19c-34 0 -61 -9 -88 -31c-28 -24 -55 -61 -91 -124z" />
    <glyph glyph-name="uni051C" unicode="&#x51c;" horiz-adv-x="1944" 
d="M1075 1033l-510 -1033h-248l-81 1443h254l32 -1073h5l520 1073h220l76 -1072h5l479 1072h268l-686 -1443h-246l-83 1033h-5z" />
    <glyph glyph-name="Djecyrillic" unicode="&#x402;" horiz-adv-x="1709" 
d="M383 0l260 1220h-437l47 223h1134l-47 -223h-437l-95 -442h14c78 77 202 129 335 129c282 0 444 -170 444 -424c0 -312 -222 -535 -562 -535c-88 0 -158 11 -175 18l45 214c15 -6 67 -14 130 -14c171 0 296 116 296 279c0 147 -91 233 -243 233
c-130 0 -271 -76 -341 -177l-108 -501h-260z" />
    <glyph glyph-name="Dzecyrillic" unicode="&#x405;" horiz-adv-x="1287" 
d="M50 424h251c17 -136 144 -232 331 -232c166 0 288 74 288 202c0 103 -62 157 -226 208l-114 35c-239 75 -360 195 -360 391c0 263 221 439 533 439c318 0 536 -163 536 -432h-245c-6 128 -114 216 -290 216s-270 -93 -270 -195c0 -93 65 -151 222 -199l115 -36
c246 -75 365 -190 365 -382c0 -254 -203 -463 -558 -463c-328 0 -571 167 -578 448z" />
    <glyph glyph-name="Jecyrillic" unicode="&#x408;" horiz-adv-x="1110" 
d="M18 366c0 12 0 29 1 40h253v-8c0 -115 75 -186 195 -186c122 0 196 76 229 230l213 1001h260l-222 -1044c-57 -271 -227 -423 -494 -423c-256 0 -435 162 -435 390z" />
    <glyph glyph-name="a" unicode="a" horiz-adv-x="1070" 
d="M339 -17c-180 0 -324 122 -324 292c0 213 169 338 450 350l289 12l14 64c3 17 4 30 4 44c0 86 -67 140 -184 140c-120 0 -194 -55 -215 -140h-237c35 202 215 339 470 339c245 0 408 -127 408 -311c0 -31 -4 -65 -8 -88l-145 -685h-237l28 128h-5
c-65 -88 -176 -145 -308 -145zM429 173c130 0 242 82 268 198l22 101l-248 -12c-135 -5 -215 -62 -215 -152c0 -82 71 -135 173 -135z" />
    <glyph glyph-name="agrave" unicode="&#xe0;" horiz-adv-x="1070" 
d="M562 1209l-122 310h224l72 -310h-174zM339 -17c-180 0 -324 122 -324 292c0 213 169 338 450 350l289 12l14 64c3 17 4 30 4 44c0 86 -67 140 -184 140c-120 0 -194 -55 -215 -140h-237c35 202 215 339 470 339c245 0 408 -127 408 -311c0 -31 -4 -65 -8 -88l-145 -685
h-237l28 128h-5c-65 -88 -176 -145 -308 -145zM429 173c130 0 242 82 268 198l22 101l-248 -12c-135 -5 -215 -62 -215 -152c0 -82 71 -135 173 -135z" />
    <glyph glyph-name="aacute" unicode="&#xe1;" horiz-adv-x="1070" 
d="M740 1209h-179l201 310h236zM339 -17c-180 0 -324 122 -324 292c0 213 169 338 450 350l289 12l14 64c3 17 4 30 4 44c0 86 -67 140 -184 140c-120 0 -194 -55 -215 -140h-237c35 202 215 339 470 339c245 0 408 -127 408 -311c0 -31 -4 -65 -8 -88l-145 -685h-237
l28 128h-5c-65 -88 -176 -145 -308 -145zM429 173c130 0 242 82 268 198l22 101l-248 -12c-135 -5 -215 -62 -215 -152c0 -82 71 -135 173 -135z" />
    <glyph glyph-name="adieresis" unicode="&#xe4;" horiz-adv-x="1070" 
d="M478 1225c-73 0 -131 60 -131 132c0 73 58 133 131 133c74 0 132 -60 132 -133c0 -72 -58 -132 -132 -132zM881 1225c-73 0 -132 60 -132 132c0 73 59 133 132 133c74 0 132 -60 132 -133c0 -72 -58 -132 -132 -132zM339 -17c-180 0 -324 122 -324 292
c0 213 169 338 450 350l289 12l14 64c3 17 4 30 4 44c0 86 -67 140 -184 140c-120 0 -194 -55 -215 -140h-237c35 202 215 339 470 339c245 0 408 -127 408 -311c0 -31 -4 -65 -8 -88l-145 -685h-237l28 128h-5c-65 -88 -176 -145 -308 -145zM429 173c130 0 242 82 268 198
l22 101l-248 -12c-135 -5 -215 -62 -215 -152c0 -82 71 -135 173 -135z" />
    <glyph glyph-name="adieresismacron" unicode="&#x1df;" horiz-adv-x="1070" 
d="M1073 1755l-31 -148h-620l31 148h620zM482 1216c-69 0 -123 53 -123 120s54 121 123 121c68 0 122 -54 122 -121s-54 -120 -122 -120zM868 1216c-68 0 -122 53 -122 120s54 121 122 121s123 -54 123 -121s-55 -120 -123 -120zM339 -17c-180 0 -324 122 -324 292
c0 213 169 338 450 350l289 12l14 64c3 17 4 30 4 44c0 86 -67 140 -184 140c-120 0 -194 -55 -215 -140h-237c35 202 215 339 470 339c245 0 408 -127 408 -311c0 -31 -4 -65 -8 -88l-145 -685h-237l28 128h-5c-65 -88 -176 -145 -308 -145zM429 173c130 0 242 82 268 198
l22 101l-248 -12c-135 -5 -215 -62 -215 -152c0 -82 71 -135 173 -135z" />
    <glyph glyph-name="aring" unicode="&#xe5;" horiz-adv-x="1070" 
d="M681 1161c-113 0 -208 93 -208 206c0 114 95 207 208 207c114 0 208 -93 208 -207c0 -113 -94 -206 -208 -206zM681 1271c54 0 99 43 99 96c0 54 -45 98 -99 98s-98 -44 -98 -98c0 -53 44 -96 98 -96zM339 -17c-180 0 -324 122 -324 292c0 213 169 338 450 350l289 12
l14 64c3 17 4 30 4 44c0 86 -67 140 -184 140c-120 0 -194 -55 -215 -140h-237c35 202 215 339 470 339c245 0 408 -127 408 -311c0 -31 -4 -65 -8 -88l-145 -685h-237l28 128h-5c-65 -88 -176 -145 -308 -145zM429 173c130 0 242 82 268 198l22 101l-248 -12
c-135 -5 -215 -62 -215 -152c0 -82 71 -135 173 -135z" />
    <glyph glyph-name="aringacute" unicode="&#x1fb;" horiz-adv-x="1070" 
d="M654 1672l173 208h212l-200 -208h-185zM682 1187c-114 0 -203 78 -203 199c0 122 89 209 208 209c115 0 204 -77 204 -198c-1 -123 -89 -210 -209 -210zM591 1387c0 -55 38 -91 91 -91c58 0 97 39 97 99c-1 56 -38 92 -92 92c-56 0 -96 -39 -96 -100zM339 -17
c-180 0 -324 122 -324 292c0 213 169 338 450 350l289 12l14 64c3 17 4 30 4 44c0 86 -67 140 -184 140c-120 0 -194 -55 -215 -140h-237c35 202 215 339 470 339c245 0 408 -127 408 -311c0 -31 -4 -65 -8 -88l-145 -685h-237l28 128h-5c-65 -88 -176 -145 -308 -145z
M429 173c130 0 242 82 268 198l22 101l-248 -12c-135 -5 -215 -62 -215 -152c0 -82 71 -135 173 -135z" />
    <glyph glyph-name="atilde" unicode="&#xe3;" horiz-adv-x="1070" 
d="M328 1239c25 141 104 245 229 245c140 0 176 -135 247 -135c37 0 63 34 79 103h151c-24 -141 -103 -247 -230 -247c-139 0 -174 135 -245 135c-39 0 -64 -32 -79 -101h-152zM339 -17c-180 0 -324 122 -324 292c0 213 169 338 450 350l289 12l14 64c3 17 4 30 4 44
c0 86 -67 140 -184 140c-120 0 -194 -55 -215 -140h-237c35 202 215 339 470 339c245 0 408 -127 408 -311c0 -31 -4 -65 -8 -88l-145 -685h-237l28 128h-5c-65 -88 -176 -145 -308 -145zM429 173c130 0 242 82 268 198l22 101l-248 -12c-135 -5 -215 -62 -215 -152
c0 -82 71 -135 173 -135z" />
    <glyph glyph-name="abrevegrave" unicode="&#x1eb1;" horiz-adv-x="1070" 
d="M824 1563h-172l-169 293h206zM689 1214c-258 0 -337 190 -311 318h159c-10 -94 37 -178 159 -178c103 0 177 62 194 178h162c-19 -190 -153 -319 -363 -318zM339 -17c-180 0 -324 122 -324 292c0 213 169 338 450 350l289 12l14 64c3 17 4 30 4 44c0 86 -67 140 -184 140
c-120 0 -194 -55 -215 -140h-237c35 202 215 339 470 339c245 0 408 -127 408 -311c0 -31 -4 -65 -8 -88l-145 -685h-237l28 128h-5c-65 -88 -176 -145 -308 -145zM429 173c130 0 242 82 268 198l22 101l-248 -12c-135 -5 -215 -62 -215 -152c0 -82 71 -135 173 -135z" />
    <glyph glyph-name="adotmacron" unicode="&#x1e1;" horiz-adv-x="1070" 
d="M1073 1755l-31 -148h-620l31 148h620zM676 1204c-77 0 -137 62 -137 138c0 77 60 138 137 138c78 0 138 -61 138 -138c0 -76 -60 -138 -138 -138zM339 -17c-180 0 -324 122 -324 292c0 213 169 338 450 350l289 12l14 64c3 17 4 30 4 44c0 86 -67 140 -184 140
c-120 0 -194 -55 -215 -140h-237c35 202 215 339 470 339c245 0 408 -127 408 -311c0 -31 -4 -65 -8 -88l-145 -685h-237l28 128h-5c-65 -88 -176 -145 -308 -145zM429 173c130 0 242 82 268 198l22 101l-248 -12c-135 -5 -215 -62 -215 -152c0 -82 71 -135 173 -135z" />
    <glyph glyph-name="aringbelow" unicode="&#x1e01;" horiz-adv-x="1070" 
d="M339 -17c-180 0 -324 122 -324 292c0 213 169 338 450 350l289 12l14 64c3 17 4 30 4 44c0 86 -67 140 -184 140c-120 0 -194 -55 -215 -140h-237c35 202 215 339 470 339c245 0 408 -127 408 -311c0 -31 -4 -65 -8 -88l-145 -685h-237l28 128h-5
c-65 -88 -176 -145 -308 -145zM429 173c130 0 242 82 268 198l22 101l-248 -12c-135 -5 -215 -62 -215 -152c0 -82 71 -135 173 -135zM405 -471c-113 0 -208 93 -208 207c0 113 95 206 208 206c114 0 208 -93 208 -206c0 -114 -94 -207 -208 -207zM405 -361
c54 0 98 43 98 97c0 53 -44 97 -98 97s-98 -44 -98 -97c0 -54 44 -97 98 -97z" />
    <glyph glyph-name="acircumflex" unicode="&#xe2;" horiz-adv-x="1070" 
d="M810 1519l197 -310h-193l-109 183h-7l-180 -183h-201l302 310h191zM339 -17c-180 0 -324 122 -324 292c0 213 169 338 450 350l289 12l14 64c3 17 4 30 4 44c0 86 -67 140 -184 140c-120 0 -194 -55 -215 -140h-237c35 202 215 339 470 339c245 0 408 -127 408 -311
c0 -31 -4 -65 -8 -88l-145 -685h-237l28 128h-5c-65 -88 -176 -145 -308 -145zM429 173c130 0 242 82 268 198l22 101l-248 -12c-135 -5 -215 -62 -215 -152c0 -82 71 -135 173 -135z" />
    <glyph glyph-name="acircumflexdotbelow" unicode="&#x1ead;" horiz-adv-x="1070" 
d="M810 1519l197 -310h-193l-109 183h-7l-180 -183h-201l302 310h191zM339 -17c-180 0 -324 122 -324 292c0 213 169 338 450 350l289 12l14 64c3 17 4 30 4 44c0 86 -67 140 -184 140c-120 0 -194 -55 -215 -140h-237c35 202 215 339 470 339c245 0 408 -127 408 -311
c0 -31 -4 -65 -8 -88l-145 -685h-237l28 128h-5c-65 -88 -176 -145 -308 -145zM429 173c130 0 242 82 268 198l22 101l-248 -12c-135 -5 -215 -62 -215 -152c0 -82 71 -135 173 -135zM405 -402c-75 0 -136 62 -136 138s61 138 136 138c77 0 137 -62 137 -138
s-60 -138 -137 -138z" />
    <glyph glyph-name="acircumflexacute" unicode="&#x1ea5;" horiz-adv-x="1070" 
d="M881 1565l269 291h220l-295 -291h-194zM798 1517l203 -299h-190l-119 179h-7l-196 -179h-214l330 299h193zM339 -17c-180 0 -324 122 -324 292c0 213 169 338 450 350l289 12l14 64c3 17 4 30 4 44c0 86 -67 140 -184 140c-120 0 -194 -55 -215 -140h-237
c35 202 215 339 470 339c245 0 408 -127 408 -311c0 -31 -4 -65 -8 -88l-145 -685h-237l28 128h-5c-65 -88 -176 -145 -308 -145zM429 173c130 0 242 82 268 198l22 101l-248 -12c-135 -5 -215 -62 -215 -152c0 -82 71 -135 173 -135z" />
    <glyph glyph-name="acircumflextilde" unicode="&#x1eab;" horiz-adv-x="1070" 
d="M871 1593c-139 0 -170 139 -248 139c-44 0 -81 -45 -95 -120h-144c30 162 126 258 249 258c137 0 168 -138 247 -138c43 0 77 43 95 122h144c-31 -161 -130 -261 -248 -261zM796 1510l205 -292h-191l-120 173h-7l-194 -173h-214l329 292h192zM339 -17
c-180 0 -324 122 -324 292c0 213 169 338 450 350l289 12l14 64c3 17 4 30 4 44c0 86 -67 140 -184 140c-120 0 -194 -55 -215 -140h-237c35 202 215 339 470 339c245 0 408 -127 408 -311c0 -31 -4 -65 -8 -88l-145 -685h-237l28 128h-5c-65 -88 -176 -145 -308 -145z
M429 173c130 0 242 82 268 198l22 101l-248 -12c-135 -5 -215 -62 -215 -152c0 -82 71 -135 173 -135z" />
    <glyph glyph-name="acircumflexgrave" unicode="&#x1ea7;" horiz-adv-x="1070" 
d="M1107 1563h-172l-169 293h206zM798 1517l203 -299h-190l-119 179h-7l-196 -179h-214l330 299h193zM339 -17c-180 0 -324 122 -324 292c0 213 169 338 450 350l289 12l14 64c3 17 4 30 4 44c0 86 -67 140 -184 140c-120 0 -194 -55 -215 -140h-237c35 202 215 339 470 339
c245 0 408 -127 408 -311c0 -31 -4 -65 -8 -88l-145 -685h-237l28 128h-5c-65 -88 -176 -145 -308 -145zM429 173c130 0 242 82 268 198l22 101l-248 -12c-135 -5 -215 -62 -215 -152c0 -82 71 -135 173 -135z" />
    <glyph glyph-name="acircumflexhookabove" unicode="&#x1ea9;" horiz-adv-x="1070" 
d="M819 1745l27 126c32 13 83 23 124 23c114 0 187 -60 187 -153c0 -108 -88 -213 -208 -253l-63 97c65 24 114 73 114 116c0 37 -32 61 -80 61c-36 0 -68 -5 -101 -17zM798 1517l203 -299h-190l-119 179h-7l-196 -179h-214l330 299h193zM339 -17c-180 0 -324 122 -324 292
c0 213 169 338 450 350l289 12l14 64c3 17 4 30 4 44c0 86 -67 140 -184 140c-120 0 -194 -55 -215 -140h-237c35 202 215 339 470 339c245 0 408 -127 408 -311c0 -31 -4 -65 -8 -88l-145 -685h-237l28 128h-5c-65 -88 -176 -145 -308 -145zM429 173c130 0 242 82 268 198
l22 101l-248 -12c-135 -5 -215 -62 -215 -152c0 -82 71 -135 173 -135z" />
    <glyph glyph-name="abreve" unicode="&#x103;" horiz-adv-x="1070" 
d="M674 1209c-258 0 -337 190 -311 319h159c-10 -95 37 -179 159 -179c103 0 177 62 194 179h162c-19 -191 -153 -319 -363 -319zM339 -17c-180 0 -324 122 -324 292c0 213 169 338 450 350l289 12l14 64c3 17 4 30 4 44c0 86 -67 140 -184 140c-120 0 -194 -55 -215 -140
h-237c35 202 215 339 470 339c245 0 408 -127 408 -311c0 -31 -4 -65 -8 -88l-145 -685h-237l28 128h-5c-65 -88 -176 -145 -308 -145zM429 173c130 0 242 82 268 198l22 101l-248 -12c-135 -5 -215 -62 -215 -152c0 -82 71 -135 173 -135z" />
    <glyph glyph-name="abreveacute" unicode="&#x1eaf;" horiz-adv-x="1070" 
d="M615 1565l269 291h219l-295 -291h-193zM689 1214c-258 0 -337 190 -311 318h159c-10 -94 37 -178 159 -178c103 0 177 62 194 178h162c-19 -190 -153 -319 -363 -318zM339 -17c-180 0 -324 122 -324 292c0 213 169 338 450 350l289 12l14 64c3 17 4 30 4 44
c0 86 -67 140 -184 140c-120 0 -194 -55 -215 -140h-237c35 202 215 339 470 339c245 0 408 -127 408 -311c0 -31 -4 -65 -8 -88l-145 -685h-237l28 128h-5c-65 -88 -176 -145 -308 -145zM429 173c130 0 242 82 268 198l22 101l-248 -12c-135 -5 -215 -62 -215 -152
c0 -82 71 -135 173 -135z" />
    <glyph glyph-name="abrevetilde" unicode="&#x1eb5;" horiz-adv-x="1070" 
d="M886 1593c-139 0 -170 139 -248 139c-44 0 -81 -45 -95 -120h-144c30 162 126 258 249 258c137 0 168 -138 247 -138c43 0 77 43 95 122h144c-31 -161 -130 -261 -248 -261zM1061 1530c-43 -190 -190 -319 -410 -319c-173 0 -288 104 -288 249c0 25 3 49 9 70h159
c-4 -13 -7 -29 -7 -45c0 -85 56 -138 150 -138c110 0 198 71 224 183h163zM339 -17c-180 0 -324 122 -324 292c0 213 169 338 450 350l289 12l14 64c3 17 4 30 4 44c0 86 -67 140 -184 140c-120 0 -194 -55 -215 -140h-237c35 202 215 339 470 339c245 0 408 -127 408 -311
c0 -31 -4 -65 -8 -88l-145 -685h-237l28 128h-5c-65 -88 -176 -145 -308 -145zM429 173c130 0 242 82 268 198l22 101l-248 -12c-135 -5 -215 -62 -215 -152c0 -82 71 -135 173 -135z" />
    <glyph glyph-name="abrevehookabove" unicode="&#x1eb3;" horiz-adv-x="1070" 
d="M570 1756l26 116c32 13 82 22 121 22c112 0 183 -56 183 -145c0 -96 -88 -200 -197 -236l-63 92c60 22 107 68 107 109c0 35 -31 58 -78 58c-34 0 -66 -5 -99 -16zM1061 1530c-43 -190 -190 -319 -410 -319c-173 0 -288 104 -288 249c0 25 3 49 9 70h159
c-4 -13 -7 -29 -7 -45c0 -85 56 -138 150 -138c110 0 198 71 224 183h163zM339 -17c-180 0 -324 122 -324 292c0 213 169 338 450 350l289 12l14 64c3 17 4 30 4 44c0 86 -67 140 -184 140c-120 0 -194 -55 -215 -140h-237c35 202 215 339 470 339c245 0 408 -127 408 -311
c0 -31 -4 -65 -8 -88l-145 -685h-237l28 128h-5c-65 -88 -176 -145 -308 -145zM429 173c130 0 242 82 268 198l22 101l-248 -12c-135 -5 -215 -62 -215 -152c0 -82 71 -135 173 -135z" />
    <glyph glyph-name="abrevedotbelow" unicode="&#x1eb7;" horiz-adv-x="1070" 
d="M674 1209c-258 0 -337 190 -311 319h159c-10 -95 37 -179 159 -179c103 0 177 62 194 179h162c-19 -191 -153 -319 -363 -319zM339 -17c-180 0 -324 122 -324 292c0 213 169 338 450 350l289 12l14 64c3 17 4 30 4 44c0 86 -67 140 -184 140c-120 0 -194 -55 -215 -140
h-237c35 202 215 339 470 339c245 0 408 -127 408 -311c0 -31 -4 -65 -8 -88l-145 -685h-237l28 128h-5c-65 -88 -176 -145 -308 -145zM429 173c130 0 242 82 268 198l22 101l-248 -12c-135 -5 -215 -62 -215 -152c0 -82 71 -135 173 -135zM405 -402c-75 0 -136 62 -136 138
s61 138 136 138c77 0 137 -62 137 -138s-60 -138 -137 -138z" />
    <glyph glyph-name="ainvertedbreve" unicode="&#x203;" horiz-adv-x="1070" 
d="M661 1528c258 -1 337 -190 311 -319h-159c10 95 -37 179 -159 179c-103 0 -177 -62 -194 -179h-162c19 190 153 319 363 319zM339 -17c-180 0 -324 122 -324 292c0 213 169 338 450 350l289 12l14 64c3 17 4 30 4 44c0 86 -67 140 -184 140c-120 0 -194 -55 -215 -140
h-237c35 202 215 339 470 339c245 0 408 -127 408 -311c0 -31 -4 -65 -8 -88l-145 -685h-237l28 128h-5c-65 -88 -176 -145 -308 -145zM429 173c130 0 242 82 268 198l22 101l-248 -12c-135 -5 -215 -62 -215 -152c0 -82 71 -135 173 -135z" />
    <glyph glyph-name="acaron" unicode="&#x1ce;" horiz-adv-x="1070" 
d="M580 1209l-197 310h193l109 -183h7l180 183h201l-302 -310h-191zM339 -17c-180 0 -324 122 -324 292c0 213 169 338 450 350l289 12l14 64c3 17 4 30 4 44c0 86 -67 140 -184 140c-120 0 -194 -55 -215 -140h-237c35 202 215 339 470 339c245 0 408 -127 408 -311
c0 -31 -4 -65 -8 -88l-145 -685h-237l28 128h-5c-65 -88 -176 -145 -308 -145zM429 173c130 0 242 82 268 198l22 101l-248 -12c-135 -5 -215 -62 -215 -152c0 -82 71 -135 173 -135z" />
    <glyph glyph-name="adotaccent" unicode="&#x227;" horiz-adv-x="1070" 
d="M680 1220c-76 0 -136 62 -136 137c0 77 60 138 136 138s136 -61 136 -138c0 -75 -60 -137 -136 -137zM339 -17c-180 0 -324 122 -324 292c0 213 169 338 450 350l289 12l14 64c3 17 4 30 4 44c0 86 -67 140 -184 140c-120 0 -194 -55 -215 -140h-237
c35 202 215 339 470 339c245 0 408 -127 408 -311c0 -31 -4 -65 -8 -88l-145 -685h-237l28 128h-5c-65 -88 -176 -145 -308 -145zM429 173c130 0 242 82 268 198l22 101l-248 -12c-135 -5 -215 -62 -215 -152c0 -82 71 -135 173 -135z" />
    <glyph glyph-name="adotbelow" unicode="&#x1ea1;" horiz-adv-x="1070" 
d="M339 -17c-180 0 -324 122 -324 292c0 213 169 338 450 350l289 12l14 64c3 17 4 30 4 44c0 86 -67 140 -184 140c-120 0 -194 -55 -215 -140h-237c35 202 215 339 470 339c245 0 408 -127 408 -311c0 -31 -4 -65 -8 -88l-145 -685h-237l28 128h-5
c-65 -88 -176 -145 -308 -145zM429 173c130 0 242 82 268 198l22 101l-248 -12c-135 -5 -215 -62 -215 -152c0 -82 71 -135 173 -135zM405 -402c-75 0 -136 62 -136 138s61 138 136 138c77 0 137 -62 137 -138s-60 -138 -137 -138z" />
    <glyph glyph-name="ahookabove" unicode="&#x1ea3;" horiz-adv-x="1070" 
d="M522 1455l15 132c31 14 81 26 142 26c115 0 204 -72 204 -174c0 -113 -81 -203 -211 -246l-65 100c73 25 112 68 112 115c0 40 -35 69 -90 69c-37 0 -78 -8 -107 -22zM339 -17c-180 0 -324 122 -324 292c0 213 169 338 450 350l289 12l14 64c3 17 4 30 4 44
c0 86 -67 140 -184 140c-120 0 -194 -55 -215 -140h-237c35 202 215 339 470 339c245 0 408 -127 408 -311c0 -31 -4 -65 -8 -88l-145 -685h-237l28 128h-5c-65 -88 -176 -145 -308 -145zM429 173c130 0 242 82 268 198l22 101l-248 -12c-135 -5 -215 -62 -215 -152
c0 -82 71 -135 173 -135z" />
    <glyph glyph-name="adblgrave" unicode="&#x201;" horiz-adv-x="1070" 
d="M894 1209h-159l-65 310h206zM579 1209h-165l-120 310h219zM339 -17c-180 0 -324 122 -324 292c0 213 169 338 450 350l289 12l14 64c3 17 4 30 4 44c0 86 -67 140 -184 140c-120 0 -194 -55 -215 -140h-237c35 202 215 339 470 339c245 0 408 -127 408 -311
c0 -31 -4 -65 -8 -88l-145 -685h-237l28 128h-5c-65 -88 -176 -145 -308 -145zM429 173c130 0 242 82 268 198l22 101l-248 -12c-135 -5 -215 -62 -215 -152c0 -82 71 -135 173 -135z" />
    <glyph glyph-name="amacron" unicode="&#x101;" horiz-adv-x="1070" 
d="M1004 1428l-31 -148h-620l31 148h620zM339 -17c-180 0 -324 122 -324 292c0 213 169 338 450 350l289 12l14 64c3 17 4 30 4 44c0 86 -67 140 -184 140c-120 0 -194 -55 -215 -140h-237c35 202 215 339 470 339c245 0 408 -127 408 -311c0 -31 -4 -65 -8 -88l-145 -685
h-237l28 128h-5c-65 -88 -176 -145 -308 -145zM429 173c130 0 242 82 268 198l22 101l-248 -12c-135 -5 -215 -62 -215 -152c0 -82 71 -135 173 -135z" />
    <glyph glyph-name="aogonek" unicode="&#x105;" horiz-adv-x="1070" 
d="M339 -17c-180 0 -324 122 -324 292c0 213 169 338 450 350l289 12l14 64c3 17 4 30 4 44c0 86 -67 140 -184 140c-120 0 -194 -55 -215 -140h-237c35 202 215 339 470 339c245 0 408 -127 408 -311c0 -31 -4 -65 -8 -88l-145 -685c-141 -31 -260 -116 -260 -201
c0 -54 46 -83 116 -83c22 0 46 2 69 7l-32 -152c-28 -8 -68 -13 -102 -13c-135 0 -232 80 -232 200c0 112 88 212 209 264l23 106h-5c-65 -88 -176 -145 -308 -145zM429 173c130 0 242 82 268 198l22 101l-248 -12c-135 -5 -215 -62 -215 -152c0 -82 71 -135 173 -135z" />
    <glyph glyph-name="aringbelow.mini" horiz-adv-x="1070" 
d="M339 -17c-180 0 -324 122 -324 292c0 213 169 338 450 350l289 12l14 64c3 17 4 30 4 44c0 86 -67 140 -184 140c-120 0 -194 -55 -215 -140h-237c35 202 215 339 470 339c245 0 408 -127 408 -311c0 -31 -4 -65 -8 -88l-145 -685h-237l28 128h-5
c-65 -88 -176 -145 -308 -145zM429 173c130 0 242 82 268 198l22 101l-248 -12c-135 -5 -215 -62 -215 -152c0 -82 71 -135 173 -135zM399 -494c-113 0 -207 93 -207 206c0 114 94 207 207 207c114 0 208 -93 208 -207c0 -113 -94 -206 -208 -206zM399 -384
c54 0 99 43 99 96c0 54 -45 97 -99 97c-53 0 -98 -43 -98 -97c0 -53 45 -96 98 -96z" />
    <glyph glyph-name="aogonek.mini" horiz-adv-x="1070" 
d="M747 -415c-22 -13 -73 -23 -132 -23c-128 0 -210 69 -210 168c0 107 80 195 221 272l27 126h-5c-65 -88 -174 -139 -309 -139c-184 0 -323 123 -323 286c0 210 165 338 453 350l286 12l14 64c3 15 4 25 4 44c0 83 -72 134 -189 134c-112 0 -189 -49 -210 -134h-237
c35 203 219 333 465 333s413 -124 413 -305c0 -35 -3 -66 -8 -88l-146 -687l-18 -5c-133 -44 -237 -131 -237 -203c0 -46 39 -73 98 -73c29 0 55 4 73 11zM429 179c135 0 244 78 269 192l22 101l-250 -12c-133 -5 -213 -63 -213 -152c0 -78 69 -129 172 -129z" />
    <glyph glyph-name="a.1" horiz-adv-x="1199" 
d="M981 0h-240l36 167h-8c-70 -111 -195 -184 -330 -184c-234 0 -382 174 -382 443c0 370 227 654 529 654c166 0 292 -91 329 -224h11l43 206h238zM529 188c184 0 322 187 322 427c0 151 -92 256 -232 256c-180 0 -313 -182 -313 -419c0 -161 85 -264 223 -264z" />
    <glyph glyph-name="agrave.1" horiz-adv-x="1199" 
d="M640 1210l-122 309h224l72 -309h-174zM981 0h-240l36 167h-8c-70 -111 -195 -184 -330 -184c-234 0 -382 174 -382 443c0 370 227 654 529 654c166 0 292 -91 329 -224h11l43 206h238zM529 188c184 0 322 187 322 427c0 151 -92 256 -232 256c-180 0 -313 -182 -313 -419
c0 -161 85 -264 223 -264z" />
    <glyph glyph-name="aacute.1" horiz-adv-x="1199" 
d="M818 1210h-179l201 309h236zM981 0h-240l36 167h-8c-70 -111 -195 -184 -330 -184c-234 0 -382 174 -382 443c0 370 227 654 529 654c166 0 292 -91 329 -224h11l43 206h238zM529 188c184 0 322 187 322 427c0 151 -92 256 -232 256c-180 0 -313 -182 -313 -419
c0 -161 85 -264 223 -264z" />
    <glyph glyph-name="adieresis.1" horiz-adv-x="1199" 
d="M556 1225c-73 0 -131 60 -131 132c0 74 58 133 131 133c74 0 133 -59 133 -133c0 -72 -59 -132 -133 -132zM959 1225c-73 0 -132 60 -132 132c0 74 59 133 132 133c74 0 132 -59 132 -133c0 -72 -58 -132 -132 -132zM981 0h-240l36 167h-8c-70 -111 -195 -184 -330 -184
c-234 0 -382 174 -382 443c0 370 227 654 529 654c166 0 292 -91 329 -224h11l43 206h238zM529 188c184 0 322 187 322 427c0 151 -92 256 -232 256c-180 0 -313 -182 -313 -419c0 -161 85 -264 223 -264z" />
    <glyph glyph-name="adieresismacron.1" horiz-adv-x="1199" 
d="M1151 1756l-31 -148h-620l31 148h620zM560 1216c-69 0 -123 54 -123 121s54 121 123 121c68 0 122 -54 122 -121s-54 -121 -122 -121zM946 1216c-68 0 -122 54 -122 121s54 121 122 121c69 0 123 -54 123 -121s-54 -121 -123 -121zM981 0h-240l36 167h-8
c-70 -111 -195 -184 -330 -184c-234 0 -382 174 -382 443c0 370 227 654 529 654c166 0 292 -91 329 -224h11l43 206h238zM529 188c184 0 322 187 322 427c0 151 -92 256 -232 256c-180 0 -313 -182 -313 -419c0 -161 85 -264 223 -264z" />
    <glyph glyph-name="aring.1" horiz-adv-x="1199" 
d="M759 1161c-113 0 -207 93 -207 207s94 207 207 207c114 0 208 -93 208 -207s-94 -207 -208 -207zM759 1271c54 0 99 44 99 97s-45 97 -99 97c-53 0 -98 -44 -98 -97s45 -97 98 -97zM981 0h-240l36 167h-8c-70 -111 -195 -184 -330 -184c-234 0 -382 174 -382 443
c0 370 227 654 529 654c166 0 292 -91 329 -224h11l43 206h238zM529 188c184 0 322 187 322 427c0 151 -92 256 -232 256c-180 0 -313 -182 -313 -419c0 -161 85 -264 223 -264z" />
    <glyph glyph-name="aringacute.1" horiz-adv-x="1199" 
d="M732 1673l173 208h212l-200 -208h-185zM760 1188c-114 0 -203 78 -203 198c0 123 89 210 208 210c115 0 205 -78 204 -198c-1 -123 -89 -210 -209 -210zM669 1388c0 -56 38 -92 91 -92c58 0 98 39 97 100c-1 55 -38 91 -92 91c-56 0 -96 -39 -96 -99zM981 0h-240l36 167
h-8c-70 -111 -195 -184 -330 -184c-234 0 -382 174 -382 443c0 370 227 654 529 654c166 0 292 -91 329 -224h11l43 206h238zM529 188c184 0 322 187 322 427c0 151 -92 256 -232 256c-180 0 -313 -182 -313 -419c0 -161 85 -264 223 -264z" />
    <glyph glyph-name="atilde.1" horiz-adv-x="1199" 
d="M406 1239c25 141 104 246 230 246c140 0 176 -135 246 -135c37 0 63 33 79 102h151c-24 -141 -102 -246 -230 -246c-139 0 -174 134 -245 134c-38 0 -64 -32 -79 -101h-152zM981 0h-240l36 167h-8c-70 -111 -195 -184 -330 -184c-234 0 -382 174 -382 443
c0 370 227 654 529 654c166 0 292 -91 329 -224h11l43 206h238zM529 188c184 0 322 187 322 427c0 151 -92 256 -232 256c-180 0 -313 -182 -313 -419c0 -161 85 -264 223 -264z" />
    </font>
</defs>
</svg>
